<?xml version="1.0" encoding="UTF-8" standalone="no"?>
<!-- Created with Inkscape (http://www.inkscape.org/) -->

<svg
   xmlns:i="http://ns.adobe.com/AdobeIllustrator/10.0/"
   xmlns:dc="http://purl.org/dc/elements/1.1/"
   xmlns:cc="http://creativecommons.org/ns#"
   xmlns:rdf="http://www.w3.org/1999/02/22-rdf-syntax-ns#"
   xmlns:svg="http://www.w3.org/2000/svg"
   xmlns="http://www.w3.org/2000/svg"
   xmlns:sodipodi="http://sodipodi.sourceforge.net/DTD/sodipodi-0.dtd"
   xmlns:inkscape="http://www.inkscape.org/namespaces/inkscape"
   id="svg2"
   version="1.1"
   inkscape:version="0.92.1 r15371"
   width="150"
   height="53"
   viewBox="0 0 150 53"
   sodipodi:docname="logo.svg">
  <metadata
     id="metadata8">
    <rdf:RDF>
      <cc:Work
         rdf:about="">
        <dc:format>image/svg+xml</dc:format>
        <dc:type
           rdf:resource="http://purl.org/dc/dcmitype/StillImage" />
        <dc:title />
      </cc:Work>
    </rdf:RDF>
  </metadata>
  <defs
     id="defs6" />
  <sodipodi:namedview
     pagecolor="#ffffff"
     bordercolor="#666666"
     borderopacity="1"
     objecttolerance="10"
     gridtolerance="10"
     guidetolerance="10"
     inkscape:pageopacity="0"
     inkscape:pageshadow="2"
     inkscape:window-width="1920"
     inkscape:window-height="1135"
     id="namedview4"
     showgrid="false"
     inkscape:zoom="0.57322261"
     inkscape:cx="49.091158"
     inkscape:cy="63.295959"
     inkscape:window-x="1920"
     inkscape:window-y="0"
     inkscape:window-maximized="1"
     inkscape:current-layer="svg2" />
  <g
     i:knockout="Off"
     id="g5912"
     transform="matrix(0.70734031,0,0,0.70734031,-135.7867,-42.108978)"
     style="fill:#7c7c7c;fill-opacity:0.27450982">
    <path
       inkscape:connector-curvature="0"
       i:knockout="Off"
       d="m 221.564,104.984 c 0,3.405 -1.196,6.301 -3.584,8.689 -2.389,2.388 -5.284,3.582 -8.688,3.582 h -2.527 c -1.684,0 -2.527,0.82 -2.527,2.457 v 9.832 c 0,1.376 -0.475,2.54 -1.422,3.491 -0.949,0.951 -2.11,1.425 -3.485,1.425 h -2.455 c -1.377,0 -2.538,-0.476 -3.487,-1.431 -0.949,-0.955 -1.421,-2.123 -1.421,-3.507 v -56.78 c 0,-3.402 1.201,-6.3 3.612,-8.688 2.408,-2.389 5.331,-3.583 8.761,-3.583 h 4.951 c 3.403,0 6.299,1.195 8.688,3.583 2.388,2.389 3.584,5.286 3.584,8.688 z m -12.337,-2.581 V 75.281 c 0,-1.644 -0.832,-2.467 -2.493,-2.467 -1.665,0 -2.496,0.824 -2.496,2.467 v 27.123 c 0,1.646 0.831,2.468 2.496,2.468 1.661,-0.001 2.493,-0.823 2.493,-2.469 z"
       id="path5914"
       style="fill:#7c7c7c;fill-opacity:0.27450982" />
    <path
       inkscape:connector-curvature="0"
       i:knockout="Off"
       d="m 258.057,122.188 c 0,3.405 -1.196,6.303 -3.583,8.689 -2.39,2.389 -5.285,3.583 -8.688,3.583 h -5.053 c -3.404,0 -6.3,-1.193 -8.688,-3.583 -2.389,-2.387 -3.583,-5.285 -3.583,-8.689 v -4.933 c 0,-3.403 1.193,-6.299 3.583,-8.688 2.388,-2.387 5.284,-3.583 8.688,-3.583 h 2.495 c 1.661,0 2.495,-0.826 2.495,-2.479 V 75.222 c 0,-1.653 -0.82,-2.479 -2.465,-2.479 -1.646,0 -2.466,0.825 -2.466,2.471 v 19.78 c 0,1.385 -0.479,2.557 -1.429,3.512 -0.958,0.956 -2.124,1.435 -3.504,1.435 h -2.463 c -1.381,0 -2.549,-0.477 -3.502,-1.432 -0.956,-0.953 -1.43,-2.12 -1.43,-3.503 V 72.804 c 0,-3.419 1.193,-6.33 3.583,-8.73 2.388,-2.401 5.284,-3.603 8.688,-3.603 h 5.053 c 3.404,0 6.299,1.204 8.688,3.605 2.388,2.403 3.583,5.317 3.583,8.738 v 49.374 z m -12.335,-2.525 c 0,-1.643 -0.82,-2.463 -2.465,-2.463 -1.646,0 -2.466,0.821 -2.466,2.463 0,1.646 0.82,2.468 2.466,2.468 1.644,0 2.465,-0.822 2.465,-2.468 z"
       id="path5916"
       style="fill:#7c7c7c;fill-opacity:0.27450982" />
    <path
       inkscape:connector-curvature="0"
       i:knockout="Off"
       d="m 294.549,95.005 c 0,1.383 -0.476,2.55 -1.423,3.503 -0.948,0.955 -2.11,1.432 -3.484,1.432 h -2.455 c -1.376,0 -2.537,-0.479 -3.486,-1.435 -0.949,-0.955 -1.422,-2.127 -1.422,-3.512 v -19.78 c 0,-1.646 -0.843,-2.471 -2.527,-2.471 -1.683,0 -2.527,0.823 -2.527,2.469 v 54.311 c 0,1.384 -0.475,2.552 -1.423,3.507 -0.948,0.955 -2.11,1.431 -3.483,1.431 h -2.456 c -1.376,0 -2.538,-0.476 -3.484,-1.431 -0.949,-0.953 -1.424,-2.12 -1.424,-3.502 V 72.802 c 0,-3.42 1.199,-6.33 3.6,-8.729 2.401,-2.401 5.31,-3.603 8.732,-3.603 h 4.932 c 3.421,0 6.329,1.202 8.73,3.603 2.401,2.401 3.601,5.312 3.601,8.73 v 22.202 z"
       id="path5918"
       style="fill:#7c7c7c;fill-opacity:0.27450982" />
    <path
       inkscape:connector-curvature="0"
       i:knockout="Off"
       d="m 331.043,122.188 c 0,3.405 -1.194,6.303 -3.58,8.689 -2.393,2.389 -5.289,3.583 -8.69,3.583 h -12.374 c -1.388,0 -2.559,-0.476 -3.518,-1.431 -0.956,-0.953 -1.434,-2.12 -1.434,-3.502 V 65.403 c 0,-1.379 0.478,-2.546 1.434,-3.501 0.959,-0.954 2.13,-1.431 3.518,-1.431 h 12.374 c 3.401,0 6.298,1.195 8.69,3.583 2.386,2.389 3.58,5.286 3.58,8.688 z m -12.335,-2.525 V 75.281 c 0,-1.644 -0.833,-2.467 -2.495,-2.467 -1.664,0 -2.494,0.824 -2.494,2.467 v 44.382 c 0,1.646 0.83,2.468 2.494,2.468 1.662,0 2.495,-0.822 2.495,-2.468 z"
       id="path5920"
       style="fill:#7c7c7c;fill-opacity:0.27450982" />
    <path
       inkscape:connector-curvature="0"
       i:knockout="Off"
       d="m 367.537,122.188 c 0,3.405 -1.196,6.303 -3.584,8.689 -2.388,2.389 -5.286,3.583 -8.687,3.583 h -5.054 c -3.406,0 -6.302,-1.193 -8.689,-3.583 -2.388,-2.387 -3.584,-5.285 -3.584,-8.689 v -56.78 c 0,-1.383 0.479,-2.551 1.432,-3.506 0.953,-0.955 2.12,-1.432 3.502,-1.432 h 2.467 c 1.379,0 2.548,0.477 3.499,1.431 0.955,0.956 1.432,2.122 1.432,3.501 v 54.26 c 0,1.646 0.822,2.468 2.467,2.468 1.643,0 2.466,-0.822 2.466,-2.468 v -54.26 c 0,-1.379 0.475,-2.546 1.43,-3.501 0.954,-0.954 2.122,-1.431 3.505,-1.431 h 2.464 c 1.382,0 2.55,0.477 3.505,1.432 0.954,0.955 1.431,2.123 1.431,3.506 v 56.78 z"
       id="path5922"
       style="fill:#7c7c7c;fill-opacity:0.27450982" />
    <path
       inkscape:connector-curvature="0"
       i:knockout="Off"
       d="m 404.03,122.188 c 0,3.405 -1.195,6.303 -3.583,8.689 -2.389,2.389 -5.285,3.583 -8.688,3.583 h -12.373 c -1.389,0 -2.56,-0.476 -3.517,-1.431 -0.958,-0.953 -1.435,-2.12 -1.435,-3.502 v -2.464 c 0,-1.379 0.475,-2.547 1.432,-3.501 0.953,-0.954 2.12,-1.43 3.501,-1.43 h 9.862 c 1.641,0 2.467,-0.813 2.467,-2.44 0,-1.623 -0.833,-2.436 -2.494,-2.436 h -2.495 c -3.405,0 -6.301,-1.194 -8.688,-3.582 -2.392,-2.388 -3.584,-5.284 -3.584,-8.689 V 72.743 c 0,-3.402 1.192,-6.3 3.584,-8.688 2.388,-2.389 5.283,-3.583 8.688,-3.583 h 5.052 c 3.403,0 6.3,1.195 8.688,3.583 2.388,2.389 3.583,5.286 3.583,8.688 v 22.251 c 0,1.385 -0.477,2.557 -1.43,3.512 -0.955,0.956 -2.122,1.435 -3.504,1.435 h -2.468 c -1.38,0 -2.549,-0.477 -3.504,-1.432 -0.955,-0.953 -1.429,-2.12 -1.429,-3.501 V 75.281 c 0,-1.644 -0.821,-2.467 -2.464,-2.467 -1.647,0 -2.468,0.824 -2.468,2.467 v 27.123 c 0,1.646 0.834,2.468 2.498,2.468 h 2.496 c 3.403,0 6.3,1.204 8.688,3.612 2.388,2.408 3.583,5.328 3.583,8.759 v 4.945 z"
       id="path5924"
       style="fill:#7c7c7c;fill-opacity:0.27450982" />
  </g>
</svg>
