<?xml version="1.0" encoding="utf-8"?>
<!-- Generator: Adobe Illustrator 19.1.0, SVG Export Plug-In . SVG Version: 6.00 Build 0)  -->
<svg version="1.1"
	 id="svg12341" xmlns:inkscape="http://www.inkscape.org/namespaces/inkscape" xmlns:cc="http://creativecommons.org/ns#" xmlns:sodipodi="http://sodipodi.sourceforge.net/DTD/sodipodi-0.dtd" xmlns:dc="http://purl.org/dc/elements/1.1/" xmlns:rdf="http://www.w3.org/1999/02/22-rdf-syntax-ns#" xmlns:svg="http://www.w3.org/2000/svg" inkscape:version="0.91 r13725" sodipodi:docname="lines-wallpaper_2560x1080.svg"
	 xmlns="http://www.w3.org/2000/svg" xmlns:xlink="http://www.w3.org/1999/xlink" x="0px" y="0px" viewBox="1680 1224 1600 1200"
	 style="enable-background:new 1680 1224 1600 1200;" xml:space="preserve">
<style type="text/css">
	.st0{fill:#1A1A1A;}
	.st1{fill:#D3A809;}
</style>
<rect id="rect4587_3_" x="1680" y="1224" inkscape:export-ydpi="90" inkscape:export-filename="/home/karbo/Pardus/ArtWork/1200yns1.png" inkscape:export-xdpi="90" class="st0" width="1600" height="1200">
</rect>
<g>
	<path id="path4669_4_" inkscape:connector-curvature="0" class="st1" d="M2720.4,2287c0,2.3-0.8,4.2-2.4,5.8
		c-1.7,1.6-3.5,2.4-5.8,2.4h-1.7c-1.2,0-1.7,0.6-1.7,1.7v6.6c0,0.9-0.3,1.7-0.9,2.3c-0.6,0.6-1.4,0.9-2.3,0.9h-1.7
		c-0.9,0-1.7-0.3-2.3-0.9c-0.6-0.6-0.9-1.4-0.9-2.3v-38c0-2.3,0.8-4.2,2.4-5.8c1.7-1.7,3.5-2.4,5.9-2.4h3.4c2.3,0,4.2,0.8,5.8,2.4
		c1.6,1.7,2.4,3.5,2.4,5.8L2720.4,2287L2720.4,2287L2720.4,2287z M2712.2,2285.2V2267c0-1.1-0.6-1.7-1.7-1.7c-1.2,0-1.7,0.6-1.7,1.7
		v18.2c0,1.2,0.6,1.7,1.7,1.7C2711.6,2286.8,2712.2,2286.3,2712.2,2285.2z"/>
	<path id="path4671_4_" inkscape:connector-curvature="0" class="st1" d="M2744.8,2298.5c0,2.3-0.8,4.2-2.4,5.8
		c-1.7,1.7-3.5,2.4-5.8,2.4h-3.4c-2.3,0-4.2-0.8-5.8-2.4c-1.7-1.6-2.4-3.5-2.4-5.8v-3.3c0-2.3,0.8-4.2,2.4-5.8
		c1.6-1.6,3.5-2.4,5.8-2.4h1.7c1.2,0,1.7-0.6,1.7-1.7V2267c0-1.2-0.6-1.7-1.7-1.7c-1.2,0-1.7,0.6-1.7,1.7v13.2
		c0,0.9-0.4,1.7-0.9,2.3c-0.6,0.6-1.4,1-2.3,1h-1.7c-0.9,0-1.7-0.3-2.3-0.9c-0.6-0.6-0.9-1.4-0.9-2.3v-14.9c0-2.3,0.8-4.3,2.4-5.8
		c1.6-1.7,3.5-2.4,5.8-2.4h3.4c2.3,0,4.2,0.8,5.8,2.4c1.6,1.7,2.4,3.5,2.4,5.8L2744.8,2298.5L2744.8,2298.5z M2736.6,2296.8
		c0-1.1-0.6-1.7-1.7-1.7c-1.2,0-1.7,0.6-1.7,1.7c0,1.2,0.6,1.7,1.7,1.7C2736,2298.4,2736.6,2297.8,2736.6,2296.8z"/>
	<path id="path4673_4_" inkscape:connector-curvature="0" class="st1" d="M2769.3,2280.3c0,0.9-0.3,1.7-0.9,2.3s-1.4,0.9-2.3,0.9
		h-1.7c-0.9,0-1.7-0.4-2.3-1s-0.9-1.4-0.9-2.3V2267c0-1.2-0.6-1.7-1.7-1.7s-1.7,0.6-1.7,1.7v36.4c0,0.9-0.3,1.7-0.9,2.3
		s-1.4,0.9-2.3,0.9h-1.7c-0.9,0-1.7-0.3-2.3-0.9c-0.6-0.6-0.9-1.4-0.9-2.3v-38c0-2.3,0.8-4.3,2.4-5.8c1.7-1.7,3.5-2.4,5.8-2.4h3.3
		c2.3,0,4.3,0.8,5.8,2.4s2.4,3.5,2.4,5.8L2769.3,2280.3L2769.3,2280.3z"/>
	<path id="path4675_4_" inkscape:connector-curvature="0" class="st1" d="M2793.7,2298.5c0,2.3-0.8,4.2-2.4,5.8s-3.5,2.4-5.8,2.4
		h-8.3c-0.9,0-1.7-0.3-2.3-0.9s-1-1.4-1-2.3v-42.9c0-0.9,0.4-1.7,1-2.3c0.6-0.6,1.4-0.9,2.3-0.9h8.3c2.3,0,4.2,0.8,5.8,2.4
		c1.6,1.7,2.4,3.5,2.4,5.8V2298.5z M2785.5,2296.8v-29.7c0-1.1-0.6-1.7-1.7-1.7s-1.7,0.6-1.7,1.7v29.7c0,1.2,0.6,1.7,1.7,1.7
		C2784.9,2298.4,2785.5,2297.8,2785.5,2296.8z"/>
	<path id="path4677_4_" inkscape:connector-curvature="0" class="st1" d="M2818.2,2298.5c0,2.3-0.8,4.2-2.4,5.8
		c-1.6,1.7-3.5,2.4-5.8,2.4h-3.4c-2.3,0-4.2-0.8-5.8-2.4c-1.6-1.6-2.4-3.5-2.4-5.8v-38c0-0.9,0.4-1.7,0.9-2.3
		c0.6-0.6,1.4-0.9,2.3-0.9h1.7c0.9,0,1.7,0.3,2.3,0.9c0.6,0.6,0.9,1.4,0.9,2.3v36.3c0,1.2,0.6,1.7,1.7,1.7s1.7-0.6,1.7-1.7v-36.3
		c0-0.9,0.3-1.7,0.9-2.3c0.6-0.6,1.4-0.9,2.3-0.9h1.7c0.9,0,1.7,0.3,2.3,0.9c0.6,0.6,0.9,1.4,0.9,2.3L2818.2,2298.5L2818.2,2298.5z"
		/>
	<path id="path4679_4_" inkscape:connector-curvature="0" class="st1" d="M2842.6,2298.5c0,2.3-0.8,4.2-2.4,5.8
		c-1.7,1.7-3.5,2.4-5.8,2.4h-8.3c-0.9,0-1.7-0.3-2.3-0.9s-1-1.4-1-2.3v-1.7c0-0.9,0.3-1.7,0.9-2.3c0.6-0.6,1.4-0.9,2.3-0.9h6.6
		c1.1,0,1.7-0.6,1.7-1.7c0-1.1-0.6-1.7-1.7-1.7h-1.7c-2.3,0-4.2-0.8-5.8-2.4c-1.7-1.6-2.4-3.5-2.4-5.8v-21.6c0-2.3,0.8-4.2,2.4-5.8
		c1.6-1.7,3.5-2.4,5.8-2.4h3.4c2.3,0,4.2,0.8,5.8,2.4c1.6,1.7,2.4,3.5,2.4,5.8v14.9c0,0.9-0.4,1.7-0.9,2.3c-0.6,0.6-1.4,1-2.3,1
		h-1.7c-0.9,0-1.7-0.3-2.3-0.9c-0.6-0.6-0.9-1.4-0.9-2.3v-13.2c0-1.1-0.6-1.7-1.7-1.7c-1.2,0-1.7,0.6-1.7,1.7v18.2
		c0,1.2,0.6,1.7,1.7,1.7h1.7c2.3,0,4.2,0.8,5.8,2.4c1.7,1.7,2.4,3.5,2.4,5.9L2842.6,2298.5L2842.6,2298.5z"/>
</g>
<path id="path4591_4_" inkscape:connector-curvature="0" class="st1" d="M2928.4,2096.6c0,0,33.4,15.4,49.7,21
	c16.3,5.5,90.5,21,111.6,40.2c20.1,18.2,33.2,52.2,44.1,67c10.9,14.9,19.5,24.2,19.5,24.2s-14-12-23.8-25.3
	c-9.8-13.3-25.7-48-45.5-63.3c-19.8-15.3-80.5-31.2-106.2-39.2c-25.7-8-51.6-19.2-51.6-19.2L2928.4,2096.6"/>
<path id="path4593_4_" inkscape:connector-curvature="0" class="st1" d="M3102.5,2175.4c0,0,15.9,15.2,29.4,24.2
	s47.8,26.4,66.7,38.7c19,12.4,41.4,35.7,41.4,35.7s-24.2-20.7-43.5-32.3c-19.3-11.6-56.8-33.1-67.9-40.3
	c-11.1-7.3-19.1-14.4-19.1-14.4L3102.5,2175.4"/>
<path id="path4595_4_" inkscape:connector-curvature="0" class="st1" d="M2956.1,2201.4c0,0-17.3,9.4-28,23
	c-10.7,13.6-17.6,34.6-16.7,49.5c0.9,14.5,20.7,53.6,20.7,53.6s-14.9-40.4-15.8-53.9c-0.9-13.5,6.5-32.9,15.4-44.7
	C2940.6,2216.9,2956.1,2201.4,2956.1,2201.4"/>
<path id="path4597_4_" inkscape:connector-curvature="0" class="st1" d="M2837.3,2201.2c0,0,35,18.9,48.7,31
	c13.7,12,19.3,27.8,19.3,27.8s-12.6-15.4-25.2-26.5C2867.4,2222.4,2837.3,2201.2,2837.3,2201.2"/>
<path class="st1" d="M2732.1,2189.7c-6.3,1.8-8.7,4.1-8.7,4.1l-2.6-3.2c0,0-2.8-2.8-5.2-7.3c-2.4-4.3-4.6-11.3-6.5-11.2
	c-2,0-4.7,6.3-3.9,14.9c0.8,8.6,4.3,14.4,4.3,14.4s-1.5,1.5-1.4,3.3c0.1,1.8,1.3,2.8,1.3,2.8s-0.7,1.1-0.9,3l3.2,2.9
	c-0.1-0.1-0.1-0.4-0.1-0.5c-0.6-2.9,5.1-9,8.5-11.9C2723.5,2197.9,2734.5,2189,2732.1,2189.7z M2712.2,2200.2
	c-2.2-1-4.4-6.5-5.2-12.5c-0.9-6,0.7-12.9,1.7-13.3c1-0.4,3.2,6.3,6.1,11.4c3.4,5.8,6.9,9.7,6.9,9.7
	C2720.2,2198.9,2714.4,2201.4,2712.2,2200.2z"/>
<path class="st1" d="M2878.8,2316.5L2878.8,2316.5c-4.7-13.1-4.7-38.7-7-45.1c-2.3-6.4-23.1-32.7-43.6-52
	c-20.5-19.4-37.6-31.7-41.9-32.7c-6.5-1.5-24.9,0.8-28.3,4.5c-2.7,2.9-7.5,20.2-11.4,22.6c-5.2,3.2-17.1,3.2-21.3,1.8
	c-3.2-1.1-4-2.7-4-2.7s-2.8-3-5.2-2.1c-5.5,1.8-6.3,1.3-6.3,1.3c2.9,1.9,9.3,2.9,9.3,2.9s1.7,2.6,5.6,3.7c4.3,1.2,18.8,1.8,24.5-2
	c5.1-3.4,7.5-20.1,10.7-22.8c3.3-2.7,16.4-4.5,23.4-2.3c6.9,2.1,25.4,14.4,43.3,31.1c18.1,16.9,38,43.1,41.2,51.9
	c3.2,8.8,0.4,29.4,6.3,44.5c5.9,15.1,33.7,40.5,33.7,40.5S2883.6,2329.7,2878.8,2316.5z"/>
<path class="st1" d="M2714.8,2107.5c2.6-0.1,5-6.5,5-6.5s4.3-8.5,3.6-11.5c-0.2-1.2-4-0.4-5.8-0.4c-7.7-0.4-16.1-3.9-22.1-6.7
	c-6-2.8-20.5-11.5-22.2-16.6c-1.6-4.3,1.2-11.7,4.3-14.9c3.1-3.2,9.3-5.7,14.7-6.9c5.5-1.3,9.2-1.8,10.1-2.7
	c0.8-0.9,0.6-3.5-0.6-3.7c-1.3-0.1-4.6,2.9-8.3,4.3c-3.7,1.4-8.1,2.6-9.4,2.2c-1.7-0.4-2-4-4.7-4.3c-1.7-0.2-0.9,3.4-1.5,6.4
	c-0.6,3-2.3,5-2.3,5s0.4-4.3-0.4-6.9c-0.9-2.6-2.9-4.6-2.3-6c0.6-1.4,6.9-3.8,10-2.2c2.9,1.4,3,5.9,3,5.9s1.4-4-0.4-6.6
	c-1.8-2.6-6.9-1.9-6.9-1.9s2.7-2.1,6.6-2.5c5.9-0.6,13.7,2.8,13.7,2.8s11.7-3.3,18.5-0.2c6.8,3,11.6,11.1,11.6,11.1
	s-4-10.5-11.6-13.5c-7.7-3-19.6-0.4-19.6-0.4s-7.9-2.1-13.8-1.3c-5.9,0.9-12.4,5.9-13.6,8.2c-1.2,2.3,3.5,9.9,3.4,14.4
	c-0.1,2.4-4,7.1-3.4,12.1c0.2,1.8,1.8,3.8,1.8,3.8s-1.2,1.4-1.3,3.2c-0.1,1.8,0.6,3.3,0.6,3.3s-1.3,3.2-1.3,6.8c0,3.4,1.5,7.4,3,7.7
	s5.2-4.6,5.2-4.6s-2.1,7.3-2.3,15.5c-0.1,7.8,1.8,16.9,4.7,16.9c2.9,0,3.8-8,6.8-14.4c3-6.5,8-13.1,8-13.1s2.1,7.6,5.5,7.5
	c2.4-0.1,5.4-4,5.4-4S2710.4,2107.6,2714.8,2107.5z M2708.5,2091.2c0.6-1.2,4.1-0.1,6.4-0.1c2.3,0.1,5.3,0.1,5.2,3.2
	c-0.1,1.9-3.4,11.3-5.5,11.3C2712.6,2105.7,2707.7,2093,2708.5,2091.2z M2673.6,2086.7L2673.6,2086.7c-0.9-0.1-1.8-3.2-1.8-5.6
	c0.1-2.8,1.5-6.5,2.6-6.8c1.8-0.4,5,2,5.2,3.9C2679.8,2080.3,2674.5,2086.8,2673.6,2086.7z M2686.6,2100.2
	c-3.4,6.8-4.6,14.6-5.8,14.2c-1.2-0.4-3.1-7.7-2.8-16c0.3-7.8,3.5-17.8,5.1-18.4c2.9-1.2,10.8,3.8,10.8,6.8
	C2693.9,2088.9,2690.1,2093.1,2686.6,2100.2z M2701.1,2094.8c-1.8-0.4-4.5-7.3-3.4-8.3c1.2-1.2,7.9,1.6,8.1,3
	C2705.9,2091,2703,2095.2,2701.1,2094.8z"/>
<path class="st1" d="M2735.8,2177.5c0,0-3-3.9-4.9-3.4c-3.1,1-2.4,11.9-2.4,11.9s-2.9-2-4.6-1.5c-2.3,0.6-2.1,6.3-2.1,6.3s0,0-0.1,0
	v6.4c0.6-0.6,1.2-1.2,1.6-1.6c3.5-3.2,8.5-7.5,13.7-9.5c1.2-0.4,4-0.7,3.9-1.6C2740.7,2182.4,2735.8,2177.5,2735.8,2177.5z
	 M2723.9,2192.4c-1-0.5-0.7-5.8,0.5-6.4c1.2-0.7,4.2,1.5,4.4,2.6C2728.9,2189.6,2724.9,2193,2723.9,2192.4z M2734.7,2185.4
	c-1.6,0.6-3.7,2.1-4.4,1.4c-1-1.1-0.4-10.9,1-11.2c1.4-0.5,5.8,5.2,6.3,6.5C2738.3,2184.1,2736.3,2184.8,2734.7,2185.4z"/>
<path id="path4601_4_" inkscape:connector-curvature="0" class="st1" d="M2873.5,2159.8c0,0,6.6,14.4,6.3,20.1
	c-0.4,5.7-7.3,12.7-9.4,17.2c-2.3,4.5-2.5,10.8-0.9,11.6c2.1,1.2,9.6-3.6,9.6-3.6s-6.2,1.6-7.5,0.5c-1.3-1.2-0.2-6.1,1.7-8.7
	c1.9-2.6,9-11.1,9.2-16.6C2882.6,2174.8,2873.5,2159.8,2873.5,2159.8"/>
<path id="path4603_4_" inkscape:connector-curvature="0" class="st1" d="M2757.1,2174.8c0,0-8.3,13.8-12.7,17.8
	c-4.4,4-19.1,10.8-19.1,10.8s15-3.1,20.8-8.4C2751.2,2190.2,2757.1,2174.8,2757.1,2174.8"/>
<path id="path4605_4_" inkscape:connector-curvature="0" class="st1" d="M2762.6,2163.3c0,0-2.5-14.3-5.7-25.1
	c-3.2-10.8-9.7-24.8-13.2-30.3c-3.5-5.5-6.3-9.5-4.8-10.2c1.5-0.6,6,4.7,8.6,9.2c2.8,5,9.2,20.3,11.7,30.4
	C2761.6,2147.1,2762.6,2163.3,2762.6,2163.3"/>
<path id="path4609_4_" inkscape:connector-curvature="0" class="st1" d="M2747.9,2051.7c-6.3,0.3-10.3,5-10.7,6.5
	c-0.4,1.2,0.8,11.5,4.7,18.3c4.2,7.2,12.8,15.1,15.9,22.7c3.2,7.5,4.8,18.9,5.6,26.9c0.8,8.1,0.6,14,0.6,14s-1.3,2.1-0.8,4.6
	c0.6,2.9,6.3,10.9,11,15.2c4.7,4.3,12.5,7.7,12.5,7.7s-7-4.9-11.2-9.8c-4.2-5-9.2-14.6-9.6-17.3c-0.5-2.6-1.2-13.3-2-21.2
	c-0.8-7.3-2.4-20-3.6-22.9c-1.2-2.9-14.2-16.8-17.5-22.4c-3.5-6-4.5-14.1-4.5-14.1s1.4-0.1,2.3-1.1c0.9-1,1.9-3.1,3.3-4.6
	C2745.7,2052.8,2747.9,2051.7,2747.9,2051.7"/>
<path id="path4611_4_" inkscape:connector-curvature="0" class="st1" d="M2789.2,2047.5c0,0,4,7.1,2.5,11.3
	c-1.3,3.6-8.7,5.2-9.8,4.8c-1-0.4-2.6-2.6-2-3.4c0.9-1.2,7.7-0.3,9.2-3.1C2790.6,2054.3,2789.2,2047.5,2789.2,2047.5"/>
<path id="path4613_4_" inkscape:connector-curvature="0" class="st1" d="M2727.5,2061c0,0-1.8-7.6-5-12c-3.1-4.4-12.4-6.7-12.7-7.5
	s2.3-2.1,3.8-2c1.5,0.1,8,3.5,10.7,7.9C2727.2,2052.2,2727.5,2061,2727.5,2061"/>
<path id="path4659_4_" inkscape:connector-curvature="0" class="st1" d="M2718.2,2032.3c0,0,6,0.9,10.2,0.4c4.1-0.6,13.9-4.4,20.4-5
	c6.5-0.5,11.4-0.1,11.4-0.1s4.6-2.9,12.2-2.6c7.6,0.1,17.2,2.8,20.8,3.2c3.7,0.4,11.5,0.8,20.3,3.6c9.8,3.2,23.6,11.5,31.8,16.6
	c8.2,5.1,9.3,5.5,17,8.7c7.7,3.3,17.8,7.9,24.1,11.9c4.6,2.9,9.6,8,9.6,8l-10.4-2.8c0,0-5.1-5.6-14.1-9.9c-9-4.3-15.8-6.8-20.7-9.6
	c-4.9-2.8-14.3-9.2-22.6-13.6c-8.3-4.3-15.8-6.6-20.6-7.6c-4.7-1-8.8-1.2-8.8-1.2s2.7,2.3,2,3c-0.7,0.9-16.8-8.8-29-8
	c-10.4,0.8-14.8,8.9-16.7,8.6c-1.9-0.3-0.4-5.6-0.4-5.6s-3.9-0.9-9.1-0.3c-5.1,0.6-13.8,3.8-17.5,4.3c-3.7,0.4-6.4,0.6-6.4,0.6
	L2718.2,2032.3"/>
<path class="st1" d="M2877.1,2074.6c-7.4,0.3-13.1,1.1-14.1,0.5c-1.7-1-1.8-4.7-3.6-8.1c-1.8-3.2-4-5.4-5.7-5.9
	c-1.8-0.6-4.8,0.9-4.7,1.5c0,0.6,4.5,1.8,7.3,5.1c2.9,3.4,4.3,7.7,6.1,8.6c1.3,0.7,7.6,0.4,14.8,0.5V2074.6L2877.1,2074.6z"/>
<path class="st1" d="M2837.5,2108.8c0,0,1.1,1.2,2.9,2.7v-2.7c-4-3.1-6.9-6.3-6.9-6.3s3.5,8.8,4.3,15c0.8,6.3-1,18-5,23.5
	c-3.9,5.6-28.6,11.1-28.6,11.1s1.5,7.5,4.4,11.6c2.9,4.1,8.7,7.4,8.7,7.4s-4.1-4.3-6.9-8.6c-2.7-4-4.1-9.2-4.1-9.2
	s23.5-3.5,28.8-9.4c3.9-4.4,5.2-18.5,5.1-23.8C2839.9,2114.9,2837.5,2108.8,2837.5,2108.8z"/>
<path class="st1" d="M2734.4,2103.5c-0.6-13.9-10.9-13.9-10.9-13.9s-2.4,7.3-1.5,13c1.2,7.3,10.7,16.8,9.9,12.2
	S2734.4,2103.5,2734.4,2103.5z M2729.9,2112.4c0,0.4-0.3,0.3-0.4,0.1c-2.2-2.3-5.2-6.5-5.8-10.2c-0.5-3,0.6-7.5,0.9-9.6
	c1.1-0.6,4.2-1.8,7.6,10.9C2731.5,2105.4,2730.1,2109,2729.9,2112.4z"/>
<path class="st1" d="M2741.1,2168.5c-1.4-2.9-3.5,3.2-3.8,7.8c-0.3,3.6,1.5,8.1,1.5,8.1s6.4-0.5,6.2-9.2
	C2745,2175.2,2742.4,2171.2,2741.1,2168.5z M2743.5,2176c-1.4,7.4-3.2,6.3-3.9,5.9c-0.2-1.2-1.1-3.6-0.9-5.4
	c0.2-2.1,0.4-4.6,1.3-6.2c0.1-0.1,0.3,0.3,0.5,0.6C2741.7,2173.5,2743.1,2175.1,2743.5,2176z"/>
<path class="st1" d="M2746.4,2042.5c0,0,7.5,0,11.1-4.3s9.8-11.3,17.6-8.8c7.8,2.5,12.1,9.3,12.1,9.3s-3,0.7-3.5,0.6
	c-0.5-0.1-9.3-14-21.5-4.6C2758.9,2037.2,2757.5,2041.8,2746.4,2042.5z"/>
<path class="st1" d="M2771.7,2035.1c0,0,2.9-0.5,5.4,0.9c2.4,1.3,4.2,3.1,5.4,3.2c-1-0.1-1.2,0.3-2.7-0.8
	C2776.2,2035.9,2773,2035,2771.7,2035.1z"/>
<path class="st1" d="M2765.4,2050.2c-4.1,0-8.8-2.2-13.9-6.6l0.5-0.6c5,4,9.4,6,13.1,6c0.7,0,1.4-0.1,2-0.2
	c4.7-1.1,8.5-5.3,9.9-10.9l0.1-0.4l0.4,0.2c0.6,0.3,0.9,0.6,0.9,0.7l0.1,0.1l0,0.2C2778.3,2038.8,2774.8,2050.2,2765.4,2050.2z"/>
<path class="st1" d="M2753.5,2136.9c-3.3-7.7-11.3-19.4-19.1-40.3c-0.5-1.2,0.3-3.2,3.8-2.3c-2-2.9-5-5.7-9.2-6.4
	c-8.7-1.5-13.3,2.7-22-1.1c-2-0.9-3.2-2.3-5.8-4.2c2.7,3.1,5.8,7.7,15.4,7.7c15.8,0.1,14.9,5.5,17.1,13.4
	c2.1,9.3,19.1,39.2,23.5,51.7c-2.6,10.8-9.8,16.8-20.5,28c-2.4,2.5-3.4,4.5-11.9,10.7c-9.4,12.8-15.6,10.9-17.1,13.7
	c-1.3,2.4,4,5.6,6.6,5.6c-3.7-4.5,40.2-34.7,45-45.7C2761.5,2162.3,2761.1,2154.7,2753.5,2136.9z"/>
<path class="st1" d="M2751.9,2140.3c0,0-14.2,1.8-23.8,22.3c-4.6,9.8-8,24.5-7.4,29.3c0.5,3.6,2.1,1.1,2.1,1.1s-2.5-6.2,7.1-29.1
	c7.4-17.6,20.6-20.2,23.6-20.4C2752.5,2140.7,2751.9,2140.3,2751.9,2140.3z"/>
<path class="st1" d="M2738.6,2036.1c0,0,6.4,7.3,17.3,1.5"/>
<path class="st1" d="M2908.8,2097.3c-7.5,1.1-15.2,3.9-22,8.2c-0.4,0.3-3.4,2.7-5.6,3.5c-5.6,2.2-7.9,2.1-7.9,2.1s4.1,0.6,8.3-0.8
	c2-0.6,5.4-3.4,5.8-3.7c0.9-0.6,5.2-0.8,4.1-1.5c-0.5-1.6,7.7-4.5,12.3-5.1c13-1.7,16.4-8.6,16.4-8.6
	C2917.6,2093.8,2913,2096.7,2908.8,2097.3z"/>
<path class="st1" d="M2855.1,2094.6c0,0-0.9,0.1-1.2,0.7c-0.1,0.3-0.4,0.3-0.5,0.7c-0.3,0.5-0.5,1-0.4,1.4c0,0.5,0.5,0.6,0.7,0.8
	c0.1,0,0.1,0.1,0.2,0.1l0,0l0,0c0,0,0,0,0,0l0,0h0l0.1,0c0.1,0,0.1,0,0.2,0c0.2,0,3.6,0.6,5.8,4c2.3,2.9,1.5,9.8,1.5,9.8
	s-0.1-0.4-0.3-1c-0.1-0.3-0.2-0.7-0.3-1.2c-0.1-0.4-0.2-0.9-0.4-1.4s-0.3-1.1-0.5-1.6c-0.2-0.6-0.4-1.1-0.6-1.7
	c-0.2-0.5-0.5-1-0.8-1.4c-0.3-0.4-0.6-0.8-1.1-1.1s-0.9-0.6-1.5-0.9c-0.6-0.3-1.2-0.5-1.9-0.8c-0.4-0.2-0.7-0.3-1.1-0.6
	c-0.1-0.1-0.2-0.1-0.3-0.2l-0.1-0.1l0,0l0,0c0,0-0.1,0,0,0l0,0l0,0c-0.2-0.1-0.3-0.3-0.5-0.5c-0.3-0.4-0.5-0.8-0.5-1.3
	c0-0.4,0-1.3,1-2.7c0.3-0.4,0.6-0.6,0.9-0.9C2854.1,2094.3,2855.1,2094.6,2855.1,2094.6z"/>
<path class="st1" d="M2930.8,2079.8c-0.9-0.8-2.1-1.2-3.6-1.4c-3.1-0.3-7,0.7-9.7,1.7c-0.3,0.1-1.2,0.2-3.3,0
	c-3.7-0.4-9.3-1.5-14.1-2.8c-5.8-1.6-11.3-2.7-16.7-3.2c-12.7-1.2-19.8,1-20.1,1.1l0.1,1.4c0,0,0.2,0,0.6,0c1.2,0.1,4.6,0.4,9.2,0.2
	c3.2-0.1,6.5,0,10,0.3c5.1,0.5,10.5,1.5,16,3c3.1,0.8,7.4,1.8,11.2,2.4c-6.5,2.2-20.2,6.6-25.9,7.5c-1.7,0.2-4,0.6-6.3,1.1
	c-4.9,0.9-11.5,3.3-17.3,2.5c-9-1.2-9,3.9-9,3.9c0.8,1,0.4-0.5,1.8-1.8c1.2-1.1,4.2-1,6.8-0.6c5.1,1,12.6-0.1,18.2-1.2h0.1
	c2.4-0.4,4.5-0.8,6.1-1.1c8.2-1.2,30-8.8,30.3-8.9c0.5-0.2,1.6-0.7,3-1.2h0.1l0.7-0.2l0,0c2.1-0.7,5.3-1.5,7.7-1.3
	c0.9,0.1,1.5,0.3,1.9,0.6c0.9,0.8,0.7,2.6,0.3,3.9c-0.6,2-0.9,3.9-1.2,5.6c-0.5,2.7-1.2,7.7-5,11.7c-2.8,3-7,6.2-9.4,6.8
	c-5.1,1.4-9.6,2.2-15.5,2.4c-0.5,1.1-3.7,4.4-7.9,6.6c-4.2,2.3-9.3,3.6-12.9,3.8c-2.5,0.1-9.1,1.2-16.8-1.3
	c-7.6-2.4-16.3-8.2-24-16.7c-0.7-0.7-2.9-2-1.3,0.8c1.2,1.5,3.2,3.7,3.2,3.7s13.5,15.4,30.4,16.4c12,0.7,17.1-1.8,20.3-3
	c5.1-1.9,8.2-4.8,9.9-6.7c1.3-1.4,0.5-1.1,2.1-1.2c0.3,0.1,7.1-0.4,13-2.2c5.8-1.8,9.2-5,9.4-5.3c2.3-2.1,3.5-4.2,4.4-6.1
	c1.3-2.4,2.2-5,2.7-7.7c0.5-2.2,0.8-4.5,1.5-7C2932.9,2083.6,2932.5,2081.3,2930.8,2079.8z"/>
<g>
	<path class="st1" d="M2692.1,2063.2c0,0,0.2,0,0.6,0c0.4,0,0.9-0.1,1.5-0.1s1.5,0,2.3,0c0.9,0,1.9,0.2,3,0.4
		c1.1,0.2,2.3,0.6,3.5,1.1c1.2,0.5,2.4,1.2,3.6,1.8s2.5,1.2,4,1.5c1.4,0.3,2.9,0.2,4.3-0.1c1.4-0.4,2.8-0.9,4.1-1.5
		c1.3-0.6,2.6-1.3,4-1.8c1.4-0.5,2.8-0.6,4.1-0.5c1.3,0.1,2.5,0.5,3.5,0.9c1.1,0.5,1.9,1,2.7,1.6c0.7,0.6,1.3,1.1,1.8,1.6
		c0.5,0.5,0.8,0.9,1,1.2c0.2,0.3,0.3,0.4,0.3,0.4s-0.5-0.6-1.4-1.5c-0.5-0.5-1.1-1-1.8-1.5c-0.7-0.5-1.7-1-2.7-1.4
		c-1-0.4-2.2-0.7-3.5-0.7c-1.2-0.1-2.6,0.1-3.9,0.6c-1.3,0.4-2.5,1.2-3.9,1.8s-2.7,1.2-4.2,1.6c-1.5,0.4-3.1,0.5-4.6,0.1
		c-1.5-0.3-2.8-1-4.1-1.6c-1.2-0.6-2.4-1.3-3.5-1.9c-1.2-0.6-2.3-0.9-3.4-1.2c-2.2-0.6-4-0.7-5.3-0.7
		C2692.9,2063.1,2692.1,2063.2,2692.1,2063.2z"/>
</g>
<g>
	<path class="st1" d="M2691.7,2065.5c0,0,0.2,0,0.6,0.1c0.4,0,0.9,0.1,1.7,0.3c0.7,0.1,1.6,0.3,2.5,0.6c1,0.3,2.1,0.6,3.2,1.1
		c1.2,0.5,2.4,1.1,3.5,2c1.1,0.9,2.3,1.7,3.6,2.5c1.3,0.7,2.8,1.2,4.4,1.3c1.6,0.1,3.2-0.1,4.7-0.6c0.7-0.2,1.5-0.6,2.3-0.9
		s1.5-0.6,2.3-0.9c1.5-0.5,3.1-0.9,4.6-1.2c1.6-0.2,3.1-0.2,4.5,0c0.4,0,0.7,0.1,1.1,0.2c0.3,0.1,0.6,0.2,1,0.2
		c0.6,0.1,1.2,0.4,1.8,0.6c0.3,0.1,0.6,0.2,0.8,0.4c0.3,0.1,0.6,0.2,0.8,0.4c0.5,0.2,1,0.5,1.4,0.7c0.5,0.2,0.8,0.5,1.2,0.7
		c0.4,0.2,0.7,0.5,1,0.6c0.6,0.4,1,0.8,1.3,1s0.5,0.4,0.5,0.4s-0.7-0.5-1.8-1.2c-0.3-0.2-0.6-0.4-1-0.6c-0.4-0.2-0.8-0.5-1.2-0.7
		c-0.5-0.2-0.9-0.5-1.4-0.7c-0.5-0.2-1.1-0.5-1.6-0.6c-0.6-0.2-1.2-0.4-1.8-0.5c-0.3-0.1-0.6-0.1-1-0.2c-0.3,0-0.7-0.1-1-0.1
		c-1.4-0.1-2.9-0.1-4.3,0.1s-3,0.6-4.5,1.2c-0.7,0.3-1.5,0.6-2.3,0.9s-1.5,0.6-2.3,0.9c-1.6,0.5-3.3,0.7-5,0.6
		c-1.7-0.1-3.2-0.7-4.6-1.5c-1.4-0.7-2.6-1.7-3.6-2.6c-1-0.9-2.2-1.5-3.3-2c-1.1-0.5-2.2-0.9-3.1-1.2c-1-0.3-1.8-0.5-2.5-0.7
		C2692.5,2065.6,2691.7,2065.5,2691.7,2065.5z"/>
</g>
<g>
	<path class="st1" d="M2693.8,2068.8c0,0,0.6,0.2,1.6,0.7c0.5,0.3,1.1,0.6,1.7,1c0.6,0.4,1.4,0.9,2.2,1.5c0.8,0.6,1.6,1.2,2.4,1.9
		c0.4,0.4,0.8,0.7,1.3,1.1c0.5,0.4,0.9,0.7,1.4,1c1.9,1.3,4.4,2.1,6.8,2.2c1.2,0,2.5-0.1,3.6-0.5c0.3-0.1,0.6-0.2,0.9-0.3
		c0.3-0.1,0.6-0.2,0.8-0.3c0.6-0.2,1.1-0.5,1.7-0.7c2.2-1,4.3-1.7,6.1-2.3c0.9-0.2,1.8-0.4,2.6-0.5c0.4,0,0.7,0,1.1-0.1
		c0.3,0,0.6,0,0.9,0c0.6,0,1,0,1.3,0.1c0.3,0,0.5,0,0.5,0s-0.1,0-0.5,0c-0.3,0-0.7,0-1.3,0c-0.3,0-0.6,0-0.9,0.1
		c-0.3,0-0.7,0.1-1.1,0.1c-0.7,0.1-1.6,0.3-2.5,0.6c-1.8,0.6-3.9,1.4-6,2.4c-0.6,0.2-1.1,0.5-1.7,0.8c-0.3,0.1-0.6,0.2-0.9,0.4
		c-0.3,0.1-0.6,0.2-0.9,0.3c-1.2,0.4-2.5,0.6-3.8,0.5c-2.6,0-5.2-1-7.1-2.3c-0.5-0.3-1-0.7-1.4-1.1c-0.4-0.4-0.8-0.8-1.2-1.2
		c-0.8-0.7-1.6-1.4-2.3-2c-1.5-1.2-2.8-2.1-3.7-2.7C2694.4,2069,2693.8,2068.8,2693.8,2068.8z"/>
</g>
<g>
	<path class="st1" d="M2701.1,2078.5c0,0,0.5,0.4,1.3,1s2.1,1.5,3.6,2.3c0.8,0.4,1.6,0.9,2.6,1.2c1,0.4,2,0.6,3,0.7
		c0.6,0,1.1,0.1,1.7,0.1c0.6,0,1.2,0,1.7,0c1.2,0,2.3-0.1,3.5-0.3c1.2-0.1,2.3-0.4,3.5-0.6c0.6-0.1,1.2-0.2,1.7-0.3
		c0.3,0,0.6-0.1,0.9-0.1c0.3,0,0.6,0,0.9-0.1l0.4,0c0.1,0,0.3,0,0.4,0c0.3,0,0.6,0,0.8,0c0.3,0,0.6,0,0.8,0.1c0.3,0,0.6,0,0.8,0.1
		c0.3,0,0.5,0.1,0.7,0.2c0.1,0,0.2,0,0.4,0.1c0.1,0,0.2,0.1,0.4,0.1c0.5,0.2,0.9,0.4,1.3,0.6c0.4,0.2,0.8,0.5,1.2,0.6s0.6,0.5,1,0.6
		c0.3,0.2,0.6,0.4,0.8,0.6c0.3,0.2,0.5,0.4,0.7,0.6c0.8,0.7,1.2,1.1,1.2,1.1s-0.5-0.4-1.3-1c-0.2-0.1-0.4-0.3-0.7-0.5
		c-0.3-0.2-0.6-0.4-0.9-0.6c-0.3-0.2-0.6-0.4-1-0.6c-0.4-0.2-0.7-0.4-1.2-0.6c-0.4-0.2-0.8-0.3-1.3-0.5c-0.1,0-0.2-0.1-0.3-0.1
		c-0.1,0-0.2,0-0.4-0.1c-0.2,0-0.5-0.1-0.7-0.2c-0.2-0.1-0.5,0-0.7-0.1c-0.3,0-0.5,0-0.8,0c-0.5,0-1.1,0-1.6,0.1
		c-0.3,0-0.6,0.1-0.8,0.1c-0.3,0-0.6,0.1-0.8,0.2c-0.6,0.1-1.2,0.2-1.7,0.4c-1.2,0.2-2.3,0.5-3.5,0.6c-1.2,0.2-2.4,0.2-3.6,0.3
		c-0.6,0-1.2,0-1.8,0c-0.6,0-1.2-0.1-1.7-0.1c-1.2-0.1-2.3-0.4-3.2-0.8c-1-0.4-1.8-0.9-2.6-1.4c-1.5-1-2.7-1.9-3.5-2.6
		C2701.5,2078.9,2701.1,2078.5,2701.1,2078.5z"/>
</g>
<g>
	<path class="st1" d="M2741.4,2085.6c0,0-0.1-0.5-0.5-1.2c-0.2-0.4-0.4-0.8-0.7-1.3c-0.3-0.5-0.7-1.1-1.2-1.6
		c-0.5-0.6-1-1.1-1.6-1.7c-0.1-0.1-0.3-0.3-0.5-0.4c-0.2-0.1-0.3-0.3-0.5-0.4l-0.3-0.2c0,0-0.2-0.1-0.3-0.2
		c-0.2-0.1-0.4-0.2-0.6-0.3c-0.8-0.4-1.7-0.6-2.6-0.7c-0.9-0.1-1.9-0.1-2.8,0s-1.9,0.2-2.8,0.6c-0.9,0.3-1.7,0.7-2.5,1.2
		c-1.6,0.9-3.3,1.4-4.7,1.7c-0.7,0.2-1.4,0.3-2,0.4s-1.1,0.1-1.5,0.1c-0.4,0-0.7,0-1,0c-0.2,0-0.4,0-0.4,0s0.5-0.1,1.3-0.2
		c0.8-0.1,2-0.4,3.4-0.7c0.7-0.2,1.4-0.5,2.2-0.8s1.5-0.7,2.3-1.2s1.6-1,2.5-1.3s1.9-0.5,2.9-0.6c1-0.1,2,0,2.9,0.1
		c1,0.1,1.9,0.4,2.8,0.8c0.2,0.1,0.5,0.2,0.6,0.4c0.1,0.1,0.2,0.1,0.3,0.2l0.3,0.2c0.2,0.1,0.3,0.3,0.5,0.4c0.1,0.1,0.3,0.3,0.5,0.5
		c0.6,0.6,1.1,1.2,1.6,1.8c0.5,0.6,0.8,1.2,1.1,1.7s0.5,1,0.6,1.4c0.1,0.4,0.2,0.7,0.3,1C2741.4,2085.5,2741.4,2085.6,2741.4,2085.6
		z"/>
</g>
</svg>
