<?xml version="1.0" encoding="UTF-8" standalone="no"?>
<!-- Created with Inkscape (http://www.inkscape.org/) -->

<svg
   xmlns:i="http://ns.adobe.com/AdobeIllustrator/10.0/"
   xmlns:dc="http://purl.org/dc/elements/1.1/"
   xmlns:cc="http://creativecommons.org/ns#"
   xmlns:rdf="http://www.w3.org/1999/02/22-rdf-syntax-ns#"
   xmlns:svg="http://www.w3.org/2000/svg"
   xmlns="http://www.w3.org/2000/svg"
   xmlns:sodipodi="http://sodipodi.sourceforge.net/DTD/sodipodi-0.dtd"
   xmlns:inkscape="http://www.inkscape.org/namespaces/inkscape"
   width="1920"
   height="1200"
   viewBox="0 0 1920.0001 1200.0001"
   id="svg5177"
   version="1.1"
   inkscape:version="0.91 r13725"
   sodipodi:docname="lines-wallpaper_1920x1200.svg">
  <defs
     id="defs5179" />
  <sodipodi:namedview
     id="base"
     pagecolor="#ffffff"
     bordercolor="#666666"
     borderopacity="1.0"
     inkscape:pageopacity="0.0"
     inkscape:pageshadow="2"
     inkscape:zoom="0.24748737"
     inkscape:cx="2465.5224"
     inkscape:cy="758.88911"
     inkscape:document-units="px"
     inkscape:current-layer="layer1"
     showgrid="false"
     units="px"
     inkscape:window-width="1920"
     inkscape:window-height="1171"
     inkscape:window-x="1920"
     inkscape:window-y="0"
     inkscape:window-maximized="1" />
  <metadata
     id="metadata5182">
    <rdf:RDF>
      <cc:Work
         rdf:about="">
        <dc:format>image/svg+xml</dc:format>
        <dc:type
           rdf:resource="http://purl.org/dc/dcmitype/StillImage" />
        <dc:title></dc:title>
      </cc:Work>
    </rdf:RDF>
  </metadata>
  <g
     inkscape:label="Layer 1"
     inkscape:groupmode="layer"
     id="layer1"
     transform="translate(0,147.63824)">
    <g
       id="g4825"
       inkscape:export-filename="/home/karbo/Pardus/ArtWork/1200yns2.png"
       inkscape:export-xdpi="90"
       inkscape:export-ydpi="90"
       transform="translate(-12977.774,1013.8278)">
      <rect
         inkscape:export-ydpi="90"
         inkscape:export-xdpi="90"
         inkscape:export-filename="/home/karbo/Pardus/ArtWork/1200yns1.png"
         y="-1161.4659"
         x="12977.774"
         height="1200"
         width="1920"
         id="rect4587"
         style="fill:#1a1a1a;fill-opacity:1" />
      <g
         transform="matrix(2.7869224,0,0,2.7869224,6003.7808,-75.6068)"
         id="g4589"
         style="fill:#d4aa00;stroke:#aa8800;stroke-width:0.71763748;stroke-miterlimit:4;stroke-dasharray:none">
        <path
           inkscape:connector-curvature="0"
           id="path4591"
           style="fill:#d4aa00;fill-opacity:1;fill-rule:nonzero;stroke:#aa8800;stroke-width:0.71763748;stroke-miterlimit:4;stroke-dasharray:none"
           d="m 3033.6916,-131.04914 c 0,0 16.8875,7.76625 25.0951,10.58 8.2074,2.8125 45.6612,10.5875 56.3187,20.2625 10.1325,9.19875 16.7525,26.335 22.2537,33.83625 5.5025,7.50125 9.8226,12.23875 9.8226,12.23875 0,0 -7.0813,-6.0625 -12.0301,-12.765 -4.9487,-6.7 -12.9387,-24.24 -22.9687,-31.95125 -10.0275,-7.71 -40.645,-15.7575 -53.61,-19.7675 -12.965,-4.00875 -26.04,-9.6825 -26.04,-9.6825 l 1.1587,-2.75125" />
        <path
           inkscape:connector-curvature="0"
           id="path4593"
           style="fill:#d4aa00;fill-opacity:1;fill-rule:nonzero;stroke:#aa8800;stroke-width:0.71763748;stroke-miterlimit:4;stroke-dasharray:none"
           d="m 3121.5367,-91.26039 c 0,0 8.0212,7.6725 14.8362,12.24625 6.765,4.54125 24.1025,13.32125 33.7025,19.55375 9.5987,6.2325 20.8975,18.04125 20.8975,18.04125 0,0 -12.2112,-10.41 -21.9563,-16.3 -9.7425,-5.88875 -28.6674,-16.70375 -34.2549,-20.35375 -5.5851,-3.65125 -9.6625,-7.2325 -9.6625,-7.2325 l -3.5625,-5.955" />
        <path
           inkscape:connector-curvature="0"
           id="path4595"
           style="fill:#d4aa00;fill-opacity:1;fill-rule:nonzero;stroke:#aa8800;stroke-width:0.71763748;stroke-miterlimit:4;stroke-dasharray:none"
           d="m 3047.6516,-78.11539 c 0,0 -8.7212,4.74375 -14.1262,11.6125 -5.4075,6.87 -8.9013,17.46375 -8.4163,24.9575 0.4738,7.325 10.4463,27.07625 10.4463,27.07625 0,0 -7.5075,-20.4125 -7.95,-27.23875 -0.4413,-6.82625 3.2737,-16.5975 7.7337,-22.57125 4.4625,-5.97375 12.3125,-13.83625 12.3125,-13.83625" />
        <path
           inkscape:connector-curvature="0"
           id="path4597"
           style="fill:#d4aa00;fill-opacity:1;fill-rule:nonzero;stroke:#aa8800;stroke-width:0.71763748;stroke-miterlimit:4;stroke-dasharray:none"
           d="m 2987.6229,-78.24414 c 0,0 17.6712,9.5575 24.585,15.62875 6.915,6.07625 9.7725,14.08125 9.7725,14.08125 0,0 -6.355,-7.78 -12.7375,-13.38625 -6.38,-5.605 -21.62,-16.32375 -21.62,-16.32375" />
        <path
           inkscape:connector-curvature="0"
           id="path4599"
           style="fill:#d4aa00;fill-opacity:1;fill-rule:nonzero;stroke:#aa8800;stroke-width:0.71763748;stroke-miterlimit:4;stroke-dasharray:none"
           d="m 3019.4479,-12.75789 c -2.6775,-6.51375 -3.18,-19.4375 -4.4737,-22.615 -1.2913,-3.1775 -12.3226,-16.005 -23.04,-25.34375 -10.7213,-9.3375 -19.6213,-15.225 -21.8288,-15.64 -3.3,-0.6225 -12.565,0.8975 -14.195,2.84375 -1.2887,1.53625 -3.3438,10.32875 -5.2663,11.625 -2.5699,1.7325 -8.5662,1.97625 -10.6962,1.36125 -1.6513,-0.47875 -2.4537,-1.76375 -2.4537,-1.76375 0,0 -3.1475,0.45625 -4.1388,-0.65125 -0.99,-1.10625 -1.3088,-3.4275 1.0563,-6.92375 2.3649,-3.495 7.1599,-9.49125 9.0549,-13.7925 1.895,-4.305 3.6901,-11.4425 3.2088,-15.00625 -0.4813,-3.56375 -4.1012,-14.28 -6.3963,-18.72875 -2.2937,-4.45 -10.5312,-15.4525 -13.0637,-17.12875 -2.4512,-1.62 -8.0863,-2.23375 -11.1025,-3.6275 -3.0162,-1.3925 -10.3225,-5.81 -11.2425,-8.38375 -0.7725,-2.16375 0.6187,-5.9325 2.1875,-7.54125 1.5675,-1.605 4.705,-2.85375 7.4225,-3.48875 2.7725,-0.64875 4.665,-0.8875 5.0938,-1.375 0.3962,-0.4525 0.3037,-1.775 -0.3288,-1.86 -0.6613,-0.0875 -2.3288,1.48875 -4.2063,2.195 -1.875,0.7075 -4.0525,1.3075 -4.7762,1.10375 -0.82,-0.23125 -1.0088,-2.025 -2.3988,-2.185 -0.845,-0.0987 -0.4337,1.70125 -0.7525,3.225 -0.3187,1.52625 -1.1337,2.49875 -1.1337,2.49875 0,0 0.1937,-2.18625 -0.2263,-3.4975 -0.42,-1.31 -1.4412,-2.34375 -1.16,-3.05875 0.2875,-0.73 3.5138,-1.9 5.0688,-1.12375 1.4338,0.7175 1.5325,2.995 1.5325,2.995 0,0 0.7025,-2.0525 -0.2163,-3.33125 -0.9187,-1.2775 -3.5325,-0.9825 -3.5325,-0.9825 0,0 1.3513,-1.07625 3.3463,-1.26125 2.9913,-0.2775 6.9012,1.3925 6.9012,1.3925 0,0 5.9138,-1.6375 9.3563,-0.10375 3.4438,1.53125 5.855,5.63875 5.855,5.63875 0,0 -2.0325,-5.295 -5.8462,-6.81125 -3.92,-1.55625 -9.8775,-0.195 -9.8775,-0.195 0,0 -3.9713,-1.08125 -6.9538,-0.665 -2.9825,0.41625 -6.2725,2.97 -6.8663,4.1225 -0.5937,1.15375 1.745,5.015 1.6951,7.24625 -0.028,1.22875 -1.9976,3.585 -1.7213,6.13 0.098,0.88625 0.9075,1.94875 0.9075,1.94875 0,0 -0.6225,0.71 -0.6763,1.605 -0.055,0.89375 0.3288,1.65 0.3288,1.65 0,0 -0.67,1.6075 -0.6687,3.4425 0,1.7275 0.745,3.7425 1.5362,3.91375 0.7912,0.17125 2.6375,-2.29 2.6375,-2.29 0,0 -1.085,3.69875 -1.165,7.8225 -0.079,3.9625 0.9412,8.5225 2.3925,8.54 1.45,0.0175 1.9113,-4.025 3.4325,-7.245 1.5375,-3.2625 4.03,-6.61375 4.03,-6.61375 0,0 1.0825,3.83 2.7512,3.77875 1.2275,-0.0387 2.7125,-2.015 2.7125,-2.015 0,0 1.9863,7.45125 4.2688,7.41375 1.34,-0.02 2.5187,-3.28375 2.5187,-3.28375 0,0 9.4113,10.20375 11.2013,13.765 1.7925,3.56125 3.2838,16.28375 3.2838,16.28375 0,0 -3.1638,2.76875 -5.1076,5.45875 -1.9437,2.6875 -6.0574,18.3375 -6.0574,18.3375 0,0 -1.9213,-0.49125 -4.1625,-1.8 -2.1588,-1.26 -4.9088,-3.70125 -5.7476,-3.1875 -0.8475,0.52 -0.4137,3.93 2.1538,7.44 2.5688,3.51375 5.5725,5.15625 5.5725,5.15625 0,0 -0.2675,1.02 0.2263,1.76875 0.4949,0.74875 1.5087,0.905 1.5087,0.905 0,0 -0.1413,1.42125 0.7112,2.40625 1.145,1.31875 4.8375,1.525 4.8375,1.525 0,0 0.9175,1.28 2.9013,1.765 2.1612,0.5275 9.5087,0.55375 12.3275,-1.52375 2.4662,-1.81625 3.3462,-10.305 4.9238,-11.7425 1.58,-1.44 8.1924,-2.5925 11.7649,-1.655 3.5713,0.93875 13.1438,6.72875 22.5263,14.81625 9.4737,8.165 20.0825,20.935 21.8713,25.33375 1.7887,4.39875 0.7937,14.8275 4.1187,22.305 3.3262,7.47375 17.8312,19.74375 17.8312,19.74375 0,0 -12.895,-14.54625 -15.5762,-21.06125 z m -114.495,-123.29 c -0.4725,-0.0625 -0.93,-1.63125 -0.8863,-2.84875 0.049,-1.40875 0.7688,-3.29375 1.3263,-3.41375 0.9237,-0.20125 2.5012,1.01 2.6112,1.98625 0.1151,1.02375 -2.5775,4.34 -3.0512,4.27625 z m 6.585,6.84125 c -1.7075,3.42875 -2.29,7.36625 -2.9113,7.17125 -0.6212,-0.1925 -1.5662,-3.92875 -1.4137,-8.065 0.1475,-3.94 1.7675,-8.96625 2.585,-9.3075 1.4612,-0.61125 5.4675,1.895 5.47,3.39625 0,1.07875 -1.9463,3.22 -3.73,6.805 z m 7.3237,-2.725 c -0.9487,-0.17375 -2.2525,-3.6525 -1.7262,-4.20125 0.5725,-0.59875 3.9875,0.77375 4.0838,1.51625 0.095,0.745 -1.4088,2.85875 -2.3576,2.685 z m 6.8688,5.46125 c -1.03,0.02 -3.5062,-6.3825 -3.0975,-7.3 0.2763,-0.61625 2.265,-0.40125 3.245,0.165 1.0237,0.59 1.9175,2.105 1.9725,2.96625 0.064,0.98125 -1.09,4.14875 -2.12,4.16875 z m 12.0862,36.06375 c 2.2438,-3.70875 5.3713,-6.115 5.3713,-6.115 0,0 -0.1712,4.60625 -1.675,8.1725 -1.5038,3.56625 -4.7338,7.24375 -6.08,9.63 -1.33,2.35375 -1.82,4.4775 -1.82,4.4775 0,0 -0.8487,-0.41375 -0.8625,-1.02375 -0.026,-1.12375 2.8225,-11.43375 5.0662,-15.14125 z m -7.3512,21.85375 c -1.2113,0.12375 -3.5875,-1.6625 -5.5125,-4.0525 -1.9375,-2.405 -3.0488,-5.80125 -2.6988,-6.19875 0.35,-0.39875 3.04,1.92375 5.6075,3.33875 2.9663,1.63625 5.5,2.41125 5.5,2.41125 0.1638,1.81625 -1.685,4.37625 -2.8962,4.50125" />
        <path
           inkscape:connector-curvature="0"
           id="path4601"
           style="fill:#d4aa00;fill-opacity:1;fill-rule:nonzero;stroke:#aa8800;stroke-width:0.71763748;stroke-miterlimit:4;stroke-dasharray:none"
           d="m 2952.3692,-96.54789 c 0,0 3.33,7.23875 3.1399,10.11375 -0.1912,2.8725 -3.6512,6.41125 -4.7849,8.6675 -1.1351,2.2575 -1.2488,5.4575 -0.4476,5.9025 1.0938,0.60625 4.8525,-1.82125 4.8525,-1.82125 0,0 -3.11,0.805 -3.75,0.2425 -0.6374,-0.56125 -0.1225,-3.07875 0.8451,-4.4225 0.9662,-1.34125 4.5287,-5.6375 4.6537,-8.35625 0.125,-2.72 -4.5087,-10.32625 -4.5087,-10.32625" />
        <path
           inkscape:connector-curvature="0"
           id="path4603"
           style="fill:#d4aa00;fill-opacity:1;fill-rule:nonzero;stroke:#aa8800;stroke-width:0.71763748;stroke-miterlimit:4;stroke-dasharray:none"
           d="m 2948.1141,-98.30789 c 0,0 0.3738,8.11 -0.3412,11.01625 -0.715,2.90875 -5.0075,9.89 -5.0075,9.89 0,0 5.4425,-5.475 6.3975,-9.37625 0.8262,-3.395 -1.0488,-11.53 -1.0488,-11.53" />
        <path
           inkscape:connector-curvature="0"
           id="path4605"
           style="fill:#d4aa00;fill-opacity:1;fill-rule:nonzero;stroke:#aa8800;stroke-width:0.71763748;stroke-miterlimit:4;stroke-dasharray:none"
           d="m 2946.2279,-105.33914 c 0,0 -2.185,-7.01375 -4.48,-12.21 -2.295,-5.1975 -6.4862,-11.77875 -8.6062,-14.2775 -2.1201,-2.4975 -3.8201,-4.34625 -3.0951,-4.77 0.7263,-0.42375 3.3488,1.94875 4.9313,4.04875 1.73,2.29875 5.965,9.55375 7.8637,14.475 1.8075,4.67875 3.3863,12.73375 3.3863,12.73375" />
        <path
           inkscape:connector-curvature="0"
           id="path4607"
           style="fill:#d4aa00;fill-opacity:1;fill-rule:nonzero;stroke:#aa8800;stroke-width:0.71763748;stroke-miterlimit:4;stroke-dasharray:none"
           d="m 2947.6979,-100.08664 c 0,0 -1.6688,-3.6575 -0.8487,-3.7875 0.8199,-0.1275 0.8487,3.7875 0.8487,3.7875" />
        <path
           inkscape:connector-curvature="0"
           id="path4609"
           style="fill:#d4aa00;fill-opacity:1;fill-rule:nonzero;stroke:#aa8800;stroke-width:0.71763748;stroke-miterlimit:4;stroke-dasharray:none"
           d="m 2941.1217,-154.31414 c -3.1663,0.15 -5.1888,2.51 -5.3826,3.26625 -0.1637,0.625 0.3976,5.80625 2.4026,9.24375 2.12,3.63 6.4462,7.65625 8.0487,11.4675 1.6025,3.81125 2.4263,9.55625 2.8387,13.59625 0.4113,4.03875 0.3063,7.06 0.3063,7.06 0,0 -0.64,1.09125 -0.3825,2.2875 0.3187,1.485 3.1675,5.48625 5.5663,7.66375 2.4012,2.17875 6.3325,3.91125 6.3325,3.91125 0,0 -3.5551,-2.45875 -5.6738,-4.95625 -2.1212,-2.5 -4.6163,-7.40625 -4.8537,-8.745 -0.2363,-1.34 -0.5863,-6.74 -0.9938,-10.705 -0.3775,-3.67 -1.2225,-10.08625 -1.845,-11.55125 -0.6225,-1.46625 -7.1812,-8.49625 -8.8113,-11.28875 -1.7812,-3.05125 -2.2787,-7.12125 -2.2787,-7.12125 0,0 0.7275,-0.0512 1.1712,-0.5275 0.4676,-0.5025 0.9538,-1.59375 1.6588,-2.29 0.77,-0.76375 1.8963,-1.31125 1.8963,-1.31125" />
        <path
           inkscape:connector-curvature="0"
           id="path4611"
           style="fill:#d4aa00;fill-opacity:1;fill-rule:nonzero;stroke:#aa8800;stroke-width:0.71763748;stroke-miterlimit:4;stroke-dasharray:none"
           d="m 2963.3729,-155.81039 c 0,0 2.0175,3.60375 1.2625,5.715 -0.6538,1.82875 -4.4013,2.625 -4.915,2.435 -0.5138,-0.18875 -1.2988,-1.3425 -1.0025,-1.71875 0.4638,-0.58625 3.8912,-0.14 4.635,-1.58125 0.7425,-1.44125 0.02,-4.85 0.02,-4.85" />
        <path
           inkscape:connector-curvature="0"
           id="path4613"
           style="fill:#d4aa00;fill-opacity:1;fill-rule:nonzero;stroke:#aa8800;stroke-width:0.71763748;stroke-miterlimit:4;stroke-dasharray:none"
           d="m 2932.2141,-148.99914 c 0,0 -0.9175,-3.8425 -2.5112,-6.08 -1.5938,-2.2375 -6.2925,-3.3825 -6.4338,-3.81875 -0.14,-0.4375 1.1563,-1.0775 1.885,-1.01375 0.7538,0.0662 4.0175,1.7425 5.3863,3.9975 1.4975,2.46625 1.6737,6.915 1.6737,6.915" />
        <path
           inkscape:connector-curvature="0"
           id="path4615"
           style="fill:#d4aa00;fill-opacity:1;fill-rule:nonzero;stroke:#aa8800;stroke-width:0.71763748;stroke-miterlimit:4;stroke-dasharray:none"
           d="m 2938.5454,-159.66414 c 0,0 2.4575,-0.7725 3.9625,0.0775 1.5038,0.85 2.6775,2.61375 2.6775,2.61375 0,0 2.715,-1.95875 5.0262,-1.5525 1.1826,0.20875 1.5038,0.85 1.5038,0.85 0,0 2.26,-0.0563 3.61,0.65875 1.4988,0.795 2.11,2.4825 2.11,2.4825 0,0 -2.2638,-1.415 -5.1125,-1.50875 -2.8475,-0.0925 -5.3275,1.74375 -6.5038,1.9825 -1.21,0.24625 -3.8575,-0.195 -3.9225,-1.195 -0.051,-0.7775 1.6626,-0.99875 1.6626,-0.99875 0,0 -0.5551,-1.6925 -2,-2.49125 -1.4451,-0.79875 -3.0138,-0.91875 -3.0138,-0.91875" />
        <path
           inkscape:connector-curvature="0"
           id="path4617"
           style="fill:#d4aa00;fill-opacity:1;fill-rule:nonzero;stroke:#aa8800;stroke-width:0.71763748;stroke-miterlimit:4;stroke-dasharray:none"
           d="m 2945.6154,-158.05914 c 0,0 1.2075,-2.03 2.8912,-2.695 1.6838,-0.6675 4.125,0.01 4.2788,0.66875 0.155,0.66 -1.895,0.0112 -3.7038,0.46375 -1.81,0.45125 -3.4662,1.5625 -3.4662,1.5625" />
        <path
           inkscape:connector-curvature="0"
           id="path4619"
           style="fill:#d4aa00;fill-opacity:1;fill-rule:nonzero;stroke:#aa8800;stroke-width:0.71763748;stroke-miterlimit:4;stroke-dasharray:none"
           d="m 2917.8492,-155.67789 c 0.024,0.35375 -0.2451,0.6575 -0.5976,0.68 -0.3512,0.0225 -0.6562,-0.24375 -0.6787,-0.59625 -0.023,-0.3525 0.245,-0.6575 0.5962,-0.68 0.3525,-0.0225 0.6576,0.245 0.6801,0.59625" />
        <path
           inkscape:connector-curvature="0"
           id="path4621"
           style="fill:#d4aa00;fill-opacity:1;fill-rule:nonzero;stroke:#aa8800;stroke-width:0.71763748;stroke-miterlimit:4;stroke-dasharray:none"
           d="m 2912.9441,-153.10289 c 0.02,0.3075 -0.2125,0.57125 -0.52,0.59125 -0.3049,0.02 -0.5687,-0.2125 -0.59,-0.52 -0.019,-0.305 0.2125,-0.57 0.5188,-0.59 0.3075,-0.0187 0.5712,0.21375 0.5912,0.51875" />
        <path
           inkscape:connector-curvature="0"
           id="path4623"
           style="fill:#d4aa00;fill-opacity:1;fill-rule:nonzero;stroke:#aa8800;stroke-width:0.71763748;stroke-miterlimit:4;stroke-dasharray:none"
           d="m 2910.0054,-150.29289 c 0.02,0.30625 -0.2125,0.57125 -0.52,0.59125 -0.3062,0.02 -0.57,-0.2125 -0.59,-0.51875 -0.02,-0.3075 0.2125,-0.57125 0.5187,-0.59125 0.3076,-0.02 0.5713,0.2125 0.5913,0.51875" />
        <path
           inkscape:connector-curvature="0"
           id="path4625"
           style="fill:#d4aa00;fill-opacity:1;fill-rule:nonzero;stroke:#aa8800;stroke-width:0.71763748;stroke-miterlimit:4;stroke-dasharray:none"
           d="m 2928.4754,-151.65539 c 0.02,0.30625 -0.2125,0.57125 -0.5188,0.59125 -0.3062,0.02 -0.5712,-0.2125 -0.5912,-0.52 -0.02,-0.3075 0.2125,-0.57125 0.5187,-0.59125 0.3075,-0.02 0.5713,0.2125 0.5913,0.52" />
        <path
           inkscape:connector-curvature="0"
           id="path4627"
           style="fill:#d4aa00;fill-opacity:1;fill-rule:nonzero;stroke:#aa8800;stroke-width:0.71763748;stroke-miterlimit:4;stroke-dasharray:none"
           d="m 2927.2904,-143.27539 c 0.019,0.30625 -0.2125,0.57125 -0.5188,0.59125 -0.3075,0.02 -0.5724,-0.2125 -0.5912,-0.52 -0.02,-0.30625 0.2125,-0.57 0.5188,-0.59 0.3074,-0.02 0.5712,0.2125 0.5912,0.51875" />
        <path
           inkscape:connector-curvature="0"
           id="path4629"
           style="fill:#d4aa00;fill-opacity:1;fill-rule:nonzero;stroke:#aa8800;stroke-width:0.71763748;stroke-miterlimit:4;stroke-dasharray:none"
           d="m 2924.7754,-154.56539 c 0.023,0.3525 -0.2437,0.6575 -0.5962,0.68 -0.3538,0.0225 -0.6563,-0.245 -0.6788,-0.5975 -0.024,-0.35125 0.2438,-0.65625 0.5963,-0.67875 0.3525,-0.0225 0.6562,0.245 0.6787,0.59625" />
        <path
           inkscape:connector-curvature="0"
           id="path4631"
           style="fill:#d4aa00;fill-opacity:1;fill-rule:nonzero;stroke:#aa8800;stroke-width:0.71763748;stroke-miterlimit:4;stroke-dasharray:none"
           d="m 2915.8791,-152.54039 c 0.023,0.35375 -0.2437,0.65625 -0.5974,0.68 -0.3525,0.0225 -0.6563,-0.24375 -0.6801,-0.5975 -0.022,-0.3525 0.2463,-0.6575 0.5976,-0.68 0.3524,-0.0225 0.6574,0.245 0.6799,0.5975" />
        <path
           inkscape:connector-curvature="0"
           id="path4633"
           style="fill:#d4aa00;fill-opacity:1;fill-rule:nonzero;stroke:#aa8800;stroke-width:0.71763748;stroke-miterlimit:4;stroke-dasharray:none"
           d="m 2913.4641,-149.37414 c 0.024,0.3525 -0.2437,0.65625 -0.5962,0.68 -0.3525,0.0225 -0.6563,-0.245 -0.68,-0.5975 -0.023,-0.3525 0.245,-0.65625 0.5975,-0.67875 0.3513,-0.0225 0.6562,0.24375 0.6787,0.59625" />
        <path
           inkscape:connector-curvature="0"
           id="path4635"
           style="fill:#d4aa00;fill-opacity:1;fill-rule:nonzero;stroke:#aa8800;stroke-width:0.71763748;stroke-miterlimit:4;stroke-dasharray:none"
           d="m 2911.3841,-146.23039 c 0.023,0.3525 -0.2462,0.6575 -0.5987,0.68 -0.3512,0.0225 -0.6563,-0.245 -0.6788,-0.59625 -0.024,-0.35375 0.245,-0.6575 0.5963,-0.68 0.3525,-0.0225 0.6575,0.24375 0.6812,0.59625" />
        <path
           inkscape:connector-curvature="0"
           id="path4637"
           style="fill:#d4aa00;fill-opacity:1;fill-rule:nonzero;stroke:#aa8800;stroke-width:0.71763748;stroke-miterlimit:4;stroke-dasharray:none"
           d="m 2924.0279,-142.45039 c 0.023,0.35125 -0.245,0.6575 -0.5962,0.68 -0.3525,0.0225 -0.6576,-0.245 -0.6801,-0.5975 -0.023,-0.3525 0.2451,-0.65625 0.5963,-0.67875 0.3525,-0.0238 0.6575,0.24375 0.68,0.59625" />
        <path
           inkscape:connector-curvature="0"
           id="path4639"
           style="fill:#d4aa00;fill-opacity:1;fill-rule:nonzero;stroke:#aa8800;stroke-width:0.71763748;stroke-miterlimit:4;stroke-dasharray:none"
           d="m 2927.9179,-147.35664 c 0.023,0.35375 -0.2438,0.65625 -0.5963,0.67875 -0.3537,0.0237 -0.6562,-0.2425 -0.6799,-0.59625 -0.023,-0.35125 0.2437,-0.6575 0.5974,-0.68 0.3513,-0.0225 0.6563,0.245 0.6788,0.5975" />
        <path
           inkscape:connector-curvature="0"
           id="path4641"
           style="fill:#d4aa00;fill-opacity:1;fill-rule:nonzero;stroke:#aa8800;stroke-width:0.71763748;stroke-miterlimit:4;stroke-dasharray:none"
           d="m 2925.5204,-151.24164 c 0.023,0.3525 -0.2438,0.6575 -0.5963,0.68 -0.3537,0.0225 -0.6562,-0.24375 -0.6787,-0.5975 -0.024,-0.3525 0.2437,-0.65625 0.5962,-0.68 0.3525,-0.0225 0.6563,0.245 0.6788,0.5975" />
        <path
           inkscape:connector-curvature="0"
           id="path4643"
           style="fill:#d4aa00;fill-opacity:1;fill-rule:nonzero;stroke:#aa8800;stroke-width:0.71763748;stroke-miterlimit:4;stroke-dasharray:none"
           d="m 2921.6929,-155.25664 c 0.026,0.39875 -0.2763,0.7425 -0.675,0.7675 -0.3975,0.0263 -0.7413,-0.27625 -0.7675,-0.675 -0.025,-0.3975 0.2762,-0.74125 0.675,-0.7675 0.3988,-0.025 0.7425,0.27625 0.7675,0.675" />
        <path
           inkscape:connector-curvature="0"
           id="path4645"
           style="fill:#d4aa00;fill-opacity:1;fill-rule:nonzero;stroke:#aa8800;stroke-width:0.71763748;stroke-miterlimit:4;stroke-dasharray:none"
           d="m 2919.0754,-151.79914 c 0.026,0.39875 -0.2763,0.7425 -0.675,0.7675 -0.3975,0.0263 -0.7437,-0.27625 -0.7688,-0.675 -0.026,-0.3975 0.2776,-0.74125 0.6763,-0.7675 0.3975,-0.025 0.7412,0.27625 0.7675,0.675" />
        <path
           inkscape:connector-curvature="0"
           id="path4647"
           style="fill:#d4aa00;fill-opacity:1;fill-rule:nonzero;stroke:#aa8800;stroke-width:0.71763748;stroke-miterlimit:4;stroke-dasharray:none"
           d="m 2922.3116,-151.31164 c 0.026,0.39875 -0.2762,0.7425 -0.6737,0.7675 -0.3988,0.0263 -0.7438,-0.27625 -0.77,-0.67375 -0.025,-0.4 0.2775,-0.74375 0.6762,-0.77 0.3975,-0.025 0.7426,0.27625 0.7675,0.67625" />
        <path
           inkscape:connector-curvature="0"
           id="path4649"
           style="fill:#d4aa00;fill-opacity:1;fill-rule:nonzero;stroke:#aa8800;stroke-width:0.71763748;stroke-miterlimit:4;stroke-dasharray:none"
           d="m 2924.4191,-147.15789 c 0.026,0.4 -0.2762,0.7425 -0.6737,0.76875 -0.3987,0.025 -0.7425,-0.27625 -0.7675,-0.67625 -0.026,-0.3975 0.275,-0.74125 0.6737,-0.7675 0.3988,-0.025 0.7425,0.2775 0.7675,0.675" />
        <path
           inkscape:connector-curvature="0"
           id="path4651"
           style="fill:#d4aa00;fill-opacity:1;fill-rule:nonzero;stroke:#aa8800;stroke-width:0.71763748;stroke-miterlimit:4;stroke-dasharray:none"
           d="m 2920.7341,-147.25289 c 0.026,0.3975 -0.275,0.7425 -0.6737,0.76875 -0.3975,0.025 -0.7425,-0.2775 -0.7675,-0.67625 -0.026,-0.39875 0.2762,-0.7425 0.6737,-0.7675 0.3988,-0.0263 0.7425,0.27625 0.7675,0.675" />
        <path
           inkscape:connector-curvature="0"
           id="path4653"
           style="fill:#d4aa00;fill-opacity:1;fill-rule:nonzero;stroke:#aa8800;stroke-width:0.71763748;stroke-miterlimit:4;stroke-dasharray:none"
           d="m 2916.9492,-148.06789 c 0.025,0.39875 -0.2763,0.74375 -0.6751,0.77 -0.3975,0.025 -0.7424,-0.27625 -0.7687,-0.67625 -0.026,-0.39875 0.2763,-0.7425 0.675,-0.7675 0.3988,-0.0263 0.7425,0.275 0.7688,0.67375" />
        <path
           inkscape:connector-curvature="0"
           id="path4655"
           style="fill:#d4aa00;fill-opacity:1;fill-rule:nonzero;stroke:#aa8800;stroke-width:0.71763748;stroke-miterlimit:4;stroke-dasharray:none"
           d="m 2915.2341,-144.44414 c 0.025,0.3975 -0.2787,0.74125 -0.6762,0.7675 -0.3987,0.025 -0.7425,-0.27625 -0.7675,-0.675 -0.026,-0.39875 0.2762,-0.74125 0.6737,-0.7675 0.3988,-0.025 0.7438,0.27625 0.77,0.675" />
        <path
           inkscape:connector-curvature="0"
           id="path4657"
           style="fill:#d4aa00;fill-opacity:1;fill-rule:nonzero;stroke:#aa8800;stroke-width:0.71763748;stroke-miterlimit:4;stroke-dasharray:none"
           d="m 2919.6179,-143.00164 c 0.026,0.39875 -0.2775,0.74125 -0.675,0.76875 -0.3988,0.025 -0.7425,-0.2775 -0.7688,-0.675 -0.025,-0.39875 0.2763,-0.7425 0.6751,-0.7675 0.3987,-0.0263 0.7424,0.275 0.7687,0.67375" />
        <path
           inkscape:connector-curvature="0"
           id="path4659"
           style="fill:#d4aa00;fill-opacity:1;fill-rule:nonzero;stroke:#aa8800;stroke-width:0.71763748;stroke-miterlimit:4;stroke-dasharray:none"
           d="m 2927.4841,-163.51789 c 0,0 3.04,0.47125 5.1388,0.16875 2.0975,-0.3025 7.0437,-2.24 10.315,-2.50625 3.27,-0.26875 5.7387,-0.0387 5.7387,-0.0387 0,0 2.3025,-1.43125 6.1538,-1.345 3.85,0.085 8.6725,1.38875 10.525,1.60375 1.8537,0.21375 5.8225,0.4025 10.2625,1.84375 4.9363,1.6 11.9138,5.80375 16.0912,8.375 4.1788,2.5725 4.695,2.7625 8.5888,4.405 3.8987,1.64375 8.9537,3.99 12.1487,6.0125 2.2951,1.4525 4.8313,4.03375 4.8313,4.03375 l -5.2725,-1.38625 c 0,0 -2.58,-2.8425 -7.1225,-5 -4.5425,-2.15875 -7.97,-3.44125 -10.4563,-4.84125 -2.4875,-1.39875 -7.2125,-4.66 -11.4225,-6.84 -4.21,-2.17875 -8.0175,-3.325 -10.3925,-3.84125 -2.3725,-0.515 -4.4412,-0.60375 -4.4412,-0.60375 0,0 1.3562,1.13875 0.9925,1.5525 -0.3638,0.41375 -8.4812,-4.46625 -14.6375,-4.01125 -5.27,0.38875 -7.4563,4.49375 -8.415,4.3325 -0.9563,-0.16 -0.1825,-2.83 -0.1825,-2.83 0,0 -1.9787,-0.42875 -4.58,-0.14875 -2.6012,0.27875 -6.9513,1.955 -8.83,2.18875 -1.8812,0.2325 -3.2125,0.31875 -3.2125,0.31875 l -1.8213,-1.4425" />
        <path
           inkscape:connector-curvature="0"
           id="path4661"
           style="fill:#d4aa00;fill-opacity:1;fill-rule:nonzero;stroke:#aa8800;stroke-width:0.71763748;stroke-miterlimit:4;stroke-dasharray:none"
           d="m 3019.9079,-139.07289 c 0,0 -5.9337,-2.12375 -11.3913,-2.94125 -5.4587,-0.8175 -13.22,-0.0813 -14.2537,-0.6375 -0.9238,-0.4975 -1.6213,-2.6825 -3.0688,-4.37125 -1.3975,-1.63125 -3.655,-2.215 -3.6762,-2.54875 -0.023,-0.3325 1.4938,-1.04375 2.4025,-0.76875 0.8125,0.24625 1.9837,1.37625 2.8675,2.99125 0.9212,1.68 0.9562,3.56 1.8237,4.0625 0.87,0.5 8.4125,-0.935 15.5563,0.10625 7.145,1.0425 13.1712,3.7175 13.1712,3.7175 l -3.4312,0.39" />
        <path
           inkscape:connector-curvature="0"
           id="path4663"
           style="fill:#d4aa00;fill-opacity:1;fill-rule:nonzero;stroke:#aa8800;stroke-width:0.71763748;stroke-miterlimit:4;stroke-dasharray:none"
           d="m 3030.8641,-135.99289 c 0,0 -1.8899,3.5225 -6.3225,5.6475 -4.4325,2.12625 -10.2762,2.22625 -10.2762,2.22625 0,0 1.2125,1.5375 0.9338,2.39125 -0.2788,0.855 -2.6338,1.595 -4.9338,1.26625 -2.4187,-0.345 -3.9463,-2.41875 -3.5275,-2.83625 0.42,-0.41625 2.0212,1.09625 3.605,1.44 1.5825,0.3425 3.7575,0.3675 3.9438,-0.19875 0.1862,-0.57 -2.2113,-2.31125 -1.7026,-3.06875 0.5075,-0.7575 6.6563,-0.42875 11.2213,-2.28625 4.5613,-1.855 7.0587,-4.58125 7.0587,-4.58125" />
        <path
           inkscape:connector-curvature="0"
           id="path4665"
           style="fill:#d4aa00;fill-opacity:1;fill-rule:nonzero;stroke:#aa8800;stroke-width:0.71763748;stroke-miterlimit:4;stroke-dasharray:none"
           d="m 2977.5004,-89.96039 c 0,0 -2.9488,-1.64625 -4.4212,-3.72625 -1.4726,-2.07625 -2.2201,-5.87375 -2.2201,-5.87375 0,0 12.4688,-2.81375 14.4613,-5.61875 1.9925,-2.80375 2.8912,-8.71375 2.52,-11.86625 -0.37,-3.15375 -2.165,-7.60625 -2.165,-7.60625 0,0 4.31,4.56875 7.845,5.7875 3.5487,1.2275 15.925,1.53375 18.925,0.50625 2.2187,-0.76375 4.0612,-3.5525 4.0612,-3.5525 0,0 1.8888,0.89375 3.8975,0.805 2.5563,-0.10875 10.1738,-4.67125 12.6763,-9.905 1.9775,-4.13125 0.7937,-8.41 -0.4738,-9.0525 -1.2675,-0.64375 -7.93,1.46 -12.9274,1.72875 -5,0.26875 -9.7675,-0.20375 -13.1675,-0.20625 -3.4488,-0.004 -9.8713,0.75 -11.9188,1.83125 -1.8825,0.9925 -2.4762,3.0575 -2.4762,3.0575 0,0 2.8824,1.48625 4.6025,3.10125 1.7212,1.61625 3.3187,3.91 3.0262,5.43125 -0.29,1.52625 -3.7563,3.46625 -4.7425,2.4825 -0.895,-0.88875 2.6812,-1.62125 3.0288,-3.14875 0.3374,-1.49 -1.0963,-3.715 -2.9463,-5.04875 -1.9875,-1.43125 -5.105,-2.23375 -5.105,-2.23375 0,0 0.8375,-3.6325 3.8562,-4.98625 3.1951,-1.43375 8.8438,-1.13 13.1388,-1.07375 4.295,0.0563 9.5788,-0.11875 13.3887,-0.64375 3.8125,-0.52625 10.9288,-3.01625 13.145,-1.855 2.3663,1.24125 3.1775,6.85125 0.7138,11.88125 -2.7075,5.525 -10.8488,10.6225 -13.8388,10.92625 -2.1562,0.22 -3.4487,-0.78 -3.4487,-0.78 0,0 -1.9075,2.40875 -4.0988,2.99625 -3.0124,0.80875 -16.1862,0.4925 -19.1537,-0.5975 -2.9688,-1.09 -5.9012,-4.1875 -5.9012,-4.1875 0,0 1.2049,3.09625 1.2649,5.77 0.062,2.67 -0.565,9.8075 -2.5625,12.03625 -2.6512,2.9575 -14.5187,4.73 -14.5187,4.73 0,0 0.7275,2.6275 2.085,4.6575 1.3563,2.03125 3.45,4.23375 3.45,4.23375" />
      </g>
      <g
         i:knockout="Off"
         id="g4667"
         transform="matrix(0.94219956,0,0,0.94219956,13871.549,-251.5314)"
         style="fill:#aa8800">
        <path
           inkscape:connector-curvature="0"
           i:knockout="Off"
           d="m 221.564,104.984 c 0,3.405 -1.196,6.301 -3.584,8.689 -2.389,2.388 -5.284,3.582 -8.688,3.582 l -2.527,0 c -1.684,0 -2.527,0.82 -2.527,2.457 l 0,9.832 c 0,1.376 -0.475,2.54 -1.422,3.491 -0.949,0.951 -2.11,1.425 -3.485,1.425 l -2.455,0 c -1.377,0 -2.538,-0.476 -3.487,-1.431 -0.949,-0.955 -1.421,-2.123 -1.421,-3.507 l 0,-56.78 c 0,-3.402 1.201,-6.3 3.612,-8.688 2.408,-2.389 5.331,-3.583 8.761,-3.583 l 4.951,0 c 3.403,0 6.299,1.195 8.688,3.583 2.388,2.389 3.584,5.286 3.584,8.688 l 0,32.242 z m -12.337,-2.581 0,-27.122 c 0,-1.644 -0.832,-2.467 -2.493,-2.467 -1.665,0 -2.496,0.824 -2.496,2.467 l 0,27.123 c 0,1.646 0.831,2.468 2.496,2.468 1.661,-0.001 2.493,-0.823 2.493,-2.469 z"
           id="path4669"
           style="fill:#aa8800" />
        <path
           inkscape:connector-curvature="0"
           i:knockout="Off"
           d="m 258.057,122.188 c 0,3.405 -1.196,6.303 -3.583,8.689 -2.39,2.389 -5.285,3.583 -8.688,3.583 l -5.053,0 c -3.404,0 -6.3,-1.193 -8.688,-3.583 -2.389,-2.387 -3.583,-5.285 -3.583,-8.689 l 0,-4.933 c 0,-3.403 1.193,-6.299 3.583,-8.688 2.388,-2.387 5.284,-3.583 8.688,-3.583 l 2.495,0 c 1.661,0 2.495,-0.826 2.495,-2.479 l 0,-27.283 c 0,-1.653 -0.82,-2.479 -2.465,-2.479 -1.646,0 -2.466,0.825 -2.466,2.471 l 0,19.78 c 0,1.385 -0.479,2.557 -1.429,3.512 -0.958,0.956 -2.124,1.435 -3.504,1.435 l -2.463,0 c -1.381,0 -2.549,-0.477 -3.502,-1.432 -0.956,-0.953 -1.43,-2.12 -1.43,-3.503 l 0,-22.202 c 0,-3.419 1.193,-6.33 3.583,-8.73 2.388,-2.401 5.284,-3.603 8.688,-3.603 l 5.053,0 c 3.404,0 6.299,1.204 8.688,3.605 2.388,2.403 3.583,5.317 3.583,8.738 l 0,49.374 z m -12.335,-2.525 c 0,-1.643 -0.82,-2.463 -2.465,-2.463 -1.646,0 -2.466,0.821 -2.466,2.463 0,1.646 0.82,2.468 2.466,2.468 1.644,0 2.465,-0.822 2.465,-2.468 z"
           id="path4671"
           style="fill:#aa8800" />
        <path
           inkscape:connector-curvature="0"
           i:knockout="Off"
           d="m 294.549,95.005 c 0,1.383 -0.476,2.55 -1.423,3.503 -0.948,0.955 -2.11,1.432 -3.484,1.432 l -2.455,0 c -1.376,0 -2.537,-0.479 -3.486,-1.435 -0.949,-0.955 -1.422,-2.127 -1.422,-3.512 l 0,-19.78 c 0,-1.646 -0.843,-2.471 -2.527,-2.471 -1.683,0 -2.527,0.823 -2.527,2.469 l 0,54.311 c 0,1.384 -0.475,2.552 -1.423,3.507 -0.948,0.955 -2.11,1.431 -3.483,1.431 l -2.456,0 c -1.376,0 -2.538,-0.476 -3.484,-1.431 -0.949,-0.953 -1.424,-2.12 -1.424,-3.502 l 0,-56.725 c 0,-3.42 1.199,-6.33 3.6,-8.729 2.401,-2.401 5.31,-3.603 8.732,-3.603 l 4.932,0 c 3.421,0 6.329,1.202 8.73,3.603 2.401,2.401 3.601,5.312 3.601,8.73 l 0,22.202 z"
           id="path4673"
           style="fill:#aa8800" />
        <path
           inkscape:connector-curvature="0"
           i:knockout="Off"
           d="m 331.043,122.188 c 0,3.405 -1.194,6.303 -3.58,8.689 -2.393,2.389 -5.289,3.583 -8.69,3.583 l -12.374,0 c -1.388,0 -2.559,-0.476 -3.518,-1.431 -0.956,-0.953 -1.434,-2.12 -1.434,-3.502 l 0,-64.124 c 0,-1.379 0.478,-2.546 1.434,-3.501 0.959,-0.954 2.13,-1.431 3.518,-1.431 l 12.374,0 c 3.401,0 6.298,1.195 8.69,3.583 2.386,2.389 3.58,5.286 3.58,8.688 l 0,49.446 z m -12.335,-2.525 0,-44.382 c 0,-1.644 -0.833,-2.467 -2.495,-2.467 -1.664,0 -2.494,0.824 -2.494,2.467 l 0,44.382 c 0,1.646 0.83,2.468 2.494,2.468 1.662,0 2.495,-0.822 2.495,-2.468 z"
           id="path4675"
           style="fill:#aa8800" />
        <path
           inkscape:connector-curvature="0"
           i:knockout="Off"
           d="m 367.537,122.188 c 0,3.405 -1.196,6.303 -3.584,8.689 -2.388,2.389 -5.286,3.583 -8.687,3.583 l -5.054,0 c -3.406,0 -6.302,-1.193 -8.689,-3.583 -2.388,-2.387 -3.584,-5.285 -3.584,-8.689 l 0,-56.78 c 0,-1.383 0.479,-2.551 1.432,-3.506 0.953,-0.955 2.12,-1.432 3.502,-1.432 l 2.467,0 c 1.379,0 2.548,0.477 3.499,1.431 0.955,0.956 1.432,2.122 1.432,3.501 l 0,54.26 c 0,1.646 0.822,2.468 2.467,2.468 1.643,0 2.466,-0.822 2.466,-2.468 l 0,-54.26 c 0,-1.379 0.475,-2.546 1.43,-3.501 0.954,-0.954 2.122,-1.431 3.505,-1.431 l 2.464,0 c 1.382,0 2.55,0.477 3.505,1.432 0.954,0.955 1.431,2.123 1.431,3.506 l 0,56.78 z"
           id="path4677"
           style="fill:#aa8800" />
        <path
           inkscape:connector-curvature="0"
           i:knockout="Off"
           d="m 404.03,122.188 c 0,3.405 -1.195,6.303 -3.583,8.689 -2.389,2.389 -5.285,3.583 -8.688,3.583 l -12.373,0 c -1.389,0 -2.56,-0.476 -3.517,-1.431 -0.958,-0.953 -1.435,-2.12 -1.435,-3.502 l 0,-2.464 c 0,-1.379 0.475,-2.547 1.432,-3.501 0.953,-0.954 2.12,-1.43 3.501,-1.43 l 9.862,0 c 1.641,0 2.467,-0.813 2.467,-2.44 0,-1.623 -0.833,-2.436 -2.494,-2.436 l -2.495,0 c -3.405,0 -6.301,-1.194 -8.688,-3.582 -2.392,-2.388 -3.584,-5.284 -3.584,-8.689 l 0,-32.242 c 0,-3.402 1.192,-6.3 3.584,-8.688 2.388,-2.389 5.283,-3.583 8.688,-3.583 l 5.052,0 c 3.403,0 6.3,1.195 8.688,3.583 2.388,2.389 3.583,5.286 3.583,8.688 l 0,22.251 c 0,1.385 -0.477,2.557 -1.43,3.512 -0.955,0.956 -2.122,1.435 -3.504,1.435 l -2.468,0 c -1.38,0 -2.549,-0.477 -3.504,-1.432 -0.955,-0.953 -1.429,-2.12 -1.429,-3.501 l 0,-19.727 c 0,-1.644 -0.821,-2.467 -2.464,-2.467 -1.647,0 -2.468,0.824 -2.468,2.467 l 0,27.123 c 0,1.646 0.834,2.468 2.498,2.468 l 2.496,0 c 3.403,0 6.3,1.204 8.688,3.612 2.388,2.408 3.583,5.328 3.583,8.759 l 0,4.945 z"
           id="path4679"
           style="fill:#aa8800" />
      </g>
    </g>
  </g>
</svg>
