<?xml version="1.0" encoding="utf-8"?>
<!-- Generator: Adobe Illustrator 19.1.0, SVG Export Plug-In . SVG Version: 6.00 Build 0)  -->
<svg version="1.1"
	 id="svg12341" xmlns:inkscape="http://www.inkscape.org/namespaces/inkscape" xmlns:cc="http://creativecommons.org/ns#" xmlns:sodipodi="http://sodipodi.sourceforge.net/DTD/sodipodi-0.dtd" xmlns:dc="http://purl.org/dc/elements/1.1/" xmlns:rdf="http://www.w3.org/1999/02/22-rdf-syntax-ns#" xmlns:svg="http://www.w3.org/2000/svg" inkscape:version="0.91 r13725" sodipodi:docname="lines-wallpaper_2560x1080.svg"
	 xmlns="http://www.w3.org/2000/svg" xmlns:xlink="http://www.w3.org/1999/xlink" x="0px" y="0px" viewBox="3780 -140 1920 1080"
	 style="enable-background:new 3780 -140 1920 1080;" xml:space="preserve">
<style type="text/css">
	.st0{fill:#1A1A1A;}
	.st1{fill:#D3A809;}
</style>
<rect id="rect4587_1_" x="3780" y="-140" inkscape:export-ydpi="90" inkscape:export-filename="/home/karbo/Pardus/ArtWork/1200yns1.png" inkscape:export-xdpi="90" class="st0" width="1920" height="1080">
</rect>
<g>
	<path id="path4669_2_" inkscape:connector-curvature="0" class="st1" d="M5118.5,806.8c0,2.3-0.8,4.3-2.5,6.1
		c-1.7,1.6-3.7,2.5-6.1,2.5h-1.8c-1.2,0-1.8,0.6-1.8,1.7v6.9c0,1-0.3,1.8-1,2.4c-0.7,0.7-1.5,1-2.4,1h-1.7c-1,0-1.8-0.3-2.4-1
		c-0.7-0.7-1-1.5-1-2.4v-39.5c0-2.3,0.8-4.3,2.5-6.1c1.7-1.7,3.7-2.5,6.1-2.5h3.5c2.3,0,4.3,0.8,6.1,2.5c1.6,1.7,2.5,3.7,2.5,6.1
		L5118.5,806.8L5118.5,806.8L5118.5,806.8z M5109.9,805v-18.9c0-1.1-0.6-1.7-1.7-1.7c-1.2,0-1.8,0.6-1.8,1.7V805
		c0,1.2,0.6,1.7,1.8,1.7S5109.9,806.2,5109.9,805z"/>
	<path id="path4671_2_" inkscape:connector-curvature="0" class="st1" d="M5143.8,818.8c0,2.3-0.8,4.3-2.5,6.1
		c-1.7,1.7-3.7,2.5-6.1,2.5h-3.5c-2.3,0-4.3-0.8-6.1-2.5c-1.7-1.6-2.5-3.7-2.5-6.1v-3.4c0-2.3,0.8-4.3,2.5-6.1
		c1.6-1.6,3.7-2.5,6.1-2.5h1.7c1.2,0,1.8-0.6,1.8-1.7v-19c0-1.2-0.6-1.7-1.7-1.7c-1.2,0-1.7,0.6-1.7,1.7v13.7c0,1-0.4,1.8-1,2.4
		c-0.7,0.7-1.5,1.1-2.4,1.1h-1.7c-1,0-1.8-0.3-2.4-1c-0.7-0.7-1-1.5-1-2.4v-15.4c0-2.3,0.8-4.4,2.5-6.1c1.6-1.7,3.7-2.5,6.1-2.5h3.5
		c2.3,0,4.3,0.8,6.1,2.5c1.6,1.7,2.5,3.7,2.5,6.1L5143.8,818.8L5143.8,818.8z M5135.2,817c0-1.1-0.6-1.7-1.7-1.7
		c-1.2,0-1.7,0.6-1.7,1.7c0,1.2,0.6,1.7,1.7,1.7C5134.7,818.7,5135.2,818.1,5135.2,817z"/>
	<path id="path4673_2_" inkscape:connector-curvature="0" class="st1" d="M5169.2,799.9c0,1-0.3,1.8-1,2.4c-0.7,0.7-1.5,1-2.4,1
		h-1.7c-1,0-1.8-0.4-2.4-1.1c-0.7-0.7-1-1.5-1-2.4v-13.7c0-1.2-0.6-1.7-1.8-1.7s-1.8,0.6-1.8,1.7v37.8c0,1-0.3,1.8-1,2.4
		c-0.7,0.7-1.5,1-2.4,1h-1.7c-1,0-1.8-0.3-2.4-1c-0.7-0.7-1-1.5-1-2.4v-39.4c0-2.3,0.8-4.4,2.5-6.1c1.7-1.7,3.7-2.5,6.1-2.5h3.4
		c2.3,0,4.4,0.8,6.1,2.5c1.6,1.7,2.5,3.7,2.5,6.1L5169.2,799.9L5169.2,799.9z"/>
	<path id="path4675_2_" inkscape:connector-curvature="0" class="st1" d="M5194.6,818.8c0,2.3-0.8,4.3-2.5,6.1
		c-1.7,1.7-3.7,2.5-6.1,2.5h-8.7c-1,0-1.8-0.3-2.4-1c-0.7-0.7-1.1-1.5-1.1-2.4v-44.6c0-1,0.4-1.8,1.1-2.4c0.7-0.7,1.5-1,2.4-1h8.7
		c2.3,0,4.3,0.8,6.1,2.5c1.6,1.7,2.5,3.7,2.5,6.1V818.8z M5186,817v-30.9c0-1.1-0.6-1.7-1.8-1.7s-1.7,0.6-1.7,1.7V817
		c0,1.2,0.6,1.7,1.7,1.7C5185.4,818.7,5186,818.1,5186,817z"/>
	<path id="path4677_2_" inkscape:connector-curvature="0" class="st1" d="M5220,818.8c0,2.3-0.8,4.3-2.5,6.1
		c-1.6,1.7-3.7,2.5-6.1,2.5h-3.5c-2.3,0-4.3-0.8-6.1-2.5c-1.6-1.6-2.5-3.7-2.5-6.1v-39.5c0-1,0.4-1.8,1-2.4c0.7-0.7,1.5-1,2.4-1h1.7
		c1,0,1.8,0.3,2.4,1c0.7,0.7,1,1.5,1,2.4V817c0,1.2,0.6,1.7,1.7,1.7s1.7-0.6,1.7-1.7v-37.7c0-1,0.3-1.8,1-2.4c0.7-0.7,1.5-1,2.4-1
		h1.7c1,0,1.8,0.3,2.4,1c0.7,0.7,1,1.5,1,2.4L5220,818.8L5220,818.8z"/>
	<path id="path4679_2_" inkscape:connector-curvature="0" class="st1" d="M5245.4,818.8c0,2.3-0.8,4.3-2.5,6.1
		c-1.7,1.7-3.7,2.5-6.1,2.5h-8.6c-1,0-1.8-0.3-2.4-1c-0.7-0.7-1.1-1.5-1.1-2.4v-1.7c0-1,0.3-1.8,1-2.4c0.7-0.7,1.5-1,2.4-1h6.9
		c1.1,0,1.7-0.6,1.7-1.7c0-1.1-0.6-1.7-1.7-1.7h-1.8c-2.3,0-4.3-0.8-6.1-2.5c-1.7-1.6-2.5-3.7-2.5-6.1v-22.5c0-2.3,0.8-4.3,2.5-6.1
		c1.6-1.7,3.7-2.5,6.1-2.5h3.5c2.3,0,4.3,0.8,6.1,2.5c1.6,1.7,2.5,3.7,2.5,6.1v15.5c0,1-0.4,1.8-1,2.4c-0.7,0.7-1.5,1.1-2.4,1.1
		h-1.7c-1,0-1.8-0.3-2.4-1c-0.7-0.7-1-1.5-1-2.4v-13.7c0-1.1-0.6-1.7-1.7-1.7c-1.2,0-1.7,0.6-1.7,1.7v18.9c0,1.2,0.6,1.7,1.8,1.7
		h1.8c2.3,0,4.3,0.8,6.1,2.5c1.7,1.7,2.5,3.7,2.5,6.1L5245.4,818.8L5245.4,818.8z"/>
</g>
<path id="path4591_2_" inkscape:connector-curvature="0" class="st1" d="M5334.5,609.1c0,0,34.7,16,51.6,21.8
	c16.9,5.7,94,21.8,115.9,41.7c20.8,18.9,34.5,54.2,45.8,69.6c11.3,15.4,20.2,25.2,20.2,25.2s-14.5-12.5-24.7-26.3
	c-10.2-13.8-26.7-49.9-47.3-65.7c-20.6-15.9-83.6-32.4-110.3-40.7s-53.6-19.9-53.6-19.9L5334.5,609.1"/>
<path id="path4593_2_" inkscape:connector-curvature="0" class="st1" d="M5515.3,690.9c0,0,16.5,15.8,30.5,25.2
	c14,9.4,49.6,27.4,69.3,40.2c19.8,12.9,43,37.1,43,37.1S5633,772,5612.9,760c-20.1-12.1-59-34.4-70.5-41.9
	c-11.5-7.6-19.8-14.9-19.8-14.9L5515.3,690.9"/>
<path id="path4595_2_" inkscape:connector-curvature="0" class="st1" d="M5363.3,717.9c0,0-17.9,9.7-29.1,23.9
	c-11.1,14.1-18.3,35.9-17.3,51.4c1,15.1,21.5,55.7,21.5,55.7s-15.4-42-16.4-56c-0.9-14,6.7-34.2,16-46.5
	C5347.2,734.1,5363.3,717.9,5363.3,717.9"/>
<path id="path4597_2_" inkscape:connector-curvature="0" class="st1" d="M5239.9,717.7c0,0,36.3,19.6,50.6,32.2
	c14.2,12.5,20.1,28.9,20.1,28.9s-13-16-26.2-27.5C5271.1,739.7,5239.9,717.7,5239.9,717.7"/>
<path class="st1" d="M5130.6,705.8c-6.5,1.9-9.1,4.3-9.1,4.3l-2.7-3.3c0,0-2.9-2.9-5.4-7.6c-2.5-4.5-4.7-11.8-6.8-11.7
	c-2.1,0-4.9,6.5-4.1,15.4c0.8,8.9,4.4,15,4.4,15s-1.5,1.5-1.5,3.4c0.1,1.9,1.3,2.9,1.3,2.9s-0.7,1.1-0.9,3.2l3.3,3
	c-0.1-0.1-0.1-0.4-0.1-0.5c-0.6-3,5.3-9.3,8.8-12.3C5121.6,714.3,5133.1,705.1,5130.6,705.8z M5109.9,716.8c-2.3-1.1-4.6-6.7-5.4-13
	c-0.9-6.3,0.7-13.4,1.8-13.8c1.1-0.4,3.3,6.5,6.4,11.8c3.5,6.1,7.2,10,7.2,10C5118.2,715.3,5112.2,717.9,5109.9,716.8z"/>
<path class="st1" d="M5283,837.5L5283,837.5c-4.9-13.6-4.9-40.2-7.3-46.9c-2.3-6.6-24-33.9-45.3-54.1c-21.3-20.1-39-32.9-43.5-33.9
	c-6.7-1.5-25.9,0.8-29.4,4.6c-2.8,3-7.7,21-11.8,23.5c-5.4,3.3-17.8,3.3-22.1,1.9c-3.3-1.1-4.1-2.8-4.1-2.8s-2.9-3.1-5.4-2.2
	c-5.7,1.9-6.5,1.4-6.5,1.4c3,2,9.7,3,9.7,3s1.8,2.7,5.8,3.8c4.4,1.2,19.5,1.9,25.5-2.1c5.3-3.5,7.7-20.9,11.1-23.7
	c3.4-2.8,17.1-4.6,24.3-2.4c7.2,2.2,26.4,14.9,45,32.4c18.8,17.6,39.5,44.7,42.8,53.9c3.3,9.2,0.4,30.5,6.5,46.2
	c6.2,15.7,35,42.1,35,42.1S5288,851.2,5283,837.5z"/>
<path class="st1" d="M5112.6,620.5c2.7-0.1,5.2-6.8,5.2-6.8s4.4-8.8,3.8-11.9c-0.2-1.2-4.2-0.4-6-0.4c-8-0.4-16.8-4.1-22.9-6.9
	c-6.2-2.9-21.3-11.9-23.1-17.3c-1.6-4.4,1.2-12.2,4.5-15.5c3.2-3.3,9.7-5.9,15.3-7.2c5.7-1.3,9.6-1.9,10.5-2.8
	c0.8-1,0.6-3.6-0.7-3.8c-1.3-0.1-4.8,3-8.7,4.5c-3.8,1.5-8.4,2.7-9.8,2.3c-1.7-0.4-2.1-4.1-4.9-4.5c-1.8-0.2-0.9,3.5-1.5,6.6
	c-0.7,3.2-2.3,5.2-2.3,5.2s0.4-4.5-0.4-7.2c-0.9-2.7-3-4.8-2.3-6.3c0.6-1.5,7.2-3.9,10.4-2.3c3,1.5,3.2,6.1,3.2,6.1s1.5-4.2-0.4-6.9
	c-1.9-2.7-7.2-2-7.2-2s2.8-2.2,6.9-2.6c6.1-0.6,14.2,2.9,14.2,2.9s12.2-3.4,19.3-0.2c7.1,3.2,12,11.6,12,11.6s-4.2-10.9-12-14
	c-8-3.2-20.3-0.4-20.3-0.4s-8.2-2.2-14.3-1.4c-6.1,0.9-12.9,6.1-14.1,8.5c-1.2,2.3,3.6,10.3,3.5,14.9c-0.1,2.5-4.1,7.4-3.5,12.6
	c0.2,1.9,1.9,4,1.9,4s-1.2,1.5-1.4,3.3c-0.1,1.9,0.7,3.4,0.7,3.4s-1.4,3.3-1.4,7.1c0,3.5,1.5,7.7,3.2,8s5.4-4.7,5.4-4.7
	s-2.2,7.6-2.3,16.1c-0.1,8.1,1.9,17.6,4.9,17.6c3,0,3.9-8.3,7.1-14.9c3.2-6.7,8.3-13.6,8.3-13.6s2.2,7.9,5.7,7.7
	c2.5-0.1,5.6-4.1,5.6-4.1S5108,620.5,5112.6,620.5z M5106.1,603.4c0.6-1.2,4.3-0.1,6.6-0.1c2.4,0.1,5.5,0.1,5.4,3.3
	c-0.1,2-3.5,11.8-5.7,11.8C5110.3,618.5,5105.3,605.4,5106.1,603.4z M5069.8,598.8L5069.8,598.8c-1-0.1-1.9-3.3-1.9-5.8
	c0.1-2.9,1.5-6.8,2.7-7c1.9-0.4,5.2,2.1,5.4,4.1C5076.3,592.1,5070.7,598.9,5069.8,598.8z M5083.3,612.9c-3.5,7.1-4.7,15.2-6,14.8
	s-3.2-8-2.9-16.6c0.3-8.1,3.6-18.4,5.3-19.1c3-1.2,11.2,3.9,11.2,7C5090.9,601.1,5087,605.4,5083.3,612.9z M5098.3,607.2
	c-1.9-0.4-4.6-7.6-3.5-8.7c1.2-1.2,8.2,1.6,8.4,3.1C5103.4,603.2,5100.3,607.6,5098.3,607.2z"/>
<path class="st1" d="M5134.5,693.1c0,0-3.2-4.1-5.1-3.5c-3.2,1-2.5,12.3-2.5,12.3s-3-2.1-4.8-1.6c-2.4,0.7-2.2,6.6-2.2,6.6
	s0,0-0.1,0v6.7c0.6-0.6,1.2-1.2,1.6-1.6c3.6-3.3,8.8-7.8,14.2-9.8c1.2-0.4,4.1-0.7,4-1.6C5139.5,698.2,5134.5,693.1,5134.5,693.1z
	 M5122.1,708.6c-1-0.5-0.7-6,0.5-6.7c1.3-0.7,4.4,1.6,4.6,2.7C5127.3,705.7,5123.2,709.2,5122.1,708.6z M5133.3,701.3
	c-1.6,0.6-3.9,2.2-4.6,1.4c-1-1.1-0.4-11.3,1-11.7c1.5-0.5,6,5.4,6.5,6.8C5137.1,700,5135,700.7,5133.3,701.3z"/>
<path id="path4601_2_" inkscape:connector-curvature="0" class="st1" d="M5277.4,674.7c0,0,6.9,14.9,6.5,20.8s-7.6,13.2-9.8,17.9
	c-2.3,4.6-2.6,11.2-0.9,12.1c2.2,1.2,10-3.8,10-3.8s-6.4,1.6-7.7,0.5c-1.3-1.2-0.2-6.4,1.8-9.1s9.3-11.6,9.6-17.2
	C5286.9,690.3,5277.4,674.7,5277.4,674.7"/>
<path id="path4603_2_" inkscape:connector-curvature="0" class="st1" d="M5156.6,690.3c0,0-8.7,14.3-13.2,18.4
	c-4.5,4.2-19.9,11.2-19.9,11.2s15.6-3.2,21.6-8.7C5150.4,706.3,5156.6,690.3,5156.6,690.3"/>
<path id="path4605_2_" inkscape:connector-curvature="0" class="st1" d="M5162.2,678.4c0,0-2.6-14.9-5.9-26.1
	c-3.3-11.2-10.1-25.8-13.7-31.4c-3.6-5.7-6.6-9.9-5-10.6c1.6-0.7,6.3,4.9,8.9,9.6c2.9,5.2,9.6,21.1,12.1,31.6
	C5161.2,661.5,5162.2,678.4,5162.2,678.4"/>
<path id="path4609_2_" inkscape:connector-curvature="0" class="st1" d="M5147,562.5c-6.5,0.3-10.7,5.2-11.1,6.7
	c-0.4,1.2,0.8,11.9,4.9,19c4.3,7.5,13.3,15.7,16.5,23.6c3.3,7.8,5,19.6,5.8,28c0.8,8.4,0.7,14.5,0.7,14.5s-1.3,2.2-0.8,4.7
	c0.7,3,6.5,11.3,11.4,15.8c4.9,4.5,13,8,13,8s-7.3-5.1-11.7-10.2c-4.3-5.2-9.5-15.2-10-18c-0.5-2.7-1.2-13.9-2.1-22
	c-0.8-7.6-2.5-20.7-3.8-23.8c-1.2-3-14.8-17.5-18.2-23.3c-3.7-6.3-4.6-14.6-4.6-14.6s1.5-0.1,2.4-1.1c1-1.1,2-3.2,3.4-4.7
	C5144.7,563.6,5147,562.5,5147,562.5"/>
<path id="path4611_2_" inkscape:connector-curvature="0" class="st1" d="M5189.9,558.1c0,0,4.1,7.4,2.6,11.8
	c-1.3,3.8-9.1,5.4-10.1,5c-1.1-0.4-2.7-2.7-2.1-3.5c1-1.2,8-0.3,9.5-3.2C5191.4,565.2,5189.9,558.1,5189.9,558.1"/>
<path id="path4613_2_" inkscape:connector-curvature="0" class="st1" d="M5125.8,572.1c0,0-1.9-7.9-5.2-12.5
	c-3.2-4.6-12.9-6.9-13.2-7.8c-0.3-0.9,2.3-2.2,3.9-2.1c1.6,0.1,8.3,3.6,11.1,8.2C5125.4,563,5125.8,572.1,5125.8,572.1"/>
<path id="path4659_2_" inkscape:connector-curvature="0" class="st1" d="M5116.1,542.3c0,0,6.3,1,10.6,0.4
	c4.3-0.6,14.5-4.6,21.2-5.2c6.7-0.5,11.8-0.1,11.8-0.1s4.7-3,12.7-2.7c7.9,0.1,17.9,2.9,21.6,3.3c3.8,0.4,11.9,0.8,21.1,3.8
	c10.2,3.3,24.5,11.9,33.1,17.2c8.6,5.3,9.7,5.7,17.6,9.1c8,3.4,18.4,8.2,25,12.4c4.7,3,10,8.3,10,8.3l-10.8-2.9
	c0,0-5.3-5.8-14.6-10.3c-9.4-4.4-16.4-7.1-21.5-10c-5.1-2.9-14.8-9.6-23.5-14.1c-8.7-4.5-16.4-6.9-21.4-7.9
	c-4.9-1.1-9.2-1.2-9.2-1.2s2.8,2.3,2.1,3.2c-0.7,0.9-17.4-9.2-30.1-8.3c-10.8,0.8-15.3,9.2-17.3,8.9s-0.4-5.8-0.4-5.8
	s-4.1-0.9-9.5-0.3c-5.3,0.6-14.3,4-18.2,4.5c-3.8,0.4-6.6,0.7-6.6,0.7L5116.1,542.3"/>
<path class="st1" d="M5281.2,586.3c-7.7,0.3-13.6,1.1-14.6,0.5c-1.8-1.1-1.9-4.9-3.8-8.4c-1.9-3.3-4.2-5.6-5.9-6.1
	c-1.9-0.6-5,0.9-4.9,1.5c0,0.7,4.6,1.9,7.6,5.3c3,3.5,4.4,8,6.4,9c1.3,0.7,7.9,0.4,15.3,0.5V586.3L5281.2,586.3z"/>
<path class="st1" d="M5240.1,621.7c0,0,1.1,1.2,3,2.8v-2.8c-4.1-3.2-7.2-6.5-7.2-6.5s3.7,9.2,4.4,15.6c0.8,6.5-1.1,18.7-5.2,24.4
	c-4.1,5.8-29.7,11.6-29.7,11.6s1.5,7.8,4.6,12.1c3,4.3,9.1,7.7,9.1,7.7s-4.3-4.5-7.2-9c-2.8-4.2-4.3-9.6-4.3-9.6s24.4-3.7,29.9-9.7
	c4.1-4.6,5.4-19.3,5.3-24.7C5242.6,628.1,5240.1,621.7,5240.1,621.7z"/>
<path class="st1" d="M5133,616.2c-0.7-14.5-11.3-14.5-11.3-14.5s-2.5,7.6-1.5,13.5c1.2,7.6,11.1,17.5,10.3,12.7
	S5133,616.2,5133,616.2z M5128.3,625.5c0,0.4-0.3,0.3-0.4,0.1c-2.3-2.4-5.4-6.8-6.1-10.6c-0.5-3.2,0.7-7.8,1-10
	c1.1-0.7,4.3-1.9,7.9,11.4C5130,618.2,5128.5,621.9,5128.3,625.5z"/>
<path class="st1" d="M5139.9,683.8c-1.4-3.1-3.6,3.3-4,8.1c-0.3,3.7,1.6,8.4,1.6,8.4s6.6-0.5,6.4-9.6
	C5144,690.7,5141.3,686.5,5139.9,683.8z M5142.5,691.6c-1.5,7.6-3.3,6.5-4,6.2c-0.2-1.2-1.1-3.8-1-5.6c0.2-2.2,0.4-4.8,1.4-6.4
	c0.1-0.1,0.3,0.3,0.5,0.6C5140.6,689,5142,690.6,5142.5,691.6z"/>
<path class="st1" d="M5145.4,552.9c0,0,7.8,0,11.5-4.4s10.2-11.8,18.3-9.1c8.1,2.6,12.6,9.7,12.6,9.7s-3.2,0.7-3.7,0.6
	s-9.7-14.6-22.3-4.8C5158.5,547.4,5156.9,552.2,5145.4,552.9z"/>
<path class="st1" d="M5171.7,545.2c0,0,3.1-0.5,5.6,0.9s4.4,3.2,5.6,3.3c-1.1-0.1-1.2,0.3-2.8-0.9
	C5176.4,546,5173.1,545.1,5171.7,545.2z"/>
<path class="st1" d="M5165.2,560.9c-4.3,0-9.2-2.3-14.5-6.9l0.5-0.6c5.2,4.1,9.8,6.2,13.6,6.2c0.7,0,1.4-0.1,2.1-0.2
	c4.9-1.1,8.8-5.5,10.3-11.4l0.1-0.4l0.4,0.2c0.6,0.3,0.9,0.7,1,0.7l0.1,0.1l0,0.2C5178.6,549,5175,560.9,5165.2,560.9z"/>
<path class="st1" d="M5152.8,650.9c-3.4-8-11.8-20.1-19.8-41.9c-0.5-1.3,0.3-3.3,3.9-2.4c-2.1-3-5.2-5.9-9.6-6.6
	c-9-1.5-13.8,2.8-22.9-1.1c-2.1-0.9-3.3-2.4-6-4.3c2.8,3.2,6.1,8,16,8c16.4,0.1,15.5,5.7,17.8,14c2.2,9.7,19.8,40.8,24.4,53.7
	c-2.7,11.2-10.2,17.4-21.3,29.1c-2.5,2.6-3.5,4.6-12.4,11.1c-9.8,13.3-16.2,11.3-17.8,14.2c-1.4,2.5,4.2,5.8,6.9,5.8
	c-3.9-4.7,41.8-36.1,46.8-47.5C5161.1,677.3,5160.7,669.4,5152.8,650.9z"/>
<path class="st1" d="M5151.1,654.5c0,0-14.7,1.9-24.7,23.2c-4.8,10.2-8.3,25.4-7.7,30.4c0.5,3.8,2.2,1.1,2.2,1.1s-2.6-6.4,7.4-30.2
	c7.7-18.3,21.4-21,24.6-21.2C5151.7,654.9,5151.1,654.5,5151.1,654.5z"/>
<path class="st1" d="M5137.3,546.2c0,0,6.7,7.6,17.9,1.6"/>
<path class="st1" d="M5314.2,609.8c-7.8,1.1-15.8,4-22.8,8.5c-0.4,0.3-3.5,2.8-5.8,3.6c-5.8,2.3-8.2,2.2-8.2,2.2s4.3,0.6,8.6-0.8
	c2.1-0.7,5.6-3.5,6.1-3.8c1-0.6,5.4-0.8,4.3-1.5c-0.5-1.6,8-4.7,12.8-5.3c13.5-1.7,17-8.9,17-8.9
	C5323.3,606.2,5318.5,609.2,5314.2,609.8z"/>
<path class="st1" d="M5258.4,607c0,0-1,0.1-1.2,0.8c-0.1,0.3-0.4,0.3-0.5,0.8c-0.3,0.5-0.5,1.1-0.4,1.5c0,0.5,0.5,0.7,0.8,0.8
	c0.1,0,0.1,0.1,0.2,0.1l0,0l0,0c0,0,0,0,0,0l0,0h0l0.1,0c0.1,0,0.1,0,0.2,0c0.2,0,3.7,0.7,6,4.2c2.3,3.1,1.5,10.1,1.5,10.1
	s-0.1-0.4-0.3-1.1c-0.1-0.3-0.2-0.7-0.3-1.2c-0.1-0.4-0.2-1-0.4-1.5c-0.1-0.5-0.3-1.1-0.5-1.7c-0.2-0.6-0.4-1.1-0.6-1.7
	c-0.2-0.5-0.5-1.1-0.8-1.5c-0.3-0.4-0.7-0.8-1.1-1.1s-0.9-0.6-1.5-0.9c-0.6-0.3-1.2-0.5-2-0.9c-0.4-0.2-0.7-0.3-1.1-0.6
	c-0.1-0.1-0.2-0.1-0.3-0.2l-0.1-0.1l0,0l0,0c0,0-0.1,0,0,0l0,0l0,0c-0.2-0.1-0.3-0.3-0.5-0.5c-0.3-0.4-0.5-0.9-0.5-1.3
	c0-0.4,0-1.3,1-2.8c0.3-0.4,0.7-0.7,0.9-0.9C5257.4,606.7,5258.4,607,5258.4,607z"/>
<path class="st1" d="M5337,591.6c-0.9-0.8-2.2-1.3-3.8-1.4c-3.2-0.3-7.3,0.8-10,1.7c-0.3,0.1-1.2,0.2-3.4,0
	c-3.9-0.4-9.7-1.5-14.7-2.9c-6-1.6-11.8-2.8-17.3-3.3c-13.2-1.3-20.6,1.1-20.9,1.1l0.1,1.4c0,0,0.2,0,0.6,0c1.3,0.1,4.8,0.4,9.6,0.2
	c3.3-0.1,6.8,0,10.4,0.3c5.3,0.5,10.9,1.6,16.6,3.2c3.2,0.9,7.6,1.9,11.6,2.5c-6.7,2.2-21,6.9-27,7.7c-1.8,0.2-4.1,0.7-6.6,1.1
	c-5.1,0.9-12,3.4-17.9,2.6c-9.3-1.2-9.3,4.1-9.3,4.1c0.8,1,0.4-0.5,1.9-1.9c1.2-1.1,4.4-1.1,7-0.6c5.3,1,13.1-0.1,18.9-1.2h0.1
	c2.5-0.4,4.7-0.9,6.4-1.1c8.5-1.2,31.2-9.1,31.5-9.2c0.5-0.2,1.6-0.7,3.2-1.2h0.1l0.8-0.2l0,0c2.2-0.7,5.5-1.6,8-1.3
	c0.9,0.1,1.6,0.3,2,0.7c1,0.8,0.7,2.7,0.3,4.1c-0.6,2.1-1,4-1.3,5.8c-0.5,2.8-1.3,8-5.2,12.2c-2.9,3.1-7.3,6.4-9.8,7.1
	c-5.3,1.5-10,2.2-16.1,2.5c-0.5,1.1-3.9,4.5-8.2,6.9c-4.3,2.4-9.7,3.7-13.4,3.9c-2.6,0.1-9.5,1.2-17.5-1.3
	c-7.9-2.5-16.9-8.6-24.9-17.3c-0.7-0.8-3.1-2.1-1.3,0.8c1.3,1.5,3.3,3.9,3.3,3.9s14.1,16,31.6,17c12.5,0.7,17.7-1.9,21.1-3.2
	c5.3-2,8.5-5,10.3-7c1.3-1.4,0.5-1.1,2.2-1.2c0.3,0.1,7.4-0.4,13.5-2.2c6.1-1.9,9.5-5.2,9.8-5.5c2.4-2.2,3.6-4.4,4.6-6.3
	c1.3-2.5,2.2-5.2,2.8-8c0.5-2.3,0.9-4.6,1.6-7.3C5339.2,595.6,5338.8,593.2,5337,591.6z"/>
<g>
	<path class="st1" d="M5089.1,574.4c0,0,0.2,0,0.6,0c0.4,0,0.9-0.1,1.6-0.1s1.5,0,2.4,0c1,0,2,0.2,3.2,0.4s2.4,0.6,3.6,1.1
		c1.2,0.5,2.5,1.2,3.8,1.9c1.3,0.6,2.6,1.2,4.1,1.5c1.4,0.3,3,0.2,4.4-0.1c1.5-0.4,2.9-1,4.3-1.6c1.4-0.6,2.7-1.4,4.1-1.9
		c1.4-0.5,2.9-0.6,4.3-0.5c1.4,0.1,2.6,0.5,3.7,1c1.1,0.5,2,1.1,2.8,1.6c0.8,0.6,1.4,1.1,1.9,1.6c0.5,0.5,0.8,0.9,1.1,1.2
		c0.2,0.3,0.3,0.4,0.3,0.4s-0.5-0.6-1.5-1.5c-0.5-0.5-1.1-1-1.9-1.5c-0.8-0.5-1.7-1.1-2.8-1.5c-1.1-0.4-2.3-0.7-3.6-0.8
		c-1.3-0.1-2.7,0.1-4,0.6c-1.3,0.4-2.6,1.2-4,1.9c-1.4,0.6-2.8,1.3-4.4,1.7c-1.5,0.4-3.2,0.5-4.7,0.1c-1.5-0.3-2.9-1-4.3-1.7
		c-1.3-0.7-2.5-1.4-3.7-2c-1.2-0.6-2.4-0.9-3.5-1.2c-2.2-0.6-4.2-0.7-5.5-0.8C5089.8,574.3,5089.1,574.4,5089.1,574.4z"/>
</g>
<g>
	<path class="st1" d="M5088.6,576.8c0,0,0.2,0,0.6,0.1c0.4,0,1,0.1,1.7,0.3c0.7,0.1,1.6,0.3,2.6,0.6c1,0.3,2.2,0.6,3.3,1.1
		c1.2,0.5,2.5,1.1,3.6,2.1c1.1,1,2.3,1.8,3.7,2.6c1.4,0.7,2.9,1.3,4.5,1.4c1.6,0.1,3.3-0.1,4.9-0.6c0.8-0.2,1.6-0.6,2.3-0.9
		s1.6-0.6,2.4-0.9c1.6-0.5,3.2-1,4.8-1.2s3.2-0.2,4.6,0c0.4,0,0.7,0.1,1.1,0.2c0.3,0.1,0.7,0.2,1.1,0.2c0.7,0.1,1.3,0.4,1.9,0.6
		c0.3,0.1,0.6,0.2,0.9,0.4c0.3,0.1,0.6,0.2,0.8,0.4c0.5,0.2,1,0.5,1.5,0.8c0.5,0.2,0.9,0.5,1.2,0.8s0.7,0.5,1.1,0.7
		c0.6,0.4,1.1,0.8,1.4,1.1c0.3,0.2,0.5,0.4,0.5,0.4s-0.7-0.5-1.9-1.3c-0.3-0.2-0.7-0.4-1.1-0.6s-0.8-0.5-1.2-0.7
		c-0.5-0.2-1-0.5-1.5-0.7c-0.5-0.2-1.1-0.5-1.7-0.7c-0.6-0.2-1.2-0.4-1.9-0.5c-0.3-0.1-0.7-0.1-1-0.2c-0.3,0-0.7-0.1-1.1-0.1
		c-1.4-0.1-3-0.1-4.5,0.1c-1.5,0.2-3.1,0.7-4.7,1.2c-0.8,0.3-1.6,0.6-2.3,0.9c-0.8,0.3-1.6,0.7-2.4,0.9c-1.7,0.5-3.4,0.7-5.2,0.6
		s-3.3-0.8-4.8-1.5c-1.4-0.8-2.7-1.8-3.8-2.7c-1.1-1-2.3-1.6-3.4-2.1c-1.1-0.5-2.2-0.9-3.2-1.2c-1-0.3-1.9-0.5-2.6-0.7
		C5089.5,576.9,5088.6,576.8,5088.6,576.8z"/>
</g>
<g>
	<path class="st1" d="M5090.8,580.2c0,0,0.6,0.2,1.7,0.7c0.5,0.3,1.1,0.6,1.8,1.1c0.7,0.4,1.4,0.9,2.2,1.5c0.8,0.6,1.6,1.2,2.5,2
		c0.4,0.4,0.9,0.8,1.3,1.1c0.5,0.4,0.9,0.8,1.4,1.1c2,1.3,4.5,2.2,7.1,2.2c1.3,0,2.6-0.1,3.8-0.5c0.3-0.1,0.6-0.2,0.9-0.3
		c0.3-0.1,0.6-0.2,0.9-0.3c0.6-0.2,1.1-0.5,1.7-0.8c2.2-1,4.4-1.8,6.4-2.3c1-0.2,1.9-0.4,2.7-0.5c0.4,0,0.8,0,1.1-0.1
		c0.3,0,0.7,0,1,0c0.6,0,1.1,0,1.3,0.1c0.3,0,0.5,0,0.5,0s-0.1,0-0.5,0c-0.3,0-0.8,0-1.3,0c-0.3,0-0.6,0-1,0.1s-0.7,0.1-1.1,0.1
		c-0.8,0.1-1.7,0.3-2.6,0.6c-1.9,0.6-4,1.4-6.2,2.5c-0.6,0.2-1.1,0.5-1.7,0.8c-0.3,0.1-0.6,0.2-0.9,0.4c-0.3,0.1-0.6,0.2-1,0.3
		c-1.3,0.4-2.6,0.6-4,0.5c-2.7,0-5.4-1-7.4-2.4c-0.5-0.3-1-0.8-1.4-1.1c-0.4-0.4-0.9-0.8-1.3-1.2c-0.9-0.8-1.6-1.4-2.4-2.1
		c-1.5-1.2-2.9-2.2-3.9-2.8C5091.4,580.4,5090.8,580.2,5090.8,580.2z"/>
</g>
<g>
	<path class="st1" d="M5098.4,590.2c0,0,0.5,0.4,1.3,1.1c0.9,0.7,2.2,1.5,3.7,2.4c0.8,0.4,1.7,0.9,2.7,1.3s2.1,0.7,3.2,0.7
		c0.6,0,1.1,0.1,1.8,0.1c0.6,0,1.2,0,1.8,0c1.2,0,2.4-0.1,3.6-0.3c1.2-0.1,2.4-0.4,3.6-0.7c0.6-0.1,1.2-0.2,1.8-0.3
		c0.3,0,0.6-0.1,0.9-0.1c0.3,0,0.6,0,0.9-0.1l0.4,0c0.1,0,0.3,0,0.4,0c0.3,0,0.6,0,0.9,0c0.3,0,0.6,0,0.9,0.1c0.3,0,0.6,0,0.8,0.1
		c0.3,0,0.5,0.1,0.8,0.2c0.1,0,0.2,0,0.4,0.1c0.1,0,0.2,0.1,0.4,0.1c0.5,0.2,1,0.4,1.3,0.6c0.4,0.2,0.8,0.5,1.2,0.7s0.7,0.5,1,0.7
		c0.3,0.2,0.6,0.4,0.9,0.6c0.3,0.2,0.5,0.4,0.7,0.6c0.8,0.7,1.3,1.1,1.3,1.1s-0.5-0.4-1.4-1c-0.2-0.1-0.4-0.3-0.7-0.5
		s-0.6-0.4-0.9-0.6s-0.6-0.4-1-0.6s-0.8-0.4-1.2-0.6c-0.4-0.2-0.9-0.3-1.3-0.5c-0.1,0-0.2-0.1-0.3-0.1c-0.1,0-0.2,0-0.4-0.1
		c-0.2,0-0.5-0.1-0.8-0.2c-0.2-0.1-0.5,0-0.8-0.1c-0.3,0-0.5,0-0.8,0c-0.5,0-1.1,0-1.7,0.1c-0.3,0-0.6,0.1-0.9,0.1
		c-0.3,0-0.6,0.1-0.9,0.2c-0.6,0.1-1.2,0.2-1.8,0.4c-1.2,0.2-2.4,0.5-3.7,0.7c-1.2,0.2-2.5,0.2-3.7,0.3c-0.6,0-1.2,0-1.9,0
		c-0.6,0-1.2-0.1-1.8-0.1c-1.2-0.1-2.3-0.4-3.3-0.9c-1-0.4-1.9-1-2.7-1.4c-1.6-1-2.8-2-3.6-2.7
		C5098.8,590.7,5098.4,590.2,5098.4,590.2z"/>
</g>
<g>
	<path class="st1" d="M5140.2,597.7c0,0-0.1-0.5-0.5-1.3c-0.2-0.4-0.4-0.9-0.7-1.4c-0.3-0.5-0.7-1.1-1.2-1.7c-0.5-0.6-1-1.1-1.7-1.7
		c-0.1-0.1-0.3-0.3-0.5-0.4c-0.2-0.1-0.3-0.3-0.5-0.4l-0.3-0.2c0,0-0.2-0.1-0.3-0.2c-0.2-0.1-0.4-0.2-0.6-0.3
		c-0.8-0.4-1.8-0.6-2.7-0.7c-1-0.1-2-0.1-2.9,0c-1,0.1-2,0.2-2.9,0.6c-0.9,0.3-1.7,0.8-2.6,1.2c-1.7,0.9-3.4,1.5-4.9,1.8
		c-0.8,0.2-1.4,0.3-2.1,0.4c-0.6,0.1-1.1,0.1-1.6,0.1c-0.4,0-0.8,0-1,0c-0.2,0-0.4,0-0.4,0s0.5-0.1,1.4-0.2c0.9-0.1,2.1-0.4,3.5-0.8
		c0.7-0.2,1.5-0.5,2.2-0.8c0.8-0.3,1.6-0.8,2.4-1.2c0.8-0.4,1.7-1,2.6-1.3c1-0.3,2-0.5,3-0.6c1.1-0.1,2.1,0,3.1,0.1
		c1,0.1,2,0.4,2.9,0.8c0.2,0.1,0.5,0.2,0.7,0.4c0.1,0.1,0.2,0.1,0.3,0.2l0.3,0.2c0.2,0.1,0.3,0.3,0.5,0.4c0.1,0.1,0.3,0.3,0.5,0.5
		c0.6,0.6,1.1,1.2,1.6,1.9c0.5,0.6,0.8,1.2,1.1,1.8c0.3,0.5,0.5,1.1,0.6,1.5c0.1,0.4,0.2,0.8,0.3,1
		C5140.2,597.5,5140.2,597.7,5140.2,597.7z"/>
</g>
</svg>
