<?xml version="1.0" encoding="UTF-8" standalone="no"?>
<!-- Created with Inkscape (http://www.inkscape.org/) -->

<svg
   xmlns:i="http://ns.adobe.com/AdobeIllustrator/10.0/"
   xmlns:dc="http://purl.org/dc/elements/1.1/"
   xmlns:cc="http://creativecommons.org/ns#"
   xmlns:rdf="http://www.w3.org/1999/02/22-rdf-syntax-ns#"
   xmlns:svg="http://www.w3.org/2000/svg"
   xmlns="http://www.w3.org/2000/svg"
   xmlns:sodipodi="http://sodipodi.sourceforge.net/DTD/sodipodi-0.dtd"
   xmlns:inkscape="http://www.inkscape.org/namespaces/inkscape"
   width="2560"
   height="1080"
   viewBox="0 0 2560 1080"
   id="svg12341"
   version="1.1"
   inkscape:version="0.91 r13725"
   sodipodi:docname="lines-wallpaper_2560x1080.svg">
  <defs
     id="defs12343" />
  <sodipodi:namedview
     id="base"
     pagecolor="#ffffff"
     bordercolor="#666666"
     borderopacity="1.0"
     inkscape:pageopacity="0.0"
     inkscape:pageshadow="2"
     inkscape:zoom="0.35"
     inkscape:cx="375"
     inkscape:cy="520"
     inkscape:document-units="px"
     inkscape:current-layer="layer1"
     showgrid="false"
     units="px"
     inkscape:window-width="1920"
     inkscape:window-height="1171"
     inkscape:window-x="1920"
     inkscape:window-y="0"
     inkscape:window-maximized="1" />
  <metadata
     id="metadata12346">
    <rdf:RDF>
      <cc:Work
         rdf:about="">
        <dc:format>image/svg+xml</dc:format>
        <dc:type
           rdf:resource="http://purl.org/dc/dcmitype/StillImage" />
        <dc:title></dc:title>
      </cc:Work>
    </rdf:RDF>
  </metadata>
  <g
     inkscape:label="Layer 1"
     inkscape:groupmode="layer"
     id="layer1"
     transform="translate(0,27.637839)">
    <g
       transform="translate(-10856.376,7095.225)"
       id="g12238">
      <rect
         inkscape:export-ydpi="90"
         inkscape:export-xdpi="90"
         inkscape:export-filename="/home/karbo/Pardus/ArtWork/1200yns1.png"
         y="-7122.8628"
         x="10856.376"
         height="1080"
         width="2560"
         id="rect4587"
         style="fill:#1a1a1a;fill-opacity:1" />
      <g
         transform="translate(-845.07653,-2747.1506)"
         id="g12192">
        <path
           inkscape:connector-curvature="0"
           id="path4591"
           style="fill:#d4aa00;fill-opacity:1;fill-rule:nonzero;stroke:#aa8800;stroke-width:2;stroke-miterlimit:4;stroke-dasharray:none"
           d="m 13822.4,-3742.8403 c 0,0 47.064,21.644 69.938,29.4857 22.873,7.8382 127.254,29.5065 156.956,56.47 28.238,25.6362 46.687,73.3936 62.019,94.299 15.335,20.9054 27.375,34.1084 27.375,34.1084 0,0 -19.735,-16.8957 -33.527,-35.575 -13.792,-18.6724 -36.059,-67.555 -64.012,-89.0457 -27.946,-21.4872 -113.275,-43.9149 -149.407,-55.0905 -36.133,-11.1721 -72.572,-26.9844 -72.572,-26.9844 l 3.23,-7.6675" />
        <path
           inkscape:connector-curvature="0"
           id="path4593"
           style="fill:#d4aa00;fill-opacity:1;fill-rule:nonzero;stroke:#aa8800;stroke-width:2;stroke-miterlimit:4;stroke-dasharray:none"
           d="m 14067.217,-3631.9521 c 0,0 22.355,21.3826 41.347,34.1293 18.854,12.6561 67.172,37.1253 93.927,54.4948 26.75,17.3695 58.239,50.2796 58.239,50.2796 0,0 -34.031,-29.0119 -61.19,-45.4269 -27.152,-16.4115 -79.894,-46.552 -95.466,-56.7243 -15.565,-10.1757 -26.929,-20.1564 -26.929,-20.1564 l -9.928,-16.5961" />
        <path
           inkscape:connector-curvature="0"
           id="path4595"
           style="fill:#d4aa00;fill-opacity:1;fill-rule:nonzero;stroke:#aa8800;stroke-width:2;stroke-miterlimit:4;stroke-dasharray:none"
           d="m 13861.305,-3595.318 c 0,0 -24.305,13.2204 -39.369,32.3631 -15.07,19.1462 -24.807,48.6701 -23.455,69.5546 1.32,20.4142 29.113,75.4594 29.113,75.4594 0,0 -20.923,-56.888 -22.156,-75.9123 -1.23,-19.0242 9.123,-46.2559 21.553,-62.9043 12.437,-16.6484 34.314,-38.5605 34.314,-38.5605" />
        <path
           inkscape:connector-curvature="0"
           id="path4597"
           style="fill:#d4aa00;fill-opacity:1;fill-rule:nonzero;stroke:#aa8800;stroke-width:2;stroke-miterlimit:4;stroke-dasharray:none"
           d="m 13694.01,-3595.6768 c 0,0 49.248,26.636 68.516,43.5561 19.272,16.934 27.235,39.2433 27.235,39.2433 0,0 -17.711,-21.6822 -35.498,-37.3064 -17.781,-15.6207 -60.253,-45.493 -60.253,-45.493" />
        <path
           inkscape:connector-curvature="0"
           id="path4599"
           style="fill:#d4aa00;fill-opacity:1;fill-rule:nonzero;stroke:#aa8800;stroke-width:2;stroke-miterlimit:4;stroke-dasharray:none"
           d="m 13782.703,-3413.1717 c -7.461,-18.1534 -8.862,-54.1709 -12.467,-63.0263 -3.599,-8.8554 -34.342,-44.6047 -64.211,-70.6311 -29.879,-26.0229 -54.683,-42.4309 -60.835,-43.5874 -9.197,-1.7349 -35.018,2.5012 -39.561,7.9253 -3.591,4.2814 -9.319,28.7854 -14.676,32.398 -7.162,4.8283 -23.874,5.5076 -29.81,3.7937 -4.602,-1.3343 -6.838,-4.9155 -6.838,-4.9155 0,0 -8.772,1.2716 -11.535,-1.815 -2.759,-3.083 -3.647,-9.5521 2.944,-19.2959 6.591,-9.7403 19.954,-26.4514 25.236,-38.4386 5.281,-11.9977 10.284,-31.8894 8.942,-41.8213 -1.341,-9.9319 -11.43,-39.7973 -17.826,-52.1956 -6.392,-12.4018 -29.349,-43.0649 -36.407,-47.7365 -6.832,-4.5148 -22.536,-6.2253 -30.942,-10.1095 -8.406,-3.8808 -28.768,-16.1921 -31.332,-23.3649 -2.153,-6.0302 1.724,-16.5334 6.096,-21.0169 4.369,-4.473 13.113,-7.9532 20.686,-9.7228 7.727,-1.8081 13.001,-2.4734 14.196,-3.8321 1.104,-1.261 0.847,-4.9468 -0.916,-5.1836 -1.843,-0.2439 -6.49,4.149 -11.723,6.1173 -5.225,1.9717 -11.294,3.6439 -13.311,3.076 -2.285,-0.6445 -2.811,-5.6435 -6.685,-6.0894 -2.355,-0.2751 -1.209,4.7412 -2.097,8.9878 -0.888,4.2536 -3.16,6.9638 -3.16,6.9638 0,0 0.54,-6.0929 -0.63,-9.7472 -1.171,-3.6509 -4.017,-6.5319 -3.233,-8.5245 0.801,-2.0345 9.793,-5.2952 14.126,-3.1318 3.996,1.9996 4.271,8.3468 4.271,8.3468 0,0 1.958,-5.7201 -0.603,-9.2839 -2.56,-3.5603 -9.844,-2.7382 -9.844,-2.7382 0,0 3.766,-2.9994 9.325,-3.515 8.337,-0.7734 19.234,3.8808 19.234,3.8808 0,0 16.481,-4.5636 26.075,-0.2891 9.597,4.2674 16.317,15.7147 16.317,15.7147 0,0 -5.664,-14.7567 -16.293,-18.9824 -10.924,-4.3372 -27.527,-0.5435 -27.527,-0.5435 0,0 -11.068,-3.0133 -19.38,-1.8533 -8.312,1.1601 -17.481,8.2772 -19.136,11.4891 -1.655,3.2154 4.863,13.9764 4.724,20.1948 -0.08,3.4244 -5.567,9.9911 -4.797,17.0838 0.273,2.4699 2.529,5.431 2.529,5.431 0,0 -1.735,1.9787 -1.885,4.473 -0.153,2.4908 0.917,4.5984 0.917,4.5984 0,0 -1.868,4.48 -1.864,9.594 0,4.8144 2.076,10.4301 4.281,10.9073 2.205,0.4773 7.351,-6.382 7.351,-6.382 0,0 -3.024,10.3081 -3.247,21.8007 -0.22,11.0432 2.623,23.7515 6.668,23.8003 4.041,0.049 5.326,-11.2174 9.566,-20.1912 4.285,-9.0924 11.231,-18.432 11.231,-18.432 0,0 3.017,10.6739 7.668,10.531 3.421,-0.1078 7.559,-5.6156 7.559,-5.6156 0,0 5.536,20.766 11.897,20.6615 3.734,-0.056 7.019,-9.1515 7.019,-9.1515 0,0 26.229,28.437 31.217,38.362 4.996,9.9249 9.152,45.3815 9.152,45.3815 0,0 -8.817,7.7163 -14.234,15.2131 -5.417,7.4899 -16.882,51.1052 -16.882,51.1052 0,0 -5.354,-1.3691 -11.6,-5.0164 -6.017,-3.5116 -13.681,-10.3151 -16.018,-8.8834 -2.362,1.4492 -1.153,10.9526 6.002,20.7347 7.159,9.7926 15.53,14.3701 15.53,14.3701 0,0 -0.745,2.8427 0.631,4.9294 1.379,2.0867 4.204,2.5221 4.204,2.5221 0,0 -0.393,3.961 1.982,6.7061 3.192,3.6752 13.482,4.25 13.482,4.25 0,0 2.557,3.5673 8.086,4.9189 6.023,1.4701 26.5,1.5433 34.356,-4.2465 6.873,-5.0618 9.325,-28.7193 13.722,-32.7255 4.403,-4.0131 22.832,-7.2251 32.788,-4.6123 9.953,2.6162 36.631,18.7525 62.779,41.2917 26.402,22.7552 55.968,58.3442 60.953,70.6032 4.985,12.259 2.212,41.3231 11.479,62.1623 9.27,20.8288 49.694,55.0243 49.694,55.0243 0,0 -35.937,-40.5392 -43.41,-58.696 z m -319.088,-343.5997 c -1.317,-0.1742 -2.592,-4.5462 -2.47,-7.9393 0.136,-3.926 2.142,-9.1794 3.696,-9.5138 2.574,-0.5609 6.971,2.8148 7.277,5.5355 0.321,2.8531 -7.183,12.0953 -8.503,11.9176 z m 18.352,19.066 c -4.759,9.5557 -6.382,20.5292 -8.114,19.9857 -1.731,-0.5364 -4.365,-10.9491 -3.94,-22.4765 0.411,-10.9805 4.926,-24.9882 7.204,-25.9393 4.073,-1.7035 15.238,5.2812 15.245,9.4651 0,3.0064 -5.424,8.9739 -10.395,18.965 z m 20.41,-7.5943 c -2.644,-0.4843 -6.277,-10.1793 -4.811,-11.7086 1.596,-1.6687 11.113,2.1564 11.382,4.2257 0.264,2.0762 -3.926,7.9671 -6.571,7.4829 z m 19.143,15.22 c -2.87,0.056 -9.771,-17.7875 -8.632,-20.3445 0.77,-1.7174 6.312,-1.1182 9.043,0.4598 2.853,1.6443 5.344,5.8665 5.497,8.2668 0.179,2.7346 -3.037,11.5622 -5.908,11.6179 z m 33.683,100.5069 c 6.254,-10.336 14.97,-17.042 14.97,-17.042 0,0 -0.477,12.8372 -4.668,22.7761 -4.191,9.9389 -13.193,20.1878 -16.945,26.8381 -3.706,6.5597 -5.072,12.4784 -5.072,12.4784 0,0 -2.365,-1.1531 -2.404,-2.8531 -0.07,-3.1318 7.866,-31.865 14.119,-42.1975 z m -20.487,60.9047 c -3.376,0.3449 -9.998,-4.6332 -15.363,-11.294 -5.399,-6.7025 -8.497,-16.1676 -7.521,-17.2754 0.975,-1.1113 8.472,5.3613 15.628,9.3048 8.266,4.5601 15.328,6.72 15.328,6.72 0.456,5.0617 -4.696,12.1962 -8.072,12.5446" />
        <path
           inkscape:connector-curvature="0"
           id="path4601"
           style="fill:#d4aa00;fill-opacity:1;fill-rule:nonzero;stroke:#aa8800;stroke-width:2;stroke-miterlimit:4;stroke-dasharray:none"
           d="m 13595.76,-3646.688 c 0,0 9.281,20.1739 8.751,28.1863 -0.533,8.0054 -10.176,17.8676 -13.335,24.1556 -3.164,6.2915 -3.48,15.2096 -1.248,16.4498 3.049,1.6896 13.524,-5.0757 13.524,-5.0757 0,0 -8.667,2.2435 -10.451,0.6759 -1.776,-1.5642 -0.341,-8.5803 2.355,-12.3252 2.693,-3.738 12.621,-15.7113 12.97,-23.2882 0.348,-7.5804 -12.566,-28.7785 -12.566,-28.7785" />
        <path
           inkscape:connector-curvature="0"
           id="path4603"
           style="fill:#d4aa00;fill-opacity:1;fill-rule:nonzero;stroke:#aa8800;stroke-width:2;stroke-miterlimit:4;stroke-dasharray:none"
           d="m 13583.902,-3651.593 c 0,0 1.041,22.602 -0.951,30.7015 -1.993,8.1064 -13.956,27.5626 -13.956,27.5626 0,0 15.168,-15.2584 17.83,-26.1308 2.302,-9.4616 -2.923,-32.1333 -2.923,-32.1333" />
        <path
           inkscape:connector-curvature="0"
           id="path4605"
           style="fill:#d4aa00;fill-opacity:1;fill-rule:nonzero;stroke:#aa8800;stroke-width:2;stroke-miterlimit:4;stroke-dasharray:none"
           d="m 13578.645,-3671.1885 c 0,0 -6.089,-19.5468 -12.485,-34.0283 -6.396,-14.4851 -18.077,-32.8265 -23.985,-39.7903 -5.909,-6.9604 -10.647,-12.1127 -8.626,-13.2936 2.024,-1.181 9.333,5.431 13.743,11.2835 4.822,6.4065 16.624,26.6256 21.916,40.3407 5.037,13.0393 9.437,35.488 9.437,35.488" />
        <path
           inkscape:connector-curvature="0"
           id="path4607"
           style="fill:#d4aa00;fill-opacity:1;fill-rule:nonzero;stroke:#aa8800;stroke-width:2;stroke-miterlimit:4;stroke-dasharray:none"
           d="m 13582.742,-3656.5502 c 0,0 -4.651,-10.1932 -2.365,-10.5555 2.285,-0.3553 2.365,10.5555 2.365,10.5555" />
        <path
           inkscape:connector-curvature="0"
           id="path4609"
           style="fill:#d4aa00;fill-opacity:1;fill-rule:nonzero;stroke:#aa8800;stroke-width:2;stroke-miterlimit:4;stroke-dasharray:none"
           d="m 13564.414,-3807.678 c -8.824,0.418 -14.46,6.9951 -15,9.1028 -0.457,1.7418 1.108,16.1815 6.695,25.7616 5.909,10.1165 17.965,21.3373 22.432,31.959 4.466,10.6217 6.761,26.6325 7.911,37.8917 1.146,11.2557 0.853,19.6757 0.853,19.6757 0,0 -1.783,3.0412 -1.066,6.375 0.889,4.1386 8.828,15.2898 15.513,21.3583 6.692,6.072 17.648,10.9004 17.648,10.9004 0,0 -9.907,-6.8524 -15.812,-13.8127 -5.912,-6.9673 -12.865,-20.6407 -13.527,-24.3716 -0.658,-3.7345 -1.634,-18.7839 -2.77,-29.834 -1.052,-10.2281 -3.407,-28.1096 -5.141,-32.1925 -1.735,-4.0863 -20.014,-23.6784 -24.557,-31.4609 -4.964,-8.5036 -6.35,-19.8463 -6.35,-19.8463 0,0 2.027,-0.1427 3.264,-1.4701 1.303,-1.4005 2.658,-4.4417 4.623,-6.3821 2.146,-2.1285 5.284,-3.6543 5.284,-3.6543" />
        <path
           inkscape:connector-curvature="0"
           id="path4611"
           style="fill:#d4aa00;fill-opacity:1;fill-rule:nonzero;stroke:#aa8800;stroke-width:2;stroke-miterlimit:4;stroke-dasharray:none"
           d="m 13626.427,-3811.848 c 0,0 5.622,10.0434 3.518,15.9273 -1.822,5.0966 -12.266,7.3157 -13.697,6.7862 -1.432,-0.5261 -3.62,-3.7415 -2.794,-4.7901 1.292,-1.6338 10.844,-0.3901 12.917,-4.4068 2.069,-4.0166 0.06,-13.5166 0.06,-13.5166" />
        <path
           inkscape:connector-curvature="0"
           id="path4613"
           style="fill:#d4aa00;fill-opacity:1;fill-rule:nonzero;stroke:#aa8800;stroke-width:2;stroke-miterlimit:4;stroke-dasharray:none"
           d="m 13539.59,-3792.8655 c 0,0 -2.557,-10.7088 -6.999,-16.9445 -4.442,-6.2358 -17.537,-9.4268 -17.93,-10.6426 -0.391,-1.2193 3.222,-3.0029 5.253,-2.8252 2.101,0.1845 11.196,4.8562 15.011,11.1407 4.174,6.8732 4.665,19.2716 4.665,19.2716" />
        <path
           inkscape:connector-curvature="0"
           id="path4615"
           style="fill:#d4aa00;fill-opacity:1;fill-rule:nonzero;stroke:#aa8800;stroke-width:2;stroke-miterlimit:4;stroke-dasharray:none"
           d="m 13557.234,-3822.5881 c 0,0 6.849,-2.1529 11.044,0.216 4.191,2.3689 7.462,7.2843 7.462,7.2843 0,0 7.566,-5.4588 14.007,-4.3267 3.296,0.5818 4.191,2.3689 4.191,2.3689 0,0 6.299,-0.1569 10.061,1.8359 4.177,2.2156 5.88,6.9185 5.88,6.9185 0,0 -6.309,-3.9435 -14.248,-4.2047 -7.935,-0.2578 -14.847,4.8597 -18.125,5.525 -3.372,0.6863 -10.751,-0.5434 -10.932,-3.3303 -0.142,-2.1669 4.634,-2.7835 4.634,-2.7835 0,0 -1.547,-4.7168 -5.574,-6.9429 -4.028,-2.226 -8.4,-2.5605 -8.4,-2.5605" />
        <path
           inkscape:connector-curvature="0"
           id="path4617"
           style="fill:#d4aa00;fill-opacity:1;fill-rule:nonzero;stroke:#aa8800;stroke-width:2;stroke-miterlimit:4;stroke-dasharray:none"
           d="m 13576.938,-3818.1151 c 0,0 3.365,-5.6574 8.058,-7.5107 4.692,-1.8603 11.496,0.028 11.924,1.8637 0.432,1.8394 -5.281,0.031 -10.322,1.2925 -5.044,1.2576 -9.66,4.3545 -9.66,4.3545" />
        <path
           inkscape:connector-curvature="0"
           id="path4619"
           style="fill:#d4aa00;fill-opacity:1;fill-rule:nonzero;stroke:#aa8800;stroke-width:2;stroke-miterlimit:4;stroke-dasharray:none"
           d="m 13499.556,-3811.4787 c 0.07,0.9859 -0.683,1.8324 -1.666,1.8951 -0.978,0.063 -1.828,-0.6793 -1.891,-1.6617 -0.06,-0.9824 0.683,-1.8324 1.661,-1.8951 0.983,-0.063 1.833,0.6828 1.896,1.6617" />
        <path
           inkscape:connector-curvature="0"
           id="path4621"
           style="fill:#d4aa00;fill-opacity:1;fill-rule:nonzero;stroke:#aa8800;stroke-width:2;stroke-miterlimit:4;stroke-dasharray:none"
           d="m 13485.886,-3804.3024 c 0.05,0.857 -0.593,1.5921 -1.45,1.6478 -0.849,0.056 -1.584,-0.5922 -1.644,-1.4492 -0.05,-0.85 0.592,-1.5886 1.446,-1.6443 0.857,-0.052 1.592,0.5957 1.648,1.4457" />
        <path
           inkscape:connector-curvature="0"
           id="path4623"
           style="fill:#d4aa00;fill-opacity:1;fill-rule:nonzero;stroke:#aa8800;stroke-width:2;stroke-miterlimit:4;stroke-dasharray:none"
           d="m 13477.696,-3796.4711 c 0.06,0.8535 -0.592,1.592 -1.449,1.6477 -0.854,0.056 -1.589,-0.5922 -1.645,-1.4457 -0.05,-0.8569 0.592,-1.592 1.446,-1.6477 0.857,-0.056 1.592,0.5922 1.648,1.4457" />
        <path
           inkscape:connector-curvature="0"
           id="path4625"
           style="fill:#d4aa00;fill-opacity:1;fill-rule:nonzero;stroke:#aa8800;stroke-width:2;stroke-miterlimit:4;stroke-dasharray:none"
           d="m 13529.17,-3800.2683 c 0.06,0.8535 -0.592,1.592 -1.446,1.6478 -0.853,0.056 -1.592,-0.5923 -1.647,-1.4492 -0.06,-0.857 0.592,-1.5921 1.445,-1.6478 0.857,-0.056 1.592,0.5922 1.648,1.4492" />
        <path
           inkscape:connector-curvature="0"
           id="path4627"
           style="fill:#d4aa00;fill-opacity:1;fill-rule:nonzero;stroke:#aa8800;stroke-width:2;stroke-miterlimit:4;stroke-dasharray:none"
           d="m 13525.868,-3776.9139 c 0.05,0.8535 -0.593,1.592 -1.446,1.6478 -0.857,0.056 -1.595,-0.5922 -1.648,-1.4492 -0.06,-0.8535 0.592,-1.5886 1.446,-1.6443 0.857,-0.056 1.592,0.5922 1.648,1.4457" />
        <path
           inkscape:connector-curvature="0"
           id="path4629"
           style="fill:#d4aa00;fill-opacity:1;fill-rule:nonzero;stroke:#aa8800;stroke-width:2;stroke-miterlimit:4;stroke-dasharray:none"
           d="m 13518.859,-3808.3782 c 0.06,0.9823 -0.68,1.8324 -1.662,1.8951 -0.986,0.063 -1.829,-0.6828 -1.892,-1.6652 -0.07,-0.9789 0.68,-1.8289 1.662,-1.8917 0.982,-0.063 1.829,0.6828 1.892,1.6618" />
        <path
           inkscape:connector-curvature="0"
           id="path4631"
           style="fill:#d4aa00;fill-opacity:1;fill-rule:nonzero;stroke:#aa8800;stroke-width:2;stroke-miterlimit:4;stroke-dasharray:none"
           d="m 13494.065,-3802.7347 c 0.06,0.9858 -0.679,1.8289 -1.665,1.8951 -0.982,0.063 -1.829,-0.6793 -1.895,-1.6652 -0.06,-0.9824 0.686,-1.8324 1.665,-1.8951 0.983,-0.063 1.833,0.6828 1.895,1.6652" />
        <path
           inkscape:connector-curvature="0"
           id="path4633"
           style="fill:#d4aa00;fill-opacity:1;fill-rule:nonzero;stroke:#aa8800;stroke-width:2;stroke-miterlimit:4;stroke-dasharray:none"
           d="m 13487.335,-3793.9106 c 0.07,0.9824 -0.679,1.8289 -1.662,1.8951 -0.982,0.063 -1.829,-0.6828 -1.895,-1.6652 -0.06,-0.9824 0.683,-1.8289 1.665,-1.8916 0.979,-0.063 1.829,0.6793 1.892,1.6617" />
        <path
           inkscape:connector-curvature="0"
           id="path4635"
           style="fill:#d4aa00;fill-opacity:1;fill-rule:nonzero;stroke:#aa8800;stroke-width:2;stroke-miterlimit:4;stroke-dasharray:none"
           d="m 13481.538,-3785.1492 c 0.06,0.9823 -0.686,1.8324 -1.668,1.8951 -0.979,0.063 -1.83,-0.6828 -1.892,-1.6617 -0.07,-0.9859 0.683,-1.8324 1.662,-1.8952 0.982,-0.063 1.832,0.6794 1.898,1.6618" />
        <path
           inkscape:connector-curvature="0"
           id="path4637"
           style="fill:#d4aa00;fill-opacity:1;fill-rule:nonzero;stroke:#aa8800;stroke-width:2;stroke-miterlimit:4;stroke-dasharray:none"
           d="m 13516.775,-3774.6147 c 0.06,0.9789 -0.682,1.8324 -1.661,1.8951 -0.983,0.063 -1.833,-0.6828 -1.896,-1.6652 -0.06,-0.9824 0.683,-1.8289 1.662,-1.8916 0.983,-0.066 1.833,0.6793 1.895,1.6617" />
        <path
           inkscape:connector-curvature="0"
           id="path4639"
           style="fill:#d4aa00;fill-opacity:1;fill-rule:nonzero;stroke:#aa8800;stroke-width:2;stroke-miterlimit:4;stroke-dasharray:none"
           d="m 13527.616,-3788.288 c 0.06,0.9859 -0.679,1.8289 -1.661,1.8916 -0.986,0.066 -1.829,-0.6758 -1.895,-1.6617 -0.06,-0.9789 0.679,-1.8324 1.665,-1.8951 0.979,-0.063 1.829,0.6828 1.891,1.6652" />
        <path
           inkscape:connector-curvature="0"
           id="path4641"
           style="fill:#d4aa00;fill-opacity:1;fill-rule:nonzero;stroke:#aa8800;stroke-width:2;stroke-miterlimit:4;stroke-dasharray:none"
           d="m 13520.935,-3799.1152 c 0.06,0.9824 -0.68,1.8324 -1.662,1.8951 -0.986,0.063 -1.829,-0.6793 -1.891,-1.6652 -0.07,-0.9824 0.679,-1.8289 1.661,-1.8951 0.982,-0.063 1.829,0.6828 1.892,1.6652" />
        <path
           inkscape:connector-curvature="0"
           id="path4643"
           style="fill:#d4aa00;fill-opacity:1;fill-rule:nonzero;stroke:#aa8800;stroke-width:2;stroke-miterlimit:4;stroke-dasharray:none"
           d="m 13510.268,-3810.3047 c 0.07,1.1113 -0.77,2.0693 -1.881,2.139 -1.108,0.073 -2.066,-0.7699 -2.139,-1.8812 -0.07,-1.1078 0.77,-2.0658 1.881,-2.139 1.111,-0.07 2.069,0.7699 2.139,1.8812" />
        <path
           inkscape:connector-curvature="0"
           id="path4645"
           style="fill:#d4aa00;fill-opacity:1;fill-rule:nonzero;stroke:#aa8800;stroke-width:2;stroke-miterlimit:4;stroke-dasharray:none"
           d="m 13502.973,-3800.6689 c 0.07,1.1113 -0.77,2.0693 -1.881,2.1389 -1.108,0.073 -2.073,-0.7698 -2.143,-1.8811 -0.07,-1.1078 0.774,-2.0658 1.885,-2.139 1.108,-0.07 2.066,0.7699 2.139,1.8812" />
        <path
           inkscape:connector-curvature="0"
           id="path4647"
           style="fill:#d4aa00;fill-opacity:1;fill-rule:nonzero;stroke:#aa8800;stroke-width:2;stroke-miterlimit:4;stroke-dasharray:none"
           d="m 13511.992,-3799.3103 c 0.07,1.1113 -0.77,2.0693 -1.877,2.139 -1.112,0.073 -2.073,-0.7699 -2.146,-1.8777 -0.07,-1.1148 0.773,-2.0728 1.884,-2.146 1.108,-0.07 2.07,0.7699 2.139,1.8847" />
        <path
           inkscape:connector-curvature="0"
           id="path4649"
           style="fill:#d4aa00;fill-opacity:1;fill-rule:nonzero;stroke:#aa8800;stroke-width:2;stroke-miterlimit:4;stroke-dasharray:none"
           d="m 13517.866,-3787.7341 c 0.07,1.1147 -0.77,2.0693 -1.878,2.1424 -1.111,0.07 -2.069,-0.7699 -2.139,-1.8846 -0.07,-1.1078 0.766,-2.0658 1.878,-2.139 1.111,-0.07 2.069,0.7734 2.139,1.8812" />
        <path
           inkscape:connector-curvature="0"
           id="path4651"
           style="fill:#d4aa00;fill-opacity:1;fill-rule:nonzero;stroke:#aa8800;stroke-width:2;stroke-miterlimit:4;stroke-dasharray:none"
           d="m 13507.596,-3787.9989 c 0.07,1.1078 -0.767,2.0693 -1.878,2.1425 -1.108,0.07 -2.069,-0.7734 -2.139,-1.8847 -0.07,-1.1113 0.77,-2.0693 1.878,-2.139 1.111,-0.073 2.069,0.7699 2.139,1.8812" />
        <path
           inkscape:connector-curvature="0"
           id="path4653"
           style="fill:#d4aa00;fill-opacity:1;fill-rule:nonzero;stroke:#aa8800;stroke-width:2;stroke-miterlimit:4;stroke-dasharray:none"
           d="m 13497.048,-3790.2702 c 0.07,1.1113 -0.77,2.0728 -1.882,2.1459 -1.108,0.07 -2.069,-0.7699 -2.142,-1.8846 -0.07,-1.1113 0.77,-2.0693 1.881,-2.139 1.111,-0.073 2.069,0.7664 2.143,1.8777" />
        <path
           inkscape:connector-curvature="0"
           id="path4655"
           style="fill:#d4aa00;fill-opacity:1;fill-rule:nonzero;stroke:#aa8800;stroke-width:2;stroke-miterlimit:4;stroke-dasharray:none"
           d="m 13492.268,-3780.1711 c 0.07,1.1078 -0.777,2.0658 -1.885,2.139 -1.111,0.07 -2.069,-0.7699 -2.139,-1.8812 -0.07,-1.1113 0.77,-2.0658 1.878,-2.139 1.111,-0.07 2.073,0.7699 2.146,1.8812" />
        <path
           inkscape:connector-curvature="0"
           id="path4657"
           style="fill:#d4aa00;fill-opacity:1;fill-rule:nonzero;stroke:#aa8800;stroke-width:2;stroke-miterlimit:4;stroke-dasharray:none"
           d="m 13504.485,-3776.151 c 0.07,1.1113 -0.773,2.0658 -1.881,2.1425 -1.112,0.07 -2.069,-0.7734 -2.143,-1.8812 -0.07,-1.1113 0.77,-2.0693 1.882,-2.139 1.111,-0.073 2.069,0.7664 2.142,1.8777" />
        <path
           inkscape:connector-curvature="0"
           id="path4659"
           style="fill:#d4aa00;fill-opacity:1;fill-rule:nonzero;stroke:#aa8800;stroke-width:2;stroke-miterlimit:4;stroke-dasharray:none"
           d="m 13526.408,-3833.3282 c 0,0 8.472,1.3134 14.321,0.4703 5.846,-0.843 19.63,-6.2427 28.747,-6.9847 9.113,-0.749 15.993,-0.1079 15.993,-0.1079 0,0 6.417,-3.9887 17.151,-3.7484 10.729,0.2369 24.169,3.8704 29.332,4.4696 5.166,0.5957 16.227,1.1217 28.601,5.1383 13.757,4.4591 33.203,16.1746 44.845,23.3405 11.646,7.1694 13.084,7.6989 23.936,12.2764 10.865,4.581 24.953,11.1198 33.857,16.7564 6.397,4.048 13.465,11.2417 13.465,11.2417 l -14.694,-3.8633 c 0,0 -7.19,-7.9219 -19.85,-13.9346 -12.66,-6.0163 -22.212,-9.5905 -29.141,-13.4922 -6.932,-3.8982 -20.101,-12.9871 -31.834,-19.0626 -11.732,-6.072 -22.344,-9.2665 -28.963,-10.7052 -6.612,-1.4353 -12.377,-1.6827 -12.377,-1.6827 0,0 3.78,3.1737 2.766,4.3267 -1.014,1.1531 -23.636,-12.447 -40.793,-11.179 -14.688,1.0834 -20.781,12.5237 -23.452,12.0743 -2.666,-0.4459 -0.509,-7.8869 -0.509,-7.8869 0,0 -5.515,-1.1949 -12.764,-0.4146 -7.249,0.7769 -19.373,5.4484 -24.609,6.0999 -5.242,0.6479 -8.953,0.8883 -8.953,0.8883 l -5.075,-4.0201" />
        <path
           inkscape:connector-curvature="0"
           id="path4661"
           style="fill:#d4aa00;fill-opacity:1;fill-rule:nonzero;stroke:#aa8800;stroke-width:2;stroke-miterlimit:4;stroke-dasharray:none"
           d="m 13783.985,-3765.2019 c 0,0 -16.536,-5.9187 -31.746,-8.197 -15.213,-2.2783 -36.843,-0.2266 -39.724,-1.7767 -2.575,-1.3864 -4.519,-7.4759 -8.553,-12.1823 -3.894,-4.5462 -10.186,-6.173 -10.245,-7.1032 -0.06,-0.9266 4.163,-2.9088 6.696,-2.1424 2.264,0.6863 5.528,3.8355 7.991,8.3364 2.567,4.682 2.665,9.9214 5.083,11.3219 2.424,1.3934 23.445,-2.6058 43.354,0.2961 19.912,2.9053 36.707,10.3603 36.707,10.3603 l -9.563,1.0869" />
        <path
           inkscape:connector-curvature="0"
           id="path4663"
           style="fill:#d4aa00;fill-opacity:1;fill-rule:nonzero;stroke:#aa8800;stroke-width:2;stroke-miterlimit:4;stroke-dasharray:none"
           d="m 13814.52,-3756.6181 c 0,0 -5.267,9.8169 -17.621,15.7391 -12.353,5.9257 -28.639,6.2044 -28.639,6.2044 0,0 3.379,4.2849 2.603,6.6642 -0.777,2.3828 -7.341,4.4452 -13.75,3.529 -6.741,-0.9615 -10.998,-6.7409 -9.831,-7.9044 1.17,-1.1601 5.633,3.0551 10.047,4.0131 4.41,0.9545 10.471,1.0242 10.991,-0.5539 0.519,-1.5885 -6.163,-6.4412 -4.745,-8.5523 1.414,-2.1111 18.55,-1.1949 31.273,-6.3716 12.711,-5.1698 19.672,-12.7676 19.672,-12.7676" />
        <path
           inkscape:connector-curvature="0"
           id="path4665"
           style="fill:#d4aa00;fill-opacity:1;fill-rule:nonzero;stroke:#aa8800;stroke-width:2;stroke-miterlimit:4;stroke-dasharray:none"
           d="m 13665.799,-3628.3291 c 0,0 -8.218,-4.588 -12.321,-10.3848 -4.105,-5.7863 -6.188,-16.3697 -6.188,-16.3697 0,0 34.75,-7.8417 40.303,-15.659 5.553,-7.8138 8.057,-24.2845 7.023,-33.0703 -1.031,-8.7893 -6.034,-21.198 -6.034,-21.198 0,0 12.012,12.7327 21.864,16.1293 9.89,3.4209 44.381,4.2744 52.742,1.4108 6.183,-2.1285 11.318,-9.9005 11.318,-9.9005 0,0 5.264,2.4908 10.862,2.2435 7.125,-0.3031 28.354,-13.0184 35.328,-27.6045 5.511,-11.5135 2.212,-23.438 -1.32,-25.2286 -3.533,-1.7941 -22.101,4.0689 -36.028,4.8179 -13.935,0.749 -27.221,-0.5678 -36.697,-0.5748 -9.611,-0.011 -27.51,2.0902 -33.216,5.1035 -5.247,2.7661 -6.901,8.5211 -6.901,8.5211 0,0 8.033,4.142 12.826,8.6429 4.797,4.5044 9.249,10.8969 8.434,15.1365 -0.808,4.2535 -10.468,9.6601 -13.217,6.9185 -2.494,-2.4769 7.472,-4.5183 8.441,-8.7753 0.941,-4.1525 -3.055,-10.3534 -8.211,-14.0705 -5.539,-3.9888 -14.227,-6.2253 -14.227,-6.2253 0,0 2.334,-10.1235 10.747,-13.8963 8.904,-3.9957 24.647,-3.1492 36.617,-2.9924 11.969,0.1569 26.695,-0.331 37.313,-1.7941 10.625,-1.4666 30.458,-8.4061 36.634,-5.1698 6.595,3.4593 8.855,19.0939 1.989,33.1122 -7.545,15.3977 -30.234,29.604 -38.567,30.4506 -6.01,0.6131 -9.612,-2.1738 -9.612,-2.1738 0,0 -5.316,6.713 -11.423,8.3503 -8.395,2.2539 -45.109,1.3726 -53.38,-1.6652 -8.273,-3.0377 -16.446,-11.6702 -16.446,-11.6702 0,0 3.358,8.629 3.525,16.0805 0.173,7.4411 -1.574,27.3328 -7.141,33.5441 -7.389,8.2423 -40.463,13.1822 -40.463,13.1822 0,0 2.028,7.3226 5.811,12.98 3.78,5.661 9.615,11.7992 9.615,11.7992" />
        <path
           inkscape:connector-curvature="0"
           i:knockout="Off"
           d="m 13444.262,-3454.6252 c 0,3.2082 -1.127,5.9368 -3.377,8.1868 -2.251,2.2499 -4.979,3.3749 -8.186,3.3749 l -2.381,0 c -1.587,0 -2.381,0.7726 -2.381,2.315 l 0,9.2637 c 0,1.2965 -0.448,2.3932 -1.34,3.2892 -0.894,0.8961 -1.988,1.3427 -3.283,1.3427 l -2.314,0 c -1.297,0 -2.391,-0.4485 -3.285,-1.3483 -0.894,-0.8998 -1.339,-2.0003 -1.339,-3.3043 l 0,-53.4981 c 0,-3.2054 1.132,-5.9359 3.403,-8.1858 2.269,-2.251 5.023,-3.376 8.255,-3.376 l 4.665,0 c 3.206,0 5.935,1.126 8.186,3.376 2.25,2.2509 3.377,4.9804 3.377,8.1858 l 0,30.3784 z m -11.624,-2.4318 0,-25.5544 c 0,-1.549 -0.784,-2.3244 -2.349,-2.3244 -1.569,0 -2.352,0.7764 -2.352,2.3244 l 0,25.5553 c 0,1.5509 0.783,2.3254 2.352,2.3254 1.565,0 2.349,-0.7755 2.349,-2.3263 z"
           id="path4669"
           style="fill:#aa8800" />
        <path
           inkscape:connector-curvature="0"
           i:knockout="Off"
           d="m 13478.645,-3438.4156 c 0,3.2082 -1.127,5.9387 -3.376,8.1868 -2.252,2.2509 -4.979,3.3759 -8.186,3.3759 l -4.76,0 c -3.208,0 -5.936,-1.1241 -8.186,-3.3759 -2.251,-2.2491 -3.376,-4.9796 -3.376,-8.1868 l 0,-4.6479 c 0,-3.2063 1.124,-5.9349 3.376,-8.1858 2.25,-2.2491 4.978,-3.3759 8.186,-3.3759 l 2.35,0 c 1.565,0 2.351,-0.7783 2.351,-2.3357 l 0,-25.7061 c 0,-1.5574 -0.773,-2.3357 -2.322,-2.3357 -1.551,0 -2.324,0.7773 -2.324,2.3282 l 0,18.6367 c 0,1.305 -0.451,2.4092 -1.346,3.309 -0.903,0.9008 -2.002,1.3521 -3.302,1.3521 l -2.32,0 c -1.302,0 -2.402,-0.4495 -3.3,-1.3493 -0.901,-0.8979 -1.347,-1.9974 -1.347,-3.3005 l 0,-20.9187 c 0,-3.2214 1.124,-5.9641 3.376,-8.2254 2.25,-2.2622 4.978,-3.3948 8.185,-3.3948 l 4.761,0 c 3.208,0 5.935,1.1345 8.186,3.3967 2.25,2.2641 3.376,5.0097 3.376,8.2329 l 0,46.5202 z m -11.622,-2.3791 c 0,-1.548 -0.772,-2.3206 -2.322,-2.3206 -1.551,0 -2.324,0.7735 -2.324,2.3206 0,1.5509 0.773,2.3254 2.324,2.3254 1.549,0 2.322,-0.7745 2.322,-2.3254 z"
           id="path4671"
           style="fill:#aa8800" />
        <path
           inkscape:connector-curvature="0"
           i:knockout="Off"
           d="m 13513.028,-3464.0274 c 0,1.303 -0.449,2.4026 -1.341,3.3005 -0.893,0.8998 -1.988,1.3492 -3.282,1.3492 l -2.314,0 c -1.296,0 -2.39,-0.4513 -3.284,-1.352 -0.894,-0.8998 -1.34,-2.0041 -1.34,-3.309 l 0,-18.6367 c 0,-1.5509 -0.794,-2.3282 -2.381,-2.3282 -1.586,0 -2.381,0.7754 -2.381,2.3263 l 0,51.1718 c 0,1.304 -0.447,2.4045 -1.34,3.3043 -0.894,0.8998 -1.989,1.3483 -3.282,1.3483 l -2.314,0 c -1.297,0 -2.392,-0.4485 -3.283,-1.3483 -0.894,-0.898 -1.342,-1.9975 -1.342,-3.2996 l 0,-53.4463 c 0,-3.2223 1.13,-5.9641 3.392,-8.2244 2.263,-2.2623 5.003,-3.3948 8.228,-3.3948 l 4.647,0 c 3.223,0 5.963,1.1325 8.225,3.3948 2.262,2.2622 3.393,5.0049 3.393,8.2254 l 0,20.9187 z"
           id="path4673"
           style="fill:#aa8800" />
        <path
           inkscape:connector-curvature="0"
           i:knockout="Off"
           d="m 13547.413,-3438.4156 c 0,3.2082 -1.125,5.9387 -3.374,8.1868 -2.254,2.2509 -4.983,3.3759 -8.187,3.3759 l -11.659,0 c -1.308,0 -2.411,-0.4485 -3.315,-1.3483 -0.9,-0.898 -1.351,-1.9975 -1.351,-3.2996 l 0,-60.4176 c 0,-1.2993 0.451,-2.3989 1.351,-3.2987 0.904,-0.8988 2.007,-1.3483 3.315,-1.3483 l 11.659,0 c 3.204,0 5.934,1.126 8.187,3.376 2.249,2.2509 3.374,4.9804 3.374,8.1858 l 0,46.588 z m -11.622,-2.3791 0,-41.8167 c 0,-1.549 -0.785,-2.3244 -2.351,-2.3244 -1.568,0 -2.35,0.7764 -2.35,2.3244 l 0,41.8167 c 0,1.5509 0.782,2.3254 2.35,2.3254 1.566,0 2.351,-0.7745 2.351,-2.3254 z"
           id="path4675"
           style="fill:#aa8800" />
        <path
           inkscape:connector-curvature="0"
           i:knockout="Off"
           d="m 13581.797,-3438.4156 c 0,3.2082 -1.127,5.9387 -3.377,8.1868 -2.25,2.2509 -4.98,3.3759 -8.185,3.3759 l -4.761,0 c -3.21,0 -5.938,-1.1241 -8.187,-3.3759 -2.25,-2.2491 -3.377,-4.9796 -3.377,-8.1868 l 0,-53.4981 c 0,-1.3031 0.451,-2.4036 1.349,-3.3034 0.898,-0.8998 1.998,-1.3492 3.3,-1.3492 l 2.324,0 c 1.299,0 2.401,0.4494 3.297,1.3483 0.9,0.9007 1.349,1.9993 1.349,3.2986 l 0,51.1238 c 0,1.5508 0.775,2.3253 2.325,2.3253 1.548,0 2.323,-0.7745 2.323,-2.3253 l 0,-51.1238 c 0,-1.2993 0.448,-2.3988 1.347,-3.2986 0.899,-0.8989 2,-1.3483 3.303,-1.3483 l 2.321,0 c 1.303,0 2.403,0.4494 3.303,1.3492 0.899,0.8998 1.348,2.0003 1.348,3.3034 l 0,53.4981 z"
           id="path4677"
           style="fill:#aa8800" />
        <path
           inkscape:connector-curvature="0"
           i:knockout="Off"
           d="m 13616.181,-3438.4156 c 0,3.2082 -1.126,5.9387 -3.376,8.1868 -2.251,2.2509 -4.98,3.3759 -8.186,3.3759 l -11.658,0 c -1.308,0 -2.412,-0.4485 -3.313,-1.3483 -0.903,-0.898 -1.352,-1.9975 -1.352,-3.2996 l 0,-2.3216 c 0,-1.2993 0.447,-2.3998 1.349,-3.2986 0.898,-0.8989 1.997,-1.3474 3.298,-1.3474 l 9.292,0 c 1.547,0 2.325,-0.766 2.325,-2.299 0,-1.5291 -0.785,-2.2951 -2.35,-2.2951 l -2.351,0 c -3.208,0 -5.937,-1.125 -8.186,-3.375 -2.253,-2.25 -3.377,-4.9786 -3.377,-8.1868 l 0,-30.3784 c 0,-3.2053 1.124,-5.9358 3.377,-8.1858 2.25,-2.2509 4.978,-3.3759 8.186,-3.3759 l 4.76,0 c 3.206,0 5.936,1.1259 8.186,3.3759 2.25,2.2509 3.376,4.9805 3.376,8.1858 l 0,20.9649 c 0,1.305 -0.45,2.4092 -1.347,3.309 -0.9,0.9008 -2,1.3521 -3.302,1.3521 l -2.325,0 c -1.301,0 -2.402,-0.4495 -3.302,-1.3493 -0.9,-0.8979 -1.346,-1.9974 -1.346,-3.2986 l 0,-18.5868 c 0,-1.549 -0.774,-2.3244 -2.322,-2.3244 -1.552,0 -2.325,0.7764 -2.325,2.3244 l 0,25.5553 c 0,1.5509 0.786,2.3254 2.354,2.3254 l 2.351,0 c 3.207,0 5.936,1.1344 8.186,3.4032 2.25,2.2688 3.376,5.02 3.376,8.2527 l 0,4.6592 z"
           id="path4679"
           style="fill:#aa8800" />
      </g>
    </g>
  </g>
</svg>
