<?xml version="1.0" encoding="UTF-8" standalone="no"?>
<!-- Generator: Adobe Illustrator 19.1.0, SVG Export Plug-In . SVG Version: 6.00 Build 0)  -->

<svg
   xmlns:dc="http://purl.org/dc/elements/1.1/"
   xmlns:cc="http://creativecommons.org/ns#"
   xmlns:rdf="http://www.w3.org/1999/02/22-rdf-syntax-ns#"
   xmlns:svg="http://www.w3.org/2000/svg"
   xmlns="http://www.w3.org/2000/svg"
   xmlns:sodipodi="http://sodipodi.sourceforge.net/DTD/sodipodi-0.dtd"
   xmlns:inkscape="http://www.inkscape.org/namespaces/inkscape"
   version="1.1"
   id="svg12341"
   inkscape:version="0.91 r13725"
   sodipodi:docname="anger-wallpaper_2560x1080.svg"
   x="0px"
   y="0px"
   viewBox="880 -140 2560 1080"
   style="enable-background:new 880 -140 2560 1080;"
   xml:space="preserve"><metadata
     id="metadata83"><rdf:RDF><cc:Work
         rdf:about=""><dc:format>image/svg+xml</dc:format><dc:type
           rdf:resource="http://purl.org/dc/dcmitype/StillImage" /></cc:Work></rdf:RDF></metadata><defs
     id="defs81" /><sodipodi:namedview
     pagecolor="#ffffff"
     bordercolor="#666666"
     borderopacity="1"
     objecttolerance="10"
     gridtolerance="10"
     guidetolerance="10"
     inkscape:pageopacity="0"
     inkscape:pageshadow="2"
     inkscape:window-width="1920"
     inkscape:window-height="1023"
     id="namedview79"
     showgrid="false"
     inkscape:zoom="0.27578125"
     inkscape:cx="1796.5124"
     inkscape:cy="495.29463"
     inkscape:window-x="0"
     inkscape:window-y="0"
     inkscape:window-maximized="1"
     inkscape:current-layer="svg12341" /><style
     type="text/css"
     id="style3">
	.st0{fill:#1A1A1A;}
	.st1{fill:#D3A809;}
</style><g
     transform="translate(-7302.3976,3923.774)"
     id="g7131"><g
       id="g6560"
       transform="matrix(1.4037396,0,0,1.0545845,8013.5149,-3470.1194)"><rect
         style="fill:#094766;fill-opacity:1"
         id="rect6562"
         height="1024.1"
         width="1820.7"
         class="st0"
         y="-562.92749"
         x="121.80916" /><path
         style="fill:#11668a;fill-opacity:0.58823529"
         inkscape:connector-curvature="0"
         id="path6564"
         d="m 130.00916,457.47252 -9.7,3.5 1823.70004,0.2 0,-391.4 c -4.9,0.9 -10.7,1.6 -18.6,2 -20.1,-2.5 -28.3,-14.1 -46.3,-20.9 l 9.5,9.7 c -27,10.2 -19.4,-4.2 -40.3,7.7 l -0.4,-16.7 c -7.1,8.9 -26.6,3.9 -34.9,0.3 l -6,12.1 c -17.8,-4.7 -29.3,-6.3 -35.7,-16.2 l 2.8,10.3 c -7.2,-6 -66,8.8 -47.7,-11.4 -4.7,3 -8.6,8.9 -19.7,9 l -3,-10.2 c -15.5,4.7 -32.7,9.2 -38.1,4 8.2,-3.7 10.5,-8.7 12.7,-13.6 -67.1,7.6 -9.5,35.7 -67.9,45.5 l -0.3,-6.9 -13.7,9.5 -16.9,-6.1 c -17.3,26.2 -82.3,11.5 -115.2,30.3 -13.4,4.5 -34.2,-5.9 -60,0.8 l 3.7,10 c -23.2,-6.6 -102.8,2.8 -127.4,-16.9 -18.1,12.1 2.5,1.7 3.8,10 -36.3,18.8 -42.3,3.3 -63.8,1.5 -22.6,10.2 19,0.1 7.9,10.5 -38,-0.1 -26.7,19 -72.9,21.9 -5.7,-4.8 10.7,-6.5 14.4,-11.4 -29.2,17.3 -89.1,23.8 -135.2,36 -60.70004,7 -126.70004,14.6 -200.10004,23.1 l -0.3,4 c -28,-3.5 -54.1,12.1 -85.5,15 l 16.1,1.9 c -18.3,11.1 -30.3,9.8 -48.4,17 l -13,-8.2 c -19.4,8.4 -6.8,11.2 -20.1,20.4 -20.1,-2.3 -57.6,13.5 -66.5,15.3 -7.3,-3.4 5.9,-8.7 8.1,-12.5 -22.9,9.6 -18.6,19.4 -48.1,26.9 l -1.2,-2.8 c -66.6,33 -156.8,52.5 -231.9,84.2 5.4,-1 4.7,1.7 7.4,3.2 -81,26.9 -175.3,56.7 -230.8,102.8 2.8,-1.1 6.1,-2.3 9.5,-3.4 z"
         class="st2" /><g
         id="g6566"
         style="fill:#11668a;fill-opacity:0.58823529"
         transform="translate(50.109159,-150.32748)"><path
           style="fill:#11668a;fill-opacity:0.58823529"
           inkscape:connector-curvature="0"
           id="path6568"
           d="m 1101.6,-249.6 c -5.3,-0.8 -11.4,-0.7 -11.1,-3.3 -5,3.7 -5.7,6 11.1,3.3 z"
           class="st2" /><polygon
           style="fill:#11668a;fill-opacity:0.58823529"
           id="polygon6570"
           points="375,-116.8 365,-117.7 351.3,-109.5 "
           class="st2" /><polygon
           style="fill:#11668a;fill-opacity:0.58823529"
           id="polygon6572"
           points="724,-195.6 671.6,-175.1 728.1,-195.1 "
           class="st2" /><path
           style="fill:#11668a;fill-opacity:0.58823529"
           inkscape:connector-curvature="0"
           id="path6574"
           d="m 1081.2,-229.6 24.4,-10 -4,-0.6 c -5.3,6 -14.7,6 -20.4,10.6 z"
           class="st2" /><path
           style="fill:#11668a;fill-opacity:0.58823529"
           inkscape:connector-curvature="0"
           id="path6576"
           d="m 71.5,-412.5 0,390.7 4.7,-1.7 c 44.2,-15 115.7,-22.9 152.5,-52.6 18.8,2.4 41.3,-15.7 51.3,-7.1 65.4,-13.7 86.4,-39.8 148.4,-56.8 4.8,-0.2 6.4,1.3 7.3,3.5 l 0,-0.1 c 55.8,-30.7 107.4,-35.9 167.8,-55.8 15.1,-5 36.3,-9.2 40.1,-4.8 -9.7,4.3 -1,6.6 -8.7,11.1 20.8,-9.6 -2.3,-19 29.8,-24.6 l 0.3,18.7 c 8,-21.8 39.4,-6.1 59.3,-22.3 9.8,5.2 -4.2,12.8 -21.3,17.5 20.4,-1.6 19.7,-12.3 35.4,-15.8 l -11.2,18.7 c 13.2,-18.4 30.6,-4.3 41.1,-1.7 0.3,-3.9 -11.2,-13.4 9.9,-17.5 9.4,-0.2 5.7,4.7 8.3,6.4 0.3,-4 6.2,-12.6 19.9,-16.2 3.7,4.5 -7.4,9.8 -7.1,15.2 10.4,-2.7 18.6,-5.7 27.2,-3.3 17.4,-8.3 -2.8,-7.1 7.3,-15.1 29.2,-2.3 6.5,17.1 19.2,25.7 -20.2,11.6 -45.5,20.4 -56.6,27.1 l 39.2,-13.5 c -1.3,6.5 30,4.4 9.4,14.8 42.3,-3.1 90.6,-20.3 128.8,-33.7 -6,-0.9 -13.5,-0.6 -13.1,-4.6 19.6,-7.9 18.9,0 24,3.4 14.1,-7.4 10.2,-17.4 17.8,-27 32.9,1.9 36.1,-4.3 65.2,2.4 l -3.9,-9.9 c 20.5,4.2 19.8,-12 41.3,-10.3 1.6,2 -5.5,6.3 -11.2,10.1 17.1,-7.3 18.3,5.1 34.8,-2.7 l -11.2,14.3 c 13.7,-3.4 33.3,-11.4 28.3,0 21.6,-17.1 65,-21.5 93.8,-34.7 l -0.1,9.4 c 13.3,-14.2 57.5,-11.3 68.4,-27.1 l 3,3.2 28.6,-18.3 c 14.3,-1.7 12.2,12.7 12.6,8.7 30.4,-8.6 54.6,-13.7 75.3,-12.8 2.7,-13.1 34.8,-22.2 60.6,-28 126.5,-14.5 259.5,-42.4 377.2,-62.8 6.9,-0.5 14.8,-3 23.2,-6.3 l 4,-0.5 0,-1.1 c 0.4,-0.2 -0.6,-12 -0.2,-12.2 l -1820.7,0 0,0 z"
           class="st2" /></g></g><g
       transform="translate(4495.8655,-1878.1722)"
       id="g6578"><g
         id="g6580"
         transform="translate(327.75086,-248.02768)"><g
           id="g6582"
           transform="translate(1343.3135,-1691.8552)"><path
             style="fill:#d6d6d6"
             inkscape:connector-curvature="0"
             id="path6584"
             d="m 3397.6014,145.9789 c -0.9,-2.6 -3.6,-7.3 -6.1,-10.5 -2.5,-3.1 -6.5,-6.9 -9,-8.3 -2.5,-1.4 -13.7,1.7 -19.4,4.3 l -4.2,1.9 c -5.7,2.6 -10.4,4.8 -10.5,4.8 -0.1,0.1 -0.8,0 -1.3,-0.2 -0.5,-0.2 -6.9,-1.8 -13,-3.2 l -10.9,-2.6 c -6.1,-1.4 -13.1,-2.8 -15.6,-3 -2.5,-0.2 -13.2,1.5 -19.3,2.9 l -11.7,2.7 c -6.1,1.4 -11.5,2.7 -12,2.8 -0.5,0.2 -2,0.7 -2.1,0.6 -0.1,-0.1 -5,-2.3 -10.7,-4.9 l -4.2,-1.9 c -5.7,-2.6 -12.7,-4.9 -15.6,-5.1 -2.9,-0.2 -10.3,6 -12.8,9.1 -2.5,3.1 -5.3,7.8 -6.1,10.5 -0.9,2.6 3.9,13 7.4,18.2 l 7.2,10.6 c 3.5,5.2 5.4,11.2 4.3,13.3 -1.1,2.1 -2.7,6 -3.5,8.5 -0.8,2.5 0.1,13.6 1.2,19.8 l 2.2,13.2 c 1,6.2 3,13.3 4.4,15.8 1.4,2.5 12.1,7 18.2,8.5 l 2.7,0.7 c 0.5,0.1 0.9,0.3 1.4,0.4 -9,4.9 -17.4,10.7 -24.9,17.3 -1.1,1 0.3,2.5 1.4,1.7 9.4,-6.2 18.4,-12.1 27.9,-17.1 1.8,0.9 3.6,2.1 5.3,3.3 -7.7,6.2 -14.4,14.1 -19,21.3 -0.6,0.9 0.6,2 1.4,1.3 6.9,-6.6 13.1,-14.2 20.4,-20.4 1.5,1.3 2.8,2.7 3.8,4.1 l 0.6,0.8 c -8.3,8 -14.9,18.9 -18.8,28.2 -0.4,1 1,1.7 1.7,0.9 6.5,-8.6 11.7,-18.6 19,-26.4 l 2.4,3.4 c 3.7,5.1 8.4,10.7 10.6,12.4 2.2,1.7 11.3,3.2 15,3.2 3.6,0 8.8,-0.6 11.5,-1.4 2.7,-0.7 10.5,-9.1 14.1,-14.2 l 2.4,-3.4 c 7.3,7.9 12.6,17.9 19.1,26.5 0.7,0.9 2,-0.1 1.6,-1 -3.8,-9.2 -10.4,-20.1 -18.7,-28.1 l 0.5,-0.7 c 1,-1.4 2.4,-2.8 3.9,-4.2 7.2,6.1 13.4,13.7 20.2,20.2 0.9,0.9 2.1,-0.2 1.5,-1.2 -4.6,-7.1 -11.3,-15 -19,-21.2 1.7,-1.3 3.5,-2.4 5.4,-3.3 9.5,5.1 18.6,10.9 27.9,17.2 1.2,0.8 2.3,-0.9 1.3,-1.8 -7.4,-6.6 -15.8,-12.4 -24.7,-17.2 0.4,-0.1 0.8,-0.3 1.2,-0.4 l 2.8,-0.7 c 6.1,-1.5 13,-4 15.4,-5.6 2.4,-1.5 6,-12.6 7.1,-18.8 l 2.2,-13.2 c 1,-6.2 1.8,-13.4 1.8,-16 -0.1,-2.6 -3,-10.1 -4.1,-12.2 -1.1,-2.1 0.8,-8.1 4.3,-13.3 l 7.2,-10.6 c 3.5,-5.3 8.3,-15.7 7.3,-18.3 z"
             class="st1" /><g
             transform="translate(2316.4014,194.8789)"
             id="g6586"><path
               style="fill:#094766"
               inkscape:connector-curvature="0"
               id="path6588"
               d="m 911,-36.8 c -3.1,-4.6 -5.8,-8.7 -6,-9.2 0,0 0,0 0,-0.5 0,-0.6 0,-0.6 0,-0.6 0.2,-0.5 2.5,-3.6 5,-6.7 2.5,-3.1 4.9,-5.9 5.4,-6.1 0.5,-0.2 6.5,2.1 12.2,4.7 l 0.9,0.4 c 5.7,2.6 10.3,4.9 10.2,5 -0.1,0.2 -2.8,5.1 -5.7,10.6 l -5,9.4 c -3,5.6 -13.9,-2.4 -17,-7 z"
               class="st0" /><path
               style="fill:#094766"
               inkscape:connector-curvature="0"
               id="path6590"
               d="m 998.9,83.6 c -0.9,0.7 -6.3,1.3 -9.9,1.3 -3.6,0 -7.5,-0.3 -8.6,-0.7 -0.5,-0.2 -1.6,-1.2 -3,-2.8 l 7.6,-6.9 c 2.2,-2 4,-3.7 4,-3.7 0,0 1.8,1.7 4,3.7 l 7.7,7 c -0.8,1.2 -1.5,1.9 -1.8,2.1 z"
               class="st0" /><path
               style="fill:#094766"
               inkscape:connector-curvature="0"
               id="path6592"
               d="m 1055.8,19.9 -2.2,13.2 c -1,6.2 -2.3,11.9 -2.7,12.6 -0.5,0.8 -5.7,2.6 -10.3,3.8 -4.5,1.1 -8.1,1.3 -7.9,0.4 0.2,-0.9 -2.5,-7.3 -5.8,-12.2 -3.4,-4.9 -6.2,-8.8 -6.2,-8.6 0,0.2 0.8,4.2 1.6,8.6 0.9,4.4 1.5,9.1 1.4,10.4 -0.1,1.3 -1.6,4.4 -2.1,5.1 0,0 0,0 0,0.1 -5.8,-2.3 -11.6,-4.2 -17.5,-5.7 -1.6,-0.4 -2.5,2 -0.9,2.4 5.7,1.7 11.1,3.8 16.4,6.1 -0.7,1 -1.5,2.1 -2.3,3.2 -4.5,-2.4 -9.2,-4.1 -14,-4.5 -1.4,-0.1 -1.5,1.9 -0.2,2.1 4.6,0.9 8.7,2.6 12.4,4.8 -1,1.4 -2.2,3.1 -3.5,4.9 -3.2,-2.1 -6.5,-3.7 -9.9,-4.6 -1.3,-0.3 -2,1.5 -0.7,2 3.4,1.3 6.3,2.9 9,4.9 -1.3,1.8 -2.6,3.6 -3.7,5.2 -0.7,1 -1.4,1.9 -2.1,2.9 -0.1,-0.1 -0.3,-0.2 -0.4,-0.3 L 995.9,71 c -2.5,-1.7 -4.5,-3.1 -4.5,-3.2 0,-0.1 0,-2.7 0,-5.7 l 0,-8.4 c 0.1,-0.1 0.1,-0.2 0.2,-0.3 l 13.5,-15.3 c 1.3,-2.7 0,-4.9 -3,-4.9 l -25.8,0 c -3,0 -4.4,2.2 -3,4.9 l 13.5,15.3 c 0.1,0.1 0.1,0.2 0.2,0.3 l 0,8.4 c 0,3 0,5.5 0,5.6 0,0.1 -2,1.6 -4.5,3.3 l -8.3,5.7 c -0.1,0.1 -0.2,0.2 -0.4,0.3 -0.8,-1 -1.5,-2 -2.2,-2.9 -1.1,-1.6 -2.4,-3.3 -3.7,-5.1 2.7,-2 5.7,-3.7 9.1,-5 1.1,-0.4 0.5,-2.3 -0.6,-2 -3.5,0.9 -6.9,2.6 -10.1,4.7 -1.3,-1.8 -2.5,-3.5 -3.5,-4.9 3.8,-2.2 7.9,-3.9 12.5,-4.8 1.4,-0.3 1,-2.2 -0.4,-2.1 -4.8,0.4 -9.5,2.1 -13.9,4.5 -0.8,-1.1 -1.6,-2.3 -2.3,-3.2 5.2,-2.3 10.5,-4.3 16.2,-6 1.6,-0.5 1.2,-3 -0.5,-2.6 -6,1.5 -11.9,3.4 -17.7,5.8 l -0.1,-0.1 c -0.5,-0.7 -1.3,-2.2 -1.7,-3.5 -0.5,-1.3 0.2,-7.6 1.1,-12 0.9,-4.4 1.6,-8.1 1.6,-8.3 0,-0.2 -2.7,3.4 -6.1,8.3 -3.4,4.9 -6.1,9.7 -6,10.6 0.1,0.9 -3.2,2.3 -7.7,1.2 -4.5,-1.1 -8.8,-2.5 -9.6,-3 -0.7,-0.5 -2.4,-7.2 -3.4,-13.4 L 922.6,20 c -1,-6.2 -1.8,-12.5 -1.8,-14 0.1,-1.5 1.7,-5.8 2.6,-7.4 0.8,-1.5 3.9,-7.3 6.9,-12.9 l 11,-20.5 c 3,-5.5 6.1,-10.8 7,-11.7 0.9,-0.9 3.4,-2.1 3.5,-2.1 0.1,0 5.2,-1.2 11.3,-2.6 l 11.3,-2.6 c 6.1,-1.4 12.5,-2.7 14.3,-2.8 1.8,-0.1 10.4,1.4 16.5,2.9 l 10.5,2.5 c 6.1,1.4 11.2,2.6 11.3,2.6 0.1,0 1.1,0.6 2.3,1.2 1.1,0.6 5.3,7.2 8.3,12.7 l 11,20.5 c 3,5.5 6.1,11.3 6.9,12.9 0.8,1.5 2.5,5.8 2.6,7.4 -0.4,1.4 -1.2,7.7 -2.3,13.8 z"
               class="st0" /><path
               style="fill:#094766"
               inkscape:connector-curvature="0"
               id="path6594"
               d="m 1073.1,-46.5 c 0,0.5 0,0.5 0,0.5 -0.2,0.4 -2.8,4.5 -6,9.2 -3.1,4.6 -14,12.6 -16.9,7.1 l -5,-9.4 c -3,-5.5 -5.5,-10.2 -5.5,-10.3 -0.1,-0.2 4.3,-2.7 10,-5.3 l 0.9,-0.4 c 5.7,-2.6 10.9,-4.7 11.5,-4.8 0.6,0 3.6,3 6.1,6.1 2.5,3.1 4.7,6.1 5,6.7 -0.1,0 -0.1,0 -0.1,0.6 z"
               class="st0" /></g><g
             transform="translate(2316.4014,194.8789)"
             id="g6596"><path
               style="fill:#d6d6d6"
               inkscape:connector-curvature="0"
               id="path6598"
               d="m 976.4,-3.4 c -1.1,0 -4.7,0.1 -7.9,0.2 l -27.4,0.8 c -3.2,0.1 -3.3,0.5 -0.1,1 L 957.8,1 c 0,0.2 -0.1,0.4 -0.1,0.7 0,2.1 1.7,3.7 3.7,3.7 1.9,0 3.5,-1.5 3.7,-3.3 l 2.7,0.4 c 3.2,0.5 5.6,3.5 5.3,6.7 l -3.4,12 c -0.3,3.2 0.7,5.9 2.2,6.1 1.5,0.1 2.8,0.1 2.8,0 0,-0.1 0.1,-2.9 0.3,-6.1 l 2.8,-11.3 c 0.1,-3.2 0.3,-7.5 0.4,-9.5 0.2,-2.2 -0.7,-3.9 -1.8,-3.8 z"
               class="st1" /><path
               style="fill:#d6d6d6"
               inkscape:connector-curvature="0"
               id="path6600"
               d="m 1037,-2.4 -27.4,-0.8 c -3.2,-0.1 -6.8,-0.2 -7.9,-0.2 -1.1,0 -2,1.6 -1.9,3.6 0.1,2 0.3,6.3 0.4,9.5 L 1003,21 c 0.1,3.2 0.3,6 0.3,6.1 0,0.1 1.3,0.1 2.8,0 1.5,-0.1 2.5,-2.8 2.2,-6.1 l -3.4,-12 c -0.3,-3.2 2.1,-6.2 5.3,-6.7 l 2.7,-0.4 c 0.2,1.9 1.8,3.3 3.7,3.3 2.1,0 3.7,-1.7 3.7,-3.7 0,-0.2 0,-0.4 -0.1,-0.7 l 16.8,-2.4 c 3.2,-0.3 3.2,-0.8 0,-0.8 z"
               class="st1" /><path
               style="fill:#d6d6d6"
               inkscape:connector-curvature="0"
               id="path6602"
               d="m 953.7,-31.3 c 3.3,0 6,-3.4 6,-7.5 0,-4.2 -2.7,-7.5 -6,-7.5 -3.3,0 -6,3.4 -6,7.5 0,4.1 2.7,7.5 6,7.5 z"
               class="st1" /><path
               style="fill:#d6d6d6"
               inkscape:connector-curvature="0"
               id="path6604"
               d="m 946.6,-19.3 c 2.8,0 5,-2.2 5,-5 0,-2.8 -2.2,-5 -5,-5 -2.8,0 -5,2.2 -5,5 0,2.7 2.2,5 5,5 z"
               class="st1" /><path
               style="fill:#d6d6d6"
               inkscape:connector-curvature="0"
               id="path6606"
               d="m 969.8,-35.9 c 1.6,0.5 3.7,-1.7 4.7,-4.8 1,-3.2 0.5,-6.1 -1,-6.7 -1.6,-0.5 -3.7,1.7 -4.7,4.8 -1,3.2 -0.6,6.2 1,6.7 z"
               class="st1" /><path
               style="fill:#d6d6d6"
               inkscape:connector-curvature="0"
               id="path6608"
               d="m 963.4,-19.8 c 1.9,0 3.5,-1.3 3.5,-3 0,-1.7 -1.6,-3 -3.5,-3 -1.9,0 -3.5,1.3 -3.5,3 0,1.7 1.6,3 3.5,3 z"
               class="st1" /><path
               style="fill:#d6d6d6"
               inkscape:connector-curvature="0"
               id="path6610"
               d="m 1047.7,32.4 c -2.5,-1.2 -5.5,-0.2 -6.7,2.3 -1.2,2.5 -0.2,5.5 2.3,6.7 2.5,1.2 5.5,0.2 6.7,-2.2 1.2,-2.5 0.2,-5.5 -2.3,-6.8 z"
               class="st1" /><path
               style="fill:#d6d6d6"
               inkscape:connector-curvature="0"
               id="path6612"
               d="m 1044.2,28.3 c 1.6,0.3 3.4,-2.2 3.9,-5.5 0.5,-3.3 -0.4,-6.2 -2.1,-6.4 -1.6,-0.3 -3.4,2.2 -3.9,5.5 -0.4,3.2 0.5,6.1 2.1,6.4 z"
               class="st1" /><path
               style="fill:#d6d6d6"
               inkscape:connector-curvature="0"
               id="path6614"
               d="m 1037.4,28.4 c -1.7,-0.9 -3.8,-0.4 -4.5,1.1 -0.7,1.5 0.1,3.4 1.8,4.3 1.7,0.9 3.8,0.4 4.5,-1.1 0.8,-1.6 0,-3.5 -1.8,-4.3 z"
               class="st1" /></g><g
             transform="translate(2316.4014,194.8789)"
             id="g6616"><path
               style="fill:#d6d6d6"
               inkscape:connector-curvature="0"
               id="path6618"
               d="m 896.9,184.2 c 0,4.1 -1.4,7.6 -4.3,10.5 -2.9,2.9 -6.4,4.3 -10.5,4.3 l -3,0 c -2,0 -3,1 -3,3 l 0,11.9 c 0,1.7 -0.6,3.1 -1.7,4.2 -1.1,1.1 -2.5,1.7 -4.2,1.7 l -3,0 c -1.7,0 -3.1,-0.6 -4.2,-1.7 -1.1,-1.2 -1.7,-2.6 -1.7,-4.2 l 0,-68.4 c 0,-4.1 1.4,-7.6 4.4,-10.5 2.9,-2.9 6.4,-4.3 10.6,-4.3 l 6,0 c 4.1,0 7.6,1.4 10.5,4.3 2.9,2.9 4.3,6.4 4.3,10.5 l 0,38.7 -0.2,0 z m -14.9,-3.1 0,-32.7 c 0,-2 -1,-3 -3,-3 -2,0 -3,1 -3,3 l 0,32.7 c 0,2 1,3 3,3 2,0 3,-1 3,-3 z"
               class="st1" /><path
               style="fill:#d6d6d6"
               inkscape:connector-curvature="0"
               id="path6620"
               d="m 940.9,205 c 0,4.1 -1.4,7.6 -4.3,10.5 -2.9,2.9 -6.4,4.3 -10.5,4.3 l -6.1,0 c -4.1,0 -7.6,-1.4 -10.5,-4.3 -2.9,-2.9 -4.3,-6.4 -4.3,-10.5 l 0,-5.9 c 0,-4.1 1.4,-7.6 4.3,-10.5 2.9,-2.9 6.4,-4.3 10.5,-4.3 l 3,0 c 2,0 3,-1 3,-3 l 0,-32.9 c 0,-2 -1,-3 -3,-3 -2,0 -3,1 -3,3 l 0,23.8 c 0,1.7 -0.6,3.1 -1.7,4.2 -1.2,1.2 -2.6,1.7 -4.2,1.7 l -3,0 c -1.7,0 -3.1,-0.6 -4.2,-1.7 -1.2,-1.1 -1.7,-2.6 -1.7,-4.2 l 0,-26.7 c 0,-4.1 1.4,-7.6 4.3,-10.5 2.9,-2.9 6.4,-4.3 10.5,-4.3 l 6.1,0 c 4.1,0 7.6,1.5 10.5,4.3 2.9,2.9 4.3,6.4 4.3,10.5 l 0,59.5 0,0 z M 926,201.9 c 0,-2 -1,-3 -3,-3 -2,0 -3,1 -3,3 0,2 1,3 3,3 2,0 3,-1 3,-3 z"
               class="st1" /><path
               style="fill:#d6d6d6"
               inkscape:connector-curvature="0"
               id="path6622"
               d="m 984.9,172.2 c 0,1.7 -0.6,3.1 -1.7,4.2 -1.1,1.2 -2.5,1.7 -4.2,1.7 l -3,0 c -1.7,0 -3.1,-0.6 -4.2,-1.7 -1.1,-1.2 -1.7,-2.6 -1.7,-4.2 l 0,-23.8 c 0,-2 -1,-3 -3,-3 -2,0 -3,1 -3,3 l 0,65.5 c 0,1.7 -0.6,3.1 -1.7,4.2 -1.1,1.2 -2.5,1.7 -4.2,1.7 l -3,0 c -1.7,0 -3.1,-0.6 -4.2,-1.7 -1.1,-1.1 -1.7,-2.6 -1.7,-4.2 l 0,-68.4 c 0,-4.1 1.4,-7.6 4.3,-10.5 2.9,-2.9 6.4,-4.3 10.5,-4.3 l 5.9,0 c 4.1,0 7.6,1.4 10.5,4.3 2.9,2.9 4.3,6.4 4.3,10.5 l 0,26.7 0.1,0 z"
               class="st1" /><path
               style="fill:#d6d6d6"
               inkscape:connector-curvature="0"
               id="path6624"
               d="m 1028.9,205 c 0,4.1 -1.4,7.6 -4.3,10.5 -2.9,2.9 -6.4,4.3 -10.5,4.3 l -14.9,0 c -1.7,0 -3.1,-0.6 -4.2,-1.7 -1.2,-1.1 -1.7,-2.6 -1.7,-4.2 l 0,-77.4 c 0,-1.7 0.6,-3.1 1.7,-4.2 1.2,-1.1 2.6,-1.7 4.2,-1.7 l 14.9,0 c 4.1,0 7.6,1.4 10.5,4.3 2.9,2.9 4.3,6.4 4.3,10.5 l 0,59.6 z m -14.9,-3.1 0,-53.5 c 0,-2 -1,-3 -3,-3 -2,0 -3,1 -3,3 l 0,53.5 c 0,2 1,3 3,3 2,0 3,-1 3,-3 z"
               class="st1" /><path
               style="fill:#d6d6d6"
               inkscape:connector-curvature="0"
               id="path6626"
               d="m 1072.8,205 c 0,4.1 -1.4,7.6 -4.3,10.5 -2.9,2.9 -6.4,4.3 -10.5,4.3 l -6.1,0 c -4.1,0 -7.6,-1.4 -10.5,-4.3 -2.9,-2.9 -4.3,-6.4 -4.3,-10.5 l 0,-68.5 c 0,-1.7 0.6,-3.1 1.7,-4.2 1.1,-1.2 2.6,-1.7 4.2,-1.7 l 3,0 c 1.7,0 3.1,0.6 4.2,1.7 1.2,1.2 1.7,2.6 1.7,4.2 l 0,65.4 c 0,2 1,3 3,3 2,0 3,-1 3,-3 l 0,-65.4 c 0,-1.7 0.6,-3.1 1.7,-4.2 1.2,-1.1 2.6,-1.7 4.2,-1.7 l 3,0 c 1.7,0 3.1,0.6 4.2,1.7 1.2,1.2 1.7,2.6 1.7,4.2 l 0.1,68.5 0,0 z"
               class="st1" /><path
               style="fill:#d6d6d6"
               inkscape:connector-curvature="0"
               id="path6628"
               d="m 1116.8,205 c 0,4.1 -1.4,7.6 -4.3,10.5 -2.9,2.9 -6.4,4.3 -10.5,4.3 l -14.9,0 c -1.7,0 -3.1,-0.6 -4.2,-1.7 -1.2,-1.1 -1.7,-2.6 -1.7,-4.2 l 0,-3 c 0,-1.7 0.6,-3.1 1.7,-4.2 1.1,-1.1 2.6,-1.7 4.2,-1.7 l 11.9,0 c 2,0 3,-1 3,-2.9 0,-2 -1,-2.9 -3,-2.9 l -3,0 c -4.1,0 -7.6,-1.4 -10.5,-4.3 -2.9,-2.9 -4.3,-6.4 -4.3,-10.5 l 0,-38.9 c 0,-4.1 1.4,-7.6 4.3,-10.5 2.9,-2.9 6.4,-4.3 10.5,-4.3 l 6.1,0 c 4.1,0 7.6,1.4 10.5,4.3 2.9,2.9 4.3,6.4 4.3,10.5 l 0,26.8 c 0,1.7 -0.6,3.1 -1.7,4.2 -1.2,1.2 -2.6,1.7 -4.2,1.7 l -3,0 c -1.7,0 -3.1,-0.6 -4.2,-1.7 -1.2,-1.1 -1.7,-2.6 -1.7,-4.2 l 0,-23.8 c 0,-2 -1,-3 -3,-3 -2,0 -3,1 -3,3 l 0,32.7 c 0,2 1,3 3,3 l 3,0 c 4.1,0 7.6,1.5 10.5,4.4 2.9,2.9 4.3,6.4 4.3,10.6 l -0.1,5.8 0,0 z"
               class="st1" /></g><g
             transform="translate(2316.4014,194.8789)"
             id="g6630"><g
               id="g6632"><path
                 style="fill:#094766"
                 inkscape:connector-curvature="0"
                 id="path6634"
                 d="m 827.2,210.7 c -1,1.2 1,0.8 2.8,0.4 l 0.2,-2.4 -3,2 z"
                 class="st0" /><path
                 style="fill:#094766"
                 inkscape:connector-curvature="0"
                 id="path6636"
                 d="m 834.5,206.9 2.4,-3.8 -2,2.4 c -3.3,0.9 -0.7,-2 0.1,-3 -4.3,3.2 -0.4,3 -0.5,4.4 z"
                 class="st0" /><path
                 style="fill:#094766"
                 inkscape:connector-curvature="0"
                 id="path6638"
                 d="m 840.5,201.3 c 2.3,-1.2 1,-2 -0.1,-1.7 0.1,0.6 -1,2 0.1,1.7 z"
                 class="st0" /><path
                 style="fill:#094766"
                 inkscape:connector-curvature="0"
                 id="path6640"
                 d="m 988.2,133.8 c -0.8,0.1 -1.6,0.2 -1.7,-0.1 -0.6,0.6 -0.6,1 1.7,0.1 z"
                 class="st0" /><path
                 style="fill:#094766"
                 inkscape:connector-curvature="0"
                 id="path6642"
                 d="m 986.5,133.6 0.4,-0.4 c -0.1,0.1 -0.2,0.1 -0.4,0.4 0,0 0,0 0,0 z"
                 class="st0" /><path
                 style="fill:#094766"
                 inkscape:connector-curvature="0"
                 id="path6644"
                 d="m 931.8,141.3 c -2.3,2.1 -4,2.3 -6.4,3.9 l -2.1,-0.8 c -2.5,1.8 -0.6,1.8 -2.2,3.5 -2.9,0.3 -7.8,3.7 -9,4.2 -1.1,-0.3 0.6,-1.4 0.8,-2 -3,2.1 -2.1,3.3 -6,5.3 l -0.3,-0.4 c -8.5,6.7 -20.7,12.2 -30.4,19 0.7,-0.3 0.7,0.1 1.1,0.2 -10.7,6.3 -23.2,13.4 -29.7,21.6 5.6,-3.7 16.6,-7.1 21.2,-12.8 2.7,-0.2 5.4,-3.5 7.1,-2.6 8.9,-3.9 11.1,-8.3 19.4,-12.6 1.3,-0.3 1.1,0.7 1.8,1.2 l -6.2,4 4.3,-1.5 c -1.4,1.5 -5.9,3.2 -5.7,4.8 4.9,-4.5 14.8,-7.9 18.9,-12.2 -2.5,0.9 -5.3,2.7 -8.2,4 -1.5,0.2 -3.5,0.8 -3.8,0 7,-6.1 14.2,-8.4 22.2,-13 2,-1.2 4.9,-2.4 5.6,-1.9 -1.2,0.9 0.1,1 -0.9,1.8 2.7,-2 -0.9,-2.6 3.5,-4.4 l 0.6,2.7 c 0.5,-3.3 5.4,-2.1 7.8,-5 1.5,0.4 -0.2,1.9 -2.5,3.1 2.8,-0.8 2.4,-2.4 4.6,-3.3 l -1,3 c 1.3,-3 4.2,-1.5 5.8,-1.5 -0.1,-0.6 -2,-1.6 0.9,-2.8 1.3,-0.3 1,0.5 1.4,0.7 -0.1,-0.6 0.5,-2 2.3,-2.9 0.7,0.5 -0.8,1.6 -0.5,2.4 1.4,-0.7 2.5,-1.4 3.8,-1.3 2.2,-1.7 -0.6,-0.9 0.6,-2.4 4.1,-1.2 1.4,2.2 3.5,3.1 -2.5,2.3 -5.9,4.3 -7.2,5.6 l 5.2,-3.1 c 0,1 4.4,-0.3 1.8,1.8 5.9,-1.7 12.3,-5.6 17.3,-8.7 -0.9,0.1 -1.9,0.3 -2,-0.3 2.5,-1.7 2.7,-0.6 3.5,-0.2 1.8,-1.5 0.9,-2.8 1.7,-4.4 4.7,-0.7 5,-1.7 9.3,-1.6 l -0.9,-1.3 c 3,0 2.5,-2.3 5.6,-2.7 0.3,0.2 -0.6,1.1 -1.3,1.8 2.2,-1.6 2.8,0.2 4.9,-1.4 l -1.2,2.4 c 1.9,-0.9 4.4,-2.6 4,-0.9 2.6,-3.1 8.6,-5 12.3,-7.8 l 0.3,1.3 c 1.5,-2.4 7.8,-3.4 8.9,-5.9 l 0.5,0.4 3.5,-3.5 c 2,-0.7 2.1,1.4 2.1,0.9 4.1,-2.1 7.3,-3.6 10.3,-4.1 0,-1.9 4.3,-4.2 7.8,-5.8 17.5,-5.9 35.6,-13.9 51.7,-20.4 2.5,-0.7 5.4,-3.5 8.4,-5.1 -3.9,0.6 -4.1,1.5 -7.8,2.5 -2.9,0.3 -4.5,-1.2 -7.2,-1.6 l 1.6,1.1 c -3.5,2.3 -2.9,0 -5.5,2.3 l -0.6,-2.4 c -0.7,1.5 -3.7,1.4 -5,1.1 l -0.5,1.9 c -2.7,-0.1 -4.4,0 -5.6,-1.2 l 0.7,1.4 c -1.2,-0.6 -9.1,3.3 -7.1,-0.2 -0.6,0.6 -1,1.5 -2.5,1.9 l -0.7,-1.4 c -2.1,1.1 -4.4,2.3 -5.3,1.7 1.1,-0.8 1.2,-1.5 1.4,-2.3 -9.3,3.1 -0.3,5.4 -8.3,8.5 l -0.3,-1 -1.7,1.8 -2.6,-0.4 c -1.7,4.3 -11.4,4.1 -15.5,7.8 -1.8,1.1 -5,0.2 -8.5,1.9 l 0.8,1.3 c -3.5,-0.2 -14.5,3.5 -18.6,1.5 -2.2,2.3 0.4,0.2 0.8,1.3 -4.6,3.8 -5.9,1.8 -9,2.2 -2.9,2.1 2.7,-0.6 1.4,1.3 -5.4,1.1 -3.2,3.5 -9.7,5.3 -1,-0.5 1.3,-1.3 1.7,-2.1 -3.6,3.3 -11.9,6.1 -18.1,9.2 -8.4,2.8 -17.6,5.9 -27.8,9.4 l 0.1,0.6 c -4.1,0.3 -7.3,3.4 -11.7,4.7 l 2.3,-0.2 z"
                 class="st0" /><path
                 style="fill:#094766"
                 inkscape:connector-curvature="0"
                 id="path6646"
                 d="m 888.5,178.9 1.3,0.8 3.4,-2.7 c -2.1,-0.2 -2.5,1 -4.7,1.9 z"
                 class="st0" /><polygon
                 style="fill:#094766"
                 id="polygon6648"
                 points="885.7,176.5 888.9,174.7 887.4,174.9 "
                 class="st0" /><polygon
                 style="fill:#094766"
                 id="polygon6650"
                 points="936.1,152.9 929.2,157.4 936.7,152.9 "
                 class="st0" /><path
                 style="fill:#094766"
                 inkscape:connector-curvature="0"
                 id="path6652"
                 d="m 988.5,135.1 c -0.6,1 -1.9,1.3 -2.6,2.1 l 3.2,-2.2 -0.6,0.1 z"
                 class="st0" /><path
                 style="fill:#094766"
                 inkscape:connector-curvature="0"
                 id="path6654"
                 d="m 1023.9,125.2 c 0.4,-2.7 2.6,-1.1 0,-2.3 -1.9,1.2 0.3,1.3 0,2.3 z"
                 class="st0" /><path
                 style="fill:#094766"
                 inkscape:connector-curvature="0"
                 id="path6656"
                 d="m 1030.2,118.7 c -1.2,0.4 -1.7,1 -2.3,1.6 2.1,0.4 1.7,-0.8 2.3,-1.6 z"
                 class="st0" /></g><g
               id="g6658"><path
                 style="fill:#094766"
                 inkscape:connector-curvature="0"
                 id="path6660"
                 d="m 844.2,242.3 c -1,1.2 1,0.8 2.8,0.4 l 0.3,-2.4 -3.1,2 z"
                 class="st0" /><path
                 style="fill:#094766"
                 inkscape:connector-curvature="0"
                 id="path6662"
                 d="m 851.7,238.3 2.6,-3.9 -2.1,2.4 c -3.4,0.9 -0.7,-2 0.2,-3 -4.6,3.3 -0.5,3 -0.7,4.5 z"
                 class="st0" /><path
                 style="fill:#094766"
                 inkscape:connector-curvature="0"
                 id="path6664"
                 d="m 858,232.5 c 2.4,-1.3 1.1,-2 -0.1,-1.8 0.2,0.6 -1.1,2.1 0.1,1.8 z"
                 class="st0" /><path
                 style="fill:#094766"
                 inkscape:connector-curvature="0"
                 id="path6666"
                 d="m 1011.6,159.9 c -0.8,0 -1.7,0.2 -1.7,-0.2 -0.7,0.7 -0.7,1 1.7,0.2 z"
                 class="st0" /><path
                 style="fill:#094766"
                 inkscape:connector-curvature="0"
                 id="path6668"
                 d="m 1009.9,159.7 0.4,-0.4 c -0.1,0.1 -0.2,0.1 -0.4,0.4 -0.1,-0.1 0,0 0,0 z"
                 class="st0" /><path
                 style="fill:#094766"
                 inkscape:connector-curvature="0"
                 id="path6670"
                 d="m 952.9,168.2 c -2.4,2.2 -4.2,2.5 -6.7,4.1 l -2.2,-0.7 c -2.6,1.9 -0.7,1.8 -2.4,3.6 -3.1,0.4 -8.1,4.1 -9.4,4.6 -1.2,-0.2 0.6,-1.5 0.8,-2.1 -3.1,2.2 -2.2,3.4 -6.3,5.6 l -0.3,-0.4 c -8.8,7.2 -21.4,13.3 -31.4,20.6 0.8,-0.3 0.8,0.1 1.2,0.2 -11,6.8 -24,14.5 -30.8,23 5.8,-4 17.2,-7.8 22,-13.8 2.9,-0.3 5.5,-3.8 7.3,-2.9 9.2,-4.3 11.4,-8.9 20,-13.6 1.4,-0.4 1.1,0.6 1.9,1.1 l -6.5,4.3 4.5,-1.7 c -1.5,1.6 -6.1,3.5 -5.9,5.1 5.1,-4.8 15.3,-8.6 19.5,-13.2 -2.6,1 -5.5,3 -8.4,4.4 -1.5,0.2 -3.7,1 -3.9,0.2 7.2,-6.4 14.7,-9.1 23,-14.1 2.1,-1.3 5.1,-2.7 5.8,-2.2 -1.3,1 0.1,1 -0.9,1.9 2.8,-2.1 -0.9,-2.7 3.7,-4.6 l 0.6,2.7 c 0.5,-3.4 5.7,-2.2 8.1,-5.2 1.6,0.4 -0.2,2 -2.6,3.2 3,-0.9 2.5,-2.4 4.8,-3.5 l -1.1,3.1 c 1.4,-3.1 4.4,-1.7 6,-1.7 -0.1,-0.6 -2.1,-1.5 0.9,-2.8 1.4,-0.3 1,0.5 1.4,0.6 -0.1,-0.6 0.6,-2 2.5,-3 0.7,0.5 -0.8,1.6 -0.6,2.4 1.5,-0.7 2.6,-1.4 3.9,-1.4 2.4,-1.8 -0.6,-0.9 0.6,-2.4 4.3,-1.4 1.5,2.2 3.7,3 -2.6,2.4 -6.3,4.5 -7.7,5.8 l 5.5,-3.2 c 0,1 4.5,-0.4 1.9,1.8 6.1,-2 12.6,-6 17.9,-9.1 -0.9,0.1 -2,0.3 -2.1,-0.2 2.7,-1.7 2.8,-0.6 3.6,-0.3 1.9,-1.5 1,-2.8 1.9,-4.4 4.9,-0.8 5.2,-1.8 9.7,-1.6 l -0.8,-1.3 c 3.2,0 2.7,-2.3 5.9,-2.6 0.3,0.2 -0.7,1.1 -1.4,1.8 2.4,-1.5 2.9,0.2 5.1,-1.4 l -1.3,2.4 c 2,-0.9 4.7,-2.6 4.2,-0.8 2.8,-3.1 9.2,-4.8 13.2,-7.4 l 0.2,1.3 c 1.7,-2.4 8.3,-3.2 9.6,-5.7 l 0.5,0.4 3.9,-3.3 c 2.1,-0.6 2.1,1.5 2.1,1 4.4,-2 7.9,-3.4 11,-3.7 0.1,-1.9 4.8,-4 8.5,-5.5 18.7,-5.1 38.1,-12.5 55.3,-18.7 2.6,-0.7 5.8,-3.5 8.8,-5.2 -4.1,0.6 -4.3,1.5 -8.3,2.5 -3.1,0.3 -4.6,-1.2 -7.4,-1.7 l 1.7,1.1 c -3.7,2.2 -3,-0.1 -5.8,2.2 l -0.4,-2.4 c -0.8,1.5 -3.9,1.3 -5.2,1 l -0.6,1.9 c -2.8,-0.2 -4.5,-0.1 -5.7,-1.4 l 0.7,1.4 c -1.2,-0.7 -9.7,2.9 -7.4,-0.5 -0.6,0.5 -1.1,1.5 -2.7,1.8 l -0.7,-1.4 c -2.2,1.1 -4.7,2.2 -5.6,1.5 1.1,-0.7 1.4,-1.5 1.6,-2.3 -9.9,2.7 -0.6,5.4 -9.2,8.2 l -0.2,-1 -1.7,1.9 -2.7,-0.5 c -2,4.2 -12.1,3.7 -16.7,7.1 -1.9,1 -5.2,0 -9,1.6 l 0.8,1.4 c -3.6,-0.4 -15.4,2.9 -19.5,0.8 -2.5,2.2 0.4,0.2 0.8,1.3 -5.1,3.7 -6.3,1.6 -9.6,1.9 -3.2,2.1 2.9,-0.5 1.4,1.3 -5.7,1 -3.6,3.4 -10.5,5.2 -1,-0.5 1.4,-1.2 1.9,-2.1 -4,3.4 -12.9,5.9 -19.5,9.2 -8.2,2.3 -19.6,7.1 -29.1,10 l 0.1,0.6 c -4.3,0.4 -7.7,3.6 -12.3,5.1 l 2.5,-0.2 z"
                 class="st0" /><path
                 style="fill:#094766"
                 inkscape:connector-curvature="0"
                 id="path6672"
                 d="m 907.8,207.9 1.3,0.8 3.5,-2.9 c -2.1,-0.1 -2.5,1.1 -4.8,2.1 z"
                 class="st0" /><polygon
                 style="fill:#094766"
                 id="polygon6674"
                 points="905,205.6 908.2,203.7 906.7,204 "
                 class="st0" /><polygon
                 style="fill:#094766"
                 id="polygon6676"
                 points="957.2,179.8 950.1,184.5 957.8,179.7 "
                 class="st0" /><path
                 style="fill:#094766"
                 inkscape:connector-curvature="0"
                 id="path6678"
                 d="m 1011.8,161.2 c -0.6,1 -2,1.3 -2.8,2.1 l 3.4,-2.1 -0.6,0 z"
                 class="st0" /><path
                 style="fill:#094766"
                 inkscape:connector-curvature="0"
                 id="path6680"
                 d="m 1049.1,152.4 c 0.6,-2.7 2.8,-1 0.2,-2.3 -2.1,1.1 0.2,1.3 -0.2,2.3 z"
                 class="st0" /><path
                 style="fill:#094766"
                 inkscape:connector-curvature="0"
                 id="path6682"
                 d="m 1056.2,146.2 c -1.3,0.4 -1.9,1 -2.5,1.6 2.1,0.3 1.7,-0.9 2.5,-1.6 z"
                 class="st0" /></g><g
               id="g6684"><path
                 style="fill:#094766"
                 inkscape:connector-curvature="0"
                 id="path6686"
                 d="m 877.1,266.7 c -0.7,1.2 1.1,0.6 2.7,0.2 l -0.1,-2.4 -2.6,2.2 z"
                 class="st0" /><path
                 style="fill:#094766"
                 inkscape:connector-curvature="0"
                 id="path6688"
                 d="m 883.2,262.5 1.9,-3.8 -1.7,2.4 c -3,1.1 -1,-1.9 -0.2,-2.9 -3.6,3.3 0,2.9 0,4.3 z"
                 class="st0" /><path
                 style="fill:#094766"
                 inkscape:connector-curvature="0"
                 id="path6690"
                 d="m 888.5,256.8 c 2.1,-1.3 0.8,-2 -0.3,-1.7 0,0.6 -0.8,2 0.3,1.7 z"
                 class="st0" /><path
                 style="fill:#094766"
                 inkscape:connector-curvature="0"
                 id="path6692"
                 d="m 1026.8,195.2 c -0.7,0 -1.5,0.2 -1.6,-0.2 -0.6,0.6 -0.6,1 1.6,0.2 z"
                 class="st0" /><path
                 style="fill:#094766"
                 inkscape:connector-curvature="0"
                 id="path6694"
                 d="m 1025.2,195 0.4,-0.4 c -0.1,0.1 -0.2,0.1 -0.4,0.4 -0.1,-0.1 0,0 0,0 z"
                 class="st0" /><path
                 style="fill:#094766"
                 inkscape:connector-curvature="0"
                 id="path6696"
                 d="m 974.2,201.8 c -2.1,2 -3.7,2.1 -5.9,3.5 l -2,-0.9 c -2.3,1.6 -0.6,1.7 -2.1,3.3 -2.7,0.1 -7.3,3.1 -8.5,3.6 -1.1,-0.3 0.6,-1.4 0.7,-1.9 -2.8,1.8 -2,3.1 -5.7,4.8 l -0.2,-0.4 c -8.1,6 -19.8,10.6 -29.1,16.8 0.7,-0.3 0.7,0.1 1.1,0.3 -10.2,5.6 -22.1,12.3 -27.8,20.5 5.1,-3.8 15.4,-6.8 19.8,-12.2 2.6,-0.1 5.1,-3.2 6.7,-2.2 8.4,-3.4 10.5,-7.5 18.5,-11.2 1.3,-0.3 1,0.7 1.7,1.3 l -6,3.6 4.1,-1.2 c -1.4,1.4 -5.6,2.8 -5.4,4.3 4.7,-4.1 14,-6.8 18,-10.8 -2.4,0.7 -5,2.3 -7.8,3.4 -1.4,0.1 -3.4,0.5 -3.6,-0.2 6.7,-5.5 13.5,-7.3 21.1,-11.4 1.9,-1 4.6,-2.1 5.2,-1.5 -1.2,0.8 0,1 -0.9,1.8 2.5,-1.8 -0.8,-2.6 3.3,-4.1 l 0.6,2.7 c 0.5,-3.3 5.1,-1.7 7.3,-4.5 1.5,0.5 -0.2,1.9 -2.3,3 2.7,-0.7 2.3,-2.2 4.3,-3.1 l -0.9,2.9 c 1.2,-2.9 4,-1.3 5.5,-1.2 -0.1,-0.6 -1.9,-1.6 0.8,-2.7 1.3,-0.3 0.9,0.5 1.3,0.7 -0.1,-0.6 0.4,-1.9 2.1,-2.8 0.7,0.5 -0.7,1.6 -0.4,2.3 1.3,-0.7 2.3,-1.3 3.5,-1.2 2,-1.7 -0.6,-0.9 0.4,-2.3 3.8,-1.2 1.5,2.2 3.5,3 -2.2,2.3 -5.5,4.2 -6.7,5.5 l 4.9,-3 c 0.1,1 4.1,-0.3 1.8,1.8 5.5,-1.7 11.2,-5.7 15.7,-8.7 -0.8,0.1 -1.8,0.3 -1.9,-0.3 2.3,-1.7 2.5,-0.5 3.3,-0.2 1.6,-1.4 0.7,-2.7 1.4,-4.3 4.4,-0.7 4.6,-1.6 8.7,-1.4 l -0.8,-1.3 c 2.9,0 2.2,-2.2 5.2,-2.6 0.3,0.2 -0.5,1 -1.2,1.7 2,-1.5 2.6,0.2 4.6,-1.3 l -1,2.3 c 1.7,-0.8 4.1,-2.5 3.8,-0.7 2.3,-3 8,-4.7 11.4,-7.3 l 0.3,1.3 c 1.3,-2.3 7.3,-3.1 8.3,-5.6 l 0.5,0.4 3.2,-3.4 c 1.9,-0.6 2,1.5 2,0.9 3.8,-2 6.8,-3.5 9.7,-3.9 -0.1,-1.9 3.9,-4.1 7.1,-5.8 16.3,-5.9 32.7,-15 46.3,-23.9 2.1,-1.1 4.2,-4.4 6.6,-6.5 -3.5,1.2 -3.4,2.2 -6.7,3.8 -2.6,0.8 -4.4,-0.5 -6.9,-0.5 l 1.7,0.8 c -2.8,2.7 -2.6,0.4 -4.6,3 l -0.9,-2.2 c -0.4,1.6 -3.1,1.7 -4.4,1.6 l -0.2,1.9 c -2.5,0.1 -4,0.4 -5.3,-0.7 l 0.8,1.3 c -1.2,-0.5 -8,3.8 -6.6,0.3 -0.5,0.6 -0.7,1.6 -2.1,2 l -0.8,-1.3 c -1.8,1.2 -3.8,2.4 -4.7,1.9 0.9,-0.8 1,-1.6 1,-2.3 -8.3,3.4 0.3,5.4 -6.9,8.7 l -0.3,-0.9 -1.4,1.8 -2.4,-0.3 c -1.3,4.2 -10.3,4.2 -14,7.7 -1.6,1 -4.7,0.1 -7.9,1.8 l 0.8,1.3 c -3.3,-0.3 -13.6,3.1 -17.5,1 -2,2.2 0.4,0.2 0.8,1.3 -4.2,3.6 -5.6,1.5 -8.5,1.9 -2.7,2 2.5,-0.5 1.4,1.3 -5.1,1 -3,3.4 -9.1,5 -0.9,-0.5 1.2,-1.2 1.6,-2 -3.4,3.2 -11.2,5.7 -17,8.8 -7.3,2.2 -17.4,6.8 -25.6,9.2 l 0.1,0.6 c -3.7,0.2 -6.6,3 -10.7,4.1 l 2.2,-0.6 z"
                 class="st0" /><path
                 style="fill:#094766"
                 inkscape:connector-curvature="0"
                 id="path6698"
                 d="m 933.1,236.1 1.2,0.9 3.2,-2.5 c -1.9,-0.3 -2.3,0.9 -4.4,1.6 z"
                 class="st0" /><polygon
                 style="fill:#094766"
                 id="polygon6700"
                 points="930.6,233.6 933.6,232 932.2,232.1 "
                 class="st0" /><polygon
                 style="fill:#094766"
                 id="polygon6702"
                 points="978.4,213.4 971.9,217.6 979,213.4 "
                 class="st0" /><path
                 style="fill:#094766"
                 inkscape:connector-curvature="0"
                 id="path6704"
                 d="m 1027.1,196.5 c -0.5,1 -1.7,1.2 -2.4,2 l 2.9,-2 -0.5,0 z"
                 class="st0" /><path
                 style="fill:#094766"
                 inkscape:connector-curvature="0"
                 id="path6706"
                 d="m 1060.2,187.6 c 0.3,-2.7 2.5,-1 0,-2.3 -1.7,1.2 0.3,1.4 0,2.3 z"
                 class="st0" /><path
                 style="fill:#094766"
                 inkscape:connector-curvature="0"
                 id="path6708"
                 d="m 1066.2,181.3 c -1.1,0.4 -1.6,1 -2.1,1.6 1.9,0.3 1.4,-0.8 2.1,-1.6 z"
                 class="st0" /></g></g></g></g><g
         transform="translate(327.75086,-248.02768)"
         id="g6710"><g
           transform="translate(1343.3135,-1691.8552)"
           id="g6712"><path
             class="st1"
             d="m 3397.6014,145.9789 c -0.9,-2.6 -3.6,-7.3 -6.1,-10.5 -2.5,-3.1 -6.5,-6.9 -9,-8.3 -2.5,-1.4 -13.7,1.7 -19.4,4.3 l -4.2,1.9 c -5.7,2.6 -10.4,4.8 -10.5,4.8 -0.1,0.1 -0.8,0 -1.3,-0.2 -0.5,-0.2 -6.9,-1.8 -13,-3.2 l -10.9,-2.6 c -6.1,-1.4 -13.1,-2.8 -15.6,-3 -2.5,-0.2 -13.2,1.5 -19.3,2.9 l -11.7,2.7 c -6.1,1.4 -11.5,2.7 -12,2.8 -0.5,0.2 -2,0.7 -2.1,0.6 -0.1,-0.1 -5,-2.3 -10.7,-4.9 l -4.2,-1.9 c -5.7,-2.6 -12.7,-4.9 -15.6,-5.1 -2.9,-0.2 -10.3,6 -12.8,9.1 -2.5,3.1 -5.3,7.8 -6.1,10.5 -0.9,2.6 3.9,13 7.4,18.2 l 7.2,10.6 c 3.5,5.2 5.4,11.2 4.3,13.3 -1.1,2.1 -2.7,6 -3.5,8.5 -0.8,2.5 0.1,13.6 1.2,19.8 l 2.2,13.2 c 1,6.2 3,13.3 4.4,15.8 1.4,2.5 12.1,7 18.2,8.5 l 2.7,0.7 c 0.5,0.1 0.9,0.3 1.4,0.4 -9,4.9 -17.4,10.7 -24.9,17.3 -1.1,1 0.3,2.5 1.4,1.7 9.4,-6.2 18.4,-12.1 27.9,-17.1 1.8,0.9 3.6,2.1 5.3,3.3 -7.7,6.2 -14.4,14.1 -19,21.3 -0.6,0.9 0.6,2 1.4,1.3 6.9,-6.6 13.1,-14.2 20.4,-20.4 1.5,1.3 2.8,2.7 3.8,4.1 l 0.6,0.8 c -8.3,8 -14.9,18.9 -18.8,28.2 -0.4,1 1,1.7 1.7,0.9 6.5,-8.6 11.7,-18.6 19,-26.4 l 2.4,3.4 c 3.7,5.1 8.4,10.7 10.6,12.4 2.2,1.7 11.3,3.2 15,3.2 3.6,0 8.8,-0.6 11.5,-1.4 2.7,-0.7 10.5,-9.1 14.1,-14.2 l 2.4,-3.4 c 7.3,7.9 12.6,17.9 19.1,26.5 0.7,0.9 2,-0.1 1.6,-1 -3.8,-9.2 -10.4,-20.1 -18.7,-28.1 l 0.5,-0.7 c 1,-1.4 2.4,-2.8 3.9,-4.2 7.2,6.1 13.4,13.7 20.2,20.2 0.9,0.9 2.1,-0.2 1.5,-1.2 -4.6,-7.1 -11.3,-15 -19,-21.2 1.7,-1.3 3.5,-2.4 5.4,-3.3 9.5,5.1 18.6,10.9 27.9,17.2 1.2,0.8 2.3,-0.9 1.3,-1.8 -7.4,-6.6 -15.8,-12.4 -24.7,-17.2 0.4,-0.1 0.8,-0.3 1.2,-0.4 l 2.8,-0.7 c 6.1,-1.5 13,-4 15.4,-5.6 2.4,-1.5 6,-12.6 7.1,-18.8 l 2.2,-13.2 c 1,-6.2 1.8,-13.4 1.8,-16 -0.1,-2.6 -3,-10.1 -4.1,-12.2 -1.1,-2.1 0.8,-8.1 4.3,-13.3 l 7.2,-10.6 c 3.5,-5.3 8.3,-15.7 7.3,-18.3 z"
             id="path6714"
             inkscape:connector-curvature="0"
             style="fill:#d6d6d6" /><g
             id="g6716"
             transform="translate(2316.4014,194.8789)"><path
               class="st0"
               d="m 911,-36.8 c -3.1,-4.6 -5.8,-8.7 -6,-9.2 0,0 0,0 0,-0.5 0,-0.6 0,-0.6 0,-0.6 0.2,-0.5 2.5,-3.6 5,-6.7 2.5,-3.1 4.9,-5.9 5.4,-6.1 0.5,-0.2 6.5,2.1 12.2,4.7 l 0.9,0.4 c 5.7,2.6 10.3,4.9 10.2,5 -0.1,0.2 -2.8,5.1 -5.7,10.6 l -5,9.4 c -3,5.6 -13.9,-2.4 -17,-7 z"
               id="path6718"
               inkscape:connector-curvature="0"
               style="fill:#094766" /><path
               class="st0"
               d="m 998.9,83.6 c -0.9,0.7 -6.3,1.3 -9.9,1.3 -3.6,0 -7.5,-0.3 -8.6,-0.7 -0.5,-0.2 -1.6,-1.2 -3,-2.8 l 7.6,-6.9 c 2.2,-2 4,-3.7 4,-3.7 0,0 1.8,1.7 4,3.7 l 7.7,7 c -0.8,1.2 -1.5,1.9 -1.8,2.1 z"
               id="path6720"
               inkscape:connector-curvature="0"
               style="fill:#094766" /><path
               class="st0"
               d="m 1055.8,19.9 -2.2,13.2 c -1,6.2 -2.3,11.9 -2.7,12.6 -0.5,0.8 -5.7,2.6 -10.3,3.8 -4.5,1.1 -8.1,1.3 -7.9,0.4 0.2,-0.9 -2.5,-7.3 -5.8,-12.2 -3.4,-4.9 -6.2,-8.8 -6.2,-8.6 0,0.2 0.8,4.2 1.6,8.6 0.9,4.4 1.5,9.1 1.4,10.4 -0.1,1.3 -1.6,4.4 -2.1,5.1 0,0 0,0 0,0.1 -5.8,-2.3 -11.6,-4.2 -17.5,-5.7 -1.6,-0.4 -2.5,2 -0.9,2.4 5.7,1.7 11.1,3.8 16.4,6.1 -0.7,1 -1.5,2.1 -2.3,3.2 -4.5,-2.4 -9.2,-4.1 -14,-4.5 -1.4,-0.1 -1.5,1.9 -0.2,2.1 4.6,0.9 8.7,2.6 12.4,4.8 -1,1.4 -2.2,3.1 -3.5,4.9 -3.2,-2.1 -6.5,-3.7 -9.9,-4.6 -1.3,-0.3 -2,1.5 -0.7,2 3.4,1.3 6.3,2.9 9,4.9 -1.3,1.8 -2.6,3.6 -3.7,5.2 -0.7,1 -1.4,1.9 -2.1,2.9 -0.1,-0.1 -0.3,-0.2 -0.4,-0.3 L 995.9,71 c -2.5,-1.7 -4.5,-3.1 -4.5,-3.2 0,-0.1 0,-2.7 0,-5.7 l 0,-8.4 c 0.1,-0.1 0.1,-0.2 0.2,-0.3 l 13.5,-15.3 c 1.3,-2.7 0,-4.9 -3,-4.9 l -25.8,0 c -3,0 -4.4,2.2 -3,4.9 l 13.5,15.3 c 0.1,0.1 0.1,0.2 0.2,0.3 l 0,8.4 c 0,3 0,5.5 0,5.6 0,0.1 -2,1.6 -4.5,3.3 l -8.3,5.7 c -0.1,0.1 -0.2,0.2 -0.4,0.3 -0.8,-1 -1.5,-2 -2.2,-2.9 -1.1,-1.6 -2.4,-3.3 -3.7,-5.1 2.7,-2 5.7,-3.7 9.1,-5 1.1,-0.4 0.5,-2.3 -0.6,-2 -3.5,0.9 -6.9,2.6 -10.1,4.7 -1.3,-1.8 -2.5,-3.5 -3.5,-4.9 3.8,-2.2 7.9,-3.9 12.5,-4.8 1.4,-0.3 1,-2.2 -0.4,-2.1 -4.8,0.4 -9.5,2.1 -13.9,4.5 -0.8,-1.1 -1.6,-2.3 -2.3,-3.2 5.2,-2.3 10.5,-4.3 16.2,-6 1.6,-0.5 1.2,-3 -0.5,-2.6 -6,1.5 -11.9,3.4 -17.7,5.8 l -0.1,-0.1 c -0.5,-0.7 -1.3,-2.2 -1.7,-3.5 -0.5,-1.3 0.2,-7.6 1.1,-12 0.9,-4.4 1.6,-8.1 1.6,-8.3 0,-0.2 -2.7,3.4 -6.1,8.3 -3.4,4.9 -6.1,9.7 -6,10.6 0.1,0.9 -3.2,2.3 -7.7,1.2 -4.5,-1.1 -8.8,-2.5 -9.6,-3 -0.7,-0.5 -2.4,-7.2 -3.4,-13.4 L 922.6,20 c -1,-6.2 -1.8,-12.5 -1.8,-14 0.1,-1.5 1.7,-5.8 2.6,-7.4 0.8,-1.5 3.9,-7.3 6.9,-12.9 l 11,-20.5 c 3,-5.5 6.1,-10.8 7,-11.7 0.9,-0.9 3.4,-2.1 3.5,-2.1 0.1,0 5.2,-1.2 11.3,-2.6 l 11.3,-2.6 c 6.1,-1.4 12.5,-2.7 14.3,-2.8 1.8,-0.1 10.4,1.4 16.5,2.9 l 10.5,2.5 c 6.1,1.4 11.2,2.6 11.3,2.6 0.1,0 1.1,0.6 2.3,1.2 1.1,0.6 5.3,7.2 8.3,12.7 l 11,20.5 c 3,5.5 6.1,11.3 6.9,12.9 0.8,1.5 2.5,5.8 2.6,7.4 -0.4,1.4 -1.2,7.7 -2.3,13.8 z"
               id="path6722"
               inkscape:connector-curvature="0"
               style="fill:#094766" /><path
               class="st0"
               d="m 1073.1,-46.5 c 0,0.5 0,0.5 0,0.5 -0.2,0.4 -2.8,4.5 -6,9.2 -3.1,4.6 -14,12.6 -16.9,7.1 l -5,-9.4 c -3,-5.5 -5.5,-10.2 -5.5,-10.3 -0.1,-0.2 4.3,-2.7 10,-5.3 l 0.9,-0.4 c 5.7,-2.6 10.9,-4.7 11.5,-4.8 0.6,0 3.6,3 6.1,6.1 2.5,3.1 4.7,6.1 5,6.7 -0.1,0 -0.1,0 -0.1,0.6 z"
               id="path6724"
               inkscape:connector-curvature="0"
               style="fill:#094766" /></g><g
             id="g6726"
             transform="translate(2316.4014,194.8789)"><path
               class="st1"
               d="m 976.4,-3.4 c -1.1,0 -4.7,0.1 -7.9,0.2 l -27.4,0.8 c -3.2,0.1 -3.3,0.5 -0.1,1 L 957.8,1 c 0,0.2 -0.1,0.4 -0.1,0.7 0,2.1 1.7,3.7 3.7,3.7 1.9,0 3.5,-1.5 3.7,-3.3 l 2.7,0.4 c 3.2,0.5 5.6,3.5 5.3,6.7 l -3.4,12 c -0.3,3.2 0.7,5.9 2.2,6.1 1.5,0.1 2.8,0.1 2.8,0 0,-0.1 0.1,-2.9 0.3,-6.1 l 2.8,-11.3 c 0.1,-3.2 0.3,-7.5 0.4,-9.5 0.2,-2.2 -0.7,-3.9 -1.8,-3.8 z"
               id="path6728"
               inkscape:connector-curvature="0"
               style="fill:#d6d6d6" /><path
               class="st1"
               d="m 1037,-2.4 -27.4,-0.8 c -3.2,-0.1 -6.8,-0.2 -7.9,-0.2 -1.1,0 -2,1.6 -1.9,3.6 0.1,2 0.3,6.3 0.4,9.5 L 1003,21 c 0.1,3.2 0.3,6 0.3,6.1 0,0.1 1.3,0.1 2.8,0 1.5,-0.1 2.5,-2.8 2.2,-6.1 l -3.4,-12 c -0.3,-3.2 2.1,-6.2 5.3,-6.7 l 2.7,-0.4 c 0.2,1.9 1.8,3.3 3.7,3.3 2.1,0 3.7,-1.7 3.7,-3.7 0,-0.2 0,-0.4 -0.1,-0.7 l 16.8,-2.4 c 3.2,-0.3 3.2,-0.8 0,-0.8 z"
               id="path6730"
               inkscape:connector-curvature="0"
               style="fill:#d6d6d6" /><path
               class="st1"
               d="m 953.7,-31.3 c 3.3,0 6,-3.4 6,-7.5 0,-4.2 -2.7,-7.5 -6,-7.5 -3.3,0 -6,3.4 -6,7.5 0,4.1 2.7,7.5 6,7.5 z"
               id="path6732"
               inkscape:connector-curvature="0"
               style="fill:#d6d6d6" /><path
               class="st1"
               d="m 946.6,-19.3 c 2.8,0 5,-2.2 5,-5 0,-2.8 -2.2,-5 -5,-5 -2.8,0 -5,2.2 -5,5 0,2.7 2.2,5 5,5 z"
               id="path6734"
               inkscape:connector-curvature="0"
               style="fill:#d6d6d6" /><path
               class="st1"
               d="m 969.8,-35.9 c 1.6,0.5 3.7,-1.7 4.7,-4.8 1,-3.2 0.5,-6.1 -1,-6.7 -1.6,-0.5 -3.7,1.7 -4.7,4.8 -1,3.2 -0.6,6.2 1,6.7 z"
               id="path6736"
               inkscape:connector-curvature="0"
               style="fill:#d6d6d6" /><path
               class="st1"
               d="m 963.4,-19.8 c 1.9,0 3.5,-1.3 3.5,-3 0,-1.7 -1.6,-3 -3.5,-3 -1.9,0 -3.5,1.3 -3.5,3 0,1.7 1.6,3 3.5,3 z"
               id="path6738"
               inkscape:connector-curvature="0"
               style="fill:#d6d6d6" /><path
               class="st1"
               d="m 1047.7,32.4 c -2.5,-1.2 -5.5,-0.2 -6.7,2.3 -1.2,2.5 -0.2,5.5 2.3,6.7 2.5,1.2 5.5,0.2 6.7,-2.2 1.2,-2.5 0.2,-5.5 -2.3,-6.8 z"
               id="path6740"
               inkscape:connector-curvature="0"
               style="fill:#d6d6d6" /><path
               class="st1"
               d="m 1044.2,28.3 c 1.6,0.3 3.4,-2.2 3.9,-5.5 0.5,-3.3 -0.4,-6.2 -2.1,-6.4 -1.6,-0.3 -3.4,2.2 -3.9,5.5 -0.4,3.2 0.5,6.1 2.1,6.4 z"
               id="path6742"
               inkscape:connector-curvature="0"
               style="fill:#d6d6d6" /><path
               class="st1"
               d="m 1037.4,28.4 c -1.7,-0.9 -3.8,-0.4 -4.5,1.1 -0.7,1.5 0.1,3.4 1.8,4.3 1.7,0.9 3.8,0.4 4.5,-1.1 0.8,-1.6 0,-3.5 -1.8,-4.3 z"
               id="path6744"
               inkscape:connector-curvature="0"
               style="fill:#d6d6d6" /></g><g
             id="g6746"
             transform="translate(2316.4014,194.8789)"><path
               class="st1"
               d="m 896.9,184.2 c 0,4.1 -1.4,7.6 -4.3,10.5 -2.9,2.9 -6.4,4.3 -10.5,4.3 l -3,0 c -2,0 -3,1 -3,3 l 0,11.9 c 0,1.7 -0.6,3.1 -1.7,4.2 -1.1,1.1 -2.5,1.7 -4.2,1.7 l -3,0 c -1.7,0 -3.1,-0.6 -4.2,-1.7 -1.1,-1.2 -1.7,-2.6 -1.7,-4.2 l 0,-68.4 c 0,-4.1 1.4,-7.6 4.4,-10.5 2.9,-2.9 6.4,-4.3 10.6,-4.3 l 6,0 c 4.1,0 7.6,1.4 10.5,4.3 2.9,2.9 4.3,6.4 4.3,10.5 l 0,38.7 -0.2,0 z m -14.9,-3.1 0,-32.7 c 0,-2 -1,-3 -3,-3 -2,0 -3,1 -3,3 l 0,32.7 c 0,2 1,3 3,3 2,0 3,-1 3,-3 z"
               id="path6748"
               inkscape:connector-curvature="0"
               style="fill:#d6d6d6" /><path
               class="st1"
               d="m 940.9,205 c 0,4.1 -1.4,7.6 -4.3,10.5 -2.9,2.9 -6.4,4.3 -10.5,4.3 l -6.1,0 c -4.1,0 -7.6,-1.4 -10.5,-4.3 -2.9,-2.9 -4.3,-6.4 -4.3,-10.5 l 0,-5.9 c 0,-4.1 1.4,-7.6 4.3,-10.5 2.9,-2.9 6.4,-4.3 10.5,-4.3 l 3,0 c 2,0 3,-1 3,-3 l 0,-32.9 c 0,-2 -1,-3 -3,-3 -2,0 -3,1 -3,3 l 0,23.8 c 0,1.7 -0.6,3.1 -1.7,4.2 -1.2,1.2 -2.6,1.7 -4.2,1.7 l -3,0 c -1.7,0 -3.1,-0.6 -4.2,-1.7 -1.2,-1.1 -1.7,-2.6 -1.7,-4.2 l 0,-26.7 c 0,-4.1 1.4,-7.6 4.3,-10.5 2.9,-2.9 6.4,-4.3 10.5,-4.3 l 6.1,0 c 4.1,0 7.6,1.5 10.5,4.3 2.9,2.9 4.3,6.4 4.3,10.5 l 0,59.5 0,0 z M 926,201.9 c 0,-2 -1,-3 -3,-3 -2,0 -3,1 -3,3 0,2 1,3 3,3 2,0 3,-1 3,-3 z"
               id="path6750"
               inkscape:connector-curvature="0"
               style="fill:#d6d6d6" /><path
               class="st1"
               d="m 984.9,172.2 c 0,1.7 -0.6,3.1 -1.7,4.2 -1.1,1.2 -2.5,1.7 -4.2,1.7 l -3,0 c -1.7,0 -3.1,-0.6 -4.2,-1.7 -1.1,-1.2 -1.7,-2.6 -1.7,-4.2 l 0,-23.8 c 0,-2 -1,-3 -3,-3 -2,0 -3,1 -3,3 l 0,65.5 c 0,1.7 -0.6,3.1 -1.7,4.2 -1.1,1.2 -2.5,1.7 -4.2,1.7 l -3,0 c -1.7,0 -3.1,-0.6 -4.2,-1.7 -1.1,-1.1 -1.7,-2.6 -1.7,-4.2 l 0,-68.4 c 0,-4.1 1.4,-7.6 4.3,-10.5 2.9,-2.9 6.4,-4.3 10.5,-4.3 l 5.9,0 c 4.1,0 7.6,1.4 10.5,4.3 2.9,2.9 4.3,6.4 4.3,10.5 l 0,26.7 0.1,0 z"
               id="path6752"
               inkscape:connector-curvature="0"
               style="fill:#d6d6d6" /><path
               class="st1"
               d="m 1028.9,205 c 0,4.1 -1.4,7.6 -4.3,10.5 -2.9,2.9 -6.4,4.3 -10.5,4.3 l -14.9,0 c -1.7,0 -3.1,-0.6 -4.2,-1.7 -1.2,-1.1 -1.7,-2.6 -1.7,-4.2 l 0,-77.4 c 0,-1.7 0.6,-3.1 1.7,-4.2 1.2,-1.1 2.6,-1.7 4.2,-1.7 l 14.9,0 c 4.1,0 7.6,1.4 10.5,4.3 2.9,2.9 4.3,6.4 4.3,10.5 l 0,59.6 z m -14.9,-3.1 0,-53.5 c 0,-2 -1,-3 -3,-3 -2,0 -3,1 -3,3 l 0,53.5 c 0,2 1,3 3,3 2,0 3,-1 3,-3 z"
               id="path6754"
               inkscape:connector-curvature="0"
               style="fill:#d6d6d6" /><path
               class="st1"
               d="m 1072.8,205 c 0,4.1 -1.4,7.6 -4.3,10.5 -2.9,2.9 -6.4,4.3 -10.5,4.3 l -6.1,0 c -4.1,0 -7.6,-1.4 -10.5,-4.3 -2.9,-2.9 -4.3,-6.4 -4.3,-10.5 l 0,-68.5 c 0,-1.7 0.6,-3.1 1.7,-4.2 1.1,-1.2 2.6,-1.7 4.2,-1.7 l 3,0 c 1.7,0 3.1,0.6 4.2,1.7 1.2,1.2 1.7,2.6 1.7,4.2 l 0,65.4 c 0,2 1,3 3,3 2,0 3,-1 3,-3 l 0,-65.4 c 0,-1.7 0.6,-3.1 1.7,-4.2 1.2,-1.1 2.6,-1.7 4.2,-1.7 l 3,0 c 1.7,0 3.1,0.6 4.2,1.7 1.2,1.2 1.7,2.6 1.7,4.2 l 0.1,68.5 0,0 z"
               id="path6756"
               inkscape:connector-curvature="0"
               style="fill:#d6d6d6" /><path
               class="st1"
               d="m 1116.8,205 c 0,4.1 -1.4,7.6 -4.3,10.5 -2.9,2.9 -6.4,4.3 -10.5,4.3 l -14.9,0 c -1.7,0 -3.1,-0.6 -4.2,-1.7 -1.2,-1.1 -1.7,-2.6 -1.7,-4.2 l 0,-3 c 0,-1.7 0.6,-3.1 1.7,-4.2 1.1,-1.1 2.6,-1.7 4.2,-1.7 l 11.9,0 c 2,0 3,-1 3,-2.9 0,-2 -1,-2.9 -3,-2.9 l -3,0 c -4.1,0 -7.6,-1.4 -10.5,-4.3 -2.9,-2.9 -4.3,-6.4 -4.3,-10.5 l 0,-38.9 c 0,-4.1 1.4,-7.6 4.3,-10.5 2.9,-2.9 6.4,-4.3 10.5,-4.3 l 6.1,0 c 4.1,0 7.6,1.4 10.5,4.3 2.9,2.9 4.3,6.4 4.3,10.5 l 0,26.8 c 0,1.7 -0.6,3.1 -1.7,4.2 -1.2,1.2 -2.6,1.7 -4.2,1.7 l -3,0 c -1.7,0 -3.1,-0.6 -4.2,-1.7 -1.2,-1.1 -1.7,-2.6 -1.7,-4.2 l 0,-23.8 c 0,-2 -1,-3 -3,-3 -2,0 -3,1 -3,3 l 0,32.7 c 0,2 1,3 3,3 l 3,0 c 4.1,0 7.6,1.5 10.5,4.4 2.9,2.9 4.3,6.4 4.3,10.6 l -0.1,5.8 0,0 z"
               id="path6758"
               inkscape:connector-curvature="0"
               style="fill:#d6d6d6" /></g><g
             id="g6760"
             transform="translate(2316.4014,194.8789)"><g
               id="g6762"><path
                 class="st0"
                 d="m 827.2,210.7 c -1,1.2 1,0.8 2.8,0.4 l 0.2,-2.4 -3,2 z"
                 id="path6764"
                 inkscape:connector-curvature="0"
                 style="fill:#094766" /><path
                 class="st0"
                 d="m 834.5,206.9 2.4,-3.8 -2,2.4 c -3.3,0.9 -0.7,-2 0.1,-3 -4.3,3.2 -0.4,3 -0.5,4.4 z"
                 id="path6766"
                 inkscape:connector-curvature="0"
                 style="fill:#094766" /><path
                 class="st0"
                 d="m 840.5,201.3 c 2.3,-1.2 1,-2 -0.1,-1.7 0.1,0.6 -1,2 0.1,1.7 z"
                 id="path6768"
                 inkscape:connector-curvature="0"
                 style="fill:#094766" /><path
                 class="st0"
                 d="m 988.2,133.8 c -0.8,0.1 -1.6,0.2 -1.7,-0.1 -0.6,0.6 -0.6,1 1.7,0.1 z"
                 id="path6770"
                 inkscape:connector-curvature="0"
                 style="fill:#094766" /><path
                 class="st0"
                 d="m 986.5,133.6 0.4,-0.4 c -0.1,0.1 -0.2,0.1 -0.4,0.4 0,0 0,0 0,0 z"
                 id="path6772"
                 inkscape:connector-curvature="0"
                 style="fill:#094766" /><path
                 class="st0"
                 d="m 931.8,141.3 c -2.3,2.1 -4,2.3 -6.4,3.9 l -2.1,-0.8 c -2.5,1.8 -0.6,1.8 -2.2,3.5 -2.9,0.3 -7.8,3.7 -9,4.2 -1.1,-0.3 0.6,-1.4 0.8,-2 -3,2.1 -2.1,3.3 -6,5.3 l -0.3,-0.4 c -8.5,6.7 -20.7,12.2 -30.4,19 0.7,-0.3 0.7,0.1 1.1,0.2 -10.7,6.3 -23.2,13.4 -29.7,21.6 5.6,-3.7 16.6,-7.1 21.2,-12.8 2.7,-0.2 5.4,-3.5 7.1,-2.6 8.9,-3.9 11.1,-8.3 19.4,-12.6 1.3,-0.3 1.1,0.7 1.8,1.2 l -6.2,4 4.3,-1.5 c -1.4,1.5 -5.9,3.2 -5.7,4.8 4.9,-4.5 14.8,-7.9 18.9,-12.2 -2.5,0.9 -5.3,2.7 -8.2,4 -1.5,0.2 -3.5,0.8 -3.8,0 7,-6.1 14.2,-8.4 22.2,-13 2,-1.2 4.9,-2.4 5.6,-1.9 -1.2,0.9 0.1,1 -0.9,1.8 2.7,-2 -0.9,-2.6 3.5,-4.4 l 0.6,2.7 c 0.5,-3.3 5.4,-2.1 7.8,-5 1.5,0.4 -0.2,1.9 -2.5,3.1 2.8,-0.8 2.4,-2.4 4.6,-3.3 l -1,3 c 1.3,-3 4.2,-1.5 5.8,-1.5 -0.1,-0.6 -2,-1.6 0.9,-2.8 1.3,-0.3 1,0.5 1.4,0.7 -0.1,-0.6 0.5,-2 2.3,-2.9 0.7,0.5 -0.8,1.6 -0.5,2.4 1.4,-0.7 2.5,-1.4 3.8,-1.3 2.2,-1.7 -0.6,-0.9 0.6,-2.4 4.1,-1.2 1.4,2.2 3.5,3.1 -2.5,2.3 -5.9,4.3 -7.2,5.6 l 5.2,-3.1 c 0,1 4.4,-0.3 1.8,1.8 5.9,-1.7 12.3,-5.6 17.3,-8.7 -0.9,0.1 -1.9,0.3 -2,-0.3 2.5,-1.7 2.7,-0.6 3.5,-0.2 1.8,-1.5 0.9,-2.8 1.7,-4.4 4.7,-0.7 5,-1.7 9.3,-1.6 l -0.9,-1.3 c 3,0 2.5,-2.3 5.6,-2.7 0.3,0.2 -0.6,1.1 -1.3,1.8 2.2,-1.6 2.8,0.2 4.9,-1.4 l -1.2,2.4 c 1.9,-0.9 4.4,-2.6 4,-0.9 2.6,-3.1 8.6,-5 12.3,-7.8 l 0.3,1.3 c 1.5,-2.4 7.8,-3.4 8.9,-5.9 l 0.5,0.4 3.5,-3.5 c 2,-0.7 2.1,1.4 2.1,0.9 4.1,-2.1 7.3,-3.6 10.3,-4.1 0,-1.9 4.3,-4.2 7.8,-5.8 17.5,-5.9 35.6,-13.9 51.7,-20.4 2.5,-0.7 5.4,-3.5 8.4,-5.1 -3.9,0.6 -4.1,1.5 -7.8,2.5 -2.9,0.3 -4.5,-1.2 -7.2,-1.6 l 1.6,1.1 c -3.5,2.3 -2.9,0 -5.5,2.3 l -0.6,-2.4 c -0.7,1.5 -3.7,1.4 -5,1.1 l -0.5,1.9 c -2.7,-0.1 -4.4,0 -5.6,-1.2 l 0.7,1.4 c -1.2,-0.6 -9.1,3.3 -7.1,-0.2 -0.6,0.6 -1,1.5 -2.5,1.9 l -0.7,-1.4 c -2.1,1.1 -4.4,2.3 -5.3,1.7 1.1,-0.8 1.2,-1.5 1.4,-2.3 -9.3,3.1 -0.3,5.4 -8.3,8.5 l -0.3,-1 -1.7,1.8 -2.6,-0.4 c -1.7,4.3 -11.4,4.1 -15.5,7.8 -1.8,1.1 -5,0.2 -8.5,1.9 l 0.8,1.3 c -3.5,-0.2 -14.5,3.5 -18.6,1.5 -2.2,2.3 0.4,0.2 0.8,1.3 -4.6,3.8 -5.9,1.8 -9,2.2 -2.9,2.1 2.7,-0.6 1.4,1.3 -5.4,1.1 -3.2,3.5 -9.7,5.3 -1,-0.5 1.3,-1.3 1.7,-2.1 -3.6,3.3 -11.9,6.1 -18.1,9.2 -8.4,2.8 -17.6,5.9 -27.8,9.4 l 0.1,0.6 c -4.1,0.3 -7.3,3.4 -11.7,4.7 l 2.3,-0.2 z"
                 id="path6774"
                 inkscape:connector-curvature="0"
                 style="fill:#094766" /><path
                 class="st0"
                 d="m 888.5,178.9 1.3,0.8 3.4,-2.7 c -2.1,-0.2 -2.5,1 -4.7,1.9 z"
                 id="path6776"
                 inkscape:connector-curvature="0"
                 style="fill:#094766" /><polygon
                 class="st0"
                 points="885.7,176.5 888.9,174.7 887.4,174.9 "
                 id="polygon6778"
                 style="fill:#094766" /><polygon
                 class="st0"
                 points="936.1,152.9 929.2,157.4 936.7,152.9 "
                 id="polygon6780"
                 style="fill:#094766" /><path
                 class="st0"
                 d="m 988.5,135.1 c -0.6,1 -1.9,1.3 -2.6,2.1 l 3.2,-2.2 -0.6,0.1 z"
                 id="path6782"
                 inkscape:connector-curvature="0"
                 style="fill:#094766" /><path
                 class="st0"
                 d="m 1023.9,125.2 c 0.4,-2.7 2.6,-1.1 0,-2.3 -1.9,1.2 0.3,1.3 0,2.3 z"
                 id="path6784"
                 inkscape:connector-curvature="0"
                 style="fill:#094766" /><path
                 class="st0"
                 d="m 1030.2,118.7 c -1.2,0.4 -1.7,1 -2.3,1.6 2.1,0.4 1.7,-0.8 2.3,-1.6 z"
                 id="path6786"
                 inkscape:connector-curvature="0"
                 style="fill:#094766" /></g><g
               id="g6788"><path
                 class="st0"
                 d="m 844.2,242.3 c -1,1.2 1,0.8 2.8,0.4 l 0.3,-2.4 -3.1,2 z"
                 id="path6790"
                 inkscape:connector-curvature="0"
                 style="fill:#094766" /><path
                 class="st0"
                 d="m 851.7,238.3 2.6,-3.9 -2.1,2.4 c -3.4,0.9 -0.7,-2 0.2,-3 -4.6,3.3 -0.5,3 -0.7,4.5 z"
                 id="path6792"
                 inkscape:connector-curvature="0"
                 style="fill:#094766" /><path
                 class="st0"
                 d="m 858,232.5 c 2.4,-1.3 1.1,-2 -0.1,-1.8 0.2,0.6 -1.1,2.1 0.1,1.8 z"
                 id="path6794"
                 inkscape:connector-curvature="0"
                 style="fill:#094766" /><path
                 class="st0"
                 d="m 1011.6,159.9 c -0.8,0 -1.7,0.2 -1.7,-0.2 -0.7,0.7 -0.7,1 1.7,0.2 z"
                 id="path6796"
                 inkscape:connector-curvature="0"
                 style="fill:#094766" /><path
                 class="st0"
                 d="m 1009.9,159.7 0.4,-0.4 c -0.1,0.1 -0.2,0.1 -0.4,0.4 -0.1,-0.1 0,0 0,0 z"
                 id="path6798"
                 inkscape:connector-curvature="0"
                 style="fill:#094766" /><path
                 class="st0"
                 d="m 952.9,168.2 c -2.4,2.2 -4.2,2.5 -6.7,4.1 l -2.2,-0.7 c -2.6,1.9 -0.7,1.8 -2.4,3.6 -3.1,0.4 -8.1,4.1 -9.4,4.6 -1.2,-0.2 0.6,-1.5 0.8,-2.1 -3.1,2.2 -2.2,3.4 -6.3,5.6 l -0.3,-0.4 c -8.8,7.2 -21.4,13.3 -31.4,20.6 0.8,-0.3 0.8,0.1 1.2,0.2 -11,6.8 -24,14.5 -30.8,23 5.8,-4 17.2,-7.8 22,-13.8 2.9,-0.3 5.5,-3.8 7.3,-2.9 9.2,-4.3 11.4,-8.9 20,-13.6 1.4,-0.4 1.1,0.6 1.9,1.1 l -6.5,4.3 4.5,-1.7 c -1.5,1.6 -6.1,3.5 -5.9,5.1 5.1,-4.8 15.3,-8.6 19.5,-13.2 -2.6,1 -5.5,3 -8.4,4.4 -1.5,0.2 -3.7,1 -3.9,0.2 7.2,-6.4 14.7,-9.1 23,-14.1 2.1,-1.3 5.1,-2.7 5.8,-2.2 -1.3,1 0.1,1 -0.9,1.9 2.8,-2.1 -0.9,-2.7 3.7,-4.6 l 0.6,2.7 c 0.5,-3.4 5.7,-2.2 8.1,-5.2 1.6,0.4 -0.2,2 -2.6,3.2 3,-0.9 2.5,-2.4 4.8,-3.5 l -1.1,3.1 c 1.4,-3.1 4.4,-1.7 6,-1.7 -0.1,-0.6 -2.1,-1.5 0.9,-2.8 1.4,-0.3 1,0.5 1.4,0.6 -0.1,-0.6 0.6,-2 2.5,-3 0.7,0.5 -0.8,1.6 -0.6,2.4 1.5,-0.7 2.6,-1.4 3.9,-1.4 2.4,-1.8 -0.6,-0.9 0.6,-2.4 4.3,-1.4 1.5,2.2 3.7,3 -2.6,2.4 -6.3,4.5 -7.7,5.8 l 5.5,-3.2 c 0,1 4.5,-0.4 1.9,1.8 6.1,-2 12.6,-6 17.9,-9.1 -0.9,0.1 -2,0.3 -2.1,-0.2 2.7,-1.7 2.8,-0.6 3.6,-0.3 1.9,-1.5 1,-2.8 1.9,-4.4 4.9,-0.8 5.2,-1.8 9.7,-1.6 l -0.8,-1.3 c 3.2,0 2.7,-2.3 5.9,-2.6 0.3,0.2 -0.7,1.1 -1.4,1.8 2.4,-1.5 2.9,0.2 5.1,-1.4 l -1.3,2.4 c 2,-0.9 4.7,-2.6 4.2,-0.8 2.8,-3.1 9.2,-4.8 13.2,-7.4 l 0.2,1.3 c 1.7,-2.4 8.3,-3.2 9.6,-5.7 l 0.5,0.4 3.9,-3.3 c 2.1,-0.6 2.1,1.5 2.1,1 4.4,-2 7.9,-3.4 11,-3.7 0.1,-1.9 4.8,-4 8.5,-5.5 18.7,-5.1 38.1,-12.5 55.3,-18.7 2.6,-0.7 5.8,-3.5 8.8,-5.2 -4.1,0.6 -4.3,1.5 -8.3,2.5 -3.1,0.3 -4.6,-1.2 -7.4,-1.7 l 1.7,1.1 c -3.7,2.2 -3,-0.1 -5.8,2.2 l -0.4,-2.4 c -0.8,1.5 -3.9,1.3 -5.2,1 l -0.6,1.9 c -2.8,-0.2 -4.5,-0.1 -5.7,-1.4 l 0.7,1.4 c -1.2,-0.7 -9.7,2.9 -7.4,-0.5 -0.6,0.5 -1.1,1.5 -2.7,1.8 l -0.7,-1.4 c -2.2,1.1 -4.7,2.2 -5.6,1.5 1.1,-0.7 1.4,-1.5 1.6,-2.3 -9.9,2.7 -0.6,5.4 -9.2,8.2 l -0.2,-1 -1.7,1.9 -2.7,-0.5 c -2,4.2 -12.1,3.7 -16.7,7.1 -1.9,1 -5.2,0 -9,1.6 l 0.8,1.4 c -3.6,-0.4 -15.4,2.9 -19.5,0.8 -2.5,2.2 0.4,0.2 0.8,1.3 -5.1,3.7 -6.3,1.6 -9.6,1.9 -3.2,2.1 2.9,-0.5 1.4,1.3 -5.7,1 -3.6,3.4 -10.5,5.2 -1,-0.5 1.4,-1.2 1.9,-2.1 -4,3.4 -12.9,5.9 -19.5,9.2 -8.2,2.3 -19.6,7.1 -29.1,10 l 0.1,0.6 c -4.3,0.4 -7.7,3.6 -12.3,5.1 l 2.5,-0.2 z"
                 id="path6800"
                 inkscape:connector-curvature="0"
                 style="fill:#094766" /><path
                 class="st0"
                 d="m 907.8,207.9 1.3,0.8 3.5,-2.9 c -2.1,-0.1 -2.5,1.1 -4.8,2.1 z"
                 id="path6802"
                 inkscape:connector-curvature="0"
                 style="fill:#094766" /><polygon
                 class="st0"
                 points="905,205.6 908.2,203.7 906.7,204 "
                 id="polygon6804"
                 style="fill:#094766" /><polygon
                 class="st0"
                 points="957.2,179.8 950.1,184.5 957.8,179.7 "
                 id="polygon6806"
                 style="fill:#094766" /><path
                 class="st0"
                 d="m 1011.8,161.2 c -0.6,1 -2,1.3 -2.8,2.1 l 3.4,-2.1 -0.6,0 z"
                 id="path6808"
                 inkscape:connector-curvature="0"
                 style="fill:#094766" /><path
                 class="st0"
                 d="m 1049.1,152.4 c 0.6,-2.7 2.8,-1 0.2,-2.3 -2.1,1.1 0.2,1.3 -0.2,2.3 z"
                 id="path6810"
                 inkscape:connector-curvature="0"
                 style="fill:#094766" /><path
                 class="st0"
                 d="m 1056.2,146.2 c -1.3,0.4 -1.9,1 -2.5,1.6 2.1,0.3 1.7,-0.9 2.5,-1.6 z"
                 id="path6812"
                 inkscape:connector-curvature="0"
                 style="fill:#094766" /></g><g
               id="g6814"><path
                 class="st0"
                 d="m 877.1,266.7 c -0.7,1.2 1.1,0.6 2.7,0.2 l -0.1,-2.4 -2.6,2.2 z"
                 id="path6816"
                 inkscape:connector-curvature="0"
                 style="fill:#094766" /><path
                 class="st0"
                 d="m 883.2,262.5 1.9,-3.8 -1.7,2.4 c -3,1.1 -1,-1.9 -0.2,-2.9 -3.6,3.3 0,2.9 0,4.3 z"
                 id="path6818"
                 inkscape:connector-curvature="0"
                 style="fill:#094766" /><path
                 class="st0"
                 d="m 888.5,256.8 c 2.1,-1.3 0.8,-2 -0.3,-1.7 0,0.6 -0.8,2 0.3,1.7 z"
                 id="path6820"
                 inkscape:connector-curvature="0"
                 style="fill:#094766" /><path
                 class="st0"
                 d="m 1026.8,195.2 c -0.7,0 -1.5,0.2 -1.6,-0.2 -0.6,0.6 -0.6,1 1.6,0.2 z"
                 id="path6822"
                 inkscape:connector-curvature="0"
                 style="fill:#094766" /><path
                 class="st0"
                 d="m 1025.2,195 0.4,-0.4 c -0.1,0.1 -0.2,0.1 -0.4,0.4 -0.1,-0.1 0,0 0,0 z"
                 id="path6824"
                 inkscape:connector-curvature="0"
                 style="fill:#094766" /><path
                 class="st0"
                 d="m 974.2,201.8 c -2.1,2 -3.7,2.1 -5.9,3.5 l -2,-0.9 c -2.3,1.6 -0.6,1.7 -2.1,3.3 -2.7,0.1 -7.3,3.1 -8.5,3.6 -1.1,-0.3 0.6,-1.4 0.7,-1.9 -2.8,1.8 -2,3.1 -5.7,4.8 l -0.2,-0.4 c -8.1,6 -19.8,10.6 -29.1,16.8 0.7,-0.3 0.7,0.1 1.1,0.3 -10.2,5.6 -22.1,12.3 -27.8,20.5 5.1,-3.8 15.4,-6.8 19.8,-12.2 2.6,-0.1 5.1,-3.2 6.7,-2.2 8.4,-3.4 10.5,-7.5 18.5,-11.2 1.3,-0.3 1,0.7 1.7,1.3 l -6,3.6 4.1,-1.2 c -1.4,1.4 -5.6,2.8 -5.4,4.3 4.7,-4.1 14,-6.8 18,-10.8 -2.4,0.7 -5,2.3 -7.8,3.4 -1.4,0.1 -3.4,0.5 -3.6,-0.2 6.7,-5.5 13.5,-7.3 21.1,-11.4 1.9,-1 4.6,-2.1 5.2,-1.5 -1.2,0.8 0,1 -0.9,1.8 2.5,-1.8 -0.8,-2.6 3.3,-4.1 l 0.6,2.7 c 0.5,-3.3 5.1,-1.7 7.3,-4.5 1.5,0.5 -0.2,1.9 -2.3,3 2.7,-0.7 2.3,-2.2 4.3,-3.1 l -0.9,2.9 c 1.2,-2.9 4,-1.3 5.5,-1.2 -0.1,-0.6 -1.9,-1.6 0.8,-2.7 1.3,-0.3 0.9,0.5 1.3,0.7 -0.1,-0.6 0.4,-1.9 2.1,-2.8 0.7,0.5 -0.7,1.6 -0.4,2.3 1.3,-0.7 2.3,-1.3 3.5,-1.2 2,-1.7 -0.6,-0.9 0.4,-2.3 3.8,-1.2 1.5,2.2 3.5,3 -2.2,2.3 -5.5,4.2 -6.7,5.5 l 4.9,-3 c 0.1,1 4.1,-0.3 1.8,1.8 5.5,-1.7 11.2,-5.7 15.7,-8.7 -0.8,0.1 -1.8,0.3 -1.9,-0.3 2.3,-1.7 2.5,-0.5 3.3,-0.2 1.6,-1.4 0.7,-2.7 1.4,-4.3 4.4,-0.7 4.6,-1.6 8.7,-1.4 l -0.8,-1.3 c 2.9,0 2.2,-2.2 5.2,-2.6 0.3,0.2 -0.5,1 -1.2,1.7 2,-1.5 2.6,0.2 4.6,-1.3 l -1,2.3 c 1.7,-0.8 4.1,-2.5 3.8,-0.7 2.3,-3 8,-4.7 11.4,-7.3 l 0.3,1.3 c 1.3,-2.3 7.3,-3.1 8.3,-5.6 l 0.5,0.4 3.2,-3.4 c 1.9,-0.6 2,1.5 2,0.9 3.8,-2 6.8,-3.5 9.7,-3.9 -0.1,-1.9 3.9,-4.1 7.1,-5.8 16.3,-5.9 32.7,-15 46.3,-23.9 2.1,-1.1 4.2,-4.4 6.6,-6.5 -3.5,1.2 -3.4,2.2 -6.7,3.8 -2.6,0.8 -4.4,-0.5 -6.9,-0.5 l 1.7,0.8 c -2.8,2.7 -2.6,0.4 -4.6,3 l -0.9,-2.2 c -0.4,1.6 -3.1,1.7 -4.4,1.6 l -0.2,1.9 c -2.5,0.1 -4,0.4 -5.3,-0.7 l 0.8,1.3 c -1.2,-0.5 -8,3.8 -6.6,0.3 -0.5,0.6 -0.7,1.6 -2.1,2 l -0.8,-1.3 c -1.8,1.2 -3.8,2.4 -4.7,1.9 0.9,-0.8 1,-1.6 1,-2.3 -8.3,3.4 0.3,5.4 -6.9,8.7 l -0.3,-0.9 -1.4,1.8 -2.4,-0.3 c -1.3,4.2 -10.3,4.2 -14,7.7 -1.6,1 -4.7,0.1 -7.9,1.8 l 0.8,1.3 c -3.3,-0.3 -13.6,3.1 -17.5,1 -2,2.2 0.4,0.2 0.8,1.3 -4.2,3.6 -5.6,1.5 -8.5,1.9 -2.7,2 2.5,-0.5 1.4,1.3 -5.1,1 -3,3.4 -9.1,5 -0.9,-0.5 1.2,-1.2 1.6,-2 -3.4,3.2 -11.2,5.7 -17,8.8 -7.3,2.2 -17.4,6.8 -25.6,9.2 l 0.1,0.6 c -3.7,0.2 -6.6,3 -10.7,4.1 l 2.2,-0.6 z"
                 id="path6826"
                 inkscape:connector-curvature="0"
                 style="fill:#094766" /><path
                 class="st0"
                 d="m 933.1,236.1 1.2,0.9 3.2,-2.5 c -1.9,-0.3 -2.3,0.9 -4.4,1.6 z"
                 id="path6828"
                 inkscape:connector-curvature="0"
                 style="fill:#094766" /><polygon
                 class="st0"
                 points="930.6,233.6 933.6,232 932.2,232.1 "
                 id="polygon6830"
                 style="fill:#094766" /><polygon
                 class="st0"
                 points="978.4,213.4 971.9,217.6 979,213.4 "
                 id="polygon6832"
                 style="fill:#094766" /><path
                 class="st0"
                 d="m 1027.1,196.5 c -0.5,1 -1.7,1.2 -2.4,2 l 2.9,-2 -0.5,0 z"
                 id="path6834"
                 inkscape:connector-curvature="0"
                 style="fill:#094766" /><path
                 class="st0"
                 d="m 1060.2,187.6 c 0.3,-2.7 2.5,-1 0,-2.3 -1.7,1.2 0.3,1.4 0,2.3 z"
                 id="path6836"
                 inkscape:connector-curvature="0"
                 style="fill:#094766" /><path
                 class="st0"
                 d="m 1066.2,181.3 c -1.1,0.4 -1.6,1 -2.1,1.6 1.9,0.3 1.4,-0.8 2.1,-1.6 z"
                 id="path6838"
                 inkscape:connector-curvature="0"
                 style="fill:#094766" /></g></g></g></g></g></g></svg>