<?xml version="1.0" encoding="UTF-8" standalone="no"?>
<!-- Created with Inkscape (http://www.inkscape.org/) -->

<svg
   xmlns:dc="http://purl.org/dc/elements/1.1/"
   xmlns:cc="http://creativecommons.org/ns#"
   xmlns:rdf="http://www.w3.org/1999/02/22-rdf-syntax-ns#"
   xmlns:svg="http://www.w3.org/2000/svg"
   xmlns="http://www.w3.org/2000/svg"
   xmlns:xlink="http://www.w3.org/1999/xlink"
   xmlns:sodipodi="http://sodipodi.sourceforge.net/DTD/sodipodi-0.dtd"
   xmlns:inkscape="http://www.inkscape.org/namespaces/inkscape"
   width="1920"
   height="1080"
   viewBox="0 0 1920 1080"
   id="svg4081"
   version="1.1"
   inkscape:version="0.91 r13725"
   sodipodi:docname="gray-wallpaper_1920x1080.svg">
  <defs
     id="defs4083">
    <clipPath
       id="SVGID_2_">
      <use
         xlink:href="#SVGID_1_"
         style="overflow:visible"
         id="use16"
         x="0"
         y="0"
         width="100%"
         height="100%" />
    </clipPath>
    <clipPath
       id="clipPath4099">
      <use
         xlink:href="#SVGID_1_"
         style="overflow:visible"
         id="use4101"
         x="0"
         y="0"
         width="100%"
         height="100%" />
    </clipPath>
    <clipPath
       id="clipPath4103">
      <use
         xlink:href="#SVGID_1_"
         style="overflow:visible"
         id="use4105"
         x="0"
         y="0"
         width="100%"
         height="100%" />
    </clipPath>
    <clipPath
       id="clipPath4107">
      <use
         xlink:href="#SVGID_1_"
         style="overflow:visible"
         id="use4109"
         x="0"
         y="0"
         width="100%"
         height="100%" />
    </clipPath>
    <clipPath
       id="clipPath4111">
      <use
         xlink:href="#SVGID_1_"
         style="overflow:visible"
         id="use4113"
         x="0"
         y="0"
         width="100%"
         height="100%" />
    </clipPath>
    <clipPath
       id="clipPath4115">
      <use
         xlink:href="#SVGID_1_"
         style="overflow:visible"
         id="use4117"
         x="0"
         y="0"
         width="100%"
         height="100%" />
    </clipPath>
    <clipPath
       id="clipPath4119">
      <use
         xlink:href="#SVGID_1_"
         style="overflow:visible"
         id="use4121"
         x="0"
         y="0"
         width="100%"
         height="100%" />
    </clipPath>
    <clipPath
       id="clipPath4123">
      <use
         xlink:href="#SVGID_1_"
         style="overflow:visible"
         id="use4125"
         x="0"
         y="0"
         width="100%"
         height="100%" />
    </clipPath>
    <clipPath
       id="clipPath4127">
      <use
         xlink:href="#SVGID_1_"
         style="overflow:visible"
         id="use4129"
         x="0"
         y="0"
         width="100%"
         height="100%" />
    </clipPath>
    <defs
       id="defs12">
      <rect
         height="1024"
         width="1280"
         y="29"
         x="-319"
         id="SVGID_1_" />
    </defs>
    <clipPath
       id="clipPath3543">
      <use
         height="100%"
         width="100%"
         y="0"
         x="0"
         id="use3545"
         style="overflow:visible"
         xlink:href="#SVGID_1_" />
    </clipPath>
  </defs>
  <sodipodi:namedview
     id="base"
     pagecolor="#ffffff"
     bordercolor="#666666"
     borderopacity="1.0"
     inkscape:pageopacity="0.0"
     inkscape:pageshadow="2"
     inkscape:zoom="0.35"
     inkscape:cx="1113.5714"
     inkscape:cy="320"
     inkscape:document-units="px"
     inkscape:current-layer="layer1"
     showgrid="false"
     units="px"
     inkscape:window-width="1920"
     inkscape:window-height="1171"
     inkscape:window-x="1920"
     inkscape:window-y="0"
     inkscape:window-maximized="1" />
  <metadata
     id="metadata4086">
    <rdf:RDF>
      <cc:Work
         rdf:about="">
        <dc:format>image/svg+xml</dc:format>
        <dc:type
           rdf:resource="http://purl.org/dc/dcmitype/StillImage" />
        <dc:title></dc:title>
      </cc:Work>
    </rdf:RDF>
  </metadata>
  <g
     inkscape:label="Layer 1"
     inkscape:groupmode="layer"
     id="layer1"
     transform="translate(0,27.637839)">
    <g
       id="g4599">
      <path
         transform="translate(456.14286,-20.06641)"
         class="st5"
         d="m 431.7,188.5 3.2,-2.3 c -1,0.4 -1.6,0.7 -3.2,1.3 -0.2,0.5 0,1 0,1 z"
         id="path150"
         clip-path="url(#SVGID_2_)"
         inkscape:connector-curvature="0"
         style="fill:#f0f0f0" />
      <path
         transform="translate(456.14286,-20.06641)"
         class="st5"
         d="m -223.4,291.6 c 0.1,0.4 0.2,0.8 0.4,1.2 -0.1,-0.4 -0.2,-0.8 -0.4,-1.2 z"
         id="path152"
         clip-path="url(#SVGID_2_)"
         inkscape:connector-curvature="0"
         style="fill:#f0f0f0" />
      <path
         transform="translate(456.14286,-20.06641)"
         class="st5"
         d="m 695.6,184.5 c -0.1,0.3 -0.2,0.6 -0.3,0.9 0.1,-0.4 0.2,-0.6 0.3,-0.9 z"
         id="path154"
         clip-path="url(#SVGID_2_)"
         inkscape:connector-curvature="0"
         style="fill:#f0f0f0" />
      <rect
         transform="matrix(1.5,0,0,1.0546875,478.5,-58.22375)"
         x="-577.59998"
         y="28.9"
         class="st0"
         width="1820.7"
         height="1024.1"
         id="rect18"
         clip-path="url(#SVGID_2_)"
         style="fill:#3f4040" />
      <g
         transform="matrix(1.5,0,0,1.5,478.5,-117.13781)"
         class="st4"
         id="g156"
         clip-path="url(#SVGID_2_)"
         style="opacity:0.1">
        <path
           d="m 452.1,191.9 c -5.3,-0.8 -11.4,-0.7 -11.1,-3.3 -5,3.7 -5.7,6 11.1,3.3 z"
           id="path158"
           inkscape:connector-curvature="0" />
        <polygon
           points="-274.5,324.7 -284.5,323.8 -298.2,332 "
           id="polygon160" />
        <polygon
           points="74.5,245.9 22.1,266.4 78.6,246.4 "
           id="polygon162" />
        <path
           d="m 431.7,211.9 24.4,-10 -4,-0.6 c -5.3,6 -14.7,6 -20.4,10.6 z"
           id="path164"
           inkscape:connector-curvature="0" />
        <path
           d="m -578,29 0,390.7 4.7,-1.7 c 44.2,-15 115.7,-22.9 152.5,-52.6 18.8,2.4 41.3,-15.7 51.3,-7.1 65.4,-13.7 86.4,-39.8 148.4,-56.8 4.8,-0.2 6.4,1.3 7.3,3.5 0,0 0,-0.1 0,-0.1 55.8,-30.7 107.4,-35.9 167.8,-55.8 15.1,-5 36.3,-9.2 40.1,-4.8 -9.7,4.3 -1,6.6 -8.7,11.1 20.8,-9.6 -2.3,-19 29.8,-24.6 l 0.3,18.7 c 8,-21.8 39.4,-6.1 59.3,-22.3 9.8,5.2 -4.2,12.8 -21.3,17.5 20.4,-1.6 19.7,-12.3 35.4,-15.8 l -11.2,18.7 c 13.2,-18.4 30.6,-4.3 41.1,-1.7 0.3,-3.9 -11.2,-13.4 9.9,-17.5 9.4,-0.2 5.7,4.7 8.3,6.4 0.3,-4 6.2,-12.6 19.9,-16.2 3.7,4.5 -7.4,9.8 -7.1,15.2 10.4,-2.7 18.6,-5.7 27.2,-3.3 17.4,-8.3 -2.8,-7.1 7.3,-15.1 29.2,-2.3 6.5,17.1 19.2,25.7 -20.2,11.6 -45.5,20.4 -56.6,27.1 l 39.2,-13.5 c -1.3,6.5 30,4.4 9.4,14.8 42.3,-3.1 90.6,-20.3 128.8,-33.7 -6,-0.9 -13.5,-0.6 -13.1,-4.6 19.6,-7.9 18.9,0 24,3.4 14.1,-7.4 10.2,-17.4 17.8,-27 32.9,1.9 36.1,-4.3 65.2,2.4 l -3.9,-9.9 c 20.5,4.2 19.8,-12 41.3,-10.3 1.6,2 -5.5,6.3 -11.2,10.1 17.1,-7.3 18.3,5.1 34.8,-2.7 L 468,211.5 c 13.7,-3.4 33.3,-11.4 28.3,0 21.6,-17.1 65,-21.5 93.8,-34.7 l -0.1,9.4 c 13.3,-14.2 57.5,-11.3 68.4,-27.1 l 3,3.2 L 690,144 c 14.3,-1.7 12.2,12.7 12.6,8.7 30.4,-8.6 54.6,-13.7 75.3,-12.8 2.7,-13.1 34.8,-22.2 60.6,-28 C 965,97.4 1098,69.5 1215.7,49.1 c 6.9,-0.5 14.8,-3 23.2,-6.3 l 4,-0.5 0,-1.1 c 0.4,-0.2 -0.6,-12 -0.2,-12.2 L -578,29 Z"
           id="path166"
           inkscape:connector-curvature="0" />
      </g>
      <path
         transform="matrix(1.5,0,0,1.5,478.5,-384.56684)"
         class="st4"
         d="m -581.9,1049.3 -9.7,3.5 1823.7,0.2 0,-391.4 c -4.9,0.9 -10.7,1.6 -18.6,2 -20.1,-2.5 -28.3,-14.1 -46.3,-20.9 l 9.5,9.7 c -27,10.2 -19.4,-4.2 -40.3,7.7 l -0.4,-16.7 c -7.1,8.9 -26.6,3.9 -34.9,0.3 l -6,12.1 c -17.8,-4.7 -29.3,-6.3 -35.7,-16.2 l 2.8,10.3 c -7.2,-6 -66,8.8 -47.7,-11.4 -4.7,3 -8.6,8.9 -19.7,9 l -3,-10.2 c -15.5,4.7 -32.7,9.2 -38.1,4 8.2,-3.7 10.5,-8.7 12.7,-13.6 -67.1,7.6 -9.5,35.7 -67.9,45.5 l -0.3,-6.9 -13.7,9.5 -16.9,-6.1 c -17.3,26.2 -82.3,11.5 -115.2,30.3 -13.4,4.5 -34.2,-5.9 -60,0.8 l 3.7,10 c -23.2,-6.6 -102.8,2.8 -127.4,-16.9 -18.1,12.1 2.5,1.7 3.8,10 -36.3,18.8 -42.3,3.3 -63.8,1.5 -22.6,10.2 19,0.1 7.9,10.5 -38,-0.1 -26.7,19 -72.9,21.9 -5.7,-4.8 10.7,-6.5 14.4,-11.4 -29.2,17.3 -89.1,23.8 -135.2,36 -60.7,7 -126.7,14.6 -200.1,23.1 l -0.3,4 c -28,-3.5 -54.1,12.1 -85.5,15 l 16.1,1.9 c -18.3,11.1 -30.3,9.8 -48.4,17 l -13,-8.2 c -19.4,8.4 -6.8,11.2 -20.1,20.4 -20.1,-2.3 -57.6,13.5 -66.5,15.3 -7.3,-3.4 5.9,-8.7 8.1,-12.5 -22.9,9.6 -18.6,19.4 -48.1,26.9 l -1.2,-2.8 c -66.6,33 -156.8,52.5 -231.9,84.2 5.4,-1 4.7,1.7 7.4,3.2 -81,26.9 -175.3,56.7 -230.8,102.8 2.8,-1.1 6.1,-2.3 9.5,-3.4 z"
         id="path148"
         clip-path="url(#SVGID_2_)"
         inkscape:connector-curvature="0"
         style="opacity:0.1" />
    </g>
    <g
       id="g4516"
       transform="translate(181.04076,39.811979)">
      <g
         id="g4490">
        <g
           clip-path="url(#SVGID_2_)"
           id="g20"
           class="st1"
           transform="translate(456.14286,-20.06641)">
          <path
             style="fill:#7c7c7c"
             inkscape:connector-curvature="0"
             id="path22"
             d="m 425,392.6 c -0.9,-2.6 -3.6,-7.3 -6.1,-10.5 -2.5,-3.1 -6.5,-6.9 -9,-8.3 -2.5,-1.4 -13.7,1.7 -19.4,4.3 l -4.2,1.9 c -5.7,2.6 -10.4,4.8 -10.5,4.8 -0.1,0.1 -0.8,0 -1.3,-0.2 -0.5,-0.2 -6.9,-1.8 -13,-3.2 l -10.9,-2.6 c -6.1,-1.4 -13.1,-2.8 -15.6,-3 -2.5,-0.2 -13.2,1.5 -19.3,2.9 l -11.7,2.7 c -6.1,1.4 -11.5,2.7 -12,2.8 -0.5,0.2 -2,0.7 -2.1,0.6 -0.1,-0.1 -5,-2.3 -10.7,-4.9 L 275,378 c -5.7,-2.6 -12.7,-4.9 -15.6,-5.1 -2.9,-0.2 -10.3,6 -12.8,9.1 -2.5,3.1 -5.3,7.8 -6.1,10.5 -0.9,2.6 3.9,13 7.4,18.2 l 7.2,10.6 c 3.5,5.2 5.4,11.2 4.3,13.3 -1.1,2.1 -2.7,6 -3.5,8.5 -0.8,2.5 0.1,13.6 1.2,19.8 l 2.2,13.2 c 1,6.2 3,13.3 4.4,15.8 1.4,2.5 12.1,7 18.2,8.5 l 2.7,0.7 c 0.5,0.1 0.9,0.3 1.4,0.4 -9,4.9 -17.4,10.7 -24.9,17.3 -1.1,1 0.3,2.5 1.4,1.7 9.4,-6.2 18.4,-12.1 27.9,-17.1 1.8,0.9 3.6,2.1 5.3,3.3 -7.7,6.2 -14.4,14.1 -19,21.3 -0.6,0.9 0.6,2 1.4,1.3 6.9,-6.6 13.1,-14.2 20.4,-20.4 1.5,1.3 2.8,2.7 3.8,4.1 l 0.6,0.8 c -8.3,8 -14.9,18.9 -18.8,28.2 -0.4,1 1,1.7 1.7,0.9 6.5,-8.6 11.7,-18.6 19,-26.4 l 2.4,3.4 c 3.7,5.1 8.4,10.7 10.6,12.4 2.2,1.7 11.3,3.2 15,3.2 3.6,0 8.8,-0.6 11.5,-1.4 2.7,-0.7 10.5,-9.1 14.1,-14.2 l 2.4,-3.4 c 7.3,7.9 12.6,17.9 19.1,26.5 0.7,0.9 2,-0.1 1.6,-1 -3.8,-9.2 -10.4,-20.1 -18.7,-28.1 l 0.5,-0.7 c 1,-1.4 2.4,-2.8 3.9,-4.2 7.2,6.1 13.4,13.7 20.2,20.2 0.9,0.9 2.1,-0.2 1.5,-1.2 -4.6,-7.1 -11.3,-15 -19,-21.2 1.7,-1.3 3.5,-2.4 5.4,-3.3 9.5,5.1 18.6,10.9 27.9,17.2 1.2,0.8 2.3,-0.9 1.3,-1.8 -7.4,-6.6 -15.8,-12.4 -24.7,-17.2 0.4,-0.1 0.8,-0.3 1.2,-0.4 l 2.8,-0.7 c 6.1,-1.5 13,-4 15.4,-5.6 2.4,-1.5 6,-12.6 7.1,-18.8 l 2.2,-13.2 c 1,-6.2 1.8,-13.4 1.8,-16 -0.1,-2.6 -3,-10.1 -4.1,-12.2 -1.1,-2.1 0.8,-8.1 4.3,-13.3 l 7.2,-10.6 c 3.4,-5.3 8.2,-15.7 7.3,-18.3 z"
             class="st2" />
          <g
             id="g24">
            <path
               style="fill:#3f4040"
               inkscape:connector-curvature="0"
               id="path26"
               d="m 254.7,404.7 c -3.1,-4.6 -5.8,-8.7 -6,-9.2 0,0 0,0 0,-0.5 0,-0.6 0,-0.6 0,-0.6 0.2,-0.5 2.5,-3.6 5,-6.7 2.5,-3.1 4.9,-5.9 5.4,-6.1 0.5,-0.2 6.5,2.1 12.2,4.7 l 0.9,0.4 c 5.7,2.6 10.3,4.9 10.2,5 -0.1,0.2 -2.8,5.1 -5.7,10.6 l -5,9.4 c -3,5.6 -13.9,-2.4 -17,-7 z"
               class="st3" />
            <path
               style="fill:#3f4040"
               inkscape:connector-curvature="0"
               id="path28"
               d="m 342.6,525.1 c -0.9,0.7 -6.3,1.3 -9.9,1.3 -3.6,0 -7.5,-0.3 -8.6,-0.7 -0.5,-0.2 -1.6,-1.2 -3,-2.8 l 7.6,-6.9 c 2.2,-2 4,-3.7 4,-3.7 0,0 1.8,1.7 4,3.7 l 7.7,7 c -0.8,1.2 -1.5,1.9 -1.8,2.1 z"
               class="st3" />
            <path
               style="fill:#3f4040"
               inkscape:connector-curvature="0"
               id="path30"
               d="m 399.5,461.4 -2.2,13.2 c -1,6.2 -2.3,11.9 -2.7,12.6 -0.5,0.8 -5.7,2.6 -10.3,3.8 -4.5,1.1 -8.1,1.3 -7.9,0.4 0.2,-0.9 -2.5,-7.3 -5.8,-12.2 -3.4,-4.9 -6.2,-8.8 -6.2,-8.6 0,0.2 0.8,4.2 1.6,8.6 0.9,4.4 1.5,9.1 1.4,10.4 -0.1,1.3 -1.6,4.4 -2.1,5.1 0,0 0,0 0,0.1 -5.8,-2.3 -11.6,-4.2 -17.5,-5.7 -1.6,-0.4 -2.5,2 -0.9,2.4 5.7,1.7 11.1,3.8 16.4,6.1 -0.7,1 -1.5,2.1 -2.3,3.2 -4.5,-2.4 -9.2,-4.1 -14,-4.5 -1.4,-0.1 -1.5,1.9 -0.2,2.1 4.6,0.9 8.7,2.6 12.4,4.8 -1,1.4 -2.2,3.1 -3.5,4.9 -3.2,-2.1 -6.5,-3.7 -9.9,-4.6 -1.3,-0.3 -2,1.5 -0.7,2 3.4,1.3 6.3,2.9 9,4.9 -1.3,1.8 -2.6,3.6 -3.7,5.2 -0.7,1 -1.4,1.9 -2.1,2.9 -0.1,-0.1 -0.3,-0.2 -0.4,-0.3 l -8.3,-5.7 c -2.5,-1.7 -4.5,-3.1 -4.5,-3.2 0,-0.1 0,-2.7 0,-5.7 l 0,-8.4 c 0.1,-0.1 0.1,-0.2 0.2,-0.3 l 13.5,-15.3 c 1.3,-2.7 0,-4.9 -3,-4.9 l -25.8,0 c -3,0 -4.4,2.2 -3,4.9 l 13.5,15.3 c 0.1,0.1 0.1,0.2 0.2,0.3 l 0,8.4 c 0,3 0,5.5 0,5.6 0,0.1 -2,1.6 -4.5,3.3 l -8.3,5.7 c -0.1,0.1 -0.2,0.2 -0.4,0.3 -0.8,-1 -1.5,-2 -2.2,-2.9 -1.1,-1.6 -2.4,-3.3 -3.7,-5.1 2.7,-2 5.7,-3.7 9.1,-5 1.1,-0.4 0.5,-2.3 -0.6,-2 -3.5,0.9 -6.9,2.6 -10.1,4.7 -1.3,-1.8 -2.5,-3.5 -3.5,-4.9 3.8,-2.2 7.9,-3.9 12.5,-4.8 1.4,-0.3 1,-2.2 -0.4,-2.1 -4.8,0.4 -9.5,2.1 -13.9,4.5 -0.8,-1.1 -1.6,-2.3 -2.3,-3.2 5.2,-2.3 10.5,-4.3 16.2,-6 1.6,-0.5 1.2,-3 -0.5,-2.6 -6,1.5 -11.9,3.4 -17.7,5.8 0,0 -0.1,-0.1 -0.1,-0.1 -0.5,-0.7 -1.3,-2.2 -1.7,-3.5 -0.5,-1.3 0.2,-7.6 1.1,-12 0.9,-4.4 1.6,-8.1 1.6,-8.3 0,-0.2 -2.7,3.4 -6.1,8.3 -3.4,4.9 -6.1,9.7 -6,10.6 0.1,0.9 -3.2,2.3 -7.7,1.2 -4.5,-1.1 -8.8,-2.5 -9.6,-3 -0.7,-0.5 -2.4,-7.2 -3.4,-13.4 l -2.2,-13.2 c -1,-6.2 -1.8,-12.5 -1.8,-14 0.1,-1.5 1.7,-5.8 2.6,-7.4 0.8,-1.5 3.9,-7.3 6.9,-12.9 l 11,-20.5 c 3,-5.5 6.1,-10.8 7,-11.7 0.9,-0.9 3.4,-2.1 3.5,-2.1 0.1,0 5.2,-1.2 11.3,-2.6 l 11.3,-2.6 c 6.1,-1.4 12.5,-2.7 14.3,-2.8 1.8,-0.1 10.4,1.4 16.5,2.9 l 10.5,2.5 c 6.1,1.4 11.2,2.6 11.3,2.6 0.1,0 1.1,0.6 2.3,1.2 1.1,0.6 5.3,7.2 8.3,12.7 l 11,20.5 c 3,5.5 6.1,11.3 6.9,12.9 0.8,1.5 2.5,5.8 2.6,7.4 -0.4,1.4 -1.2,7.7 -2.3,13.8 z"
               class="st3" />
            <path
               style="fill:#3f4040"
               inkscape:connector-curvature="0"
               id="path32"
               d="m 416.8,395 c 0,0.5 0,0.5 0,0.5 -0.2,0.4 -2.8,4.5 -6,9.2 -3.1,4.6 -14,12.6 -16.9,7.1 l -5,-9.4 c -3,-5.5 -5.5,-10.2 -5.5,-10.3 -0.1,-0.2 4.3,-2.7 10,-5.3 l 0.9,-0.4 c 5.7,-2.6 10.9,-4.7 11.5,-4.8 0.6,0 3.6,3 6.1,6.1 2.5,3.1 4.7,6.1 5,6.7 -0.1,0 -0.1,0 -0.1,0.6 z"
               class="st3" />
          </g>
          <g
             id="g34">
            <path
               style="fill:#7c7c7c"
               inkscape:connector-curvature="0"
               id="path36"
               d="m 320.1,438.1 c -1.1,0 -4.7,0.1 -7.9,0.2 l -27.4,0.8 c -3.2,0.1 -3.3,0.5 -0.1,1 l 16.8,2.4 c 0,0.2 -0.1,0.4 -0.1,0.7 0,2.1 1.7,3.7 3.7,3.7 1.9,0 3.5,-1.5 3.7,-3.3 l 2.7,0.4 c 3.2,0.5 5.6,3.5 5.3,6.7 l -3.4,12 c -0.3,3.2 0.7,5.9 2.2,6.1 1.5,0.1 2.8,0.1 2.8,0 0,-0.1 0.1,-2.9 0.3,-6.1 l 2.8,-11.3 c 0.1,-3.2 0.3,-7.5 0.4,-9.5 0.2,-2.2 -0.7,-3.9 -1.8,-3.8 z"
               class="st2" />
            <path
               style="fill:#7c7c7c"
               inkscape:connector-curvature="0"
               id="path38"
               d="m 380.7,439.1 -27.4,-0.8 c -3.2,-0.1 -6.8,-0.2 -7.9,-0.2 -1.1,0 -2,1.6 -1.9,3.6 0.1,2 0.3,6.3 0.4,9.5 l 2.8,11.3 c 0.1,3.2 0.3,6 0.3,6.1 0,0.1 1.3,0.1 2.8,0 1.5,-0.1 2.5,-2.8 2.2,-6.1 l -3.4,-12 c -0.3,-3.2 2.1,-6.2 5.3,-6.7 l 2.7,-0.4 c 0.2,1.9 1.8,3.3 3.7,3.3 2.1,0 3.7,-1.7 3.7,-3.7 0,-0.2 0,-0.4 -0.1,-0.7 l 16.8,-2.4 c 3.2,-0.3 3.2,-0.8 0,-0.8 z"
               class="st2" />
            <path
               style="fill:#7c7c7c"
               inkscape:connector-curvature="0"
               id="path40"
               d="m 297.4,410.2 c 3.3,0 6,-3.4 6,-7.5 0,-4.2 -2.7,-7.5 -6,-7.5 -3.3,0 -6,3.4 -6,7.5 0,4.1 2.7,7.5 6,7.5 z"
               class="st2" />
            <path
               style="fill:#7c7c7c"
               inkscape:connector-curvature="0"
               id="path42"
               d="m 290.3,422.2 c 2.8,0 5,-2.2 5,-5 0,-2.8 -2.2,-5 -5,-5 -2.8,0 -5,2.2 -5,5 0,2.7 2.2,5 5,5 z"
               class="st2" />
            <path
               style="fill:#7c7c7c"
               inkscape:connector-curvature="0"
               id="path44"
               d="m 313.5,405.6 c 1.6,0.5 3.7,-1.7 4.7,-4.8 1,-3.2 0.5,-6.1 -1,-6.7 -1.6,-0.5 -3.7,1.7 -4.7,4.8 -1,3.2 -0.6,6.2 1,6.7 z"
               class="st2" />
            <path
               style="fill:#7c7c7c"
               inkscape:connector-curvature="0"
               id="path46"
               d="m 307.1,421.7 c 1.9,0 3.5,-1.3 3.5,-3 0,-1.7 -1.6,-3 -3.5,-3 -1.9,0 -3.5,1.3 -3.5,3 0,1.7 1.6,3 3.5,3 z"
               class="st2" />
            <path
               style="fill:#7c7c7c"
               inkscape:connector-curvature="0"
               id="path48"
               d="m 391.4,473.9 c -2.5,-1.2 -5.5,-0.2 -6.7,2.3 -1.2,2.5 -0.2,5.5 2.3,6.7 2.5,1.2 5.5,0.2 6.7,-2.2 1.2,-2.5 0.2,-5.5 -2.3,-6.8 z"
               class="st2" />
            <path
               style="fill:#7c7c7c"
               inkscape:connector-curvature="0"
               id="path50"
               d="m 387.9,469.8 c 1.6,0.3 3.4,-2.2 3.9,-5.5 0.5,-3.3 -0.4,-6.2 -2.1,-6.4 -1.6,-0.3 -3.4,2.2 -3.9,5.5 -0.4,3.2 0.5,6.1 2.1,6.4 z"
               class="st2" />
            <path
               style="fill:#7c7c7c"
               inkscape:connector-curvature="0"
               id="path52"
               d="m 381.1,469.9 c -1.7,-0.9 -3.8,-0.4 -4.5,1.1 -0.7,1.5 0.1,3.4 1.8,4.3 1.7,0.9 3.8,0.4 4.5,-1.1 0.8,-1.6 0,-3.5 -1.8,-4.3 z"
               class="st2" />
          </g>
        </g>
        <g
           clip-path="url(#SVGID_2_)"
           id="g54"
           class="st1"
           transform="translate(456.14286,-20.06641)">
          <path
             style="fill:#7c7c7c"
             inkscape:connector-curvature="0"
             id="path56"
             d="m 240.6,625.7 c 0,4.1 -1.4,7.6 -4.3,10.5 -2.9,2.9 -6.4,4.3 -10.5,4.3 l -3,0 c -2,0 -3,1 -3,3 l 0,11.9 c 0,1.7 -0.6,3.1 -1.7,4.2 -1.1,1.1 -2.5,1.7 -4.2,1.7 l -3,0 c -1.7,0 -3.1,-0.6 -4.2,-1.7 -1.1,-1.2 -1.7,-2.6 -1.7,-4.2 l 0,-68.4 c 0,-4.1 1.4,-7.6 4.4,-10.5 2.9,-2.9 6.4,-4.3 10.6,-4.3 l 6,0 c 4.1,0 7.6,1.4 10.5,4.3 2.9,2.9 4.3,6.4 4.3,10.5 l 0,38.7 z m -14.9,-3.1 0,-32.7 c 0,-2 -1,-3 -3,-3 -2,0 -3,1 -3,3 l 0,32.7 c 0,2 1,3 3,3 2,0 3,-1 3,-3 z"
             class="st2" />
          <path
             style="fill:#7c7c7c"
             inkscape:connector-curvature="0"
             id="path58"
             d="m 284.6,646.5 c 0,4.1 -1.4,7.6 -4.3,10.5 -2.9,2.9 -6.4,4.3 -10.5,4.3 l -6.1,0 c -4.1,0 -7.6,-1.4 -10.5,-4.3 -2.9,-2.9 -4.3,-6.4 -4.3,-10.5 l 0,-5.9 c 0,-4.1 1.4,-7.6 4.3,-10.5 2.9,-2.9 6.4,-4.3 10.5,-4.3 l 3,0 c 2,0 3,-1 3,-3 l 0,-32.9 c 0,-2 -1,-3 -3,-3 -2,0 -3,1 -3,3 l 0,23.8 c 0,1.7 -0.6,3.1 -1.7,4.2 -1.2,1.2 -2.6,1.7 -4.2,1.7 l -3,0 c -1.7,0 -3.1,-0.6 -4.2,-1.7 -1.2,-1.1 -1.7,-2.6 -1.7,-4.2 l 0,-26.7 c 0,-4.1 1.4,-7.6 4.3,-10.5 2.9,-2.9 6.4,-4.3 10.5,-4.3 l 6.1,0 c 4.1,0 7.6,1.5 10.5,4.3 2.9,2.9 4.3,6.4 4.3,10.5 l 0,59.5 z m -14.9,-3.1 c 0,-2 -1,-3 -3,-3 -2,0 -3,1 -3,3 0,2 1,3 3,3 2,0 3,-1 3,-3 z"
             class="st2" />
          <path
             style="fill:#7c7c7c"
             inkscape:connector-curvature="0"
             id="path60"
             d="m 328.6,613.7 c 0,1.7 -0.6,3.1 -1.7,4.2 -1.1,1.2 -2.5,1.7 -4.2,1.7 l -3,0 c -1.7,0 -3.1,-0.6 -4.2,-1.7 -1.1,-1.2 -1.7,-2.6 -1.7,-4.2 l 0,-23.8 c 0,-2 -1,-3 -3,-3 -2,0 -3,1 -3,3 l 0,65.5 c 0,1.7 -0.6,3.1 -1.7,4.2 -1.1,1.2 -2.5,1.7 -4.2,1.7 l -3,0 c -1.7,0 -3.1,-0.6 -4.2,-1.7 -1.1,-1.1 -1.7,-2.6 -1.7,-4.2 l 0,-68.4 c 0,-4.1 1.4,-7.6 4.3,-10.5 2.9,-2.9 6.4,-4.3 10.5,-4.3 l 5.9,0 c 4.1,0 7.6,1.4 10.5,4.3 2.9,2.9 4.3,6.4 4.3,10.5 l 0,26.7 z"
             class="st2" />
          <path
             style="fill:#7c7c7c"
             inkscape:connector-curvature="0"
             id="path62"
             d="m 372.6,646.5 c 0,4.1 -1.4,7.6 -4.3,10.5 -2.9,2.9 -6.4,4.3 -10.5,4.3 l -14.9,0 c -1.7,0 -3.1,-0.6 -4.2,-1.7 -1.2,-1.1 -1.7,-2.6 -1.7,-4.2 l 0,-77.4 c 0,-1.7 0.6,-3.1 1.7,-4.2 1.2,-1.1 2.6,-1.7 4.2,-1.7 l 14.9,0 c 4.1,0 7.6,1.4 10.5,4.3 2.9,2.9 4.3,6.4 4.3,10.5 l 0,59.6 z m -14.9,-3.1 0,-53.5 c 0,-2 -1,-3 -3,-3 -2,0 -3,1 -3,3 l 0,53.5 c 0,2 1,3 3,3 2,0 3,-1 3,-3 z"
             class="st2" />
          <path
             style="fill:#7c7c7c"
             inkscape:connector-curvature="0"
             id="path64"
             d="m 416.5,646.5 c 0,4.1 -1.4,7.6 -4.3,10.5 -2.9,2.9 -6.4,4.3 -10.5,4.3 l -6.1,0 c -4.1,0 -7.6,-1.4 -10.5,-4.3 -2.9,-2.9 -4.3,-6.4 -4.3,-10.5 l 0,-68.5 c 0,-1.7 0.6,-3.1 1.7,-4.2 1.1,-1.2 2.6,-1.7 4.2,-1.7 l 3,0 c 1.7,0 3.1,0.6 4.2,1.7 1.2,1.2 1.7,2.6 1.7,4.2 l 0,65.4 c 0,2 1,3 3,3 2,0 3,-1 3,-3 l 0,-65.4 c 0,-1.7 0.6,-3.1 1.7,-4.2 1.2,-1.1 2.6,-1.7 4.2,-1.7 l 3,0 c 1.7,0 3.1,0.6 4.2,1.7 1.2,1.2 1.7,2.6 1.7,4.2 l 0,68.5 z"
             class="st2" />
          <path
             style="fill:#7c7c7c"
             inkscape:connector-curvature="0"
             id="path66"
             d="m 460.5,646.5 c 0,4.1 -1.4,7.6 -4.3,10.5 -2.9,2.9 -6.4,4.3 -10.5,4.3 l -14.9,0 c -1.7,0 -3.1,-0.6 -4.2,-1.7 -1.2,-1.1 -1.7,-2.6 -1.7,-4.2 l 0,-3 c 0,-1.7 0.6,-3.1 1.7,-4.2 1.1,-1.1 2.6,-1.7 4.2,-1.7 l 11.9,0 c 2,0 3,-1 3,-2.9 0,-2 -1,-2.9 -3,-2.9 l -3,0 c -4.1,0 -7.6,-1.4 -10.5,-4.3 -2.9,-2.9 -4.3,-6.4 -4.3,-10.5 l 0,-38.9 c 0,-4.1 1.4,-7.6 4.3,-10.5 2.9,-2.9 6.4,-4.3 10.5,-4.3 l 6.1,0 c 4.1,0 7.6,1.4 10.5,4.3 2.9,2.9 4.3,6.4 4.3,10.5 l 0,26.8 c 0,1.7 -0.6,3.1 -1.7,4.2 -1.2,1.2 -2.6,1.7 -4.2,1.7 l -3,0 c -1.7,0 -3.1,-0.6 -4.2,-1.7 -1.2,-1.1 -1.7,-2.6 -1.7,-4.2 l 0,-23.8 c 0,-2 -1,-3 -3,-3 -2,0 -3,1 -3,3 l 0,32.7 c 0,2 1,3 3,3 l 3,0 c 4.1,0 7.6,1.5 10.5,4.4 2.9,2.9 4.3,6.4 4.3,10.6 l 0,5.8 z"
             class="st2" />
        </g>
      </g>
      <g
         transform="translate(456.14286,-20.06641)"
         class="st1"
         id="g68"
         clip-path="url(#SVGID_2_)">
        <g
           id="g70">
          <path
             class="st3"
             d="m 171,652.2 c -1,1.2 1,0.8 2.8,0.4 l 0.2,-2.4 -3,2 z"
             id="path72"
             inkscape:connector-curvature="0"
             style="fill:#3f4040" />
          <path
             class="st3"
             d="m 178.2,648.4 2.4,-3.8 -2,2.4 c -3.3,0.9 -0.7,-2 0.1,-3 -4.3,3.2 -0.4,3 -0.5,4.4 z"
             id="path74"
             inkscape:connector-curvature="0"
             style="fill:#3f4040" />
          <path
             class="st3"
             d="m 184.2,642.8 c 2.3,-1.2 1,-2 -0.1,-1.7 0.1,0.6 -1,2 0.1,1.7 z"
             id="path76"
             inkscape:connector-curvature="0"
             style="fill:#3f4040" />
          <path
             class="st3"
             d="m 331.9,575.3 c -0.8,0.1 -1.6,0.2 -1.7,-0.1 -0.6,0.6 -0.6,1 1.7,0.1 z"
             id="path78"
             inkscape:connector-curvature="0"
             style="fill:#3f4040" />
          <path
             class="st3"
             d="m 330.2,575.1 0.4,-0.4 c -0.1,0.1 -0.2,0.1 -0.4,0.3 0,0.1 0,0.1 0,0.1 z"
             id="path80"
             inkscape:connector-curvature="0"
             style="fill:#3f4040" />
          <path
             class="st3"
             d="m 275.5,582.8 c -2.3,2.1 -4,2.3 -6.4,3.9 l -2.1,-0.8 c -2.5,1.8 -0.6,1.8 -2.2,3.5 -2.9,0.3 -7.8,3.7 -9,4.2 -1.1,-0.3 0.6,-1.4 0.8,-2 -3,2.1 -2.1,3.3 -6,5.3 l -0.3,-0.4 c -8.5,6.7 -20.7,12.2 -30.4,19 0.7,-0.3 0.7,0.1 1.1,0.2 -10.7,6.3 -23.2,13.4 -29.7,21.6 5.6,-3.7 16.6,-7.1 21.2,-12.8 2.7,-0.2 5.4,-3.5 7.1,-2.6 8.9,-3.9 11.1,-8.3 19.4,-12.6 1.3,-0.3 1.1,0.7 1.8,1.2 l -6.2,4 4.3,-1.5 c -1.4,1.5 -5.9,3.2 -5.7,4.8 4.9,-4.5 14.8,-7.9 18.9,-12.2 -2.5,0.9 -5.3,2.7 -8.2,4 -1.5,0.2 -3.5,0.8 -3.8,0 7,-6.1 14.2,-8.4 22.2,-13 2,-1.2 4.9,-2.4 5.6,-1.9 -1.2,0.9 0.1,1 -0.9,1.8 2.7,-2 -0.9,-2.6 3.5,-4.4 l 0.6,2.7 c 0.5,-3.3 5.4,-2.1 7.8,-5 1.5,0.4 -0.2,1.9 -2.5,3.1 2.8,-0.8 2.4,-2.4 4.6,-3.3 l -1,3 c 1.3,-3 4.2,-1.5 5.8,-1.5 -0.1,-0.6 -2,-1.6 0.9,-2.8 1.3,-0.3 1,0.5 1.4,0.7 -0.1,-0.6 0.5,-2 2.3,-2.9 0.7,0.5 -0.8,1.6 -0.5,2.4 1.4,-0.7 2.5,-1.4 3.8,-1.3 2.2,-1.7 -0.6,-0.9 0.6,-2.4 4.1,-1.2 1.4,2.2 3.5,3.1 -2.5,2.3 -5.9,4.3 -7.2,5.6 l 5.2,-3.1 c 0,1 4.4,-0.3 1.8,1.8 5.9,-1.7 12.3,-5.6 17.3,-8.7 -0.9,0.1 -1.9,0.3 -2,-0.3 2.5,-1.7 2.7,-0.6 3.5,-0.2 1.8,-1.5 0.9,-2.8 1.7,-4.4 4.7,-0.7 5,-1.7 9.3,-1.6 l -0.9,-1.3 c 3,0 2.5,-2.3 5.6,-2.7 0.3,0.2 -0.6,1.1 -1.3,1.8 2.2,-1.6 2.8,0.2 4.9,-1.4 l -1.2,2.4 c 1.9,-0.9 4.4,-2.6 4,-0.9 2.6,-3.1 8.6,-5 12.3,-7.8 l 0.3,1.3 c 1.5,-2.4 7.8,-3.4 8.9,-5.9 l 0.5,0.4 3.5,-3.5 c 2,-0.7 2.1,1.4 2.1,0.9 4.1,-2.1 7.3,-3.6 10.3,-4.1 0,-1.9 4.3,-4.2 7.8,-5.8 17.5,-5.9 35.6,-13.9 51.7,-20.4 2.5,-0.7 5.4,-3.5 8.4,-5.1 -3.9,0.6 -4.1,1.5 -7.8,2.5 -2.9,0.3 -4.5,-1.2 -7.2,-1.6 l 1.6,1.1 c -3.5,2.3 -2.9,0 -5.5,2.3 l -0.6,-2.4 c -0.7,1.5 -3.7,1.4 -5,1.1 l -0.5,1.9 c -2.7,-0.1 -4.4,0 -5.6,-1.2 l 0.7,1.4 c -1.2,-0.6 -9.1,3.3 -7.1,-0.2 -0.6,0.6 -1,1.5 -2.5,1.9 l -0.7,-1.4 c -2.1,1.1 -4.4,2.3 -5.3,1.7 1.1,-0.8 1.2,-1.5 1.4,-2.3 -9.3,3.1 -0.3,5.4 -8.3,8.5 l -0.3,-1 -1.7,1.8 -2.6,-0.4 c -1.7,4.3 -11.4,4.1 -15.5,7.8 -1.8,1.1 -5,0.2 -8.5,1.9 l 0.8,1.3 c -3.5,-0.2 -14.5,3.5 -18.6,1.5 -2.2,2.3 0.4,0.2 0.8,1.3 -4.6,3.8 -5.9,1.8 -9,2.2 -2.9,2.1 2.7,-0.6 1.4,1.3 -5.4,1.1 -3.2,3.5 -9.7,5.3 -1,-0.5 1.3,-1.3 1.7,-2.1 -3.6,3.3 -11.9,6.1 -18.1,9.2 -8.4,2.8 -17.6,5.9 -27.8,9.4 l 0.1,0.6 c -4.1,0.3 -7.3,3.4 -11.7,4.7 l 2.3,-0.2 z"
             id="path82"
             inkscape:connector-curvature="0"
             style="fill:#3f4040" />
          <path
             class="st3"
             d="m 232.2,620.4 1.3,0.8 3.4,-2.7 c -2.1,-0.2 -2.5,1 -4.7,1.9 z"
             id="path84"
             inkscape:connector-curvature="0"
             style="fill:#3f4040" />
          <polygon
             class="st3"
             points="232.6,616.2 231.1,616.4 229.4,618 "
             id="polygon86"
             style="fill:#3f4040" />
          <polygon
             class="st3"
             points="273,598.9 280.4,594.4 279.8,594.4 "
             id="polygon88"
             style="fill:#3f4040" />
          <path
             class="st3"
             d="m 332.2,576.6 c -0.6,1 -1.9,1.3 -2.6,2.1 l 3.2,-2.2 -0.6,0.1 z"
             id="path90"
             inkscape:connector-curvature="0"
             style="fill:#3f4040" />
          <path
             class="st3"
             d="m 367.6,566.7 c 0.4,-2.7 2.6,-1.1 0,-2.3 -1.9,1.2 0.3,1.3 0,2.3 z"
             id="path92"
             inkscape:connector-curvature="0"
             style="fill:#3f4040" />
          <path
             class="st3"
             d="m 374,560.2 c -1.2,0.4 -1.7,1 -2.3,1.6 2,0.4 1.6,-0.8 2.3,-1.6 z"
             id="path94"
             inkscape:connector-curvature="0"
             style="fill:#3f4040" />
        </g>
        <g
           id="g96">
          <path
             class="st3"
             d="m 187.9,683.8 c -1,1.2 1,0.8 2.8,0.4 l 0.3,-2.4 -3.1,2 z"
             id="path98"
             inkscape:connector-curvature="0"
             style="fill:#3f4040" />
          <path
             class="st3"
             d="m 195.4,679.8 2.6,-3.9 -2.1,2.4 c -3.4,0.9 -0.7,-2 0.2,-3 -4.6,3.3 -0.5,3 -0.7,4.5 z"
             id="path100"
             inkscape:connector-curvature="0"
             style="fill:#3f4040" />
          <path
             class="st3"
             d="m 201.7,674 c 2.4,-1.3 1.1,-2 -0.1,-1.8 0.2,0.6 -1.1,2.1 0.1,1.8 z"
             id="path102"
             inkscape:connector-curvature="0"
             style="fill:#3f4040" />
          <path
             class="st3"
             d="m 355.3,601.4 c -0.8,0 -1.7,0.2 -1.7,-0.2 -0.7,0.7 -0.7,1 1.7,0.2 z"
             id="path104"
             inkscape:connector-curvature="0"
             style="fill:#3f4040" />
          <path
             class="st3"
             d="m 353.6,601.2 0.4,-0.4 c -0.1,0.1 -0.2,0.1 -0.4,0.3 -0.1,0 0,0.1 0,0.1 z"
             id="path106"
             inkscape:connector-curvature="0"
             style="fill:#3f4040" />
          <path
             class="st3"
             d="m 296.6,609.7 c -2.4,2.2 -4.2,2.5 -6.7,4.1 l -2.2,-0.7 c -2.6,1.9 -0.7,1.8 -2.4,3.6 -3.1,0.4 -8.1,4.1 -9.4,4.6 -1.2,-0.2 0.6,-1.5 0.8,-2.1 -3.1,2.2 -2.2,3.4 -6.3,5.6 l -0.3,-0.4 c -8.8,7.2 -21.4,13.3 -31.4,20.6 0.8,-0.3 0.8,0.1 1.2,0.2 -11,6.8 -24,14.5 -30.8,23 5.8,-4 17.2,-7.8 22,-13.8 2.9,-0.3 5.5,-3.8 7.3,-2.9 9.2,-4.3 11.4,-8.9 20,-13.6 1.4,-0.4 1.1,0.6 1.9,1.1 l -6.5,4.3 4.5,-1.7 c -1.5,1.6 -6.1,3.5 -5.9,5.1 5.1,-4.8 15.3,-8.6 19.5,-13.2 -2.6,1 -5.5,3 -8.4,4.4 -1.5,0.2 -3.7,1 -3.9,0.2 7.2,-6.4 14.7,-9.1 23,-14.1 2.1,-1.3 5.1,-2.7 5.8,-2.2 -1.3,1 0.1,1 -0.9,1.9 2.8,-2.1 -0.9,-2.7 3.7,-4.6 l 0.6,2.7 c 0.5,-3.4 5.7,-2.2 8.1,-5.2 1.6,0.4 -0.2,2 -2.6,3.2 3,-0.9 2.5,-2.4 4.8,-3.5 l -1.1,3.1 c 1.4,-3.1 4.4,-1.7 6,-1.7 -0.1,-0.6 -2.1,-1.5 0.9,-2.8 1.4,-0.3 1,0.5 1.4,0.6 -0.1,-0.6 0.6,-2 2.5,-3 0.7,0.5 -0.8,1.6 -0.6,2.4 1.5,-0.7 2.6,-1.4 3.9,-1.4 2.4,-1.8 -0.6,-0.9 0.6,-2.4 4.3,-1.4 1.5,2.2 3.7,3 -2.6,2.4 -6.3,4.5 -7.7,5.8 l 5.5,-3.2 c 0,1 4.5,-0.4 1.9,1.8 6.1,-2 12.6,-6 17.9,-9.1 -0.9,0.1 -2,0.3 -2.1,-0.2 2.7,-1.7 2.8,-0.6 3.6,-0.3 1.9,-1.5 1,-2.8 1.9,-4.4 4.9,-0.8 5.2,-1.8 9.7,-1.6 l -0.8,-1.3 c 3.2,0 2.7,-2.3 5.9,-2.6 0.3,0.2 -0.7,1.1 -1.4,1.8 2.4,-1.5 2.9,0.2 5.1,-1.4 l -1.3,2.4 c 2,-0.9 4.7,-2.6 4.2,-0.8 2.8,-3.1 9.2,-4.8 13.2,-7.4 l 0.2,1.3 c 1.7,-2.4 8.3,-3.2 9.6,-5.7 l 0.5,0.4 3.9,-3.3 c 2.1,-0.6 2.1,1.5 2.1,1 4.4,-2 7.9,-3.4 11,-3.7 0.1,-1.9 4.8,-4 8.5,-5.5 18.7,-5.1 38.1,-12.5 55.3,-18.7 2.6,-0.7 5.8,-3.5 8.8,-5.2 -4.1,0.6 -4.3,1.5 -8.3,2.5 -3.1,0.3 -4.6,-1.2 -7.4,-1.7 l 1.7,1.1 c -3.7,2.2 -3,-0.1 -5.8,2.2 l -0.4,-2.4 c -0.8,1.5 -3.9,1.3 -5.2,1 l -0.6,1.9 c -2.8,-0.2 -4.5,-0.1 -5.7,-1.4 l 0.7,1.4 c -1.2,-0.7 -9.7,2.9 -7.4,-0.5 -0.6,0.5 -1.1,1.5 -2.7,1.8 l -0.7,-1.4 c -2.2,1.1 -4.7,2.2 -5.6,1.5 1.1,-0.7 1.4,-1.5 1.6,-2.3 -9.9,2.7 -0.6,5.4 -9.2,8.2 l -0.2,-1 -1.7,1.9 -2.7,-0.5 c -2,4.2 -12.1,3.7 -16.7,7.1 -1.9,1 -5.2,0 -9,1.6 l 0.8,1.4 c -3.6,-0.4 -15.4,2.9 -19.5,0.8 -2.5,2.2 0.4,0.2 0.8,1.3 -5.1,3.7 -6.3,1.6 -9.6,1.9 -3.2,2.1 2.9,-0.5 1.4,1.3 -5.7,1 -3.6,3.4 -10.5,5.2 -1,-0.5 1.4,-1.2 1.9,-2.1 -4,3.4 -12.9,5.9 -19.5,9.2 -8.2,2.3 -19.6,7.1 -29.1,10 l 0.1,0.6 c -4.3,0.4 -7.7,3.6 -12.3,5.1 l 2.5,-0.2 z"
             id="path108"
             inkscape:connector-curvature="0"
             style="fill:#3f4040" />
          <path
             class="st3"
             d="m 251.5,649.4 1.3,0.8 3.5,-2.9 c -2.1,-0.1 -2.5,1.1 -4.8,2.1 z"
             id="path110"
             inkscape:connector-curvature="0"
             style="fill:#3f4040" />
          <polygon
             class="st3"
             points="251.9,645.2 250.4,645.5 248.7,647.1 "
             id="polygon112"
             style="fill:#3f4040" />
          <polygon
             class="st3"
             points="293.8,626 301.5,621.2 300.9,621.3 "
             id="polygon114"
             style="fill:#3f4040" />
          <path
             class="st3"
             d="m 355.5,602.7 c -0.6,1 -2,1.3 -2.8,2.1 l 3.4,-2.1 -0.6,0 z"
             id="path116"
             inkscape:connector-curvature="0"
             style="fill:#3f4040" />
          <path
             class="st3"
             d="m 392.8,593.9 c 0.6,-2.7 2.8,-1 0.2,-2.3 -2.1,1.1 0.2,1.3 -0.2,2.3 z"
             id="path118"
             inkscape:connector-curvature="0"
             style="fill:#3f4040" />
          <path
             class="st3"
             d="m 399.9,587.7 c -1.3,0.4 -1.9,1 -2.5,1.6 2.1,0.3 1.7,-0.9 2.5,-1.6 z"
             id="path120"
             inkscape:connector-curvature="0"
             style="fill:#3f4040" />
        </g>
        <g
           id="g122">
          <path
             class="st3"
             d="m 220.8,708.2 c -0.7,1.2 1.1,0.6 2.7,0.2 l -0.1,-2.4 -2.6,2.2 z"
             id="path124"
             inkscape:connector-curvature="0"
             style="fill:#3f4040" />
          <path
             class="st3"
             d="m 227,704 1.9,-3.8 -1.7,2.4 c -3,1.1 -1,-1.9 -0.2,-2.9 -3.7,3.3 0,2.9 0,4.3 z"
             id="path126"
             inkscape:connector-curvature="0"
             style="fill:#3f4040" />
          <path
             class="st3"
             d="m 232.2,698.3 c 2.1,-1.3 0.8,-2 -0.3,-1.7 0.1,0.6 -0.8,2 0.3,1.7 z"
             id="path128"
             inkscape:connector-curvature="0"
             style="fill:#3f4040" />
          <path
             class="st3"
             d="m 370.5,636.7 c -0.7,0 -1.5,0.2 -1.6,-0.2 -0.6,0.6 -0.6,1 1.6,0.2 z"
             id="path130"
             inkscape:connector-curvature="0"
             style="fill:#3f4040" />
          <path
             class="st3"
             d="m 368.9,636.5 0.4,-0.4 c -0.1,0.1 -0.2,0.1 -0.4,0.3 -0.1,0 0,0.1 0,0.1 z"
             id="path132"
             inkscape:connector-curvature="0"
             style="fill:#3f4040" />
          <path
             class="st3"
             d="m 317.9,643.3 c -2.1,2 -3.7,2.1 -5.9,3.5 l -2,-0.9 c -2.3,1.6 -0.6,1.7 -2.1,3.3 -2.7,0.1 -7.3,3.1 -8.5,3.6 -1.1,-0.3 0.6,-1.4 0.7,-1.9 -2.8,1.8 -2,3.1 -5.7,4.8 l -0.2,-0.4 c -8.1,6 -19.8,10.6 -29.1,16.8 0.7,-0.3 0.7,0.1 1.1,0.3 -10.2,5.6 -22.1,12.3 -27.8,20.5 5.1,-3.8 15.4,-6.8 19.8,-12.2 2.6,-0.1 5.1,-3.2 6.7,-2.2 8.4,-3.4 10.5,-7.5 18.5,-11.2 1.3,-0.3 1,0.7 1.7,1.3 l -6,3.6 4.1,-1.2 c -1.4,1.4 -5.6,2.8 -5.4,4.3 4.7,-4.1 14,-6.8 18,-10.8 -2.4,0.7 -5,2.3 -7.8,3.4 -1.4,0.1 -3.4,0.5 -3.6,-0.2 6.7,-5.5 13.5,-7.3 21.1,-11.4 1.9,-1 4.6,-2.1 5.2,-1.5 -1.2,0.8 0,1 -0.9,1.8 2.5,-1.8 -0.8,-2.6 3.3,-4.1 l 0.6,2.7 c 0.5,-3.3 5.1,-1.7 7.3,-4.5 1.5,0.5 -0.2,1.9 -2.3,3 2.7,-0.7 2.3,-2.2 4.3,-3.1 l -0.9,2.9 c 1.2,-2.9 4,-1.3 5.5,-1.2 -0.1,-0.6 -1.9,-1.6 0.8,-2.7 1.3,-0.3 0.9,0.5 1.3,0.7 -0.1,-0.6 0.4,-1.9 2.1,-2.8 0.7,0.5 -0.7,1.6 -0.4,2.3 1.3,-0.7 2.3,-1.3 3.5,-1.2 2,-1.7 -0.6,-0.9 0.4,-2.3 3.8,-1.2 1.5,2.2 3.5,3 -2.2,2.3 -5.5,4.2 -6.7,5.5 l 4.9,-3 c 0.1,1 4.1,-0.3 1.8,1.8 5.5,-1.7 11.2,-5.7 15.7,-8.7 -0.8,0.1 -1.8,0.3 -1.9,-0.3 2.3,-1.7 2.5,-0.5 3.3,-0.2 1.6,-1.4 0.7,-2.7 1.4,-4.3 4.4,-0.7 4.6,-1.6 8.7,-1.4 l -0.8,-1.3 c 2.9,0 2.2,-2.2 5.2,-2.6 0.3,0.2 -0.5,1 -1.2,1.7 2,-1.5 2.6,0.2 4.6,-1.3 l -1,2.3 c 1.7,-0.8 4.1,-2.5 3.8,-0.7 2.3,-3 8,-4.7 11.4,-7.3 l 0.3,1.3 c 1.3,-2.3 7.3,-3.1 8.3,-5.6 l 0.5,0.4 3.2,-3.4 c 1.9,-0.6 2,1.5 2,0.9 3.8,-2 6.8,-3.5 9.7,-3.9 -0.1,-1.9 3.9,-4.1 7.1,-5.8 16.3,-5.9 32.7,-15 46.3,-23.9 2.1,-1.1 4.2,-4.4 6.6,-6.5 -3.5,1.2 -3.4,2.2 -6.7,3.8 -2.6,0.8 -4.4,-0.5 -6.9,-0.5 l 1.7,0.8 c -2.8,2.7 -2.6,0.4 -4.6,3 l -0.9,-2.2 c -0.4,1.6 -3.1,1.7 -4.4,1.6 l -0.2,1.9 c -2.5,0.1 -4,0.4 -5.3,-0.7 l 0.8,1.3 c -1.2,-0.5 -8,3.8 -6.6,0.3 -0.5,0.6 -0.7,1.6 -2.1,2 L 436,593 c -1.8,1.2 -3.8,2.4 -4.7,1.9 0.9,-0.8 1,-1.6 1,-2.3 -8.3,3.4 0.3,5.4 -6.9,8.7 l -0.3,-0.9 -1.4,1.8 -2.4,-0.3 c -1.3,4.2 -10.3,4.2 -14,7.7 -1.6,1 -4.7,0.1 -7.9,1.8 l 0.8,1.3 c -3.3,-0.3 -13.6,3.1 -17.5,1 -2,2.2 0.4,0.2 0.8,1.3 -4.2,3.6 -5.6,1.5 -8.5,1.9 -2.7,2 2.5,-0.5 1.4,1.3 -5.1,1 -3,3.4 -9.1,5 -0.9,-0.5 1.2,-1.2 1.6,-2 -3.4,3.2 -11.2,5.7 -17,8.8 -7.3,2.2 -17.4,6.8 -25.6,9.2 l 0.1,0.6 c -3.7,0.2 -6.6,3 -10.7,4.1 l 2.2,-0.6 z"
             id="path134"
             inkscape:connector-curvature="0"
             style="fill:#3f4040" />
          <path
             class="st3"
             d="m 276.8,677.6 1.2,0.9 3.2,-2.5 c -1.9,-0.3 -2.3,0.9 -4.4,1.6 z"
             id="path136"
             inkscape:connector-curvature="0"
             style="fill:#3f4040" />
          <polygon
             class="st3"
             points="277.3,673.5 275.9,673.6 274.3,675.1 "
             id="polygon138"
             style="fill:#3f4040" />
          <polygon
             class="st3"
             points="315.6,659.1 322.7,654.9 322.1,654.9 "
             id="polygon140"
             style="fill:#3f4040" />
          <path
             class="st3"
             d="m 370.8,638 c -0.5,1 -1.7,1.2 -2.4,2 l 2.9,-2 -0.5,0 z"
             id="path142"
             inkscape:connector-curvature="0"
             style="fill:#3f4040" />
          <path
             class="st3"
             d="m 404,629.1 c 0.3,-2.7 2.5,-1 0,-2.3 -1.8,1.2 0.2,1.4 0,2.3 z"
             id="path144"
             inkscape:connector-curvature="0"
             style="fill:#3f4040" />
          <path
             class="st3"
             d="m 409.9,622.8 c -1.1,0.4 -1.6,1 -2.1,1.6 1.9,0.3 1.4,-0.8 2.1,-1.6 z"
             id="path146"
             inkscape:connector-curvature="0"
             style="fill:#3f4040" />
        </g>
      </g>
    </g>
  </g>
</svg>
