<?xml version="1.0" encoding="UTF-8" standalone="no"?>
<!-- Created with Inkscape (http://www.inkscape.org/) -->

<svg
   xmlns:dc="http://purl.org/dc/elements/1.1/"
   xmlns:cc="http://creativecommons.org/ns#"
   xmlns:rdf="http://www.w3.org/1999/02/22-rdf-syntax-ns#"
   xmlns:svg="http://www.w3.org/2000/svg"
   xmlns="http://www.w3.org/2000/svg"
   xmlns:sodipodi="http://sodipodi.sourceforge.net/DTD/sodipodi-0.dtd"
   xmlns:inkscape="http://www.inkscape.org/namespaces/inkscape"
   width="1920"
   height="1080"
   viewBox="0 0 507.99999 285.75001"
   version="1.1"
   id="svg30432"
   inkscape:version="0.92.1 r15371"
   sodipodi:docname="1920x1080.svg"
   inkscape:export-filename="opti.png"
   inkscape:export-xdpi="96"
   inkscape:export-ydpi="96">
  <defs
     id="defs30426">
    <clipPath
       clipPathUnits="userSpaceOnUse"
       id="clipPath18">
      <path
         d="M 532.666,92.334 H 217.334 v 315.332 h 315.332 z"
         id="path16"
         inkscape:connector-curvature="0" />
    </clipPath>
    <filter
       inkscape:collect="always"
       style="color-interpolation-filters:sRGB"
       id="filter9219"
       x="-0.14992487"
       width="1.2998497"
       y="-0.16258827"
       height="1.3251765">
      <feGaussianBlur
         inkscape:collect="always"
         stdDeviation="4.9584526"
         id="feGaussianBlur9221" />
    </filter>
  </defs>
  <sodipodi:namedview
     id="base"
     pagecolor="#ffffff"
     bordercolor="#666666"
     borderopacity="1.0"
     inkscape:pageopacity="0.0"
     inkscape:pageshadow="2"
     inkscape:zoom="0.49497475"
     inkscape:cx="946.63414"
     inkscape:cy="424.81101"
     inkscape:document-units="px"
     inkscape:current-layer="layer1"
     showgrid="false"
     units="px"
     inkscape:window-width="1920"
     inkscape:window-height="1140"
     inkscape:window-x="1920"
     inkscape:window-y="0"
     inkscape:window-maximized="1" />
  <metadata
     id="metadata30429">
    <rdf:RDF>
      <cc:Work
         rdf:about="">
        <dc:format>image/svg+xml</dc:format>
        <dc:type
           rdf:resource="http://purl.org/dc/dcmitype/StillImage" />
        <dc:title></dc:title>
      </cc:Work>
    </rdf:RDF>
  </metadata>
  <g
     inkscape:label="Layer 1"
     inkscape:groupmode="layer"
     id="layer1"
     transform="translate(0,-11.249983)">
    <rect
       style="opacity:1;fill:#4b4b4b;fill-opacity:1;fill-rule:nonzero;stroke:#2b2b2b;stroke-width:0;stroke-linecap:round;stroke-linejoin:miter;stroke-miterlimit:10;stroke-dasharray:none;stroke-opacity:1;paint-order:markers stroke fill"
       id="rect21922"
       width="508"
       height="285.75"
       x="5e-07"
       y="11.249985" />
    <g
       id="g6826"
       transform="translate(49.753281,-138.34775)">
      <path
         inkscape:connector-curvature="0"
         id="polygon5084-3"
         d="m 172.74028,174.04449 c -1.24454,-0.0915 -4.42995,2.56117 -5.49836,3.90931 -1.07124,1.34611 -2.25674,3.37158 -2.63679,4.49843 -0.38005,1.1273 1.68063,5.56855 3.18714,7.79925 l 3.07991,4.5669 c 1.50408,2.2307 2.33378,4.80907 1.83968,5.72833 -0.4929,0.92294 -1.16781,2.56233 -1.49991,3.64447 -0.3325,1.08408 0.0527,5.83648 0.50127,8.49042 l 0.96118,5.66502 c 0.44936,2.6535 1.29387,5.71141 1.87584,6.79673 0.58358,1.08621 5.19987,3.00368 7.81347,3.65093 l 1.16917,0.28939 c 0.18086,0.045 0.37292,0.11546 0.56069,0.17571 -3.86221,2.09619 -7.48729,4.61014 -10.65178,7.44655 -0.46912,0.41998 0.11657,1.06396 0.61753,0.72863 1.11121,-0.74303 2.20709,-1.49588 3.306,-2.24791 l 9.22809,-4.8059 c 0.66086,0.37738 1.30814,0.81036 1.91849,1.27381 -0.0966,0.0794 -0.1962,0.15568 -0.29197,0.23514 -3.01421,2.50038 -5.88495,5.51959 -8.06409,8.77722 -0.25149,0.37607 0.25816,0.88344 0.60073,0.54777 0.64524,-0.63235 1.28347,-1.29392 1.92107,-1.96887 l 7.75533,-5.8743 c 0.26364,0.28645 0.50447,0.57327 0.71055,0.85911 l 0.3514,0.48705 c -0.47352,0.48481 -0.9373,0.98128 -1.38493,1.49086 -2.71557,3.09157 -5.09846,6.71104 -6.7851,10.46317 -0.19507,0.43445 0.45772,0.74845 0.72088,0.37724 0.50571,-0.71327 1.00067,-1.452 1.49473,-2.20271 l 7.47111,-8.02921 0.24159,0.33461 c 1.573,2.18361 3.62721,4.58014 4.56302,5.32653 0.9322,0.74596 4.87667,1.35651 6.43112,1.35651 1.55728,0 3.76994,-0.26309 4.92218,-0.58394 1.15103,-0.32041 4.49768,-3.91505 6.07067,-6.0991 l 0.2416,-0.33461 7.48918,8.04731 c 0.4966,0.75564 0.9938,1.49904 1.5012,2.21562 0.27648,0.39007 0.86801,-0.0305 0.68343,-0.44183 -1.61893,-3.60504 -3.91625,-6.97837 -6.42467,-10.02521 -0.54005,-0.65582 -1.11309,-1.30071 -1.71436,-1.92108 l 0.29972,-0.41469 c 0.2159,-0.29898 0.47207,-0.60079 0.7506,-0.90047 l 7.74887,5.86914 c 0.62234,0.65854 1.2452,1.30406 1.87458,1.92107 0.38126,0.37403 0.91863,-0.0929 0.62528,-0.53097 -2.20738,-3.29512 -5.08114,-6.2046 -8.08607,-8.7811 -0.0762,-0.0653 -0.15687,-0.12759 -0.23384,-0.1925 0.61369,-0.46373 1.26232,-0.89473 1.92495,-1.27124 l 9.24232,4.81494 c 1.09703,0.7561 2.1944,1.51241 3.30472,2.25439 0.52591,0.35145 0.99516,-0.38139 0.54774,-0.7816 -3.14073,-2.81244 -6.74633,-5.31426 -10.58719,-7.40393 0.16563,-0.052 0.33595,-0.11741 0.49609,-0.15762 l 1.21826,-0.30619 c 2.60997,-0.65572 5.59394,-1.73532 6.63011,-2.39907 1.03697,-0.66463 2.59827,-5.41317 3.04886,-8.06667 l 0.9599,-5.66244 c 0.44813,-2.65509 0.79124,-5.75263 0.76227,-6.88717 -0.0288,-1.13162 -1.26722,-4.32615 -1.76094,-5.24901 -0.49252,-0.91969 0.33609,-3.49884 1.83971,-5.72962 l 3.07988,-4.56689 c 1.50488,-2.22991 3.56631,-6.67082 3.18584,-7.79927 -0.37802,-1.12719 -1.56699,-3.15057 -2.63419,-4.49713 -1.06964,-1.34804 -2.8104,-2.94289 -3.86794,-3.54499 -1.05833,-0.60449 -5.89734,0.71791 -8.34447,1.8371 l -1.78666,0.81519 c -2.44718,1.12007 -4.48318,2.05291 -4.5243,2.07222 -0.0399,0.0212 -0.32706,-6.9e-4 -0.55034,-0.093 -0.22408,-0.0963 -2.94776,-0.76681 -5.56942,-1.37975 l -4.6935,-1.09684 c -2.62246,-0.61295 -5.64427,-1.19591 -6.71792,-1.29708 -1.07447,-0.10195 -5.65691,0.66432 -8.27856,1.26608 l -5.02423,1.15496 c -2.62327,0.60132 -4.95146,1.14884 -5.17151,1.21569 -0.22248,0.0653 -0.84175,0.2912 -0.88367,0.26871 -0.0415,-0.0238 -2.15672,-0.99229 -4.60306,-2.11226 l -1.78413,-0.8152 c -2.44916,-1.11919 -5.46952,-2.10866 -6.71405,-2.20012 z"
         style="fill:#ffffff;fill-opacity:1;stroke-width:0.40302247;filter:url(#filter9219)" />
      <path
         inkscape:connector-curvature="0"
         id="polygon5084"
         d="m 172.74028,174.04449 c -1.24454,-0.0915 -4.42995,2.56117 -5.49836,3.90931 -1.07124,1.34611 -2.25674,3.37158 -2.63679,4.49843 -0.38005,1.1273 1.68063,5.56855 3.18714,7.79925 l 3.07991,4.5669 c 1.50408,2.2307 2.33378,4.80907 1.83968,5.72833 -0.4929,0.92294 -1.16781,2.56233 -1.49991,3.64447 -0.3325,1.08408 0.0527,5.83648 0.50127,8.49042 l 0.96118,5.66502 c 0.44936,2.6535 1.29387,5.71141 1.87584,6.79673 0.58358,1.08621 5.19987,3.00368 7.81347,3.65093 l 1.16917,0.28939 c 0.18086,0.045 0.37292,0.11546 0.56069,0.17571 -3.86221,2.09619 -7.48729,4.61014 -10.65178,7.44655 -0.46912,0.41998 0.11657,1.06396 0.61753,0.72863 1.11121,-0.74303 2.20709,-1.49588 3.306,-2.24791 l 9.22809,-4.8059 c 0.66086,0.37738 1.30814,0.81036 1.91849,1.27381 -0.0966,0.0794 -0.1962,0.15568 -0.29197,0.23514 -3.01421,2.50038 -5.88495,5.51959 -8.06409,8.77722 -0.25149,0.37607 0.25816,0.88344 0.60073,0.54777 0.64524,-0.63235 1.28347,-1.29392 1.92107,-1.96887 l 7.75533,-5.8743 c 0.26364,0.28645 0.50447,0.57327 0.71055,0.85911 l 0.3514,0.48705 c -0.47352,0.48481 -0.9373,0.98128 -1.38493,1.49086 -2.71557,3.09157 -5.09846,6.71104 -6.7851,10.46317 -0.19507,0.43445 0.45772,0.74845 0.72088,0.37724 0.50571,-0.71327 1.00067,-1.452 1.49473,-2.20271 l 7.47111,-8.02921 0.24159,0.33461 c 1.573,2.18361 3.62721,4.58014 4.56302,5.32653 0.9322,0.74596 4.87667,1.35651 6.43112,1.35651 1.55728,0 3.76994,-0.26309 4.92218,-0.58394 1.15103,-0.32041 4.49768,-3.91505 6.07067,-6.0991 l 0.2416,-0.33461 7.48918,8.04731 c 0.4966,0.75564 0.9938,1.49904 1.5012,2.21562 0.27648,0.39007 0.86801,-0.0305 0.68343,-0.44183 -1.61893,-3.60504 -3.91625,-6.97837 -6.42467,-10.02521 -0.54005,-0.65582 -1.11309,-1.30071 -1.71436,-1.92108 l 0.29972,-0.41469 c 0.2159,-0.29898 0.47207,-0.60079 0.7506,-0.90047 l 7.74887,5.86914 c 0.62234,0.65854 1.2452,1.30406 1.87458,1.92107 0.38126,0.37403 0.91863,-0.0929 0.62528,-0.53097 -2.20738,-3.29512 -5.08114,-6.2046 -8.08607,-8.7811 -0.0762,-0.0653 -0.15687,-0.12759 -0.23384,-0.1925 0.61369,-0.46373 1.26232,-0.89473 1.92495,-1.27124 l 9.24232,4.81494 c 1.09703,0.7561 2.1944,1.51241 3.30472,2.25439 0.52591,0.35145 0.99516,-0.38139 0.54774,-0.7816 -3.14073,-2.81244 -6.74633,-5.31426 -10.58719,-7.40393 0.16563,-0.052 0.33595,-0.11741 0.49609,-0.15762 l 1.21826,-0.30619 c 2.60997,-0.65572 5.59394,-1.73532 6.63011,-2.39907 1.03697,-0.66463 2.59827,-5.41317 3.04886,-8.06667 l 0.9599,-5.66244 c 0.44813,-2.65509 0.79124,-5.75263 0.76227,-6.88717 -0.0288,-1.13162 -1.26722,-4.32615 -1.76094,-5.24901 -0.49252,-0.91969 0.33609,-3.49884 1.83971,-5.72962 l 3.07988,-4.56689 c 1.50488,-2.22991 3.56631,-6.67082 3.18584,-7.79927 -0.37802,-1.12719 -1.56699,-3.15057 -2.63419,-4.49713 -1.06964,-1.34804 -2.8104,-2.94289 -3.86794,-3.54499 -1.05833,-0.60449 -5.89734,0.71791 -8.34447,1.8371 l -1.78666,0.81519 c -2.44718,1.12007 -4.48318,2.05291 -4.5243,2.07222 -0.0399,0.0212 -0.32706,-7e-4 -0.55034,-0.093 -0.22408,-0.0963 -2.94776,-0.76681 -5.56942,-1.37975 l -4.6935,-1.09684 c -2.62246,-0.61295 -5.64427,-1.19591 -6.71792,-1.29708 -1.07447,-0.10195 -5.65691,0.66432 -8.27856,1.26608 l -5.02423,1.15496 c -2.62327,0.60132 -4.95146,1.14884 -5.17151,1.21569 -0.22248,0.0653 -0.84175,0.2912 -0.88367,0.26871 -0.0415,-0.0238 -2.15672,-0.99229 -4.60306,-2.11226 l -1.78413,-0.8152 c -2.44916,-1.11919 -5.46952,-2.10866 -6.71405,-2.20012 z"
         style="fill:#2b2b2b;fill-opacity:1;stroke-width:0.40302247" />
      <g
         transform="matrix(0.79375009,0,0,0.79375009,292.11545,291.85496)"
         id="text4691"
         style="font-style:normal;font-variant:normal;font-weight:normal;font-stretch:normal;font-size:66.66666412px;line-height:25px;font-family:Pardus;-inkscape-font-specification:Pardus;letter-spacing:0px;word-spacing:0px;fill:#ffcb08;fill-opacity:1;stroke:none;stroke-width:1px;stroke-linecap:butt;stroke-linejoin:miter;stroke-opacity:1"
         aria-label="19">
        <path
           style="fill:#ffcb08;fill-opacity:1"
           inkscape:connector-curvature="0"
           id="path4693"
           d="m -118.22679,-87.31986 c 0,0.933334 -0.33334,1.733334 -0.93334,2.333334 -0.66666,0.666666 -1.46666,1 -2.4,1 0,0 -1.66666,0 -1.66666,0 -0.93334,0 -1.73334,-0.333334 -2.33334,-1 -0.66666,-0.6 -1,-1.4 -1,-2.333334 0,0 0,-43.33333 0,-43.33333 0,-0.93333 0.33334,-1.73333 1,-2.4 0.6,-0.6 1.4,-0.93333 2.33334,-0.93333 0,0 1.66666,0 1.66666,0 0.93334,0 1.73334,0.33333 2.4,0.93333 0.6,0.66667 0.93334,1.46667 0.93334,2.4 0,0 0,43.33333 0,43.33333 z" />
        <path
           style="fill:#ffcb08;fill-opacity:1"
           inkscape:connector-curvature="0"
           id="path4695"
           d="m -94.841378,-87.31986 c 0,0.933334 -0.333333,1.733334 -0.933333,2.333334 -0.666667,0.666666 -1.466667,1 -2.4,1 0,0 -1.666667,0 -1.666667,0 -0.933332,0 -1.733332,-0.333334 -2.333332,-1 -0.66667,-0.6 -1,-1.4 -1,-2.333334 0,0 0,-6.666666 0,-6.666666 0,-1.133333 -0.53333,-1.666667 -1.66667,-1.666667 0,0 -1.66666,0 -1.66666,0 -2.33334,0 -4.26667,-0.8 -5.86667,-2.466666 -1.66667,-1.6 -2.46667,-3.533331 -2.46667,-5.866671 0,0 0,-21.66666 0,-21.66666 0,-2.33333 0.8,-4.26667 2.46667,-5.93333 1.6,-1.6 3.53333,-2.4 5.86667,-2.4 0,0 3.33333,0 3.33333,0 2.33333,0 4.266665,0.8 5.933332,2.4 1.6,1.66666 2.4,3.6 2.4,5.93333 0,0 0,38.33333 0,38.33333 z m -8.333332,-18.33333 c 0,0 0,-18.33333 0,-18.33333 0,-1.13334 -0.53333,-1.66667 -1.66667,-1.66667 -1.13333,0 -1.66666,0.53333 -1.66666,1.66667 0,0 0,18.33333 0,18.33333 0,1.13333 0.53333,1.66666 1.66666,1.66666 1.13334,0 1.66667,-0.53333 1.66667,-1.66666 z" />
      </g>
    </g>
    <g
       aria-label="PARDUS"
       transform="matrix(1.0583333,0,0,1.0583333,-487.86516,593.25375)"
       style="font-style:normal;font-variant:normal;font-weight:normal;font-stretch:normal;font-size:50px;line-height:18.75px;font-family:Pardus;-inkscape-font-specification:Pardus;letter-spacing:0px;word-spacing:0px;fill:#2b2b2b;fill-opacity:1;stroke:none;stroke-width:0.75px;stroke-linecap:butt;stroke-linejoin:miter;stroke-opacity:1"
       id="text26820">
      <path
         d="m 664.7738,-323.16476 c 0,1.75 -0.6,3.2 -1.8,4.4 -1.25,1.25 -2.7,1.85 -4.45,1.85 0,0 -1.25,0 -1.25,0 -0.85,0 -1.25,0.4 -1.25,1.25 0,0 0,5 0,5 0,0.7 -0.25,1.3 -0.7,1.75 -0.5,0.5 -1.1,0.75 -1.8,0.75 0,0 -1.25,0 -1.25,0 -0.7,0 -1.3,-0.25 -1.75,-0.75 -0.5,-0.45 -0.75,-1.05 -0.75,-1.75 0,0 0,-28.75 0,-28.75 0,-1.75 0.6,-3.2 1.85,-4.45 1.2,-1.2 2.65,-1.8 4.4,-1.8 0,0 2.5,0 2.5,0 1.75,0 3.2,0.6 4.45,1.8 1.2,1.25 1.8,2.7 1.8,4.45 0,0 0,16.25 0,16.25 z m -6.25,-1.25 c 0,0 0,-13.75 0,-13.75 0,-0.85 -0.4,-1.25 -1.25,-1.25 -0.85,0 -1.25,0.4 -1.25,1.25 0,0 0,13.75 0,13.75 0,0.85 0.4,1.25 1.25,1.25 0.85,0 1.25,-0.4 1.25,-1.25 z"
         style="fill:#2b2b2b;fill-opacity:1;stroke-width:0.75px"
         id="path26822"
         inkscape:connector-curvature="0" />
      <path
         d="m 682.25427,-314.41476 c 0,1.75 -0.6,3.2 -1.8,4.4 -1.25,1.25 -2.7,1.85 -4.45,1.85 0,0 -2.5,0 -2.5,0 -1.75,0 -3.2,-0.6 -4.4,-1.85 -1.25,-1.2 -1.85,-2.65 -1.85,-4.4 0,0 0,-2.5 0,-2.5 0,-1.75 0.6,-3.2 1.85,-4.45 1.2,-1.2 2.65,-1.8 4.4,-1.8 0,0 1.25,0 1.25,0 0.85,0 1.25,-0.4 1.25,-1.25 0,0 0,-13.75 0,-13.75 0,-0.85 -0.4,-1.25 -1.25,-1.25 -0.85,0 -1.25,0.4 -1.25,1.25 0,0 0,10 0,10 0,0.7 -0.25,1.3 -0.7,1.75 -0.5,0.5 -1.1,0.75 -1.8,0.75 0,0 -1.25,0 -1.25,0 -0.7,0 -1.3,-0.25 -1.75,-0.75 -0.5,-0.45 -0.75,-1.05 -0.75,-1.75 0,0 0,-11.25 0,-11.25 0,-1.75 0.6,-3.2 1.85,-4.45 1.2,-1.2 2.65,-1.8 4.4,-1.8 0,0 2.5,0 2.5,0 1.75,0 3.2,0.6 4.45,1.8 1.2,1.25 1.8,2.7 1.8,4.45 0,0 0,25 0,25 z m -6.25,-1.25 c 0,-0.85 -0.4,-1.25 -1.25,-1.25 -0.85,0 -1.25,0.4 -1.25,1.25 0,0.85 0.4,1.25 1.25,1.25 0.85,0 1.25,-0.4 1.25,-1.25 z"
         style="fill:#2b2b2b;fill-opacity:1;stroke-width:0.75px"
         id="path26824"
         inkscape:connector-curvature="0" />
      <path
         d="m 699.73474,-328.16476 c 0,0.7 -0.25,1.3 -0.7,1.75 -0.5,0.5 -1.1,0.75 -1.8,0.75 0,0 -1.25,0 -1.25,0 -0.7,0 -1.3,-0.25 -1.75,-0.75 -0.5,-0.45 -0.75,-1.05 -0.75,-1.75 0,0 0,-10 0,-10 0,-0.85 -0.4,-1.25 -1.25,-1.25 -0.85,0 -1.25,0.4 -1.25,1.25 0,0 0,27.5 0,27.5 0,0.7 -0.25,1.3 -0.7,1.75 -0.5,0.5 -1.1,0.75 -1.8,0.75 0,0 -1.25,0 -1.25,0 -0.7,0 -1.3,-0.25 -1.75,-0.75 -0.5,-0.45 -0.75,-1.05 -0.75,-1.75 0,0 0,-28.75 0,-28.75 0,-1.75 0.6,-3.2 1.85,-4.45 1.2,-1.2 2.65,-1.8 4.4,-1.8 0,0 2.5,0 2.5,0 1.75,0 3.2,0.6 4.45,1.8 1.2,1.25 1.8,2.7 1.8,4.45 0,0 0,11.25 0,11.25 z"
         style="fill:#2b2b2b;fill-opacity:1;stroke-width:0.75px"
         id="path26826"
         inkscape:connector-curvature="0" />
      <path
         d="m 717.21521,-314.41476 c 0,1.75 -0.6,3.2 -1.8,4.4 -1.25,1.25 -2.7,1.85 -4.45,1.85 0,0 -6.25,0 -6.25,0 -0.7,0 -1.3,-0.25 -1.75,-0.75 -0.5,-0.45 -0.75,-1.05 -0.75,-1.75 0,0 0,-32.5 0,-32.5 0,-0.7 0.25,-1.3 0.75,-1.8 0.45,-0.45 1.05,-0.7 1.75,-0.7 0,0 6.25,0 6.25,0 1.75,0 3.2,0.6 4.45,1.8 1.2,1.25 1.8,2.7 1.8,4.45 0,0 0,25 0,25 z m -6.25,-1.25 c 0,0 0,-22.5 0,-22.5 0,-0.85 -0.4,-1.25 -1.25,-1.25 -0.85,0 -1.25,0.4 -1.25,1.25 0,0 0,22.5 0,22.5 0,0.85 0.4,1.25 1.25,1.25 0.85,0 1.25,-0.4 1.25,-1.25 z"
         style="fill:#2b2b2b;fill-opacity:1;stroke-width:0.75px"
         id="path26828"
         inkscape:connector-curvature="0" />
      <path
         d="m 734.69568,-314.41476 c 0,1.75 -0.6,3.2 -1.8,4.4 -1.25,1.25 -2.7,1.85 -4.45,1.85 0,0 -2.5,0 -2.5,0 -1.75,0 -3.2,-0.6 -4.4,-1.85 -1.25,-1.2 -1.85,-2.65 -1.85,-4.4 0,0 0,-28.75 0,-28.75 0,-0.7 0.25,-1.3 0.75,-1.8 0.45,-0.45 1.05,-0.7 1.75,-0.7 0,0 1.25,0 1.25,0 0.7,0 1.3,0.25 1.8,0.7 0.45,0.5 0.7,1.1 0.7,1.8 0,0 0,27.5 0,27.5 0,0.85 0.4,1.25 1.25,1.25 0.85,0 1.25,-0.4 1.25,-1.25 0,0 0,-27.5 0,-27.5 0,-0.7 0.25,-1.3 0.75,-1.8 0.45,-0.45 1.05,-0.7 1.75,-0.7 0,0 1.25,0 1.25,0 0.7,0 1.3,0.25 1.8,0.7 0.45,0.5 0.7,1.1 0.7,1.8 0,0 0,28.75 0,28.75 z"
         style="fill:#2b2b2b;fill-opacity:1;stroke-width:0.75px"
         id="path26830"
         inkscape:connector-curvature="0" />
      <path
         d="m 752.17615,-314.41476 c 0,1.75 -0.6,3.2 -1.8,4.4 -1.25,1.25 -2.7,1.85 -4.45,1.85 0,0 -6.25,0 -6.25,0 -0.7,0 -1.3,-0.25 -1.75,-0.75 -0.5,-0.45 -0.75,-1.05 -0.75,-1.75 0,0 0,-1.25 0,-1.25 0,-0.7 0.25,-1.3 0.75,-1.8 0.45,-0.45 1.05,-0.7 1.75,-0.7 0,0 5,0 5,0 0.85,0 1.25,-0.4 1.25,-1.25 0,-0.85 -0.4,-1.25 -1.25,-1.25 0,0 -1.25,0 -1.25,0 -1.75,0 -3.2,-0.6 -4.4,-1.85 -1.25,-1.2 -1.85,-2.65 -1.85,-4.4 0,0 0,-16.25 0,-16.25 0,-1.75 0.6,-3.2 1.85,-4.45 1.2,-1.2 2.65,-1.8 4.4,-1.8 0,0 2.5,0 2.5,0 1.75,0 3.2,0.6 4.45,1.8 1.2,1.25 1.8,2.7 1.8,4.45 0,0 0,11.25 0,11.25 0,0.7 -0.25,1.3 -0.7,1.75 -0.5,0.5 -1.1,0.75 -1.8,0.75 0,0 -1.25,0 -1.25,0 -0.7,0 -1.3,-0.25 -1.75,-0.75 -0.5,-0.45 -0.75,-1.05 -0.75,-1.75 0,0 0,-10 0,-10 0,-0.85 -0.4,-1.25 -1.25,-1.25 -0.85,0 -1.25,0.4 -1.25,1.25 0,0 0,13.75 0,13.75 0,0.85 0.4,1.25 1.25,1.25 0,0 1.25,0 1.25,0 1.75,0 3.2,0.6 4.45,1.8 1.2,1.25 1.8,2.7 1.8,4.45 0,0 0,2.5 0,2.5 z"
         style="fill:#2b2b2b;fill-opacity:1;stroke-width:0.75px"
         id="path26832"
         inkscape:connector-curvature="0" />
    </g>
  </g>
</svg>
