<?xml version="1.0" encoding="UTF-8" standalone="no"?>
<!-- Created with Inkscape (http://www.inkscape.org/) -->

<svg
   xmlns:ns2="http://ns.adobe.com/AdobeIllustrator/10.0/"
   xmlns:dc="http://purl.org/dc/elements/1.1/"
   xmlns:cc="http://creativecommons.org/ns#"
   xmlns:rdf="http://www.w3.org/1999/02/22-rdf-syntax-ns#"
   xmlns:svg="http://www.w3.org/2000/svg"
   xmlns="http://www.w3.org/2000/svg"
   xmlns:sodipodi="http://sodipodi.sourceforge.net/DTD/sodipodi-0.dtd"
   xmlns:inkscape="http://www.inkscape.org/namespaces/inkscape"
   width="710"
   height="256"
   id="svg5048"
   version="1.1"
   inkscape:version="0.92.1 r15371"
   sodipodi:docname="logo-text-version.svg"
   inkscape:export-filename="logo.png"
   inkscape:export-xdpi="96"
   inkscape:export-ydpi="96">
  <defs
     id="defs5050">
    <style
       id="current-color-scheme"
       type="text/css">      .ColorScheme-Text {
        color:#31363b;
      }
      .ColorScheme-Background{
        color:#eff0f1;
      }
      .ColorScheme-ViewText {
        color:#31363b;
      }
      .ColorScheme-ViewBackground{
        color:#fcfcfc;
      }
      .ColorScheme-ViewHover {
        color:#3daee9;
      }
      .ColorScheme-ViewFocus{
        color:#3daee9;
      }
      .ColorScheme-ButtonText {
        color:#31363b;
      }
      .ColorScheme-ButtonBackground{
        color:#eff0f1;
      }
      .ColorScheme-ButtonHover {
        color:#3daee9;
      }
      .ColorScheme-ButtonFocus{
        color:#3daee9;
      }</style>
  </defs>
  <sodipodi:namedview
     id="base"
     pagecolor="#ffffff"
     bordercolor="#666666"
     borderopacity="1.0"
     inkscape:pageopacity="0.0"
     inkscape:pageshadow="2"
     inkscape:zoom="0.94398755"
     inkscape:cx="362.42391"
     inkscape:cy="181.93689"
     inkscape:document-units="px"
     inkscape:current-layer="layer1"
     showgrid="false"
     inkscape:window-width="1920"
     inkscape:window-height="1140"
     inkscape:window-x="1920"
     inkscape:window-y="0"
     inkscape:window-maximized="1">
    <inkscape:grid
       type="xygrid"
       id="grid3011"
       empspacing="5"
       visible="true"
       enabled="true"
       snapvisiblegridlinesonly="true" />
  </sodipodi:namedview>
  <metadata
     id="metadata5053">
    <rdf:RDF>
      <cc:Work
         rdf:about="">
        <dc:format>image/svg+xml</dc:format>
        <dc:type
           rdf:resource="http://purl.org/dc/dcmitype/StillImage" />
        <dc:title />
      </cc:Work>
    </rdf:RDF>
  </metadata>
  <g
     inkscape:label="Layer 1"
     inkscape:groupmode="layer"
     id="layer1"
     transform="translate(0,-796.3622)">
    <rect
       style="fill:#8b9299;fill-opacity:0;stroke:none"
       id="rect3024"
       width="20"
       height="60"
       x="864"
       y="543"
       transform="translate(0,52.36218)"
       ry="10" />
    <g
       id="g4858">
      <rect
         y="796.36188"
         x="0"
         height="256"
         width="256"
         id="rect3861"
         style="opacity:0;fill:#ffffff;fill-opacity:1;stroke:none;stroke-width:4" />
      <g
         style="fill:#ffcb08;fill-opacity:1"
         transform="matrix(1.299829,0,0,1.299829,-259.34594,577.67633)"
         id="g5082">
        <polygon
           id="polygon5084"
           points="225.85,234.284 248.776,190.457 218.433,178.322 202.927,198.549 "
           ns2:knockout="Off"
           style="fill:#ffcb08;fill-opacity:1" />
        <polygon
           id="polygon5086"
           points="370.148,234.284 347.224,190.457 377.565,178.322 393.074,198.549 "
           ns2:knockout="Off"
           style="fill:#ffcb08;fill-opacity:1" />
      </g>
      <path
         id="path5088"
         d="m 219.01323,895.98495 -30.65777,-58.35192 c -1.14125,-2.15642 -4.67808,-4.92245 -7.02167,-5.48008 l -0.56933,-0.14038 -46.12313,-10.97706 c -3.18198,-0.7604 -8.99092,-0.77339 -12.1794,-0.0247 l -47.221487,11.04205 -0.587522,0.13778 c -2.335793,0.54463 -5.860929,3.28986 -6.99438,5.44108 l -30.659067,58.35192 -4.245241,8.06674 c -1.342724,2.55807 -2.166815,7.69759 -1.688478,10.55851 l 8.519079,51.20417 c 0.288562,1.74307 2.370888,4.02947 4.052867,4.45451 l 23.198048,5.85573 c -0.570625,-2.2799 4.689783,-4.65599 4.681984,-6.90599 L 83.329279,943.469 c 0.0078,0.44584 -0.0312,0.90598 -0.119584,1.36222 l -4.428518,22.91208 c -0.480936,2.50348 0.487436,6.99178 1.949744,9.06631 l 2.451477,3.45235 11.524284,16.26086 16.921178,23.89608 c 1.29853,1.8262 4.87695,3.6928 7.09576,3.6928 h 18.56416 c 2.21751,0 5.79464,-1.8666 7.08667,-3.6928 l 16.76519,-23.66211 11.56588,-16.32066 2.56586,-3.62652 c 1.46621,-2.07453 2.43198,-6.56283 1.94975,-9.06631 l -4.42592,-22.91208 c -0.0806,-0.45624 -0.12348,-0.91638 -0.11699,-1.35442 l 11.81025,25.74571 c -0.004,2.2773 5.24611,4.68588 4.66249,7.00868 l 23.20714,-5.94282 c 1.68458,-0.43024 3.77211,-2.72704 4.05937,-4.47531 l 8.52298,-51.20417 c 0.48224,-2.86092 -0.34056,-8.00044 -1.68718,-10.55851 z"
         ns2:knockout="Off"
         style="fill:#ffcb08;fill-opacity:1;stroke-width:1.29982901"
         inkscape:connector-curvature="0" />
      <path
         style="stroke-width:1.29982901;fill:#2b2b2b;fill-opacity:1"
         id="path5090"
         d="m 255.85168,831.42245 c -1.21924,-3.63562 -5.05373,-10.16077 -8.49568,-14.50349 -3.44975,-4.34793 -9.06501,-9.49395 -12.47576,-11.4359 -3.41335,-1.94974 -19.0178,2.315 -26.91036,5.92462 l -5.76084,2.62956 c -7.89256,3.61222 -14.4606,6.62002 -14.59318,6.68242 -0.12868,0.0676 -1.05676,0 -1.77687,-0.29766 -0.7227,-0.31066 -9.50435,-2.47228 -17.95973,-4.44932 l -15.13781,-3.53683 c -8.45799,-1.97704 -18.20541,-3.8605 -21.66815,-4.18675 -3.46535,-0.32886 -18.2431,2.14601 -26.69849,4.08666 l -16.204968,3.72401 c -8.460587,1.93934 -15.970999,3.70451 -16.680705,3.92028 -0.717506,0.21058 -2.714043,0.93848 -2.849225,0.86569 -0.133883,-0.0767 -6.955385,-3.19758 -14.845347,-6.8098 l -5.754343,-2.62956 c -7.899061,-3.60962 -17.63998,-6.802 -21.653852,-7.09706 -4.013872,-0.29507 -14.28772,8.26041 -17.7335668,12.60834 -3.4549455,4.34143 -7.2790424,10.87307 -8.50478113,14.50739 -1.22573877,3.63562 5.42288663,17.95844 10.28164693,25.15299 l 9.930694,14.72966 c 4.850962,7.19455 7.52601,15.51216 5.93242,18.47707 -1.589691,2.97661 -3.763005,8.26301 -4.834064,11.75305 -1.072359,3.49654 0.166378,18.82413 1.613087,27.3835 l 3.102692,18.2691 c 1.449309,8.55807 4.172451,18.42377 6.049404,21.92421 1.882153,3.50304 16.769094,9.68633 25.198485,11.77386 l 3.770804,0.93457 c 8.420292,2.08883 19.470139,9.56024 24.545971,16.60012 l 6.807205,9.41852 c 5.073232,7.0425 11.695863,14.7713 14.714063,17.1786 3.00651,2.406 15.72923,4.3752 20.74267,4.3752 5.02254,0 12.1586,-0.8475 15.87481,-1.8821 3.71232,-1.0334 14.5061,-12.6279 19.57933,-19.6717 l 6.69542,-9.27164 c 5.07843,-7.03338 16.11658,-14.52429 24.53947,-16.63911 l 3.92548,-0.98657 c 8.41769,-2.11482 18.04423,-5.59707 21.38609,-7.73788 3.34446,-2.14342 8.38,-17.45931 9.83321,-26.01738 l 3.09619,-18.2652 c 1.44541,-8.56327 2.55286,-18.54986 2.45927,-22.20888 -0.0923,-3.64992 -4.08796,-13.95496 -5.68025,-16.93157 -1.58839,-2.96621 1.08406,-11.28252 5.93372,-18.47707 l 9.93069,-14.72966 c 4.85357,-7.19195 11.50219,-21.51477 10.27515,-25.15429 z m -236.034645,16.7236 c -4.319332,-6.39776 -8.031644,-12.11311 -8.257814,-12.68893 0,0 0,0 0,-0.66292 0,-0.83059 0,-0.83059 0,-0.83059 0.331456,-0.7578 3.430249,-4.92765 6.877395,-9.27298 3.454946,-4.34143 6.829302,-8.15902 7.503913,-8.48788 0.672012,-0.32496 9.006515,2.96881 16.900377,6.57064 l 1.233537,0.56672 c 7.893862,3.60833 14.237027,6.74351 14.097946,6.96838 -0.141682,0.22488 -3.831896,7.07757 -7.926358,14.73487 l -6.942386,12.97099 c -4.094462,7.65599 -19.168579,-3.46404 -23.48661,-9.8683 z m 203.254265,59.2761 c 0.0949,2.11612 -1.01777,10.85357 -2.46448,19.41555 l -3.10269,18.27039 c -1.44671,8.55418 -3.15599,16.43894 -3.8059,17.5113 -0.63432,1.07106 -7.94586,3.65122 -14.21623,5.22791 -6.27818,1.57669 -11.20193,1.83536 -10.96146,0.58492 0.24047,-1.25953 -3.39645,-10.07237 -8.08624,-16.90297 -4.69758,-6.8254 -8.53467,-12.2158 -8.52817,-11.97793 0.007,0.23657 1.07625,5.84403 2.2773,11.91944 1.19714,6.08319 2.06932,12.57584 1.94064,14.4307 -0.13258,1.85615 -2.25,6.15339 -2.94021,7.11786 -0.69671,0.96317 -3.8189,5.2916 -6.94759,9.61744 -3.12999,4.32843 -9.38346,13.00868 -13.91597,19.28424 -4.526,6.273 -9.30807,12.2171 -10.6287,13.1946 -1.31933,0.9762 -8.66986,1.782 -13.6924,1.782 -5.01214,0 -10.39993,-0.4068 -11.96752,-0.9046 -1.5598,-0.4953 -7.86397,-7.8458 -12.43547,-14.1825 -4.574095,-6.33793 -10.863968,-15.05329 -13.973159,-19.36742 -3.11569,-4.31413 -6.196285,-8.58927 -6.865697,-9.50695 -0.655113,-0.91638 -1.736571,-3.09229 -2.394285,-4.83016 -0.653814,-1.74177 0.263866,-10.55202 1.457109,-16.63521 1.198442,-6.07541 2.20321,-11.24353 2.237005,-11.48919 0.0351,-0.24307 -3.783802,4.72098 -8.480084,11.54898 -4.697582,6.8319 -8.465786,13.42073 -8.381297,14.64647 0.08059,1.22704 -4.420719,3.16378 -10.685895,1.60789 -6.263876,-1.5533 -12.224891,-3.41725 -13.241358,-4.13346 -1.015166,-0.7162 -3.321063,-9.98788 -4.774272,-18.54206 L 35.399385,926.839 c -1.45061,-8.56198 -2.559364,-17.29943 -2.465776,-19.41555 0.09489,-2.12522 2.426781,-8.08754 3.57583,-10.22316 1.141249,-2.13951 5.434585,-10.15556 9.530346,-17.80895 l 15.227496,-28.45196 c 4.093162,-7.64949 8.473586,-14.97143 9.73312,-16.27516 1.260834,-1.29983 4.717079,-2.91811 4.875659,-2.95451 0.163778,-0.0364 7.210151,-1.65728 15.672038,-3.59533 l 15.629142,-3.59142 c 8.45409,-1.94325 17.36702,-3.69022 19.7977,-3.88519 2.43198,-0.19368 14.46319,1.99783 22.91988,3.97227 l 14.57628,3.40426 c 8.45409,1.97704 15.49787,3.62522 15.64995,3.66421 0.15468,0.0325 1.58189,0.7838 3.16898,1.66379 1.58969,0.88128 7.35443,9.94499 11.45019,17.59578 l 15.2288,28.45196 c 4.09186,7.65209 8.3878,15.66814 9.53035,17.80895 1.14644,2.13562 3.48354,8.09794 3.57193,10.22316 z m 21.37698,-71.96503 c -0.22617,0.57582 -3.94758,6.29117 -8.26041,12.68893 -4.31283,6.40426 -19.38695,17.52429 -23.47881,9.8683 l -6.94759,-12.97099 c -4.10096,-7.6573 -7.5533,-14.10315 -7.67939,-14.32802 -0.13388,-0.22357 5.95972,-3.7669 13.85358,-7.37523 l 1.22834,-0.56672 c 7.88996,-3.60183 15.08451,-6.57064 15.9827,-6.59794 0.89818,-0.0195 4.97054,4.17375 8.42159,8.51518 3.44195,4.34533 6.54594,8.51518 6.87999,9.27298 0,0 0,0 0,0.83059 0,0.66292 0,0.66292 0,0.66292 z"
         ns2:knockout="Off"
         inkscape:connector-curvature="0" />
      <path
         style="stroke-width:1.29982901;fill:#2b2b2b;fill-opacity:1"
         id="path5092"
         d="m 105.9437,951.94649 c -1.86265,-3.73051 0.0208,-6.7916 4.19975,-6.7916 h 35.7167 c 4.17245,0 6.06111,3.06109 4.20105,6.7916 l -18.66554,21.21971 c -1.86786,3.73311 -4.91336,3.73311 -6.78641,0 z"
         ns2:knockout="Off"
         inkscape:connector-curvature="0" />
      <path
         style="stroke-width:1.29982901;fill:#2b2b2b;fill-opacity:1"
         id="path5094"
         d="m 128.0018,997.45351 c 0.005,0 2.52167,2.30719 5.60616,5.12519 l 12.12871,11.085 c 3.08969,2.8115 6.46015,3.0936 7.49221,0.6148 1.03337,-2.4775 -0.93717,-6.4238 -4.38822,-8.7778 l -11.48789,-7.83532 c -3.44974,-2.35399 -6.26387,-4.35573 -6.25088,-4.44932 0.0104,-0.0884 0.026,-3.7643 0.026,-7.94065 v -21.39649 c 0,-4.17635 -0.62912,-9.00131 -1.39991,-10.71969 0,0 0,0 -1.72618,0 -1.72357,0 -1.72357,0 -1.72357,0 -0.7708,1.71838 -1.39992,6.54204 -1.39992,10.71969 v 21.39649 c 0,4.17635 0.008,7.67289 0.0117,7.77168 0.009,0.091 -2.78423,2.2643 -6.23658,4.61829 l -11.48789,7.83532 c -3.44844,2.354 -5.42808,6.3003 -4.38952,8.7778 1.03986,2.4801 4.40252,2.1967 7.49092,-0.6148 l 12.1313,-11.085 c 3.08449,-2.818 5.60356,-5.12519 5.60356,-5.12519 z"
         ns2:knockout="Off"
         inkscape:connector-curvature="0" />
      <g
         style="fill:#2b2b2b;fill-opacity:1"
         transform="matrix(1.299829,0,0,1.299829,-259.34594,577.67633)"
         id="g5096">
        <path
           style="fill:#2b2b2b;fill-opacity:1"
           id="path5098"
           d="m 246.885,244.751 c -3.453,0.1 -3.48,0.578 -0.063,1.067 l 28.657,4.092 c 3.413,0.489 5.948,3.696 5.627,7.127 l -3.658,12.79 c -0.309,3.431 0.762,6.337 2.396,6.457 1.634,0.12 2.98,0.104 2.99,-0.036 0.005,-0.137 0.14,-3.068 0.284,-6.513 l 2.993,-12.004 c 0.15,-3.446 0.345,-8.027 0.438,-10.181 0.099,-2.154 -0.813,-3.892 -2.019,-3.856 -1.206,0.035 -5.015,0.139 -8.463,0.237 z"
           ns2:knockout="Off"
           inkscape:connector-curvature="0" />
        <path
           style="fill:#2b2b2b;fill-opacity:1"
           id="path5100"
           d="m 319.935,243.932 c -3.449,-0.098 -7.259,-0.202 -8.458,-0.237 -1.212,-0.036 -2.124,1.702 -2.032,3.856 0.093,2.154 0.294,6.735 0.442,10.181 l 2.99,12.004 c 0.15,3.444 0.279,6.375 0.295,6.513 0.006,0.14 1.35,0.155 2.983,0.036 1.635,-0.119 2.71,-3.025 2.39,-6.457 l -3.652,-12.79 c -0.317,-3.431 2.216,-6.638 5.627,-7.127 l 28.657,-4.092 c 3.411,-0.489 3.391,-0.967 -0.062,-1.067 z"
           ns2:knockout="Off"
           inkscape:connector-curvature="0" />
      </g>
      <g
         style="fill:#2b2b2b;fill-opacity:1"
         transform="matrix(1.299829,0,0,1.299829,-259.34594,577.67633)"
         id="g5102">
        <circle
           style="fill:#2b2b2b;fill-opacity:1"
           id="circle5104"
           r="3.974"
           cy="249.082"
           cx="268.66599"
           ns2:knockout="Off" />
        <path
           style="fill:#2b2b2b;fill-opacity:1"
           id="path5106"
           d="m 331.314,249.082 c 0,2.199 -1.786,3.978 -3.979,3.978 -2.202,0 -3.98,-1.779 -3.98,-3.978 0,-2.195 1.778,-3.974 3.98,-3.974 2.193,-0.001 3.979,1.779 3.979,3.974 z"
           ns2:knockout="Off"
           inkscape:connector-curvature="0" />
      </g>
      <g
         style="fill:#2b2b2b;fill-opacity:1"
         transform="matrix(1.299829,0,0,1.299829,-259.34594,577.67633)"
         id="g5108">
        <g
           style="fill:#2b2b2b;fill-opacity:1"
           id="g5111">
          <g
             style="fill:#2b2b2b;fill-opacity:1"
             id="g5113"
             ns2:knockout="Off">
            <g
               style="fill:#2b2b2b;fill-opacity:1"
               id="g5115">
              <path
                 id="path5117"
                 d="m 282.442,299.431 c -22.72,6.003 -41.634,16.871 -60.114,31.306"
                 ns2:knockout="Off"
                 style="fill:#2b2b2b;fill-opacity:1"
                 inkscape:connector-curvature="0" />
              <path
                 style="fill:#2b2b2b;fill-opacity:1"
                 id="path5119"
                 d="m 282.2,298.054 c -21.88,5.292 -43.854,16.737 -60.637,31.78 -1.164,1.042 0.289,2.639 1.532,1.807 9.16,-6.125 17.966,-12.6 27.651,-17.915 10.139,-5.564 20.881,-9.605 31.939,-12.917 1.686,-0.505 1.297,-3.186 -0.485,-2.755 z"
                 ns2:knockout="Off"
                 inkscape:connector-curvature="0" />
            </g>
          </g>
          <g
             style="fill:#2b2b2b;fill-opacity:1"
             id="g5121"
             ns2:knockout="Off">
            <g
               style="fill:#2b2b2b;fill-opacity:1"
               id="g5123">
              <path
                 id="path5125"
                 d="m 282.968,306.988 c -16.705,1.636 -33.563,20.751 -43.912,33.257"
                 ns2:knockout="Off"
                 style="fill:#2b2b2b;fill-opacity:1"
                 inkscape:connector-curvature="0" />
              <path
                 style="fill:#2b2b2b;fill-opacity:1"
                 id="path5127"
                 d="m 282.77,305.868 c -9.444,0.723 -17.431,6.122 -24.537,12.016 -7.479,6.204 -14.603,13.695 -20.01,21.778 -0.624,0.933 0.641,2.192 1.491,1.359 12.808,-12.552 24.483,-29.631 43.451,-32.913 1.472,-0.254 1.04,-2.351 -0.395,-2.24 z"
                 ns2:knockout="Off"
                 inkscape:connector-curvature="0" />
            </g>
          </g>
          <g
             style="fill:#2b2b2b;fill-opacity:1"
             id="g5129"
             ns2:knockout="Off">
            <g
               style="fill:#2b2b2b;fill-opacity:1"
               id="g5131">
              <path
                 id="path5133"
                 d="m 284.562,314.588 c -16.175,4.496 -29.483,26.229 -37.521,40.328"
                 ns2:knockout="Off"
                 style="fill:#2b2b2b;fill-opacity:1"
                 inkscape:connector-curvature="0" />
              <path
                 style="fill:#2b2b2b;fill-opacity:1"
                 id="path5135"
                 d="m 284.364,313.467 c -8.867,2.251 -15.541,8.416 -21.442,15.134 -6.738,7.671 -12.65,16.651 -16.835,25.961 -0.484,1.078 1.134,1.858 1.787,0.937 10.368,-14.624 19.083,-33.416 37.176,-39.883 1.208,-0.432 0.551,-2.463 -0.686,-2.149 z"
                 ns2:knockout="Off"
                 inkscape:connector-curvature="0" />
            </g>
          </g>
        </g>
        <g
           style="fill:#2b2b2b;fill-opacity:1"
           id="g5137">
          <g
             style="fill:#2b2b2b;fill-opacity:1"
             id="g5139"
             ns2:knockout="Off">
            <g
               style="fill:#2b2b2b;fill-opacity:1"
               id="g5141">
              <path
                 id="path5143"
                 d="m 313.56,299.431 c 22.718,6.003 41.628,16.871 60.104,31.306"
                 ns2:knockout="Off"
                 style="fill:#2b2b2b;fill-opacity:1"
                 inkscape:connector-curvature="0" />
              <path
                 style="fill:#2b2b2b;fill-opacity:1"
                 id="path5145"
                 d="m 313.074,300.743 c 11.08,3.32 21.741,7.38 31.951,12.85 9.841,5.271 18.705,11.93 27.959,18.114 1.305,0.872 2.469,-0.947 1.359,-1.94 -16.666,-14.924 -38.57,-26.389 -60.299,-31.647 -1.712,-0.415 -2.727,2.097 -0.97,2.623 z"
                 ns2:knockout="Off"
                 inkscape:connector-curvature="0" />
            </g>
          </g>
          <g
             style="fill:#2b2b2b;fill-opacity:1"
             id="g5147"
             ns2:knockout="Off">
            <g
               style="fill:#2b2b2b;fill-opacity:1"
               id="g5149">
              <path
                 id="path5151"
                 d="m 313.03,306.988 c 16.707,1.636 33.564,20.751 43.913,33.257"
                 ns2:knockout="Off"
                 style="fill:#2b2b2b;fill-opacity:1"
                 inkscape:connector-curvature="0" />
              <path
                 style="fill:#2b2b2b;fill-opacity:1"
                 id="path5153"
                 d="m 312.923,308.121 c 18.863,3.261 30.51,20.297 43.245,32.782 0.946,0.928 2.279,-0.229 1.551,-1.316 -5.477,-8.176 -12.608,-15.396 -20.064,-21.789 -6.961,-5.969 -15.178,-11.229 -24.517,-11.942 -1.482,-0.114 -1.644,2.018 -0.215,2.265 z"
                 ns2:knockout="Off"
                 inkscape:connector-curvature="0" />
            </g>
          </g>
          <g
             style="fill:#2b2b2b;fill-opacity:1"
             id="g5155"
             ns2:knockout="Off">
            <g
               style="fill:#2b2b2b;fill-opacity:1"
               id="g5157">
              <path
                 id="path5159"
                 d="m 311.435,314.588 c 16.172,4.496 29.49,26.229 37.524,40.328"
                 ns2:knockout="Off"
                 style="fill:#2b2b2b;fill-opacity:1"
                 inkscape:connector-curvature="0" />
              <path
                 style="fill:#2b2b2b;fill-opacity:1"
                 id="path5161"
                 d="m 311.04,315.655 c 18.046,6.457 26.813,25.33 37.144,39.919 0.686,0.968 2.152,-0.075 1.694,-1.095 -4.017,-8.945 -9.716,-17.315 -15.94,-24.875 -5.824,-7.073 -13.024,-13.776 -22.108,-16.083 -1.392,-0.354 -2.199,1.63 -0.79,2.134 z"
                 ns2:knockout="Off"
                 inkscape:connector-curvature="0" />
            </g>
          </g>
        </g>
      </g>
      <g
         style="fill:#2b2b2b;fill-opacity:1"
         transform="matrix(1.299829,0,0,1.299829,-259.34594,577.67633)"
         id="g5163">
        <g
           style="fill:#2b2b2b;fill-opacity:1"
           id="g5165">
          <ellipse
             style="fill:#2b2b2b;fill-opacity:1"
             id="ellipse5167"
             ry="8.0299997"
             rx="6.4250002"
             cy="205.96201"
             cx="260.37"
             ns2:knockout="Off" />
          <path
             style="fill:#2b2b2b;fill-opacity:1"
             id="path5169"
             d="m 258.13,221.388 c 0,2.959 -2.396,5.353 -5.349,5.353 -2.959,0 -5.355,-2.394 -5.355,-5.353 0,-2.956 2.396,-5.353 5.355,-5.353 2.953,0.001 5.349,2.397 5.349,5.353 z"
             ns2:knockout="Off"
             inkscape:connector-curvature="0" />
          <path
             style="fill:#2b2b2b;fill-opacity:1"
             id="path5171"
             d="m 282.519,203.942 c -1.077,3.381 -3.318,5.69 -5.011,5.152 -1.688,-0.539 -2.19,-3.713 -1.111,-7.096 1.072,-3.382 3.314,-5.688 5.003,-5.148 1.691,0.537 2.191,3.716 1.119,7.092 z"
             ns2:knockout="Off"
             inkscape:connector-curvature="0" />
          <path
             style="fill:#2b2b2b;fill-opacity:1"
             id="path5173"
             d="m 274.432,223.038 c 0,1.778 -1.674,3.214 -3.748,3.214 -2.069,0 -3.746,-1.436 -3.746,-3.214 0,-1.774 1.676,-3.211 3.746,-3.211 2.074,0 3.748,1.437 3.748,3.211 z"
             ns2:knockout="Off"
             inkscape:connector-curvature="0" />
        </g>
        <g
           style="fill:#2b2b2b;fill-opacity:1"
           id="g5175">
          <path
             style="fill:#2b2b2b;fill-opacity:1"
             id="path5177"
             d="m 353.42,284.343 c -1.319,2.646 -0.248,5.858 2.4,7.178 2.646,1.321 5.86,0.247 7.179,-2.398 1.32,-2.649 0.242,-5.866 -2.401,-7.179 -2.643,-1.325 -5.859,-0.248 -7.178,2.399 z"
             ns2:knockout="Off"
             inkscape:connector-curvature="0" />
          <path
             style="fill:#2b2b2b;fill-opacity:1"
             id="path5179"
             d="m 354.672,270.667 c -0.546,3.506 0.429,6.572 2.179,6.845 1.759,0.272 3.618,-2.346 4.172,-5.85 0.546,-3.506 -0.429,-6.571 -2.188,-6.842 -1.748,-0.276 -3.616,2.342 -4.163,5.847 z"
             ns2:knockout="Off"
             inkscape:connector-curvature="0" />
          <path
             style="fill:#2b2b2b;fill-opacity:1"
             id="path5181"
             d="m 344.822,278.809 c -0.794,1.588 0.067,3.625 1.917,4.547 1.854,0.925 4,0.387 4.787,-1.2 0.796,-1.588 -0.066,-3.624 -1.916,-4.546 -1.851,-0.926 -3.999,-0.387 -4.788,1.199 z"
             ns2:knockout="Off"
             inkscape:connector-curvature="0" />
        </g>
      </g>
    </g>
    <g
       aria-label="pardus"
       style="font-style:normal;font-variant:normal;font-weight:normal;font-stretch:normal;font-size:66.66666412px;line-height:25px;font-family:Pardus;-inkscape-font-specification:Pardus;letter-spacing:0px;word-spacing:0px;fill:#2b2b2b;fill-opacity:1;stroke:none;stroke-width:1px;stroke-linecap:butt;stroke-linejoin:miter;stroke-opacity:1"
       id="text4577"
       transform="matrix(2.5999899,0,0,2.6,133.32697,-1887.5799)">
      <path
         d="m 69.438205,1093.7854 c 0,2.3333 -0.8,4.2667 -2.4,5.8667 -1.666667,1.6666 -3.6,2.4666 -5.933333,2.4666 0,0 -1.666667,0 -1.666667,0 -1.133333,0 -1.666666,0.5334 -1.666666,1.6667 0,0 0,6.6667 0,6.6667 0,0.9333 -0.333334,1.7333 -0.933334,2.3333 -0.666666,0.6667 -1.466666,1 -2.399999,1 0,0 -1.666667,0 -1.666667,0 -0.933333,0 -1.733333,-0.3333 -2.333333,-1 -0.666667,-0.6 -1,-1.4 -1,-2.3333 0,0 0,-38.3334 0,-38.3334 0,-2.3333 0.8,-4.2666 2.466666,-5.9333 1.6,-1.6 3.533333,-2.4 5.866667,-2.4 0,0 3.333333,0 3.333333,0 2.333333,0 4.266666,0.8 5.933333,2.4 1.6,1.6667 2.4,3.6 2.4,5.9333 0,0 0,21.6667 0,21.6667 z m -8.333333,-1.6667 c 0,0 0,-18.3333 0,-18.3333 0,-1.1333 -0.533333,-1.6667 -1.666667,-1.6667 -1.133333,0 -1.666666,0.5334 -1.666666,1.6667 0,0 0,18.3333 0,18.3333 0,1.1334 0.533333,1.6667 1.666666,1.6667 1.133334,0 1.666667,-0.5333 1.666667,-1.6667 z"
         id="path4579"
         inkscape:connector-curvature="0"
         style="fill:#2b2b2b;fill-opacity:1" />
      <path
         d="m 92.745496,1105.4521 c 0,2.3333 -0.8,4.2666 -2.4,5.8666 -1.666667,1.6667 -3.6,2.4667 -5.933333,2.4667 0,0 -3.333333,0 -3.333333,0 -2.333333,0 -4.266667,-0.8 -5.866667,-2.4667 -1.666666,-1.6 -2.466666,-3.5333 -2.466666,-5.8666 0,0 0,-3.3334 0,-3.3334 0,-2.3333 0.8,-4.2666 2.466666,-5.9333 1.6,-1.6 3.533334,-2.4 5.866667,-2.4 0,0 1.666666,0 1.666666,0 1.133334,0 1.666667,-0.5333 1.666667,-1.6667 0,0 0,-18.3333 0,-18.3333 0,-1.1333 -0.533333,-1.6667 -1.666667,-1.6667 -1.133333,0 -1.666666,0.5334 -1.666666,1.6667 0,0 0,13.3333 0,13.3333 0,0.9334 -0.333334,1.7334 -0.933334,2.3334 -0.666666,0.6666 -1.466666,1 -2.399999,1 0,0 -1.666667,0 -1.666667,0 -0.933333,0 -1.733333,-0.3334 -2.333333,-1 -0.666667,-0.6 -1,-1.4 -1,-2.3334 0,0 0,-15 0,-15 0,-2.3333 0.8,-4.2666 2.466666,-5.9333 1.6,-1.6 3.533334,-2.4 5.866667,-2.4 0,0 3.333333,0 3.333333,0 2.333333,0 4.266666,0.8 5.933333,2.4 1.6,1.6667 2.4,3.6 2.4,5.9333 0,0 0,33.3334 0,33.3334 z m -8.333333,-1.6667 c 0,-1.1333 -0.533333,-1.6667 -1.666667,-1.6667 -1.133333,0 -1.666666,0.5334 -1.666666,1.6667 0,1.1333 0.533333,1.6667 1.666666,1.6667 1.133334,0 1.666667,-0.5334 1.666667,-1.6667 z"
         id="path4581"
         inkscape:connector-curvature="0"
         style="fill:#2b2b2b;fill-opacity:1" />
      <path
         d="m 116.05279,1087.1187 c 0,0.9334 -0.33334,1.7334 -0.93334,2.3334 -0.66666,0.6666 -1.46666,1 -2.4,1 0,0 -1.66666,0 -1.66666,0 -0.93334,0 -1.73334,-0.3334 -2.33334,-1 -0.66666,-0.6 -1,-1.4 -1,-2.3334 0,0 0,-13.3333 0,-13.3333 0,-1.1333 -0.53333,-1.6667 -1.66666,-1.6667 -1.13334,0 -1.66667,0.5334 -1.66667,1.6667 0,0 0,36.6667 0,36.6667 0,0.9333 -0.33333,1.7333 -0.93333,2.3333 -0.66667,0.6667 -1.46667,1 -2.4,1 0,0 -1.666669,0 -1.666669,0 -0.933333,0 -1.733333,-0.3333 -2.333333,-1 -0.666667,-0.6 -1,-1.4 -1,-2.3333 0,0 0,-38.3334 0,-38.3334 0,-2.3333 0.8,-4.2666 2.466666,-5.9333 1.599996,-1.6 3.533336,-2.4 5.866666,-2.4 0,0 3.33333,0 3.33333,0 2.33334,0 4.26667,0.8 5.93334,2.4 1.6,1.6667 2.4,3.6 2.4,5.9333 0,0 0,15 0,15 z"
         id="path4583"
         inkscape:connector-curvature="0"
         style="fill:#2b2b2b;fill-opacity:1" />
      <path
         d="m 139.36008,1105.4521 c 0,2.3333 -0.8,4.2666 -2.4,5.8666 -1.66667,1.6667 -3.6,2.4667 -5.93333,2.4667 0,0 -8.33334,0 -8.33334,0 -0.93333,0 -1.73333,-0.3333 -2.33333,-1 -0.66667,-0.6 -1,-1.4 -1,-2.3333 0,0 0,-43.3334 0,-43.3334 0,-0.9333 0.33333,-1.7333 1,-2.4 0.6,-0.6 1.4,-0.9333 2.33333,-0.9333 0,0 8.33334,0 8.33334,0 2.33333,0 4.26666,0.8 5.93333,2.4 1.6,1.6667 2.4,3.6 2.4,5.9333 0,0 0,33.3334 0,33.3334 z m -8.33333,-1.6667 c 0,0 0,-30 0,-30 0,-1.1333 -0.53334,-1.6667 -1.66667,-1.6667 -1.13333,0 -1.66667,0.5334 -1.66667,1.6667 0,0 0,30 0,30 0,1.1333 0.53334,1.6667 1.66667,1.6667 1.13333,0 1.66667,-0.5334 1.66667,-1.6667 z"
         id="path4585"
         inkscape:connector-curvature="0"
         style="fill:#2b2b2b;fill-opacity:1" />
      <path
         d="m 162.66737,1105.4521 c 0,2.3333 -0.8,4.2666 -2.4,5.8666 -1.66667,1.6667 -3.6,2.4667 -5.93333,2.4667 0,0 -3.33334,0 -3.33334,0 -2.33333,0 -4.26666,-0.8 -5.86666,-2.4667 -1.66667,-1.6 -2.46667,-3.5333 -2.46667,-5.8666 0,0 0,-38.3334 0,-38.3334 0,-0.9333 0.33333,-1.7333 1,-2.4 0.6,-0.6 1.4,-0.9333 2.33333,-0.9333 0,0 1.66667,0 1.66667,0 0.93333,0 1.73333,0.3333 2.4,0.9333 0.6,0.6667 0.93333,1.4667 0.93333,2.4 0,0 0,36.6667 0,36.6667 0,1.1333 0.53334,1.6667 1.66667,1.6667 1.13333,0 1.66667,-0.5334 1.66667,-1.6667 0,0 0,-36.6667 0,-36.6667 0,-0.9333 0.33333,-1.7333 1,-2.4 0.6,-0.6 1.4,-0.9333 2.33333,-0.9333 0,0 1.66667,0 1.66667,0 0.93333,0 1.73333,0.3333 2.4,0.9333 0.6,0.6667 0.93333,1.4667 0.93333,2.4 0,0 0,38.3334 0,38.3334 z"
         id="path4587"
         inkscape:connector-curvature="0"
         style="fill:#2b2b2b;fill-opacity:1" />
      <path
         d="m 185.97466,1105.4521 c 0,2.3333 -0.8,4.2666 -2.4,5.8666 -1.66667,1.6667 -3.6,2.4667 -5.93333,2.4667 0,0 -8.33334,0 -8.33334,0 -0.93333,0 -1.73333,-0.3333 -2.33333,-1 -0.66667,-0.6 -1,-1.4 -1,-2.3333 0,0 0,-1.6667 0,-1.6667 0,-0.9333 0.33333,-1.7333 1,-2.4 0.6,-0.6 1.4,-0.9333 2.33333,-0.9333 0,0 6.66667,0 6.66667,0 1.13333,0 1.66667,-0.5334 1.66667,-1.6667 0,-1.1333 -0.53334,-1.6667 -1.66667,-1.6667 0,0 -1.66667,0 -1.66667,0 -2.33333,0 -4.26666,-0.8 -5.86666,-2.4666 -1.66667,-1.6 -2.46667,-3.5334 -2.46667,-5.8667 0,0 0,-21.6667 0,-21.6667 0,-2.3333 0.8,-4.2666 2.46667,-5.9333 1.6,-1.6 3.53333,-2.4 5.86666,-2.4 0,0 3.33334,0 3.33334,0 2.33333,0 4.26666,0.8 5.93333,2.4 1.6,1.6667 2.4,3.6 2.4,5.9333 0,0 0,15 0,15 0,0.9334 -0.33334,1.7334 -0.93334,2.3334 -0.66666,0.6666 -1.46666,1 -2.4,1 0,0 -1.66666,0 -1.66666,0 -0.93333,0 -1.73333,-0.3334 -2.33333,-1 -0.66667,-0.6 -1,-1.4 -1,-2.3334 0,0 0,-13.3333 0,-13.3333 0,-1.1333 -0.53334,-1.6667 -1.66667,-1.6667 -1.13333,0 -1.66667,0.5334 -1.66667,1.6667 0,0 0,18.3333 0,18.3333 0,1.1334 0.53334,1.6667 1.66667,1.6667 0,0 1.66667,0 1.66667,0 2.33333,0 4.26666,0.8 5.93333,2.4 1.6,1.6667 2.4,3.6 2.4,5.9333 0,0 0,3.3334 0,3.3334 z m -39.46667,-28.8667 c 0,0 0,0 0,0 z"
         id="path4589"
         inkscape:connector-curvature="0"
         style="fill:#2b2b2b;fill-opacity:1" />
    </g>
    <g
       aria-label="19"
       style="font-style:normal;font-variant:normal;font-weight:normal;font-stretch:normal;font-size:66.66666412px;line-height:25px;font-family:Pardus;-inkscape-font-specification:Pardus;letter-spacing:0px;word-spacing:0px;fill:#ffcb08;fill-opacity:1;stroke:none;stroke-width:1px;stroke-linecap:butt;stroke-linejoin:miter;stroke-opacity:1"
       id="text4842"
       transform="matrix(1.4,0,0,1.4,797.90262,-332.40556)">
      <path
         d="m -110.01873,863.26109 c 0,0.93333 -0.33333,1.73333 -0.93333,2.33333 -0.66667,0.66667 -1.46667,1 -2.4,1 0,0 -1.66667,0 -1.66667,0 -0.93333,0 -1.73333,-0.33333 -2.33333,-1 -0.66667,-0.6 -1,-1.4 -1,-2.33333 0,0 0,-43.33333 0,-43.33333 0,-0.93334 0.33333,-1.73334 1,-2.4 0.6,-0.6 1.4,-0.93334 2.33333,-0.93334 0,0 1.66667,0 1.66667,0 0.93333,0 1.73333,0.33334 2.4,0.93334 0.6,0.66666 0.93333,1.46666 0.93333,2.4 0,0 0,43.33333 0,43.33333 z"
         id="path4844"
         inkscape:connector-curvature="0"
         style="fill:#ffcb08;fill-opacity:1" />
      <path
         d="m -86.633309,863.26109 c 0,0.93333 -0.333333,1.73333 -0.933333,2.33333 -0.666667,0.66667 -1.466667,1 -2.4,1 0,0 -1.666667,0 -1.666667,0 -0.933333,0 -1.733333,-0.33333 -2.333333,-1 -0.666667,-0.6 -1,-1.4 -1,-2.33333 0,0 0,-6.66667 0,-6.66667 0,-1.13333 -0.533334,-1.66666 -1.666667,-1.66666 0,0 -1.666666,0 -1.666666,0 -2.333335,0 -4.266665,-0.8 -5.866665,-2.46667 -1.66667,-1.6 -2.46667,-3.53333 -2.46667,-5.86667 0,0 0,-21.66666 0,-21.66666 0,-2.33334 0.8,-4.26667 2.46667,-5.93334 1.6,-1.6 3.53333,-2.4 5.866665,-2.4 0,0 3.333333,0 3.333333,0 2.333333,0 4.266666,0.8 5.933333,2.4 1.6,1.66667 2.4,3.6 2.4,5.93334 0,0 0,38.33333 0,38.33333 z m -8.333333,-18.33333 c 0,0 0,-18.33334 0,-18.33334 0,-1.13333 -0.533334,-1.66666 -1.666667,-1.66666 -1.133333,0 -1.666666,0.53333 -1.666666,1.66666 0,0 0,18.33334 0,18.33334 0,1.13333 0.533333,1.66666 1.666666,1.66666 1.133333,0 1.666667,-0.53333 1.666667,-1.66666 z"
         id="path4846"
         inkscape:connector-curvature="0"
         style="fill:#ffcb08;fill-opacity:1" />
    </g>
  </g>
</svg>
