<?xml version="1.0" encoding="UTF-8" standalone="no"?>
<!-- Created with Inkscape (http://www.inkscape.org/) -->

<svg
   xmlns:ns2="http://ns.adobe.com/AdobeIllustrator/10.0/"
   xmlns:dc="http://purl.org/dc/elements/1.1/"
   xmlns:cc="http://creativecommons.org/ns#"
   xmlns:rdf="http://www.w3.org/1999/02/22-rdf-syntax-ns#"
   xmlns:svg="http://www.w3.org/2000/svg"
   xmlns="http://www.w3.org/2000/svg"
   xmlns:sodipodi="http://sodipodi.sourceforge.net/DTD/sodipodi-0.dtd"
   xmlns:inkscape="http://www.inkscape.org/namespaces/inkscape"
   width="710"
   height="256"
   id="svg5048"
   version="1.1"
   inkscape:version="0.92.1 r15371"
   sodipodi:docname="logo-text-version.svg"
   inkscape:export-filename="logo.png"
   inkscape:export-xdpi="96"
   inkscape:export-ydpi="96">
  <defs
     id="defs5050">
    <style
       id="current-color-scheme"
       type="text/css">      .ColorScheme-Text {
        color:#31363b;
      }
      .ColorScheme-Background{
        color:#eff0f1;
      }
      .ColorScheme-ViewText {
        color:#31363b;
      }
      .ColorScheme-ViewBackground{
        color:#fcfcfc;
      }
      .ColorScheme-ViewHover {
        color:#3daee9;
      }
      .ColorScheme-ViewFocus{
        color:#3daee9;
      }
      .ColorScheme-ButtonText {
        color:#31363b;
      }
      .ColorScheme-ButtonBackground{
        color:#eff0f1;
      }
      .ColorScheme-ButtonHover {
        color:#3daee9;
      }
      .ColorScheme-ButtonFocus{
        color:#3daee9;
      }</style>
  </defs>
  <sodipodi:namedview
     id="base"
     pagecolor="#ffffff"
     bordercolor="#666666"
     borderopacity="1.0"
     inkscape:pageopacity="0.0"
     inkscape:pageshadow="2"
     inkscape:zoom="1.335"
     inkscape:cx="346.06064"
     inkscape:cy="43.537641"
     inkscape:document-units="px"
     inkscape:current-layer="layer1"
     showgrid="false"
     inkscape:window-width="1920"
     inkscape:window-height="1140"
     inkscape:window-x="1920"
     inkscape:window-y="0"
     inkscape:window-maximized="1">
    <inkscape:grid
       type="xygrid"
       id="grid3011"
       empspacing="5"
       visible="true"
       enabled="true"
       snapvisiblegridlinesonly="true" />
  </sodipodi:namedview>
  <metadata
     id="metadata5053">
    <rdf:RDF>
      <cc:Work
         rdf:about="">
        <dc:format>image/svg+xml</dc:format>
        <dc:type
           rdf:resource="http://purl.org/dc/dcmitype/StillImage" />
        <dc:title />
      </cc:Work>
    </rdf:RDF>
  </metadata>
  <g
     inkscape:label="Layer 1"
     inkscape:groupmode="layer"
     id="layer1"
     transform="translate(0,-796.3622)">
    <rect
       style="fill:#8b9299;fill-opacity:0;stroke:none"
       id="rect3024"
       width="20"
       height="60"
       x="864"
       y="543"
       transform="translate(0,52.36218)"
       ry="10" />
    <g
       id="g4713">
      <rect
         y="796.36188"
         x="0"
         height="256"
         width="256"
         id="rect3861"
         style="opacity:0;fill:#ffffff;fill-opacity:1;stroke:none;stroke-width:4" />
      <g
         style="fill:#ffcb08;fill-opacity:1"
         transform="translate(-4.59483e-4,-1.7495)"
         id="g4602">
        <g
           id="g5082"
           transform="matrix(1.299829,0,0,1.299829,-259.34594,577.67633)"
           style="fill:#ffcb08;fill-opacity:1">
          <polygon
             style="fill:#ffcb08;fill-opacity:1"
             ns2:knockout="Off"
             points="202.927,198.549 225.85,234.284 248.776,190.457 218.433,178.322 "
             id="polygon5084" />
          <polygon
             style="fill:#ffcb08;fill-opacity:1"
             ns2:knockout="Off"
             points="393.074,198.549 370.148,234.284 347.224,190.457 377.565,178.322 "
             id="polygon5086" />
        </g>
        <path
           inkscape:connector-curvature="0"
           style="fill:#ffcb08;fill-opacity:1;stroke-width:1.29982901"
           ns2:knockout="Off"
           d="m 219.01323,895.98495 -30.65777,-58.35192 c -1.14125,-2.15642 -4.67808,-4.92245 -7.02167,-5.48008 l -0.56933,-0.14038 -46.12313,-10.97706 c -3.18198,-0.7604 -8.99092,-0.77339 -12.1794,-0.0247 l -47.221487,11.04205 -0.587522,0.13778 c -2.335793,0.54463 -5.860929,3.28986 -6.99438,5.44108 l -30.659067,58.35192 -4.245241,8.06674 c -1.342724,2.55807 -2.166815,7.69759 -1.688478,10.55851 l 8.519079,51.20417 c 0.288562,1.74307 2.370888,4.02947 4.052867,4.45451 l 23.198048,5.85573 c -0.570625,-2.2799 4.689783,-4.65599 4.681984,-6.90599 L 83.329279,943.469 c 0.0078,0.44584 -0.0312,0.90598 -0.119584,1.36222 l -4.428518,22.91208 c -0.480936,2.50348 0.487436,6.99178 1.949744,9.06631 l 2.451477,3.45235 11.524284,16.26086 16.921178,23.89608 c 1.29853,1.8262 4.87695,3.6928 7.09576,3.6928 h 18.56416 c 2.21751,0 5.79464,-1.8666 7.08667,-3.6928 l 16.76519,-23.66211 11.56588,-16.32066 2.56586,-3.62652 c 1.46621,-2.07453 2.43198,-6.56283 1.94975,-9.06631 l -4.42592,-22.91208 c -0.0806,-0.45624 -0.12348,-0.91638 -0.11699,-1.35442 l 11.81025,25.74571 c -0.004,2.2773 5.24611,4.68588 4.66249,7.00868 l 23.20714,-5.94282 c 1.68458,-0.43024 3.77211,-2.72704 4.05937,-4.47531 l 8.52298,-51.20417 c 0.48224,-2.86092 -0.34056,-8.00044 -1.68718,-10.55851 z"
           id="path5088" />
      </g>
      <path
         transform="translate(0,796.3622)"
         id="path5090"
         d="M 26.386719 7.9472656 C 22.372847 7.6521956 12.098191 16.206757 8.6523438 20.554688 C 5.1973983 24.896117 1.3741762 31.42818 0.1484375 35.0625 C -1.0773013 38.69812 5.5709272 53.022247 10.429688 60.216797 L 20.361328 74.945312 C 25.21229 82.139863 27.886559 90.456965 26.292969 93.421875 C 24.703278 96.398485 22.530043 101.68574 21.458984 105.17578 C 20.386625 108.67232 21.625557 123.99922 23.072266 132.55859 L 26.173828 150.82812 C 27.623137 159.3862 30.347656 169.25151 32.224609 172.75195 C 34.106762 176.25499 48.992484 182.43786 57.421875 184.52539 L 61.193359 185.46094 C 61.799605 185.61133 62.422438 185.79597 63.052734 186 C 50.577943 192.76585 38.867945 200.88104 28.648438 210.04102 C 27.135437 211.39552 29.022984 213.47213 30.638672 212.39062 C 34.224982 209.99259 37.773698 207.56173 41.320312 205.13477 L 71.076172 189.63867 C 73.205842 190.8551 75.30072 192.24679 77.267578 193.74023 C 76.951437 193.99855 76.625974 194.24976 76.3125 194.50977 C 66.591079 202.57391 57.330909 212.30991 50.302734 222.81641 C 49.491641 224.02921 51.137332 225.66678 52.242188 224.58398 C 54.325444 222.54237 56.384764 220.40774 58.443359 218.22852 L 83.453125 199.28906 C 84.302718 200.21209 85.074027 201.13927 85.738281 202.06055 L 86.873047 203.63086 C 85.345554 205.19464 83.852165 206.79558 82.408203 208.43945 C 73.649956 218.41045 65.965175 230.08219 60.525391 242.18359 C 59.896274 243.58479 61.998867 244.59954 62.847656 243.40234 C 64.479917 241.10005 66.07913 238.71612 67.673828 236.29297 L 91.765625 210.39844 L 92.546875 211.48047 C 97.620107 218.52297 104.24157 226.2509 107.25977 228.6582 C 110.26628 231.0642 122.99047 233.0332 128.00391 233.0332 C 133.02645 233.0332 140.16074 232.18499 143.87695 231.15039 C 147.58927 230.11699 158.3838 218.52427 163.45703 211.48047 L 164.23828 210.39844 L 188.39062 236.35742 C 189.99193 238.79403 191.5982 241.18946 193.23438 243.5 C 194.12606 244.7583 196.03087 243.40247 195.43555 242.07617 C 190.21414 230.44917 182.80693 219.56889 174.7168 209.74219 C 172.97399 207.62561 171.13186 205.53885 169.19141 203.53711 L 170.15234 202.20703 C 170.84962 201.24134 171.66858 200.26863 172.56836 199.30078 L 197.55664 218.22656 C 199.5668 220.35378 201.57851 222.43678 203.61133 224.42969 C 204.84096 225.63599 206.57323 224.13165 205.62695 222.71875 C 198.50779 212.09135 189.2384 202.70628 179.54688 194.39648 C 179.29676 194.18201 179.0319 193.97858 178.7793 193.76562 C 180.75522 192.27275 182.85679 190.88463 184.99023 189.67188 L 214.81055 205.20312 C 218.34876 207.64181 221.88756 210.08344 225.46875 212.47656 C 227.16503 213.61006 228.67914 211.24588 227.23633 209.95508 C 217.09145 200.8706 205.44181 192.79048 193.0332 186.04492 C 193.59518 185.86564 194.14884 185.70459 194.69141 185.56836 L 198.61719 184.58203 C 207.03488 182.46721 216.66205 178.98456 220.00391 176.84375 C 223.34837 174.70033 228.38273 159.38424 229.83594 150.82617 L 232.93359 132.5625 C 234.379 123.99923 235.48617 114.01254 235.39258 110.35352 C 235.30028 106.7036 231.30518 96.398485 229.71289 93.421875 C 228.1245 90.455665 230.79682 82.137909 235.64648 74.943359 L 245.57617 60.214844 C 250.42974 53.022894 257.0786 38.700067 255.85156 35.060547 C 254.63232 31.424927 250.79742 24.899361 247.35547 20.556641 C 243.90572 16.208711 238.29161 11.063044 234.88086 9.1210938 C 231.46751 7.1713537 215.86326 11.435302 207.9707 15.044922 L 202.20898 17.675781 C 194.31642 21.288001 187.74781 24.295022 187.61523 24.357422 C 187.48655 24.425022 186.55995 24.358207 185.83984 24.060547 C 185.11714 23.749887 176.33429 21.588368 167.87891 19.611328 L 152.74219 16.074219 C 144.2842 14.097179 134.53696 12.212969 131.07422 11.886719 C 127.60887 11.557859 112.83039 14.032006 104.375 15.972656 L 88.169922 19.697266 C 79.709335 21.636606 72.197987 23.401417 71.488281 23.617188 C 70.770775 23.827768 68.775807 24.557165 68.640625 24.484375 C 68.506742 24.407675 61.684884 21.286048 53.794922 17.673828 L 48.041016 15.044922 C 40.141955 11.435302 30.400591 8.2423256 26.386719 7.9472656 z M 229.14648 19.8125 C 230.04466 19.793 234.11731 23.986695 237.56836 28.328125 C 241.01031 32.673455 244.11517 36.843763 244.44922 37.601562 L 244.44922 38.431641 L 244.44922 39.095703 C 244.22305 39.671523 240.50033 45.385443 236.1875 51.783203 C 231.87467 58.187463 216.80084 69.308334 212.70898 61.652344 L 205.76172 48.681641 C 201.66076 41.024341 198.20812 34.578386 198.08203 34.353516 C 197.94815 34.129946 204.04169 30.586846 211.93555 26.978516 L 213.16406 26.412109 C 221.05402 22.810279 228.24829 19.8398 229.14648 19.8125 z M 26.154297 19.820312 C 27.652582 19.927608 35.441301 23.035394 42.841797 26.412109 L 44.074219 26.978516 C 51.968081 30.586846 58.310956 33.722396 58.171875 33.947266 C 58.030193 34.172146 54.340556 41.024341 50.246094 48.681641 L 43.302734 61.652344 C 39.208272 69.308334 24.134437 58.187463 19.816406 51.783203 C 15.497074 45.385443 11.784764 39.671523 11.558594 39.095703 L 11.558594 38.431641 L 11.558594 37.601562 C 11.89005 36.843763 14.990354 32.673455 18.4375 28.328125 C 21.892446 23.986695 25.266795 20.168704 25.941406 19.839844 C 25.983407 19.819534 26.054411 19.813159 26.154297 19.820312 z M 126.97461 24.275391 C 129.40659 24.081711 141.43784 26.273607 149.89453 28.248047 L 164.4707 31.652344 C 172.92479 33.629384 179.96901 35.277416 180.12109 35.316406 C 180.27577 35.348906 181.70197 36.100479 183.28906 36.980469 C 184.87875 37.861749 190.64447 46.925382 194.74023 54.576172 L 209.96875 83.027344 C 214.06061 90.679434 218.35745 98.695128 219.5 100.83594 C 220.64644 102.97156 222.98388 108.93533 223.07227 111.06055 C 223.16717 113.17667 222.05413 121.91263 220.60742 130.47461 L 217.50391 148.74609 C 216.0572 157.30027 214.34718 165.18545 213.69727 166.25781 C 213.06295 167.32887 205.75279 169.90769 199.48242 171.48438 C 193.20424 173.06106 188.28101 173.32075 188.52148 172.07031 C 188.76195 170.81078 185.12338 161.99857 180.43359 155.16797 C 175.73601 148.34257 171.89975 142.95158 171.90625 143.18945 C 171.91325 143.42602 172.98254 149.03396 174.18359 155.10938 C 175.38073 161.19256 176.25368 167.6842 176.125 169.53906 C 175.99242 171.39521 173.8738 175.69178 173.18359 176.65625 C 173.18219 176.65819 173.17134 176.67382 173.16992 176.67578 C 165.15753 173.44956 157.00063 170.78886 148.85742 168.81836 C 146.63211 168.27893 145.31386 171.54481 147.59766 172.22852 C 151.00463 173.24938 154.37719 174.3287 157.72266 175.46875 L 169.58008 181.64453 C 168.61145 182.98596 168.12579 183.65907 166.95312 185.28125 C 161.02207 181.84549 154.58733 179.40237 147.67969 178.875 C 145.75335 178.72682 145.54293 181.4973 147.40039 181.81836 C 148.37442 181.98675 149.32833 182.19456 150.27344 182.41797 L 162.39453 191.59766 C 161.52692 192.80009 160.66935 193.98849 159.70312 195.32812 C 155.53265 192.40821 150.97836 190.10717 145.98047 188.83789 C 144.17111 188.37775 143.12166 190.95622 144.95312 191.61133 C 145.93273 191.96184 146.8837 192.35064 147.82227 192.75586 L 155.55859 201.07031 C 154.37834 202.7062 153.3752 204.09804 152.32031 205.55859 C 151.33244 206.92778 150.33885 208.2592 149.36523 209.54883 C 149.18842 209.41348 149.02546 209.26528 148.83984 209.13867 L 137.35352 201.30273 C 133.90378 198.94874 131.08857 196.94711 131.10156 196.85352 C 131.11196 196.76512 131.12695 193.09041 131.12695 188.91406 L 131.12695 177.28906 C 131.2179 177.13274 131.31032 176.97689 131.39648 176.80469 L 150.06055 155.58398 C 151.92061 151.85347 150.03182 148.79297 145.85938 148.79297 L 110.14258 148.79297 C 105.96363 148.79297 104.08071 151.85347 105.94336 155.58398 L 124.60938 176.80469 C 124.69615 176.97764 124.78733 177.13409 124.87891 177.29102 L 124.87891 188.91406 C 124.87891 193.09041 124.88693 196.58676 124.89062 196.68555 C 124.89963 196.77655 122.10665 198.94874 118.6543 201.30273 L 107.16602 209.13867 C 106.99174 209.25763 106.83844 209.39674 106.67188 209.52344 C 105.61163 208.16741 104.56225 206.78898 103.5957 205.44922 C 102.56273 204.01792 101.59299 202.66995 100.44141 201.07422 L 108.17969 192.75586 C 109.15684 192.33181 110.1479 191.92585 111.16992 191.56055 C 112.74011 190.99902 111.88719 188.35943 110.2793 188.76758 C 105.11295 190.07912 100.52107 192.41834 96.333984 195.38086 C 95.350981 194.01848 94.488809 192.82418 93.605469 191.59961 L 105.70703 182.43359 C 106.69729 182.19681 107.69865 181.97958 108.7207 181.80273 C 110.63405 181.47258 110.07228 178.74635 108.20703 178.89062 C 101.27104 179.42162 94.939942 181.89272 89.078125 185.32422 C 87.880632 183.66559 87.414721 183.0223 86.421875 181.64648 L 98.419922 175.39844 C 101.62255 174.31661 104.84679 173.28754 108.0957 172.31445 C 110.28721 171.65804 109.78114 168.1722 107.46484 168.73242 C 99.208231 170.72941 90.947012 173.41972 82.837891 176.68359 C 82.829511 176.67209 82.765551 176.58483 82.757812 176.57422 C 82.102699 175.65784 81.020995 173.48201 80.363281 171.74414 C 79.709467 170.00237 80.62707 161.19257 81.820312 155.10938 C 83.018755 149.03396 84.022846 143.8648 84.056641 143.61914 C 84.091741 143.37607 80.272454 148.33997 75.576172 155.16797 C 70.87859 161.99987 67.110824 168.58871 67.195312 169.81445 C 67.275903 171.04149 62.774942 172.97776 56.509766 171.42188 C 50.24589 169.86857 44.284045 168.00527 43.267578 167.28906 C 42.252412 166.57286 39.94735 157.30223 38.494141 148.74805 L 35.398438 130.47656 C 33.947828 121.91458 32.840006 113.17667 32.933594 111.06055 C 33.028484 108.93533 35.360717 102.97351 36.509766 100.83789 C 37.651015 98.698381 41.943301 90.682687 46.039062 83.029297 L 61.267578 54.578125 C 65.36074 46.928635 69.740466 39.606464 71 38.302734 C 72.260834 37.002904 75.718373 35.384056 75.876953 35.347656 C 76.040731 35.311256 83.086941 33.690003 91.548828 31.751953 L 107.17773 28.160156 C 115.63182 26.216906 124.54393 24.470361 126.97461 24.275391 z M 105.57422 37.091797 C 103.52662 37.255397 101.14307 40.030436 99.923828 43.876953 C 98.521313 48.274273 99.173073 52.399009 101.36719 53.099609 C 103.5678 53.798919 106.48094 50.799017 107.88086 46.404297 C 109.27428 42.016067 108.62379 37.883557 106.42578 37.185547 C 106.15135 37.097808 105.86673 37.068425 105.57422 37.091797 z M 79.089844 38.591797 A 8.3514013 10.437627 0 0 0 70.738281 49.029297 A 8.3514013 10.437627 0 0 0 79.089844 59.466797 A 8.3514013 10.437627 0 0 0 87.441406 49.029297 A 8.3514013 10.437627 0 0 0 79.089844 38.591797 z M 69.226562 62.123047 C 65.380368 62.123047 62.265625 65.237788 62.265625 69.080078 C 62.265625 72.926278 65.380369 76.039062 69.226562 76.039062 C 73.064958 76.039062 76.179688 72.926278 76.179688 69.080078 C 76.179688 65.237788 73.064958 62.124047 69.226562 62.123047 z M 92.496094 67.050781 C 89.805448 67.050781 87.626953 68.918709 87.626953 71.224609 C 87.626953 73.535709 89.806748 75.402344 92.496094 75.402344 C 95.191939 75.402344 97.369141 73.535709 97.369141 71.224609 C 97.369141 68.918709 95.191939 67.050781 92.496094 67.050781 z M 110.49414 98.074219 C 108.92654 98.119719 103.97595 98.255423 99.494141 98.382812 L 61.5625 99.449219 C 57.07419 99.579199 57.038954 100.20032 61.480469 100.83594 L 84.792969 104.16406 A 5.1655202 5.1655202 0 0 0 84.708984 105.07812 A 5.1655202 5.1655202 0 0 0 89.873047 110.24414 A 5.1655202 5.1655202 0 0 0 95.009766 105.62305 L 98.730469 106.1543 C 103.16679 106.78991 106.46022 110.95825 106.04297 115.41797 L 101.28906 132.04297 C 100.88741 136.50268 102.28038 140.27957 104.4043 140.43555 C 106.52822 140.59152 108.27606 140.57065 108.28906 140.38867 C 108.29506 140.2106 108.47102 136.40174 108.6582 131.92383 L 112.54883 116.32031 C 112.7438 111.8411 112.99826 105.88577 113.11914 103.08594 C 113.24782 100.28611 112.06173 98.027419 110.49414 98.074219 z M 145.52148 98.076172 C 143.94608 98.029372 142.75933 100.28806 142.87891 103.08789 C 142.9998 105.88772 143.2627 111.84306 143.45508 116.32227 L 147.33984 131.92578 C 147.53481 136.40239 147.70381 140.21126 147.72461 140.39062 C 147.73261 140.5726 149.47894 140.59217 151.60156 140.4375 C 153.72678 140.28282 155.12492 136.50593 154.70898 132.04492 L 149.96094 115.41992 C 149.5489 110.9602 152.84167 106.79186 157.27539 106.15625 L 160.98828 105.625 C 161.26081 108.2257 163.45556 110.24805 166.13281 110.24805 C 168.98333 110.24805 171.30469 107.93645 171.30469 105.07812 C 171.30469 104.76557 171.27407 104.46133 171.2207 104.16406 L 194.52539 100.83594 C 198.95911 100.20033 198.93168 99.579199 194.44336 99.449219 L 156.51562 98.384766 C 152.03251 98.257376 147.07997 98.121662 145.52148 98.076172 z M 206.65039 125.51172 C 204.50888 125.60665 202.33454 128.86361 201.66797 133.13477 C 200.95826 137.69197 202.2253 141.67834 204.5 142.0332 C 206.7864 142.38675 209.20176 138.98233 209.92188 134.42773 C 210.63157 129.87053 209.36452 125.88741 207.07812 125.53516 C 206.93612 125.51273 206.79316 125.50539 206.65039 125.51172 z M 192.33203 141.58008 C 190.83652 141.67266 189.50426 142.43029 188.86328 143.71875 C 187.83121 145.78288 188.9508 148.43046 191.35547 149.62891 C 193.76535 150.83125 196.55516 150.13119 197.57812 148.06836 C 198.61279 146.00423 197.49256 143.3586 195.08789 142.16016 C 194.18564 141.70879 193.22934 141.52453 192.33203 141.58008 z M 206.0293 147.06055 C 203.56295 147.14544 201.21776 148.54666 200.03906 150.91211 C 198.32458 154.35145 199.71822 158.52642 203.16016 160.24219 C 206.59951 161.95926 210.77575 160.56305 212.49023 157.125 C 214.206 153.68175 212.80459 149.49964 209.36914 147.79297 C 208.29556 147.25476 207.15036 147.02196 206.0293 147.06055 z M 128.00195 201.0918 C 128.00695 201.0918 130.52293 203.3988 133.60742 206.2168 L 144.27539 215.9668 C 143.12948 217.32044 142.15226 218.4128 141.69141 218.75391 C 140.37208 219.73011 133.02254 220.53516 128 220.53516 C 122.98786 220.53516 117.59884 220.12866 116.03125 219.63086 C 115.36347 219.41881 113.80494 217.91024 111.90625 215.80273 L 122.39844 206.2168 C 125.48293 203.3988 128.00195 201.0918 128.00195 201.0918 z "
         style="fill:#1c1c1c;fill-opacity:1;stroke-width:1.29982901" />
    </g>
    <g
       aria-label="pardus"
       style="font-style:normal;font-variant:normal;font-weight:normal;font-stretch:normal;font-size:66.66666412px;line-height:25px;font-family:Pardus;-inkscape-font-specification:Pardus;letter-spacing:0px;word-spacing:0px;fill:#1c1c1c;fill-opacity:1;stroke:none;stroke-width:1px;stroke-linecap:butt;stroke-linejoin:miter;stroke-opacity:1"
       id="text4577"
       transform="matrix(2.5999899,0,0,2.6,133.32697,-1887.5799)">
      <path
         d="m 69.438205,1093.7854 c 0,2.3333 -0.8,4.2667 -2.4,5.8667 -1.666667,1.6666 -3.6,2.4666 -5.933333,2.4666 0,0 -1.666667,0 -1.666667,0 -1.133333,0 -1.666666,0.5334 -1.666666,1.6667 0,0 0,6.6667 0,6.6667 0,0.9333 -0.333334,1.7333 -0.933334,2.3333 -0.666666,0.6667 -1.466666,1 -2.399999,1 0,0 -1.666667,0 -1.666667,0 -0.933333,0 -1.733333,-0.3333 -2.333333,-1 -0.666667,-0.6 -1,-1.4 -1,-2.3333 0,0 0,-38.3334 0,-38.3334 0,-2.3333 0.8,-4.2666 2.466666,-5.9333 1.6,-1.6 3.533333,-2.4 5.866667,-2.4 0,0 3.333333,0 3.333333,0 2.333333,0 4.266666,0.8 5.933333,2.4 1.6,1.6667 2.4,3.6 2.4,5.9333 0,0 0,21.6667 0,21.6667 z m -8.333333,-1.6667 c 0,0 0,-18.3333 0,-18.3333 0,-1.1333 -0.533333,-1.6667 -1.666667,-1.6667 -1.133333,0 -1.666666,0.5334 -1.666666,1.6667 0,0 0,18.3333 0,18.3333 0,1.1334 0.533333,1.6667 1.666666,1.6667 1.133334,0 1.666667,-0.5333 1.666667,-1.6667 z"
         id="path4579"
         inkscape:connector-curvature="0"
         style="fill:#1c1c1c;fill-opacity:1" />
      <path
         d="m 92.745496,1105.4521 c 0,2.3333 -0.8,4.2666 -2.4,5.8666 -1.666667,1.6667 -3.6,2.4667 -5.933333,2.4667 0,0 -3.333333,0 -3.333333,0 -2.333333,0 -4.266667,-0.8 -5.866667,-2.4667 -1.666666,-1.6 -2.466666,-3.5333 -2.466666,-5.8666 0,0 0,-3.3334 0,-3.3334 0,-2.3333 0.8,-4.2666 2.466666,-5.9333 1.6,-1.6 3.533334,-2.4 5.866667,-2.4 0,0 1.666666,0 1.666666,0 1.133334,0 1.666667,-0.5333 1.666667,-1.6667 0,0 0,-18.3333 0,-18.3333 0,-1.1333 -0.533333,-1.6667 -1.666667,-1.6667 -1.133333,0 -1.666666,0.5334 -1.666666,1.6667 0,0 0,13.3333 0,13.3333 0,0.9334 -0.333334,1.7334 -0.933334,2.3334 -0.666666,0.6666 -1.466666,1 -2.399999,1 0,0 -1.666667,0 -1.666667,0 -0.933333,0 -1.733333,-0.3334 -2.333333,-1 -0.666667,-0.6 -1,-1.4 -1,-2.3334 0,0 0,-15 0,-15 0,-2.3333 0.8,-4.2666 2.466666,-5.9333 1.6,-1.6 3.533334,-2.4 5.866667,-2.4 0,0 3.333333,0 3.333333,0 2.333333,0 4.266666,0.8 5.933333,2.4 1.6,1.6667 2.4,3.6 2.4,5.9333 0,0 0,33.3334 0,33.3334 z m -8.333333,-1.6667 c 0,-1.1333 -0.533333,-1.6667 -1.666667,-1.6667 -1.133333,0 -1.666666,0.5334 -1.666666,1.6667 0,1.1333 0.533333,1.6667 1.666666,1.6667 1.133334,0 1.666667,-0.5334 1.666667,-1.6667 z"
         id="path4581"
         inkscape:connector-curvature="0"
         style="fill:#1c1c1c;fill-opacity:1" />
      <path
         d="m 116.05279,1087.1187 c 0,0.9334 -0.33334,1.7334 -0.93334,2.3334 -0.66666,0.6666 -1.46666,1 -2.4,1 0,0 -1.66666,0 -1.66666,0 -0.93334,0 -1.73334,-0.3334 -2.33334,-1 -0.66666,-0.6 -1,-1.4 -1,-2.3334 0,0 0,-13.3333 0,-13.3333 0,-1.1333 -0.53333,-1.6667 -1.66666,-1.6667 -1.13334,0 -1.66667,0.5334 -1.66667,1.6667 0,0 0,36.6667 0,36.6667 0,0.9333 -0.33333,1.7333 -0.93333,2.3333 -0.66667,0.6667 -1.46667,1 -2.4,1 0,0 -1.666669,0 -1.666669,0 -0.933333,0 -1.733333,-0.3333 -2.333333,-1 -0.666667,-0.6 -1,-1.4 -1,-2.3333 0,0 0,-38.3334 0,-38.3334 0,-2.3333 0.8,-4.2666 2.466666,-5.9333 1.599996,-1.6 3.533336,-2.4 5.866666,-2.4 0,0 3.33333,0 3.33333,0 2.33334,0 4.26667,0.8 5.93334,2.4 1.6,1.6667 2.4,3.6 2.4,5.9333 0,0 0,15 0,15 z"
         id="path4583"
         inkscape:connector-curvature="0"
         style="fill:#1c1c1c;fill-opacity:1" />
      <path
         d="m 139.36008,1105.4521 c 0,2.3333 -0.8,4.2666 -2.4,5.8666 -1.66667,1.6667 -3.6,2.4667 -5.93333,2.4667 0,0 -8.33334,0 -8.33334,0 -0.93333,0 -1.73333,-0.3333 -2.33333,-1 -0.66667,-0.6 -1,-1.4 -1,-2.3333 0,0 0,-43.3334 0,-43.3334 0,-0.9333 0.33333,-1.7333 1,-2.4 0.6,-0.6 1.4,-0.9333 2.33333,-0.9333 0,0 8.33334,0 8.33334,0 2.33333,0 4.26666,0.8 5.93333,2.4 1.6,1.6667 2.4,3.6 2.4,5.9333 0,0 0,33.3334 0,33.3334 z m -8.33333,-1.6667 c 0,0 0,-30 0,-30 0,-1.1333 -0.53334,-1.6667 -1.66667,-1.6667 -1.13333,0 -1.66667,0.5334 -1.66667,1.6667 0,0 0,30 0,30 0,1.1333 0.53334,1.6667 1.66667,1.6667 1.13333,0 1.66667,-0.5334 1.66667,-1.6667 z"
         id="path4585"
         inkscape:connector-curvature="0"
         style="fill:#1c1c1c;fill-opacity:1" />
      <path
         d="m 162.66737,1105.4521 c 0,2.3333 -0.8,4.2666 -2.4,5.8666 -1.66667,1.6667 -3.6,2.4667 -5.93333,2.4667 0,0 -3.33334,0 -3.33334,0 -2.33333,0 -4.26666,-0.8 -5.86666,-2.4667 -1.66667,-1.6 -2.46667,-3.5333 -2.46667,-5.8666 0,0 0,-38.3334 0,-38.3334 0,-0.9333 0.33333,-1.7333 1,-2.4 0.6,-0.6 1.4,-0.9333 2.33333,-0.9333 0,0 1.66667,0 1.66667,0 0.93333,0 1.73333,0.3333 2.4,0.9333 0.6,0.6667 0.93333,1.4667 0.93333,2.4 0,0 0,36.6667 0,36.6667 0,1.1333 0.53334,1.6667 1.66667,1.6667 1.13333,0 1.66667,-0.5334 1.66667,-1.6667 0,0 0,-36.6667 0,-36.6667 0,-0.9333 0.33333,-1.7333 1,-2.4 0.6,-0.6 1.4,-0.9333 2.33333,-0.9333 0,0 1.66667,0 1.66667,0 0.93333,0 1.73333,0.3333 2.4,0.9333 0.6,0.6667 0.93333,1.4667 0.93333,2.4 0,0 0,38.3334 0,38.3334 z"
         id="path4587"
         inkscape:connector-curvature="0"
         style="fill:#1c1c1c;fill-opacity:1" />
      <path
         d="m 185.97466,1105.4521 c 0,2.3333 -0.8,4.2666 -2.4,5.8666 -1.66667,1.6667 -3.6,2.4667 -5.93333,2.4667 0,0 -8.33334,0 -8.33334,0 -0.93333,0 -1.73333,-0.3333 -2.33333,-1 -0.66667,-0.6 -1,-1.4 -1,-2.3333 0,0 0,-1.6667 0,-1.6667 0,-0.9333 0.33333,-1.7333 1,-2.4 0.6,-0.6 1.4,-0.9333 2.33333,-0.9333 0,0 6.66667,0 6.66667,0 1.13333,0 1.66667,-0.5334 1.66667,-1.6667 0,-1.1333 -0.53334,-1.6667 -1.66667,-1.6667 0,0 -1.66667,0 -1.66667,0 -2.33333,0 -4.26666,-0.8 -5.86666,-2.4666 -1.66667,-1.6 -2.46667,-3.5334 -2.46667,-5.8667 0,0 0,-21.6667 0,-21.6667 0,-2.3333 0.8,-4.2666 2.46667,-5.9333 1.6,-1.6 3.53333,-2.4 5.86666,-2.4 0,0 3.33334,0 3.33334,0 2.33333,0 4.26666,0.8 5.93333,2.4 1.6,1.6667 2.4,3.6 2.4,5.9333 0,0 0,15 0,15 0,0.9334 -0.33334,1.7334 -0.93334,2.3334 -0.66666,0.6666 -1.46666,1 -2.4,1 0,0 -1.66666,0 -1.66666,0 -0.93333,0 -1.73333,-0.3334 -2.33333,-1 -0.66667,-0.6 -1,-1.4 -1,-2.3334 0,0 0,-13.3333 0,-13.3333 0,-1.1333 -0.53334,-1.6667 -1.66667,-1.6667 -1.13333,0 -1.66667,0.5334 -1.66667,1.6667 0,0 0,18.3333 0,18.3333 0,1.1334 0.53334,1.6667 1.66667,1.6667 0,0 1.66667,0 1.66667,0 2.33333,0 4.26666,0.8 5.93333,2.4 1.6,1.6667 2.4,3.6 2.4,5.9333 0,0 0,3.3334 0,3.3334 z m -39.46667,-28.8667 c 0,0 0,0 0,0 z"
         id="path4589"
         inkscape:connector-curvature="0"
         style="fill:#1c1c1c;fill-opacity:1" />
    </g>
    <g
       aria-label="19"
       style="font-style:normal;font-variant:normal;font-weight:normal;font-stretch:normal;font-size:66.66666412px;line-height:25px;font-family:Pardus;-inkscape-font-specification:Pardus;letter-spacing:0px;word-spacing:0px;fill:#ffcb08;fill-opacity:1;stroke:none;stroke-width:1px;stroke-linecap:butt;stroke-linejoin:miter;stroke-opacity:1"
       id="text4842"
       transform="matrix(1.4,0,0,1.4,797.90262,-332.40556)">
      <path
         d="m -110.01873,863.26109 c 0,0.93333 -0.33333,1.73333 -0.93333,2.33333 -0.66667,0.66667 -1.46667,1 -2.4,1 0,0 -1.66667,0 -1.66667,0 -0.93333,0 -1.73333,-0.33333 -2.33333,-1 -0.66667,-0.6 -1,-1.4 -1,-2.33333 0,0 0,-43.33333 0,-43.33333 0,-0.93334 0.33333,-1.73334 1,-2.4 0.6,-0.6 1.4,-0.93334 2.33333,-0.93334 0,0 1.66667,0 1.66667,0 0.93333,0 1.73333,0.33334 2.4,0.93334 0.6,0.66666 0.93333,1.46666 0.93333,2.4 0,0 0,43.33333 0,43.33333 z"
         id="path4844"
         inkscape:connector-curvature="0"
         style="fill:#ffcb08;fill-opacity:1" />
      <path
         d="m -86.633309,863.26109 c 0,0.93333 -0.333333,1.73333 -0.933333,2.33333 -0.666667,0.66667 -1.466667,1 -2.4,1 0,0 -1.666667,0 -1.666667,0 -0.933333,0 -1.733333,-0.33333 -2.333333,-1 -0.666667,-0.6 -1,-1.4 -1,-2.33333 0,0 0,-6.66667 0,-6.66667 0,-1.13333 -0.533334,-1.66666 -1.666667,-1.66666 0,0 -1.666666,0 -1.666666,0 -2.333335,0 -4.266665,-0.8 -5.866665,-2.46667 -1.66667,-1.6 -2.46667,-3.53333 -2.46667,-5.86667 0,0 0,-21.66666 0,-21.66666 0,-2.33334 0.8,-4.26667 2.46667,-5.93334 1.6,-1.6 3.53333,-2.4 5.866665,-2.4 0,0 3.333333,0 3.333333,0 2.333333,0 4.266666,0.8 5.933333,2.4 1.6,1.66667 2.4,3.6 2.4,5.93334 0,0 0,38.33333 0,38.33333 z m -8.333333,-18.33333 c 0,0 0,-18.33334 0,-18.33334 0,-1.13333 -0.533334,-1.66666 -1.666667,-1.66666 -1.133333,0 -1.666666,0.53333 -1.666666,1.66666 0,0 0,18.33334 0,18.33334 0,1.13333 0.533333,1.66666 1.666666,1.66666 1.133333,0 1.666667,-0.53333 1.666667,-1.66666 z"
         id="path4846"
         inkscape:connector-curvature="0"
         style="fill:#ffcb08;fill-opacity:1" />
    </g>
  </g>
</svg>
