<?xml version="1.0" encoding="UTF-8" standalone="no"?>
<!-- Created with Inkscape (http://www.inkscape.org/) -->

<svg
   xmlns:i="http://ns.adobe.com/AdobeIllustrator/10.0/"
   xmlns:dc="http://purl.org/dc/elements/1.1/"
   xmlns:cc="http://creativecommons.org/ns#"
   xmlns:rdf="http://www.w3.org/1999/02/22-rdf-syntax-ns#"
   xmlns:svg="http://www.w3.org/2000/svg"
   xmlns="http://www.w3.org/2000/svg"
   xmlns:sodipodi="http://sodipodi.sourceforge.net/DTD/sodipodi-0.dtd"
   xmlns:inkscape="http://www.inkscape.org/namespaces/inkscape"
   width="1920"
   height="1080"
   viewBox="0 0 1920 1080"
   id="svg3403"
   version="1.1"
   inkscape:version="0.91 r13725"
   sodipodi:docname="grubHD.svg">
  <defs
     id="defs3405">
    <filter
       inkscape:collect="always"
       style="color-interpolation-filters:sRGB"
       id="filter8457"
       x="-0.015754199"
       width="1.0315084"
       y="-0.034343667"
       height="1.0686873">
      <feGaussianBlur
         inkscape:collect="always"
         stdDeviation="4.8517078"
         id="feGaussianBlur8459" />
    </filter>
  </defs>
  <sodipodi:namedview
     id="base"
     pagecolor="#ffffff"
     bordercolor="#666666"
     borderopacity="1.0"
     inkscape:pageopacity="0.0"
     inkscape:pageshadow="2"
     inkscape:zoom="0.35"
     inkscape:cx="1033.5714"
     inkscape:cy="620"
     inkscape:document-units="px"
     inkscape:current-layer="layer1"
     showgrid="false"
     units="px"
     inkscape:window-width="1920"
     inkscape:window-height="1171"
     inkscape:window-x="1920"
     inkscape:window-y="0"
     inkscape:window-maximized="1" />
  <metadata
     id="metadata3408">
    <rdf:RDF>
      <cc:Work
         rdf:about="">
        <dc:format>image/svg+xml</dc:format>
        <dc:type
           rdf:resource="http://purl.org/dc/dcmitype/StillImage" />
        <dc:title></dc:title>
      </cc:Work>
    </rdf:RDF>
  </metadata>
  <g
     inkscape:label="Layer 1"
     inkscape:groupmode="layer"
     id="layer1"
     transform="translate(0,27.637839)">
    <g
       id="g3700"
       inkscape:export-xdpi="90"
       inkscape:export-ydpi="90">
      <rect
         style="fill:#1a1a1a;fill-opacity:1;stroke:none"
         id="rect5851"
         width="1920"
         height="1080"
         x="0"
         y="-27.637838" />
      <rect
         transform="matrix(2.4538425,0,0,2.3415377,236.71643,-1097.7548)"
         style="opacity:0.55899999;fill:#4d4d4d;fill-opacity:1;stroke:#000000;stroke-width:5;stroke-linejoin:bevel;stroke-miterlimit:4;stroke-dasharray:none;stroke-opacity:1;filter:url(#filter8457)"
         id="rect5855"
         width="739.11084"
         height="339.04645"
         x="-74.635452"
         y="503.49899" />
      <g
         id="g5857"
         transform="matrix(0.85594721,0,0,0.85594721,1790.1492,1684.8336)">
        <g
           id="g5859"
           transform="matrix(0.62345828,0,0,0.62345828,-1120.0296,-1076.4745)">
          <path
             style="fill:#3f4040"
             inkscape:connector-curvature="0"
             id="path5862"
             d="m 1320.9,427.6 c -1.1,1.4 1.2,0.9 3.2,0.4 l 0.3,-2.8 -3.5,2.4 z"
             class="st5" />
          <path
             style="fill:#3f4040"
             inkscape:connector-curvature="0"
             id="path5864"
             d="m 1329.3,423.1 2.9,-4.4 -2.3,2.8 c -3.9,1 -0.9,-2.3 0.1,-3.4 -5.1,3.7 -0.6,3.4 -0.7,5 z"
             class="st5" />
          <path
             style="fill:#3f4040"
             inkscape:connector-curvature="0"
             id="path5866"
             d="m 1336.3,416.6 c 2.7,-1.4 1.2,-2.3 -0.1,-2 0.1,0.7 -1.2,2.4 0.1,2 z"
             class="st5" />
          <path
             style="fill:#3f4040"
             inkscape:connector-curvature="0"
             id="path5868"
             d="m 1509.6,337.5 c -0.9,0.1 -1.9,0.3 -2,-0.1 -0.7,0.6 -0.8,1.1 2,0.1 z"
             class="st5" />
          <path
             style="fill:#3f4040"
             inkscape:connector-curvature="0"
             id="path5870"
             d="m 1507.6,337.3 0.4,-0.4 c -0.1,0.1 -0.2,0.2 -0.4,0.3 0,-0.1 0,0.1 0,0.1 z"
             class="st5" />
          <path
             style="fill:#3f4040"
             inkscape:connector-curvature="0"
             id="path5872"
             d="m 1443.4,346.3 c -2.7,2.6 -4.7,2.7 -7.4,4.6 l -2.4,-0.9 c -2.9,2.1 -0.8,2.1 -2.7,4.1 -3.4,0.3 -9.1,4.3 -10.6,4.9 -1.3,-0.3 0.7,-1.7 0.9,-2.3 -3.4,2.4 -2.4,3.9 -7.1,6.2 l -0.3,-0.4 c -9.9,7.9 -24.2,14.3 -35.7,22.3 0.9,-0.3 0.9,0.1 1.3,0.2 -12.6,7.3 -27.2,15.7 -34.8,25.4 6.6,-4.4 19.5,-8.3 24.9,-15 3.2,-0.2 6.3,-4.1 8.3,-3 10.5,-4.7 13,-9.7 22.7,-14.8 1.6,-0.4 1.3,0.8 2.1,1.3 l -7.3,4.8 5,-1.8 c -1.7,1.8 -6.9,3.8 -6.7,5.6 5.8,-5.2 17.3,-9.3 22.1,-14.3 -3,1 -6.2,3.1 -9.6,4.7 -1.7,0.2 -4.1,0.9 -4.4,0 8.2,-7.1 16.7,-9.8 26,-15.2 2.3,-1.3 5.7,-2.9 6.6,-2.2 -1.4,1.1 0.1,1.1 -1.1,2.1 3.1,-2.3 -1.1,-3.1 4.1,-5.1 l 0.7,3.1 c 0.6,-3.9 6.3,-2.4 9.1,-5.8 1.8,0.6 -0.2,2.3 -2.9,3.7 3.3,-1 2.9,-2.8 5.3,-3.9 l -1.2,3.6 c 1.6,-3.6 4.9,-1.8 6.8,-1.8 -0.1,-0.7 -2.3,-1.9 1,-3.2 1.6,-0.3 1.1,0.6 1.7,0.8 -0.1,-0.7 0.6,-2.3 2.8,-3.4 0.8,0.7 -0.9,1.9 -0.7,2.8 1.7,-0.8 2.9,-1.7 4.4,-1.6 2.7,-2 -0.7,-1.1 0.7,-2.8 4.8,-1.4 1.7,2.7 4.1,3.6 -3,2.7 -6.9,5 -8.4,6.6 l 6,-3.7 c 0,1.1 5.1,-0.3 2.1,2.1 7,-2 14.3,-6.7 20.2,-10.2 -1,0.1 -2.2,0.3 -2.3,-0.3 3,-2 3.1,-0.7 4.1,-0.3 2.1,-1.8 1.1,-3.2 2,-5.1 5.6,-0.9 5.9,-2 11,-1.9 l -1,-1.6 c 3.6,0 2.9,-2.7 6.6,-3.2 0.3,0.2 -0.7,1.2 -1.6,2.1 2.6,-1.8 3.2,0.2 5.7,-1.7 l -1.3,2.8 c 2.2,-1.1 5.1,-3.1 4.7,-1 3,-3.7 10.1,-5.9 14.5,-9.1 l 0.3,1.6 c 1.7,-2.9 9.2,-3.9 10.5,-7 l 0.7,0.4 4.1,-4.1 c 2.3,-0.8 2.4,1.7 2.4,1 4.8,-2.6 8.6,-4.2 12.1,-4.8 0,-2.2 5,-4.9 9.1,-6.8 20.6,-6.9 41.8,-16.3 60.7,-23.9 2.9,-0.8 6.3,-4.1 9.8,-6 -4.7,0.7 -4.8,1.8 -9.2,2.9 -3.4,0.3 -5.2,-1.3 -8.5,-1.9 l 1.9,1.3 c -4.1,2.7 -3.3,0 -6.4,2.7 l -0.7,-2.8 c -0.9,1.8 -4.3,1.6 -5.8,1.3 l -0.6,2.2 c -3.1,-0.1 -5.1,0 -6.6,-1.4 l 0.8,1.7 c -1.4,-0.8 -10.7,3.8 -8.3,-0.2 -0.7,0.7 -1.1,1.8 -3,2.2 l -0.9,-1.6 c -2.4,1.3 -5.1,2.7 -6.2,2 1.2,-0.9 1.4,-1.8 1.7,-2.8 -10.9,3.7 -0.3,6.3 -9.7,10 l -0.3,-1.1 -2,2.1 -3,-0.4 c -2,5 -13.3,4.9 -18.1,9.1 -2.1,1.2 -5.9,0.2 -10,2.2 l 1,1.6 c -4.1,-0.2 -17,4.1 -21.9,1.7 -2.6,2.7 0.4,0.2 1,1.6 -5.3,4.4 -6.9,2 -10.6,2.6 -3.4,2.6 3.1,-0.7 1.7,1.4 -6.3,1.3 -3.8,4.1 -11.3,6.2 -1.1,-0.6 1.6,-1.4 2,-2.4 -4.2,3.9 -14,7.1 -21.2,10.8 -9.9,3.3 -20.6,6.9 -32.6,11 l 0.1,0.7 c -4.8,0.4 -8.6,3.9 -13.7,5.6 l 2.7,-0.5 z"
             class="st5" />
          <path
             style="fill:#3f4040"
             inkscape:connector-curvature="0"
             id="path5874"
             d="m 1392.6,390.3 1.4,1 3.9,-3.2 c -2.2,-0.3 -2.6,1.2 -5.3,2.2 z"
             class="st5" />
          <polygon
             style="fill:#3f4040"
             id="polygon5876"
             points="1391.4,385.6 1389.4,387.5 1393.2,385.4 "
             class="st5" />
          <polygon
             style="fill:#3f4040"
             id="polygon5878"
             points="1449.2,359.8 1448.5,359.8 1440.5,365.2 "
             class="st5" />
          <path
             style="fill:#3f4040"
             inkscape:connector-curvature="0"
             id="path5880"
             d="m 1509.9,339 c -0.7,1.2 -2.2,1.6 -3,2.4 l 3.7,-2.6 -0.7,0.2 z"
             class="st5" />
          <path
             style="fill:#3f4040"
             inkscape:connector-curvature="0"
             id="path5882"
             d="m 1551.4,327.4 c 0.4,-3.2 3.1,-1.2 0,-2.7 -2.1,1.4 0.3,1.5 0,2.7 z"
             class="st5" />
          <path
             style="fill:#3f4040"
             inkscape:connector-curvature="0"
             id="path5884"
             d="m 1558.9,319.8 c -1.4,0.6 -2,1.2 -2.7,1.9 2.4,0.3 1.8,-1 2.7,-1.9 z"
             class="st5" />
        </g>
        <g
           id="g5886"
           transform="matrix(0.62345828,0,0,0.62345828,-1115.4042,-1050.795)">
          <path
             style="fill:#3f4040"
             inkscape:connector-curvature="0"
             id="path5888"
             d="m 1379.3,493.4 c -0.9,1.4 1.3,0.8 3.1,0.2 l -0.1,-2.8 -3,2.6 z"
             class="st5" />
          <path
             style="fill:#3f4040"
             inkscape:connector-curvature="0"
             id="path5890"
             d="m 1386.6,488.4 2.2,-4.6 -2,2.8 c -3.6,1.2 -1.1,-2.2 -0.2,-3.4 -4.5,4 0,3.5 0,5.2 z"
             class="st5" />
          <path
             style="fill:#3f4040"
             inkscape:connector-curvature="0"
             id="path5892"
             d="m 1392.6,481.7 c 2.4,-1.6 0.9,-2.3 -0.3,-2 0.2,0.6 -0.9,2.3 0.3,2 z"
             class="st5" />
          <path
             style="fill:#3f4040"
             inkscape:connector-curvature="0"
             id="path5894"
             d="m 1554.8,409.4 c -0.9,0 -1.8,0.2 -1.9,-0.2 -0.6,0.8 -0.6,1.2 1.9,0.2 z"
             class="st5" />
          <path
             style="fill:#3f4040"
             inkscape:connector-curvature="0"
             id="path5896"
             d="m 1552.9,409.2 0.4,-0.4 c -0.1,0.1 -0.2,0.1 -0.4,0.3 -0.1,0 0,0.1 0,0.1 z"
             class="st5" />
          <path
             style="fill:#3f4040"
             inkscape:connector-curvature="0"
             id="path5898"
             d="m 1493.2,417.2 c -2.4,2.3 -4.3,2.4 -6.9,4.1 l -2.3,-1 c -2.8,1.9 -0.7,2 -2.4,3.9 -3.2,0.1 -8.6,3.7 -9.9,4.2 -1.2,-0.4 0.7,-1.6 0.9,-2.2 -3.2,2.1 -2.3,3.7 -6.7,5.7 l -0.3,-0.4 c -9.5,7.1 -23.1,12.5 -34.1,19.7 0.8,-0.3 0.8,0.1 1.2,0.3 -12,6.6 -25.9,14.5 -32.6,24 6,-4.4 18.1,-8 23.2,-14.3 3,-0.1 6,-3.8 7.9,-2.6 9.9,-4 12.3,-8.8 21.7,-13.1 1.4,-0.3 1.2,0.9 2,1.4 l -7,4.2 4.8,-1.3 c -1.6,1.7 -6.6,3.2 -6.3,5 5.6,-4.8 16.5,-8 21.1,-12.7 -2.8,0.8 -5.9,2.7 -9.1,4 -1.7,0.1 -3.9,0.7 -4.2,-0.2 7.9,-6.4 15.9,-8.6 24.8,-13.3 2.2,-1.2 5.4,-2.4 6.1,-1.8 -1.3,1 0,1.1 -1,2.1 3,-2.1 -1,-3.1 3.9,-4.9 l 0.7,3.1 c 0.6,-3.8 6,-2 8.6,-5.3 1.7,0.6 -0.2,2.2 -2.8,3.4 3.1,-0.8 2.7,-2.6 5,-3.6 l -1.1,3.4 c 1.4,-3.4 4.7,-1.6 6.4,-1.4 -0.1,-0.7 -2.2,-1.9 0.9,-3.2 1.4,-0.3 1.1,0.6 1.6,0.8 -0.1,-0.7 0.4,-2.2 2.4,-3.3 0.8,0.7 -0.8,1.9 -0.6,2.7 1.6,-0.8 2.7,-1.6 4.1,-1.4 2.3,-2 -0.8,-1.1 0.4,-2.8 4.4,-1.4 1.8,2.6 4.1,3.6 -2.6,2.7 -6.4,5 -7.9,6.4 l 5.8,-3.6 c 0.1,1.1 4.9,-0.3 2.1,2.1 6.4,-2 13.1,-6.7 18.5,-10.1 -1,0.1 -2.1,0.3 -2.2,-0.3 2.7,-2 2.9,-0.7 3.9,-0.2 1.9,-1.7 0.9,-3.2 1.7,-5 5.2,-0.8 5.4,-1.9 10.2,-1.7 l -1,-1.6 c 3.3,0 2.7,-2.6 6,-3 0.3,0.2 -0.7,1.2 -1.3,2 2.4,-1.8 3,0.3 5.3,-1.6 l -1.2,2.8 c 2,-1 4.8,-2.9 4.4,-0.9 2.8,-3.4 9.3,-5.6 13.3,-8.6 l 0.3,1.6 c 1.6,-2.8 8.6,-3.7 9.7,-6.6 l 0.6,0.4 3.8,-3.9 c 2.2,-0.8 2.4,1.7 2.3,1 4.4,-2.3 8,-4 11.3,-4.6 -0.1,-2.2 4.6,-4.9 8.3,-6.8 19.1,-6.9 38.4,-17.6 54.4,-28 2.4,-1.3 5,-5.1 7.7,-7.6 -4.1,1.4 -4,2.6 -7.8,4.4 -3.1,0.9 -5.1,-0.6 -8.1,-0.6 l 2,1 c -3.2,3.1 -3.1,0.4 -5.3,3.4 l -1.1,-2.7 c -0.4,1.8 -3.7,2 -5.1,1.9 l -0.2,2.2 c -2.9,0.1 -4.7,0.4 -6.2,-0.8 l 1,1.6 c -1.4,-0.6 -9.3,4.4 -7.8,0.3 -0.6,0.7 -0.8,1.9 -2.4,2.3 l -1,-1.6 c -2.1,1.4 -4.4,2.9 -5.6,2.2 1,-0.9 1.1,-1.9 1.2,-2.8 -9.7,4 0.3,6.2 -8.1,10.1 l -0.3,-1.1 -1.7,2.1 -2.9,-0.3 c -1.4,5 -12.1,4.9 -16.5,9 -1.9,1.2 -5.6,0.2 -9.2,2.1 l 1,1.6 c -3.9,-0.3 -15.9,3.7 -20.5,1.1 -2.3,2.6 0.4,0.2 1,1.6 -5,4.2 -6.6,1.8 -9.9,2.2 -3.1,2.3 3,-0.6 1.7,1.6 -6,1.2 -3.4,3.9 -10.7,5.9 -1.1,-0.7 1.4,-1.4 1.9,-2.3 -3.9,3.8 -13.1,6.8 -19.9,10.3 -8.6,2.6 -20.3,8 -30,10.8 l 0.1,0.7 c -4.3,0.2 -7.8,3.6 -12.6,4.8 l 2.5,0 z"
             class="st5" />
          <path
             style="fill:#3f4040"
             inkscape:connector-curvature="0"
             id="path5900"
             d="m 1445,457.3 1.3,1 3.8,-2.9 c -2.2,-0.2 -2.7,1.2 -5.1,1.9 z"
             class="st5" />
          <polygon
             style="fill:#3f4040"
             id="polygon5902"
             points="1442,454.4 1445.5,452.7 1443.9,452.8 "
             class="st5" />
          <polygon
             style="fill:#3f4040"
             id="polygon5904"
             points="1498.1,430.9 1490.5,435.6 1498.7,430.8 "
             class="st5" />
          <path
             style="fill:#3f4040"
             inkscape:connector-curvature="0"
             id="path5906"
             d="m 1555.1,411 c -0.6,1.1 -2,1.4 -2.8,2.3 l 3.4,-2.4 -0.6,0.1 z"
             class="st5" />
          <path
             style="fill:#3f4040"
             inkscape:connector-curvature="0"
             id="path5908"
             d="m 1594.1,400.5 c 0.3,-3.1 2.9,-1.2 0,-2.7 -2.1,1.5 0.3,1.6 0,2.7 z"
             class="st5" />
          <path
             style="fill:#3f4040"
             inkscape:connector-curvature="0"
             id="path5910"
             d="m 1601,393.2 c -1.3,0.4 -1.9,1.2 -2.4,1.9 2.1,0.3 1.7,-1 2.4,-1.9 z"
             class="st5" />
        </g>
        <g
           i:knockout="Off"
           id="g5912"
           transform="matrix(0.94219956,0,0,0.94219956,-447.09611,-921.79187)"
           style="fill:#7c7c7c;fill-opacity:1">
          <path
             inkscape:connector-curvature="0"
             i:knockout="Off"
             d="m 221.564,104.984 c 0,3.405 -1.196,6.301 -3.584,8.689 -2.389,2.388 -5.284,3.582 -8.688,3.582 l -2.527,0 c -1.684,0 -2.527,0.82 -2.527,2.457 l 0,9.832 c 0,1.376 -0.475,2.54 -1.422,3.491 -0.949,0.951 -2.11,1.425 -3.485,1.425 l -2.455,0 c -1.377,0 -2.538,-0.476 -3.487,-1.431 -0.949,-0.955 -1.421,-2.123 -1.421,-3.507 l 0,-56.78 c 0,-3.402 1.201,-6.3 3.612,-8.688 2.408,-2.389 5.331,-3.583 8.761,-3.583 l 4.951,0 c 3.403,0 6.299,1.195 8.688,3.583 2.388,2.389 3.584,5.286 3.584,8.688 l 0,32.242 z m -12.337,-2.581 0,-27.122 c 0,-1.644 -0.832,-2.467 -2.493,-2.467 -1.665,0 -2.496,0.824 -2.496,2.467 l 0,27.123 c 0,1.646 0.831,2.468 2.496,2.468 1.661,-0.001 2.493,-0.823 2.493,-2.469 z"
             id="path5914"
             style="fill:#7c7c7c;fill-opacity:1" />
          <path
             inkscape:connector-curvature="0"
             i:knockout="Off"
             d="m 258.057,122.188 c 0,3.405 -1.196,6.303 -3.583,8.689 -2.39,2.389 -5.285,3.583 -8.688,3.583 l -5.053,0 c -3.404,0 -6.3,-1.193 -8.688,-3.583 -2.389,-2.387 -3.583,-5.285 -3.583,-8.689 l 0,-4.933 c 0,-3.403 1.193,-6.299 3.583,-8.688 2.388,-2.387 5.284,-3.583 8.688,-3.583 l 2.495,0 c 1.661,0 2.495,-0.826 2.495,-2.479 l 0,-27.283 c 0,-1.653 -0.82,-2.479 -2.465,-2.479 -1.646,0 -2.466,0.825 -2.466,2.471 l 0,19.78 c 0,1.385 -0.479,2.557 -1.429,3.512 -0.958,0.956 -2.124,1.435 -3.504,1.435 l -2.463,0 c -1.381,0 -2.549,-0.477 -3.502,-1.432 -0.956,-0.953 -1.43,-2.12 -1.43,-3.503 l 0,-22.202 c 0,-3.419 1.193,-6.33 3.583,-8.73 2.388,-2.401 5.284,-3.603 8.688,-3.603 l 5.053,0 c 3.404,0 6.299,1.204 8.688,3.605 2.388,2.403 3.583,5.317 3.583,8.738 l 0,49.374 z m -12.335,-2.525 c 0,-1.643 -0.82,-2.463 -2.465,-2.463 -1.646,0 -2.466,0.821 -2.466,2.463 0,1.646 0.82,2.468 2.466,2.468 1.644,0 2.465,-0.822 2.465,-2.468 z"
             id="path5916"
             style="fill:#7c7c7c;fill-opacity:1" />
          <path
             inkscape:connector-curvature="0"
             i:knockout="Off"
             d="m 294.549,95.005 c 0,1.383 -0.476,2.55 -1.423,3.503 -0.948,0.955 -2.11,1.432 -3.484,1.432 l -2.455,0 c -1.376,0 -2.537,-0.479 -3.486,-1.435 -0.949,-0.955 -1.422,-2.127 -1.422,-3.512 l 0,-19.78 c 0,-1.646 -0.843,-2.471 -2.527,-2.471 -1.683,0 -2.527,0.823 -2.527,2.469 l 0,54.311 c 0,1.384 -0.475,2.552 -1.423,3.507 -0.948,0.955 -2.11,1.431 -3.483,1.431 l -2.456,0 c -1.376,0 -2.538,-0.476 -3.484,-1.431 -0.949,-0.953 -1.424,-2.12 -1.424,-3.502 l 0,-56.725 c 0,-3.42 1.199,-6.33 3.6,-8.729 2.401,-2.401 5.31,-3.603 8.732,-3.603 l 4.932,0 c 3.421,0 6.329,1.202 8.73,3.603 2.401,2.401 3.601,5.312 3.601,8.73 l 0,22.202 z"
             id="path5918"
             style="fill:#7c7c7c;fill-opacity:1" />
          <path
             inkscape:connector-curvature="0"
             i:knockout="Off"
             d="m 331.043,122.188 c 0,3.405 -1.194,6.303 -3.58,8.689 -2.393,2.389 -5.289,3.583 -8.69,3.583 l -12.374,0 c -1.388,0 -2.559,-0.476 -3.518,-1.431 -0.956,-0.953 -1.434,-2.12 -1.434,-3.502 l 0,-64.124 c 0,-1.379 0.478,-2.546 1.434,-3.501 0.959,-0.954 2.13,-1.431 3.518,-1.431 l 12.374,0 c 3.401,0 6.298,1.195 8.69,3.583 2.386,2.389 3.58,5.286 3.58,8.688 l 0,49.446 z m -12.335,-2.525 0,-44.382 c 0,-1.644 -0.833,-2.467 -2.495,-2.467 -1.664,0 -2.494,0.824 -2.494,2.467 l 0,44.382 c 0,1.646 0.83,2.468 2.494,2.468 1.662,0 2.495,-0.822 2.495,-2.468 z"
             id="path5920"
             style="fill:#7c7c7c;fill-opacity:1" />
          <path
             inkscape:connector-curvature="0"
             i:knockout="Off"
             d="m 367.537,122.188 c 0,3.405 -1.196,6.303 -3.584,8.689 -2.388,2.389 -5.286,3.583 -8.687,3.583 l -5.054,0 c -3.406,0 -6.302,-1.193 -8.689,-3.583 -2.388,-2.387 -3.584,-5.285 -3.584,-8.689 l 0,-56.78 c 0,-1.383 0.479,-2.551 1.432,-3.506 0.953,-0.955 2.12,-1.432 3.502,-1.432 l 2.467,0 c 1.379,0 2.548,0.477 3.499,1.431 0.955,0.956 1.432,2.122 1.432,3.501 l 0,54.26 c 0,1.646 0.822,2.468 2.467,2.468 1.643,0 2.466,-0.822 2.466,-2.468 l 0,-54.26 c 0,-1.379 0.475,-2.546 1.43,-3.501 0.954,-0.954 2.122,-1.431 3.505,-1.431 l 2.464,0 c 1.382,0 2.55,0.477 3.505,1.432 0.954,0.955 1.431,2.123 1.431,3.506 l 0,56.78 z"
             id="path5922"
             style="fill:#7c7c7c;fill-opacity:1" />
          <path
             inkscape:connector-curvature="0"
             i:knockout="Off"
             d="m 404.03,122.188 c 0,3.405 -1.195,6.303 -3.583,8.689 -2.389,2.389 -5.285,3.583 -8.688,3.583 l -12.373,0 c -1.389,0 -2.56,-0.476 -3.517,-1.431 -0.958,-0.953 -1.435,-2.12 -1.435,-3.502 l 0,-2.464 c 0,-1.379 0.475,-2.547 1.432,-3.501 0.953,-0.954 2.12,-1.43 3.501,-1.43 l 9.862,0 c 1.641,0 2.467,-0.813 2.467,-2.44 0,-1.623 -0.833,-2.436 -2.494,-2.436 l -2.495,0 c -3.405,0 -6.301,-1.194 -8.688,-3.582 -2.392,-2.388 -3.584,-5.284 -3.584,-8.689 l 0,-32.242 c 0,-3.402 1.192,-6.3 3.584,-8.688 2.388,-2.389 5.283,-3.583 8.688,-3.583 l 5.052,0 c 3.403,0 6.3,1.195 8.688,3.583 2.388,2.389 3.583,5.286 3.583,8.688 l 0,22.251 c 0,1.385 -0.477,2.557 -1.43,3.512 -0.955,0.956 -2.122,1.435 -3.504,1.435 l -2.468,0 c -1.38,0 -2.549,-0.477 -3.504,-1.432 -0.955,-0.953 -1.429,-2.12 -1.429,-3.501 l 0,-19.727 c 0,-1.644 -0.821,-2.467 -2.464,-2.467 -1.647,0 -2.468,0.824 -2.468,2.467 l 0,27.123 c 0,1.646 0.834,2.468 2.498,2.468 l 2.496,0 c 3.403,0 6.3,1.204 8.688,3.612 2.388,2.408 3.583,5.328 3.583,8.759 l 0,4.945 z"
             id="path5924"
             style="fill:#7c7c7c;fill-opacity:1" />
        </g>
        <g
           id="g5926"
           transform="matrix(0.62345828,0,0,0.62345828,-1111.168,-1065.634)">
          <path
             style="fill:#3f4040"
             inkscape:connector-curvature="0"
             id="path5928"
             d="m 1340.7,464.7 c -1.2,1.4 1.2,0.9 3.3,0.4 l 0.3,-2.9 -3.6,2.5 z"
             class="st5" />
          <path
             style="fill:#3f4040"
             inkscape:connector-curvature="0"
             id="path5930"
             d="m 1349.5,460 3,-4.7 -2.4,2.9 c -4,1.1 -0.9,-2.3 0.2,-3.6 -5.4,4.1 -0.6,3.7 -0.8,5.4 z"
             class="st5" />
          <path
             style="fill:#3f4040"
             inkscape:connector-curvature="0"
             id="path5932"
             d="m 1356.9,453.2 c 2.8,-1.6 1.2,-2.3 -0.1,-2.1 0.1,0.7 -1.2,2.5 0.1,2.1 z"
             class="st5" />
          <path
             style="fill:#3f4040"
             inkscape:connector-curvature="0"
             id="path5934"
             d="m 1537,368 c -1,0 -2,0.2 -2,-0.2 -0.8,0.8 -0.9,1.3 2,0.2 z"
             class="st5" />
          <path
             style="fill:#3f4040"
             inkscape:connector-curvature="0"
             id="path5936"
             d="m 1535,367.8 0.4,-0.4 c -0.1,0.1 -0.2,0.2 -0.6,0.3 0.1,0 0.2,0.1 0.2,0.1 z"
             class="st5" />
          <path
             style="fill:#3f4040"
             inkscape:connector-curvature="0"
             id="path5938"
             d="m 1468.1,377.8 c -2.8,2.7 -5,2.9 -7.9,4.8 l -2.6,-0.9 c -3.1,2.2 -0.8,2.1 -2.8,4.2 -3.6,0.4 -9.5,4.8 -11,5.4 -1.4,-0.2 0.7,-1.7 1,-2.4 -3.7,2.6 -2.6,4 -7.3,6.6 l -0.3,-0.4 c -10.3,8.5 -25.1,15.6 -36.9,24.1 0.9,-0.4 0.9,0.1 1.4,0.2 -12.9,8 -28.1,17 -36,27 6.8,-4.7 20.2,-9.1 25.8,-16.1 3.3,-0.3 6.6,-4.4 8.6,-3.4 10.8,-5 13.3,-10.5 23.5,-15.9 1.7,-0.4 1.3,0.7 2.2,1.2 l -7.6,5.1 5.2,-2 c -1.8,1.9 -7.1,4.1 -6.9,6 5.9,-5.7 17.9,-10.1 22.9,-15.6 -3.1,1.1 -6.4,3.6 -9.9,5.2 -1.8,0.2 -4.3,1.1 -4.6,0.2 8.5,-7.6 17.2,-10.7 26.9,-16.6 2.4,-1.4 5.9,-3.1 6.8,-2.6 -1.6,1.1 0.1,1.1 -1.1,2.2 3.2,-2.4 -1.1,-3.1 4.3,-5.3 l 0.7,3.1 c 0.7,-4 6.7,-2.6 9.6,-6.1 1.9,0.4 -0.2,2.3 -3.1,3.8 3.4,-1.1 3,-2.9 5.6,-4.1 l -1.3,3.6 c 1.7,-3.7 5.1,-2 7.1,-2 -0.1,-0.7 -2.4,-1.8 1.1,-3.3 1.7,-0.4 1.1,0.6 1.7,0.8 -0.1,-0.7 0.7,-2.3 2.9,-3.4 0.8,0.6 -1,1.9 -0.7,2.8 1.7,-0.9 3,-1.7 4.7,-1.6 2.8,-2.1 -0.8,-1.1 0.8,-2.8 5,-1.7 1.8,2.6 4.3,3.4 -3,2.8 -7.3,5.2 -9,6.8 l 6.4,-3.8 c 0,1.1 5.3,-0.6 2.2,2.1 7.1,-2.3 14.8,-7.1 21,-10.7 -1.1,0.1 -2.3,0.4 -2.4,-0.3 3.1,-2 3.3,-0.7 4.2,-0.3 2.2,-1.8 1.2,-3.3 2.2,-5.2 5.8,-0.9 6.1,-2.1 11.5,-1.9 l -1,-1.3 c 3.7,0 3.1,-2.7 6.9,-3.1 0.3,0.3 -0.8,1.2 -1.7,2.1 2.8,-1.8 3.3,0.2 6,-1.6 l -1.6,2.8 c 2.3,-1 5.4,-3 4.9,-0.9 3.2,-3.7 10.8,-5.7 15.5,-8.7 l 0.2,1.6 c 2,-2.8 9.8,-3.8 11.3,-6.7 l 0.6,0.4 4.6,-3.9 c 2.4,-0.7 2.4,1.8 2.4,1.1 5.1,-2.3 9.2,-3.9 12.9,-4.3 0.2,-2.2 5.7,-4.7 10,-6.4 22,-6 44.7,-14.7 64.8,-22 3.1,-0.9 6.8,-4.1 10.3,-6.1 -4.9,0.7 -5,1.8 -9.7,2.9 -3.7,0.3 -5.4,-1.4 -8.8,-2 l 1.9,1.3 c -4.3,2.6 -3.4,-0.1 -6.8,2.6 l -0.6,-2.8 c -1,1.8 -4.6,1.6 -6.1,1.2 l -0.8,2.2 c -3.2,-0.2 -5.3,-0.1 -6.7,-1.6 l 0.8,1.7 c -1.4,-0.8 -11.5,3.3 -8.7,-0.6 -0.8,0.7 -1.3,1.8 -3.2,2.1 l -0.8,-1.7 c -2.6,1.2 -5.4,2.6 -6.6,1.8 1.3,-0.9 1.6,-1.8 1.9,-2.7 -11.6,3.2 -0.8,6.3 -10.8,9.6 l -0.2,-1.1 -2.2,2 -3.1,-0.6 c -2.3,5 -14.2,4.3 -19.6,8.3 -2.2,1.1 -6.1,0 -10.6,1.9 l 0.9,1.6 c -4.2,-0.4 -18.1,3.3 -22.9,0.9 -2.9,2.6 0.4,0.2 0.9,1.6 -5.9,4.3 -7.4,1.9 -11.2,2.2 -3.8,2.4 3.3,-0.6 1.7,1.6 -6.8,1.1 -4.2,4 -12.2,6.1 -1.1,-0.7 1.7,-1.4 2.2,-2.4 -4.7,4 -15.1,6.9 -22.8,10.8 -9.6,2.7 -23,8.3 -34.1,11.8 l 0.1,0.7 c -5.1,0.4 -9,4.2 -14.5,6 l 3.3,-0.3 z"
             class="st5" />
          <path
             style="fill:#3f4040"
             inkscape:connector-curvature="0"
             id="path5940"
             d="m 1415.3,424.3 1.6,0.9 4,-3.4 c -2.5,0 -3,1.4 -5.6,2.5 z"
             class="st5" />
          <polygon
             style="fill:#3f4040"
             id="polygon5942"
             points="1414.1,419.8 1411.9,421.6 1415.7,419.4 "
             class="st5" />
          <polygon
             style="fill:#3f4040"
             id="polygon5944"
             points="1474,391.3 1473.2,391.4 1464.9,397 "
             class="st5" />
          <path
             style="fill:#3f4040"
             inkscape:connector-curvature="0"
             id="path5946"
             d="m 1537.2,369.6 c -0.8,1.2 -2.3,1.4 -3.2,2.4 l 4,-2.4 -0.8,0 z"
             class="st5" />
          <path
             style="fill:#3f4040"
             inkscape:connector-curvature="0"
             id="path5948"
             d="m 1580.9,359.3 c 0.7,-3.2 3.2,-1.1 0.2,-2.7 -2.3,1.3 0.3,1.6 -0.2,2.7 z"
             class="st5" />
          <path
             style="fill:#3f4040"
             inkscape:connector-curvature="0"
             id="path5950"
             d="m 1589.4,351.9 c -1.6,0.4 -2.2,1.1 -2.9,1.8 2.3,0.6 1.9,-0.9 2.9,-1.8 z"
             class="st5" />
        </g>
      </g>
      <g
         id="g6288"
         transform="matrix(1.0034775,0,0,1.0034775,-22188.086,3841.3083)">
        <path
           style="fill:#4d4d4d"
           inkscape:connector-curvature="0"
           id="path5952"
           d="m 22421.765,-3168.1599 c -1.086,-3.3652 -4.559,-9.3358 -7.816,-13.2438 -3.148,-4.0166 -8.359,-8.6845 -11.507,-10.5299 -3.148,-1.8454 -17.477,2.1711 -24.751,5.4278 l -5.319,2.3882 c -7.273,3.2567 -13.244,6.0791 -13.352,6.1877 -0.109,0.1086 -0.977,0 -1.737,-0.2171 -0.76,-0.2171 -8.685,-2.2797 -16.501,-4.1251 l -13.895,-3.2567 c -7.707,-1.8455 -16.826,-3.4738 -19.866,-3.908 -3.148,-0.2171 -16.826,1.954 -24.533,3.6909 l -14.872,3.3652 c -7.708,1.8455 -14.764,3.3652 -15.307,3.5824 -0.651,0.2171 -2.496,0.8684 -2.605,0.8684 -0.109,-0.1086 -6.405,-2.931 -13.678,-6.2962 l -5.319,-2.3883 c -7.273,-3.2566 -16.175,-6.2962 -19.866,-6.5133 -3.691,-0.2171 -13.135,7.5989 -16.283,11.6155 -3.148,4.0165 -6.622,9.9871 -7.816,13.2438 -1.086,3.3652 4.993,16.5004 9.444,23.0138 l 9.227,13.5695 c 4.451,6.6219 6.839,14.2208 5.428,17.0432 -1.411,2.8225 -3.474,7.5989 -4.451,10.747 -0.977,3.2567 0.109,17.2604 1.412,25.0764 l 2.931,16.8262 c 1.302,7.816 3.908,16.9347 5.536,20.1914 1.737,3.2566 15.415,8.9015 23.122,10.8555 l 3.474,0.8685 c 0.651,0.1085 1.194,0.3257 1.845,0.4342 -11.506,6.1877 -22.253,13.678 -31.589,22.0368 -1.411,1.1941 0.325,3.1482 1.845,2.1711 11.941,-7.9245 23.448,-15.3063 35.498,-21.8197 2.28,1.1941 4.559,2.6054 6.73,4.2337 -9.878,7.816 -18.346,18.0203 -24.208,27.139 -0.759,1.0855 0.76,2.6053 1.846,1.5197 8.793,-8.3588 16.609,-18.1288 25.945,-25.9448 1.954,1.7369 3.582,3.4738 4.776,5.2107 l 0.76,0.977 c -10.638,10.0957 -18.997,24.0994 -23.882,35.8234 -0.652,1.3027 1.302,2.1711 2.171,1.0856 8.25,-10.9642 14.981,-23.6652 24.099,-33.5438 l 3.148,4.2337 c 4.668,6.5133 10.747,13.5695 13.57,15.8491 2.822,2.1712 14.438,4.0166 19.106,4.0166 4.559,0 11.181,-0.7599 14.655,-1.7369 3.365,-0.977 13.244,-11.6155 18.02,-18.1288 l 3.148,-4.3422 c 9.336,9.9871 16.066,22.6881 24.208,33.6523 0.869,1.0855 2.497,-0.1086 2.063,-1.3027 -4.777,-11.724 -13.244,-25.6192 -23.774,-35.7149 l 0.651,-0.8684 c 1.303,-1.8455 3.04,-3.5824 4.994,-5.3193 9.118,7.8161 17.043,17.4775 25.728,25.8363 1.194,1.0856 2.605,-0.2171 1.845,-1.5198 -5.862,-9.0101 -14.329,-19.2143 -24.099,-27.0303 2.171,-1.5198 4.45,-3.0396 6.73,-4.2337 12.05,6.5133 23.665,13.8951 35.606,21.8197 1.52,1.0856 2.931,-1.0856 1.52,-2.2797 -9.444,-8.3588 -20.191,-15.8491 -31.481,-21.9282 0.434,-0.1086 1.086,-0.3257 1.52,-0.4343 l 3.582,-0.977 c 7.708,-1.954 16.501,-5.2107 19.649,-7.1647 3.039,-1.954 7.707,-16.0662 9.01,-23.8822 l 2.931,-16.8262 c 1.302,-7.816 2.279,-17.0432 2.279,-20.4085 -0.108,-3.3652 -3.69,-12.8095 -5.21,-15.5234 -1.411,-2.8225 0.977,-10.4214 5.428,-17.0433 l 9.118,-13.5695 c 4.125,-6.1877 10.205,-19.3229 9.119,-22.5796 z"
           class="st4" />
        <g
           id="g6271">
          <g
             transform="matrix(1.0855579,0,0,1.0855579,20664.572,-3301.9006)"
             id="g5954"
             style="fill:#cccccc">
            <path
               class="st5"
               d="m 1418.9,137.3 c -3.7,-5.4 -6.8,-10.2 -7,-10.8 0,0 0,0 0,-0.6 0,-0.7 0,-0.7 0,-0.7 0.3,-0.7 2.9,-4.1 5.8,-7.9 2.9,-3.7 5.8,-6.9 6.3,-7.2 0.6,-0.2 7.7,2.6 14.3,5.6 l 1,0.4 c 6.7,3 12,5.7 11.9,5.9 -0.1,0.2 -3.2,6 -6.7,12.5 l -5.9,11 c -3.2,6.6 -16,-2.7 -19.7,-8.2 z"
               id="path5956"
               inkscape:connector-curvature="0"
               style="fill:#cccccc" />
            <path
               class="st5"
               d="m 1522.1,278.7 c -1.1,0.8 -7.3,1.6 -11.6,1.6 -4.2,0 -8.8,-0.3 -10.1,-0.8 -0.6,-0.2 -1.9,-1.4 -3.4,-3.2 l 8.9,-8.1 c 2.6,-2.3 4.8,-4.3 4.8,-4.3 0,0 2.1,2 4.8,4.3 l 9,8.2 c -1.2,1 -1.9,1.9 -2.4,2.3 z"
               id="path5958"
               inkscape:connector-curvature="0"
               style="fill:#cccccc" />
            <path
               class="st5"
               d="m 1588.8,203.9 -2.7,15.5 c -1.2,7.2 -2.7,13.9 -3.2,14.8 -0.5,0.9 -6.7,3.1 -12,4.4 -5.3,1.3 -9.5,1.6 -9.2,0.4 0.2,-1.1 -2.9,-8.6 -6.9,-14.3 -4,-5.8 -7.2,-10.3 -7.2,-10.1 0,0.2 0.9,4.9 1.9,10.1 1,5.1 1.8,10.7 1.7,12.2 -0.1,1.6 -1.9,5.2 -2.4,6 0,0 0,0 0,0.1 -6.8,-2.8 -13.7,-5 -20.6,-6.7 -1.9,-0.4 -3,2.3 -1.1,2.9 6.7,2 13.1,4.4 19.2,7.1 -0.8,1.1 -1.8,2.4 -2.8,3.8 -5.2,-2.9 -10.8,-4.8 -16.5,-5.3 -1.7,-0.1 -1.8,2.2 -0.2,2.4 5.4,1.1 10.2,3 14.6,5.7 -1.2,1.7 -2.7,3.7 -4.1,5.8 -3.7,-2.4 -7.6,-4.3 -11.7,-5.4 -1.6,-0.4 -2.4,1.8 -0.9,2.3 3.9,1.4 7.4,3.4 10.6,5.8 -1.6,2.1 -3,4.2 -4.3,6 -0.8,1.1 -1.7,2.3 -2.4,3.3 -0.1,-0.1 -0.3,-0.2 -0.4,-0.3 l -9.7,-6.7 c -2.9,-2 -5.3,-3.7 -5.3,-3.8 0,-0.1 0,-3.2 0,-6.7 l 0,-9.9 c 0.1,-0.1 0.1,-0.2 0.2,-0.4 l 15.8,-18 c 1.6,-3.1 0,-5.8 -3.6,-5.8 l -30.2,0 c -3.6,0 -5.1,2.6 -3.6,5.8 l 15.8,18 c 0.1,0.1 0.1,0.2 0.2,0.4 l 0,9.9 c 0,3.6 0,6.4 0,6.6 0,0.1 -2.3,1.9 -5.2,3.9 l -9.7,6.7 c -0.1,0.1 -0.3,0.2 -0.4,0.3 -0.9,-1.1 -1.8,-2.3 -2.6,-3.4 -1.3,-1.8 -2.8,-3.9 -4.3,-5.9 3.2,-2.3 6.7,-4.3 10.7,-5.8 1.3,-0.4 0.7,-2.8 -0.8,-2.3 -4.1,1.1 -8.1,3 -11.9,5.6 -1.6,-2.1 -3,-4.1 -4.1,-5.8 4.4,-2.6 9.2,-4.6 14.7,-5.7 1.6,-0.3 1.1,-2.6 -0.4,-2.4 -5.6,0.6 -11.1,2.4 -16.3,5.2 -1,-1.3 -1.9,-2.7 -2.8,-3.8 6,-2.7 12.3,-5 19,-7 1.9,-0.6 1.4,-3.4 -0.6,-3 -7,1.8 -14,4 -20.8,6.8 l -0.1,-0.1 c -0.6,-0.8 -1.4,-2.7 -2,-4.1 -0.6,-1.4 0.2,-8.9 1.2,-14.1 1,-5.1 1.9,-9.6 1.9,-9.7 0,-0.2 -3.2,4 -7.2,9.8 -4,5.8 -7.1,11.3 -7.1,12.3 0.1,1 -3.8,2.7 -9,1.3 -5.3,-1.3 -10.3,-2.9 -11.2,-3.4 -0.9,-0.6 -2.8,-8.5 -4,-15.7 l -2.7,-15.5 c -1.2,-7.2 -2.1,-14.7 -2.1,-16.5 0.1,-1.8 2,-6.9 3,-8.7 1,-1.8 4.6,-8.6 8.1,-15.1 l 12.9,-24.1 c 3.4,-6.4 7.2,-12.7 8.2,-13.8 1.1,-1.1 4,-2.4 4.1,-2.4 0.1,0 6.1,-1.4 13.2,-3 l 13.2,-3 c 7.1,-1.7 14.7,-3.1 16.8,-3.3 2.1,-0.1 12.2,1.7 19.3,3.3 l 12.3,2.9 c 7.1,1.7 13.1,3.1 13.2,3.1 0.1,0 1.3,0.7 2.7,1.4 1.3,0.8 6.2,8.5 9.7,14.9 l 12.9,24.1 c 3.4,6.4 7.1,13.2 8.1,15.1 1,1.8 3,6.9 3,8.7 0.4,1.7 -0.6,9.1 -1.9,16.3 z"
               id="path5960"
               inkscape:connector-curvature="0"
               style="fill:#cccccc" />
            <path
               class="st5"
               d="m 1609.1,126 c 0,0.6 0,0.6 0,0.6 -0.2,0.4 -3.3,5.3 -7,10.8 -3.7,5.4 -16.5,14.8 -19.9,8.3 l -5.9,-11 c -3.4,-6.4 -6.3,-11.9 -6.4,-12.1 -0.1,-0.2 5,-3.2 11.7,-6.2 l 1,-0.4 c 6.7,-3 12.8,-5.6 13.6,-5.6 0.8,0 4.2,3.6 7.1,7.2 2.9,3.7 5.6,7.2 5.8,7.9 0,-0.2 0,-0.2 0,0.5 z"
               id="path5962"
               inkscape:connector-curvature="0"
               style="fill:#cccccc" />
          </g>
          <g
             transform="matrix(1.0855579,0,0,1.0855579,20664.572,-3301.9006)"
             id="g5964"
             style="fill:#4d4d4d;fill-opacity:1">
            <path
               class="st4"
               d="m 1495.7,176.5 c -1.3,0 -5.6,0.1 -9.3,0.2 l -32.1,0.9 c -3.8,0.1 -3.8,0.7 -0.1,1.2 l 19.7,2.8 c 0,0.2 -0.1,0.6 -0.1,0.8 0,2.4 2,4.3 4.3,4.3 2.2,0 4.1,-1.7 4.3,-3.9 l 3.1,0.4 c 3.8,0.6 6.6,4.1 6.2,7.9 l -4,14.1 c -0.3,3.8 0.9,7 2.7,7.1 1.8,0.1 3.2,0.1 3.3,0 0,-0.1 0.1,-3.3 0.3,-7.1 l 3.3,-13.2 c 0.1,-3.8 0.3,-8.8 0.4,-11.2 0.3,-2.4 -0.7,-4.3 -2,-4.3 z"
               id="path5966"
               inkscape:connector-curvature="0"
               style="fill:#4d4d4d;fill-opacity:1" />
            <path
               class="st4"
               d="m 1566.7,177.7 -32.1,-0.9 c -3.8,-0.1 -8,-0.2 -9.3,-0.2 -1.3,0 -2.3,1.9 -2.2,4.2 0.1,2.3 0.3,7.4 0.4,11.2 l 3.3,13.2 c 0.1,3.8 0.3,7 0.3,7.1 0,0.1 1.4,0.2 3.2,0 1.8,-0.1 3,-3.3 2.7,-7.1 l -4,-14.1 c -0.3,-3.8 2.4,-7.3 6.2,-7.9 l 3.1,-0.4 c 0.2,2.2 2.1,3.9 4.3,3.9 2.4,0 4.3,-2 4.3,-4.3 0,-0.2 0,-0.6 -0.1,-0.8 l 19.7,-2.8 c 4.1,-0.4 4.1,-1 0.2,-1.1 z"
               id="path5968"
               inkscape:connector-curvature="0"
               style="fill:#4d4d4d;fill-opacity:1" />
            <path
               class="st4"
               d="m 1469.2,143.9 c 3.9,0 7.1,-4 7.1,-8.8 0,-4.9 -3.1,-8.8 -7.1,-8.8 -3.9,0 -7.1,4 -7.1,8.8 0,4.8 3.1,8.8 7.1,8.8 z"
               id="path5970"
               inkscape:connector-curvature="0"
               style="fill:#4d4d4d;fill-opacity:1" />
            <path
               class="st4"
               d="m 1460.8,157.9 c 3.2,0 5.9,-2.7 5.9,-5.9 0,-3.2 -2.7,-5.9 -5.9,-5.9 -3.2,0 -5.9,2.7 -5.9,5.9 0,3.2 2.6,5.9 5.9,5.9 z"
               id="path5972"
               inkscape:connector-curvature="0"
               style="fill:#4d4d4d;fill-opacity:1" />
            <path
               class="st4"
               d="m 1488,138.5 c 1.9,0.6 4.3,-1.9 5.6,-5.7 1.2,-3.7 0.7,-7.2 -1.2,-7.8 -1.9,-0.6 -4.3,1.9 -5.4,5.7 -1.5,3.6 -0.9,7.2 1,7.8 z"
               id="path5974"
               inkscape:connector-curvature="0"
               style="fill:#4d4d4d;fill-opacity:1" />
            <path
               class="st4"
               d="m 1480.5,157.4 c 2.3,0 4.1,-1.6 4.1,-3.6 0,-2 -1.9,-3.6 -4.1,-3.6 -2.2,0 -4.1,1.6 -4.1,3.6 -0.1,2 1.8,3.6 4.1,3.6 z"
               id="path5976"
               inkscape:connector-curvature="0"
               style="fill:#4d4d4d;fill-opacity:1" />
            <path
               class="st4"
               d="m 1579.4,218.6 c -2.9,-1.4 -6.4,-0.2 -7.9,2.7 -1.5,2.9 -0.2,6.4 2.7,7.9 2.9,1.4 6.4,0.2 7.9,-2.7 1.4,-2.9 0.2,-6.4 -2.7,-7.9 z"
               id="path5978"
               inkscape:connector-curvature="0"
               style="fill:#4d4d4d;fill-opacity:1" />
            <path
               class="st4"
               d="m 1575.3,213.7 c 1.9,0.3 4,-2.6 4.6,-6.4 0.6,-3.9 -0.4,-7.2 -2.4,-7.6 -1.9,-0.3 -4,2.6 -4.6,6.4 -0.6,3.8 0.5,7.3 2.4,7.6 z"
               id="path5980"
               inkscape:connector-curvature="0"
               style="fill:#4d4d4d;fill-opacity:1" />
            <path
               class="st4"
               d="m 1567.3,213.8 c -2,-1 -4.4,-0.4 -5.2,1.3 -0.9,1.8 0.1,4 2.1,5 2,1 4.4,0.4 5.2,-1.3 0.9,-1.7 0,-4 -2.1,-5 z"
               id="path5982"
               inkscape:connector-curvature="0"
               style="fill:#4d4d4d;fill-opacity:1" />
          </g>
        </g>
      </g>
    </g>
  </g>
</svg>
