<?xml version="1.0" encoding="UTF-8" standalone="no"?>
<!-- Generator: Adobe Illustrator 16.0.0, SVG Export Plug-In . SVG Version: 6.00 Build 0)  -->

<svg
   xmlns:i="http://ns.adobe.com/AdobeIllustrator/10.0/"
   xmlns:dc="http://purl.org/dc/elements/1.1/"
   xmlns:cc="http://creativecommons.org/ns#"
   xmlns:rdf="http://www.w3.org/1999/02/22-rdf-syntax-ns#"
   xmlns:svg="http://www.w3.org/2000/svg"
   xmlns="http://www.w3.org/2000/svg"
   xmlns:sodipodi="http://sodipodi.sourceforge.net/DTD/sodipodi-0.dtd"
   xmlns:inkscape="http://www.inkscape.org/namespaces/inkscape"
   version="1.1"
   id="root"
   x="0px"
   y="0px"
   width="640px"
   height="480px"
   viewBox="0 0 640 480"
   enable-background="new 0 0 640 480"
   xml:space="preserve"
   inkscape:version="0.92.1 r15371"
   sodipodi:docname="grub-4x3.svg"><metadata
     id="metadata4633"><rdf:RDF><cc:Work
         rdf:about=""><dc:format>image/svg+xml</dc:format><dc:type
           rdf:resource="http://purl.org/dc/dcmitype/StillImage" /><dc:title></dc:title></cc:Work></rdf:RDF></metadata><defs
     id="defs4631"><filter
       style="color-interpolation-filters:sRGB"
       inkscape:label="Drop Shadow"
       id="filter5005"><feFlood
         flood-opacity="1"
         flood-color="rgb(0,0,0)"
         result="flood"
         id="feFlood4995" /><feComposite
         in="flood"
         in2="SourceGraphic"
         operator="in"
         result="composite1"
         id="feComposite4997" /><feGaussianBlur
         in="composite1"
         stdDeviation="2"
         result="blur"
         id="feGaussianBlur4999" /><feOffset
         dx="0"
         dy="0"
         result="offset"
         id="feOffset5001" /><feComposite
         in="SourceGraphic"
         in2="offset"
         operator="over"
         result="composite2"
         id="feComposite5003" /></filter></defs><sodipodi:namedview
     pagecolor="#ffffff"
     bordercolor="#666666"
     borderopacity="1"
     objecttolerance="10"
     gridtolerance="10"
     guidetolerance="10"
     inkscape:pageopacity="0"
     inkscape:pageshadow="2"
     inkscape:window-width="1920"
     inkscape:window-height="1138"
     id="namedview4629"
     showgrid="false"
     inkscape:zoom="0.35355339"
     inkscape:cx="835.79538"
     inkscape:cy="606.48229"
     inkscape:window-x="1920"
     inkscape:window-y="0"
     inkscape:window-maximized="1"
     inkscape:current-layer="root" /><g
     id="g1338"><rect
       y="0"
       x="0"
       height="480"
       width="640"
       id="rect904"
       style="opacity:1;fill:#2c2c2c;fill-opacity:1;stroke:none;stroke-width:4.17853546;stroke-linecap:round;stroke-linejoin:bevel;stroke-miterlimit:4;stroke-dasharray:none;stroke-opacity:1;paint-order:markers stroke fill" /><g
       i:knockout="Off"
       id="g5912"
       transform="matrix(0.4715602,0,0,0.47156372,429.47553,377.90577)"
       style="fill:#ffcb08;fill-opacity:1"><path
         inkscape:connector-curvature="0"
         i:knockout="Off"
         d="m 221.564,104.984 c 0,3.405 -1.196,6.301 -3.584,8.689 -2.389,2.388 -5.284,3.582 -8.688,3.582 h -2.527 c -1.684,0 -2.527,0.82 -2.527,2.457 v 9.832 c 0,1.376 -0.475,2.54 -1.422,3.491 -0.949,0.951 -2.11,1.425 -3.485,1.425 h -2.455 c -1.377,0 -2.538,-0.476 -3.487,-1.431 -0.949,-0.955 -1.421,-2.123 -1.421,-3.507 v -56.78 c 0,-3.402 1.201,-6.3 3.612,-8.688 2.408,-2.389 5.331,-3.583 8.761,-3.583 h 4.951 c 3.403,0 6.299,1.195 8.688,3.583 2.388,2.389 3.584,5.286 3.584,8.688 z m -12.337,-2.581 V 75.281 c 0,-1.644 -0.832,-2.467 -2.493,-2.467 -1.665,0 -2.496,0.824 -2.496,2.467 v 27.123 c 0,1.646 0.831,2.468 2.496,2.468 1.661,-0.001 2.493,-0.823 2.493,-2.469 z"
         id="path5914"
         style="fill:#ffcb08;fill-opacity:1" /><path
         inkscape:connector-curvature="0"
         i:knockout="Off"
         d="m 258.057,122.188 c 0,3.405 -1.196,6.303 -3.583,8.689 -2.39,2.389 -5.285,3.583 -8.688,3.583 h -5.053 c -3.404,0 -6.3,-1.193 -8.688,-3.583 -2.389,-2.387 -3.583,-5.285 -3.583,-8.689 v -4.933 c 0,-3.403 1.193,-6.299 3.583,-8.688 2.388,-2.387 5.284,-3.583 8.688,-3.583 h 2.495 c 1.661,0 2.495,-0.826 2.495,-2.479 V 75.222 c 0,-1.653 -0.82,-2.479 -2.465,-2.479 -1.646,0 -2.466,0.825 -2.466,2.471 v 19.78 c 0,1.385 -0.479,2.557 -1.429,3.512 -0.958,0.956 -2.124,1.435 -3.504,1.435 h -2.463 c -1.381,0 -2.549,-0.477 -3.502,-1.432 -0.956,-0.953 -1.43,-2.12 -1.43,-3.503 V 72.804 c 0,-3.419 1.193,-6.33 3.583,-8.73 2.388,-2.401 5.284,-3.603 8.688,-3.603 h 5.053 c 3.404,0 6.299,1.204 8.688,3.605 2.388,2.403 3.583,5.317 3.583,8.738 v 49.374 z m -12.335,-2.525 c 0,-1.643 -0.82,-2.463 -2.465,-2.463 -1.646,0 -2.466,0.821 -2.466,2.463 0,1.646 0.82,2.468 2.466,2.468 1.644,0 2.465,-0.822 2.465,-2.468 z"
         id="path5916"
         style="fill:#ffcb08;fill-opacity:1" /><path
         inkscape:connector-curvature="0"
         i:knockout="Off"
         d="m 294.549,95.005 c 0,1.383 -0.476,2.55 -1.423,3.503 -0.948,0.955 -2.11,1.432 -3.484,1.432 h -2.455 c -1.376,0 -2.537,-0.479 -3.486,-1.435 -0.949,-0.955 -1.422,-2.127 -1.422,-3.512 v -19.78 c 0,-1.646 -0.843,-2.471 -2.527,-2.471 -1.683,0 -2.527,0.823 -2.527,2.469 v 54.311 c 0,1.384 -0.475,2.552 -1.423,3.507 -0.948,0.955 -2.11,1.431 -3.483,1.431 h -2.456 c -1.376,0 -2.538,-0.476 -3.484,-1.431 -0.949,-0.953 -1.424,-2.12 -1.424,-3.502 V 72.802 c 0,-3.42 1.199,-6.33 3.6,-8.729 2.401,-2.401 5.31,-3.603 8.732,-3.603 h 4.932 c 3.421,0 6.329,1.202 8.73,3.603 2.401,2.401 3.601,5.312 3.601,8.73 v 22.202 z"
         id="path5918"
         style="fill:#ffcb08;fill-opacity:1" /><path
         inkscape:connector-curvature="0"
         i:knockout="Off"
         d="m 331.043,122.188 c 0,3.405 -1.194,6.303 -3.58,8.689 -2.393,2.389 -5.289,3.583 -8.69,3.583 h -12.374 c -1.388,0 -2.559,-0.476 -3.518,-1.431 -0.956,-0.953 -1.434,-2.12 -1.434,-3.502 V 65.403 c 0,-1.379 0.478,-2.546 1.434,-3.501 0.959,-0.954 2.13,-1.431 3.518,-1.431 h 12.374 c 3.401,0 6.298,1.195 8.69,3.583 2.386,2.389 3.58,5.286 3.58,8.688 z m -12.335,-2.525 V 75.281 c 0,-1.644 -0.833,-2.467 -2.495,-2.467 -1.664,0 -2.494,0.824 -2.494,2.467 v 44.382 c 0,1.646 0.83,2.468 2.494,2.468 1.662,0 2.495,-0.822 2.495,-2.468 z"
         id="path5920"
         style="fill:#ffcb08;fill-opacity:1" /><path
         inkscape:connector-curvature="0"
         i:knockout="Off"
         d="m 367.537,122.188 c 0,3.405 -1.196,6.303 -3.584,8.689 -2.388,2.389 -5.286,3.583 -8.687,3.583 h -5.054 c -3.406,0 -6.302,-1.193 -8.689,-3.583 -2.388,-2.387 -3.584,-5.285 -3.584,-8.689 v -56.78 c 0,-1.383 0.479,-2.551 1.432,-3.506 0.953,-0.955 2.12,-1.432 3.502,-1.432 h 2.467 c 1.379,0 2.548,0.477 3.499,1.431 0.955,0.956 1.432,2.122 1.432,3.501 v 54.26 c 0,1.646 0.822,2.468 2.467,2.468 1.643,0 2.466,-0.822 2.466,-2.468 v -54.26 c 0,-1.379 0.475,-2.546 1.43,-3.501 0.954,-0.954 2.122,-1.431 3.505,-1.431 h 2.464 c 1.382,0 2.55,0.477 3.505,1.432 0.954,0.955 1.431,2.123 1.431,3.506 v 56.78 z"
         id="path5922"
         style="fill:#ffcb08;fill-opacity:1" /><path
         inkscape:connector-curvature="0"
         i:knockout="Off"
         d="m 404.03,122.188 c 0,3.405 -1.195,6.303 -3.583,8.689 -2.389,2.389 -5.285,3.583 -8.688,3.583 h -12.373 c -1.389,0 -2.56,-0.476 -3.517,-1.431 -0.958,-0.953 -1.435,-2.12 -1.435,-3.502 v -2.464 c 0,-1.379 0.475,-2.547 1.432,-3.501 0.953,-0.954 2.12,-1.43 3.501,-1.43 h 9.862 c 1.641,0 2.467,-0.813 2.467,-2.44 0,-1.623 -0.833,-2.436 -2.494,-2.436 h -2.495 c -3.405,0 -6.301,-1.194 -8.688,-3.582 -2.392,-2.388 -3.584,-5.284 -3.584,-8.689 V 72.743 c 0,-3.402 1.192,-6.3 3.584,-8.688 2.388,-2.389 5.283,-3.583 8.688,-3.583 h 5.052 c 3.403,0 6.3,1.195 8.688,3.583 2.388,2.389 3.583,5.286 3.583,8.688 v 22.251 c 0,1.385 -0.477,2.557 -1.43,3.512 -0.955,0.956 -2.122,1.435 -3.504,1.435 h -2.468 c -1.38,0 -2.549,-0.477 -3.504,-1.432 -0.955,-0.953 -1.429,-2.12 -1.429,-3.501 V 75.281 c 0,-1.644 -0.821,-2.467 -2.464,-2.467 -1.647,0 -2.468,0.824 -2.468,2.467 v 27.123 c 0,1.646 0.834,2.468 2.498,2.468 h 2.496 c 3.403,0 6.3,1.204 8.688,3.612 2.388,2.408 3.583,5.328 3.583,8.759 v 4.945 z"
         id="path5924"
         style="fill:#ffcb08;fill-opacity:1" /></g><g
       style="filter:url(#filter5005)"
       transform="matrix(0.6056935,0,0,0.6056935,-64.679486,187.86887)"
       id="g4582"><path
         class="st1"
         d="m 274.53752,340.83527 c -0.67027,-1.93626 -2.68101,-5.43644 -4.54282,-7.81955 -1.86181,-2.30864 -4.84068,-5.13859 -6.70249,-6.18118 -1.86181,-1.04262 -10.2027,1.26602 -14.44762,3.2023 l -3.12783,1.41495 c -4.24491,1.93628 -7.74512,3.57466 -7.81957,3.57466 -0.0746,0.0746 -0.59579,0 -0.96814,-0.1489 -0.37235,-0.1489 -5.13859,-1.3405 -9.6814,-2.38312 l -8.11744,-1.93628 c -4.54281,-1.04259 -9.75588,-2.08521 -11.61767,-2.23416 -1.86181,-0.1489 -9.83033,1.1171 -14.37313,2.15971 l -8.71326,2.01073 c -4.54281,1.04262 -8.56431,2.01076 -8.93667,2.08521 -0.37235,0.1489 -1.48942,0.52131 -1.5639,0.44683 -0.0746,-0.0743 -3.72362,-1.71285 -7.96852,-3.6491 l -3.12783,-1.41498 c -4.24493,-1.93628 -9.45797,-3.64913 -11.61766,-3.79808 -2.15972,-0.1489 -7.67064,4.46832 -9.53245,6.77696 -1.86181,2.30863 -3.94702,5.80882 -4.54281,7.81958 -0.67024,1.93625 2.90443,9.68135 5.51095,13.5539 l 5.362,7.89405 c 2.60652,3.87254 4.0215,8.34085 3.20231,9.90478 -0.81922,1.5639 -2.01077,4.46833 -2.60655,6.33011 -0.59576,1.86181 0.0746,10.12821 0.89366,14.74545 l 1.63841,9.83032 c 0.74472,4.61727 2.23417,9.90478 3.27676,11.76659 1.04262,1.86181 9.01114,5.21303 13.55395,6.33012 l 2.01076,0.52132 c 0.37236,0.0746 0.67024,0.22348 1.04259,0.29788 -6.7025,3.64913 -12.95816,7.96851 -18.54356,12.88366 -0.81919,0.74474 0.22349,1.86179 1.04259,1.26602 7.00041,-4.61726 13.7029,-9.01109 20.77776,-12.73472 1.3405,0.67024 2.681,1.5639 3.94702,2.45757 -5.73435,4.61728 -10.724,10.50057 -14.14971,15.86257 -0.44683,0.67023 0.44683,1.48944 1.04259,0.96814 5.1386,-4.91515 9.75589,-10.57506 15.19233,-15.1923 1.1171,0.96814 2.08524,2.01072 2.82995,3.05334 l 0.44684,0.59579 c -6.18119,5.95775 -11.09635,14.07521 -14.00079,21.00112 -0.29787,0.74471 0.74475,1.26602 1.26606,0.67023 4.84068,-6.40461 8.71323,-13.8518 14.1497,-19.66062 l 1.78734,2.53204 c 2.75547,3.79809 6.25566,7.96854 7.89404,9.23456 1.63841,1.26602 8.41535,2.38308 11.17083,2.38308 2.681,0 6.55357,-0.44683 8.5643,-1.04258 2.01077,-0.52132 7.8196,-6.77697 10.50059,-10.57506 l 1.78734,-2.53204 c 5.43644,5.88331 9.38349,13.3305 14.22418,19.7351 0.5213,0.67023 1.48943,-0.0746 1.19155,-0.74471 -2.82995,-6.85144 -7.74512,-14.96889 -13.92631,-20.92666 l 0.37236,-0.52129 c 0.74474,-1.04261 1.78733,-2.08524 2.90443,-3.12783 5.362,4.54277 9.97927,10.20268 15.04337,15.04335 0.67027,0.67024 1.56394,-0.14885 1.11709,-0.89366 -3.42574,-5.28753 -8.41535,-11.17082 -14.14973,-15.78809 1.26605,-0.96815 2.60655,-1.78732 4.0215,-2.45757 7.07488,3.79806 13.85182,8.11746 20.77775,12.80919 0.89367,0.59579 1.71287,-0.67023 0.96815,-1.3405 -5.51095,-4.91515 -11.76661,-9.23453 -18.39463,-12.80919 0.29788,-0.0746 0.59577,-0.22348 0.89365,-0.29789 l 2.08522,-0.52129 c 4.54282,-1.1171 9.68141,-2.9789 11.46873,-4.17044 1.78734,-1.11709 4.46834,-9.38348 5.28752,-14.00076 l 1.63839,-9.8303 c 0.74471,-4.61726 1.3405,-9.97923 1.3405,-11.91552 -0.0746,-1.93628 -2.23417,-7.52168 -3.05336,-9.0856 -0.81918,-1.5639 0.59579,-6.03222 3.2023,-9.90479 l 5.362,-7.89402 c 2.60653,-3.94701 6.18119,-11.69212 5.43649,-13.62841 z"
         id="path5731"
         inkscape:connector-curvature="0"
         style="fill:#2c2c2c;fill-opacity:1;stroke-width:0.74472123" /><g
         id="g5733"
         transform="matrix(0.74472192,0,0,0.7447205,-530.65583,377.25211)"
         style="fill:#ffcb08;fill-opacity:1"><path
           class="st0"
           d="m 911,-36.8 c -3.1,-4.6 -5.8,-8.7 -6,-9.2 0,0 0,0 0,-0.5 0,-0.6 0,-0.6 0,-0.6 0.2,-0.5 2.5,-3.6 5,-6.7 2.5,-3.1 4.9,-5.9 5.4,-6.1 0.5,-0.2 6.5,2.1 12.2,4.7 l 0.9,0.4 c 5.7,2.6 10.3,4.9 10.2,5 -0.1,0.2 -2.8,5.1 -5.7,10.6 l -5,9.4 c -3,5.6 -13.9,-2.4 -17,-7 z"
           id="path5735"
           inkscape:connector-curvature="0"
           style="fill:#ffcb08;fill-opacity:1" /><path
           class="st0"
           d="m 998.9,83.6 c -0.9,0.7 -6.3,1.3 -9.9,1.3 -3.6,0 -7.5,-0.3 -8.6,-0.7 -0.5,-0.2 -1.6,-1.2 -3,-2.8 l 7.6,-6.9 c 2.2,-2 4,-3.7 4,-3.7 0,0 1.8,1.7 4,3.7 l 7.7,7 c -0.8,1.2 -1.5,1.9 -1.8,2.1 z"
           id="path5737"
           inkscape:connector-curvature="0"
           style="fill:#ffcb08;fill-opacity:1" /><path
           class="st0"
           d="m 1055.8,19.9 -2.2,13.2 c -1,6.2 -2.3,11.9 -2.7,12.6 -0.5,0.8 -5.7,2.6 -10.3,3.8 -4.5,1.1 -8.1,1.3 -7.9,0.4 0.2,-0.9 -2.5,-7.3 -5.8,-12.2 -3.4,-4.9 -6.2,-8.8 -6.2,-8.6 0,0.2 0.8,4.2 1.6,8.6 0.9,4.4 1.5,9.1 1.4,10.4 -0.1,1.3 -1.6,4.4 -2.1,5.1 0,0 0,0 0,0.1 -5.8,-2.3 -11.6,-4.2 -17.5,-5.7 -1.6,-0.4 -2.5,2 -0.9,2.4 5.7,1.7 11.1,3.8 16.4,6.1 -0.7,1 -1.5,2.1 -2.3,3.2 -4.5,-2.4 -9.2,-4.1 -14,-4.5 -1.4,-0.1 -1.5,1.9 -0.2,2.1 4.6,0.9 8.7,2.6 12.4,4.8 -1,1.4 -2.2,3.1 -3.5,4.9 -3.2,-2.1 -6.5,-3.7 -9.9,-4.6 -1.3,-0.3 -2,1.5 -0.7,2 3.4,1.3 6.3,2.9 9,4.9 -1.3,1.8 -2.6,3.6 -3.7,5.2 -0.7,1 -1.4,1.9 -2.1,2.9 -0.1,-0.1 -0.3,-0.2 -0.4,-0.3 L 995.9,71 c -2.5,-1.7 -4.5,-3.1 -4.5,-3.2 0,-0.1 0,-2.7 0,-5.7 v -8.4 c 0.1,-0.1 0.1,-0.2 0.2,-0.3 l 13.5,-15.3 c 1.3,-2.7 0,-4.9 -3,-4.9 h -25.8 c -3,0 -4.4,2.2 -3,4.9 l 13.5,15.3 c 0.1,0.1 0.1,0.2 0.2,0.3 v 8.4 c 0,3 0,5.5 0,5.6 0,0.1 -2,1.6 -4.5,3.3 l -8.3,5.7 c -0.1,0.1 -0.2,0.2 -0.4,0.3 -0.8,-1 -1.5,-2 -2.2,-2.9 -1.1,-1.6 -2.4,-3.3 -3.7,-5.1 2.7,-2 5.7,-3.7 9.1,-5 1.1,-0.4 0.5,-2.3 -0.6,-2 -3.5,0.9 -6.9,2.6 -10.1,4.7 -1.3,-1.8 -2.5,-3.5 -3.5,-4.9 3.8,-2.2 7.9,-3.9 12.5,-4.8 1.4,-0.3 1,-2.2 -0.4,-2.1 -4.8,0.4 -9.5,2.1 -13.9,4.5 -0.8,-1.1 -1.6,-2.3 -2.3,-3.2 5.2,-2.3 10.5,-4.3 16.2,-6 1.6,-0.5 1.2,-3 -0.5,-2.6 -6,1.5 -11.9,3.4 -17.7,5.8 l -0.1,-0.1 c -0.5,-0.7 -1.3,-2.2 -1.7,-3.5 -0.5,-1.3 0.2,-7.6 1.1,-12 0.9,-4.4 1.6,-8.1 1.6,-8.3 0,-0.2 -2.7,3.4 -6.1,8.3 -3.4,4.9 -6.1,9.7 -6,10.6 0.1,0.9 -3.2,2.3 -7.7,1.2 -4.5,-1.1 -8.8,-2.5 -9.6,-3 -0.7,-0.5 -2.4,-7.2 -3.4,-13.4 L 922.6,20 c -1,-6.2 -1.8,-12.5 -1.8,-14 0.1,-1.5 1.7,-5.8 2.6,-7.4 0.8,-1.5 3.9,-7.3 6.9,-12.9 l 11,-20.5 c 3,-5.5 6.1,-10.8 7,-11.7 0.9,-0.9 3.4,-2.1 3.5,-2.1 0.1,0 5.2,-1.2 11.3,-2.6 l 11.3,-2.6 c 6.1,-1.4 12.5,-2.7 14.3,-2.8 1.8,-0.1 10.4,1.4 16.5,2.9 l 10.5,2.5 c 6.1,1.4 11.2,2.6 11.3,2.6 0.1,0 1.1,0.6 2.3,1.2 1.1,0.6 5.3,7.2 8.3,12.7 l 11,20.5 c 3,5.5 6.1,11.3 6.9,12.9 0.8,1.5 2.5,5.8 2.6,7.4 -0.4,1.4 -1.2,7.7 -2.3,13.8 z"
           id="path5739"
           inkscape:connector-curvature="0"
           style="fill:#ffcb08;fill-opacity:1" /><path
           class="st0"
           d="m 1073.1,-46.5 c 0,0.5 0,0.5 0,0.5 -0.2,0.4 -2.8,4.5 -6,9.2 -3.1,4.6 -14,12.6 -16.9,7.1 l -5,-9.4 c -3,-5.5 -5.5,-10.2 -5.5,-10.3 -0.1,-0.2 4.3,-2.7 10,-5.3 l 0.9,-0.4 c 5.7,-2.6 10.9,-4.7 11.5,-4.8 0.6,0 3.6,3 6.1,6.1 2.5,3.1 4.7,6.1 5,6.7 -0.1,0 -0.1,0 -0.1,0.6 z"
           id="path5741"
           inkscape:connector-curvature="0"
           style="fill:#ffcb08;fill-opacity:1" /></g><g
         id="g5743"
         transform="matrix(0.74472192,0,0,0.7447205,-530.65583,377.25211)"
         style="fill:#2c2c2c;fill-opacity:1"><path
           class="st1"
           d="m 976.4,-3.4 c -1.1,0 -4.7,0.1 -7.9,0.2 l -27.4,0.8 c -3.2,0.1 -3.3,0.5 -0.1,1 L 957.8,1 c 0,0.2 -0.1,0.4 -0.1,0.7 0,2.1 1.7,3.7 3.7,3.7 1.9,0 3.5,-1.5 3.7,-3.3 l 2.7,0.4 c 3.2,0.5 5.6,3.5 5.3,6.7 l -3.4,12 c -0.3,3.2 0.7,5.9 2.2,6.1 1.5,0.1 2.8,0.1 2.8,0 0,-0.1 0.1,-2.9 0.3,-6.1 l 2.8,-11.3 c 0.1,-3.2 0.3,-7.5 0.4,-9.5 0.2,-2.2 -0.7,-3.9 -1.8,-3.8 z"
           id="path5745"
           inkscape:connector-curvature="0"
           style="fill:#2c2c2c;fill-opacity:1" /><path
           class="st1"
           d="m 1037,-2.4 -27.4,-0.8 c -3.2,-0.1 -6.8,-0.2 -7.9,-0.2 -1.1,0 -2,1.6 -1.9,3.6 0.1,2 0.3,6.3 0.4,9.5 L 1003,21 c 0.1,3.2 0.3,6 0.3,6.1 0,0.1 1.3,0.1 2.8,0 1.5,-0.1 2.5,-2.8 2.2,-6.1 l -3.4,-12 c -0.3,-3.2 2.1,-6.2 5.3,-6.7 l 2.7,-0.4 c 0.2,1.9 1.8,3.3 3.7,3.3 2.1,0 3.7,-1.7 3.7,-3.7 0,-0.2 0,-0.4 -0.1,-0.7 l 16.8,-2.4 c 3.2,-0.3 3.2,-0.8 0,-0.8 z"
           id="path5747"
           inkscape:connector-curvature="0"
           style="fill:#2c2c2c;fill-opacity:1" /><path
           class="st1"
           d="m 953.7,-31.3 c 3.3,0 6,-3.4 6,-7.5 0,-4.2 -2.7,-7.5 -6,-7.5 -3.3,0 -6,3.4 -6,7.5 0,4.1 2.7,7.5 6,7.5 z"
           id="path5749"
           inkscape:connector-curvature="0"
           style="fill:#2c2c2c;fill-opacity:1" /><path
           class="st1"
           d="m 946.6,-19.3 c 2.8,0 5,-2.2 5,-5 0,-2.8 -2.2,-5 -5,-5 -2.8,0 -5,2.2 -5,5 0,2.7 2.2,5 5,5 z"
           id="path5751"
           inkscape:connector-curvature="0"
           style="fill:#2c2c2c;fill-opacity:1" /><path
           class="st1"
           d="m 969.8,-35.9 c 1.6,0.5 3.7,-1.7 4.7,-4.8 1,-3.2 0.5,-6.1 -1,-6.7 -1.6,-0.5 -3.7,1.7 -4.7,4.8 -1,3.2 -0.6,6.2 1,6.7 z"
           id="path5753"
           inkscape:connector-curvature="0"
           style="fill:#2c2c2c;fill-opacity:1" /><path
           class="st1"
           d="m 963.4,-19.8 c 1.9,0 3.5,-1.3 3.5,-3 0,-1.7 -1.6,-3 -3.5,-3 -1.9,0 -3.5,1.3 -3.5,3 0,1.7 1.6,3 3.5,3 z"
           id="path5755"
           inkscape:connector-curvature="0"
           style="fill:#2c2c2c;fill-opacity:1" /><path
           class="st1"
           d="m 1047.7,32.4 c -2.5,-1.2 -5.5,-0.2 -6.7,2.3 -1.2,2.5 -0.2,5.5 2.3,6.7 2.5,1.2 5.5,0.2 6.7,-2.2 1.2,-2.5 0.2,-5.5 -2.3,-6.8 z"
           id="path5757"
           inkscape:connector-curvature="0"
           style="fill:#2c2c2c;fill-opacity:1" /><path
           class="st1"
           d="m 1044.2,28.3 c 1.6,0.3 3.4,-2.2 3.9,-5.5 0.5,-3.3 -0.4,-6.2 -2.1,-6.4 -1.6,-0.3 -3.4,2.2 -3.9,5.5 -0.4,3.2 0.5,6.1 2.1,6.4 z"
           id="path5759"
           inkscape:connector-curvature="0"
           style="fill:#2c2c2c;fill-opacity:1" /><path
           class="st1"
           d="m 1037.4,28.4 c -1.7,-0.9 -3.8,-0.4 -4.5,1.1 -0.7,1.5 0.1,3.4 1.8,4.3 1.7,0.9 3.8,0.4 4.5,-1.1 0.8,-1.6 0,-3.5 -1.8,-4.3 z"
           id="path5761"
           inkscape:connector-curvature="0"
           style="fill:#2c2c2c;fill-opacity:1" /></g></g></g></svg>