<?xml version="1.0" encoding="UTF-8" standalone="no"?>
<!-- Created with Inkscape (http://www.inkscape.org/) -->

<svg
   xmlns:osb="http://www.openswatchbook.org/uri/2009/osb"
   xmlns:dc="http://purl.org/dc/elements/1.1/"
   xmlns:cc="http://creativecommons.org/ns#"
   xmlns:rdf="http://www.w3.org/1999/02/22-rdf-syntax-ns#"
   xmlns:svg="http://www.w3.org/2000/svg"
   xmlns="http://www.w3.org/2000/svg"
   xmlns:sodipodi="http://sodipodi.sourceforge.net/DTD/sodipodi-0.dtd"
   xmlns:inkscape="http://www.inkscape.org/namespaces/inkscape"
   sodipodi:docname="1024x768.svg"
   inkscape:version="0.92.1 r15371"
   id="svg8"
   version="1.1"
   viewBox="0 0 270.93333 203.2"
   height="768"
   width="1024"
   inkscape:export-filename="/home/yunusem/new_bg.svg.png"
   inkscape:export-xdpi="96"
   inkscape:export-ydpi="96">
  <defs
     id="defs2">
    <inkscape:path-effect
       effect="spiro"
       id="path-effect5967"
       is_visible="true" />
    <inkscape:path-effect
       effect="simplify"
       id="path-effect5965"
       is_visible="true"
       steps="1"
       threshold="0.000408163"
       smooth_angles="360"
       helper_size="0"
       simplify_individual_paths="false"
       simplify_just_coalesce="false"
       simplifyindividualpaths="false"
       simplifyJustCoalesce="false" />
    <linearGradient
       id="linearGradient5873"
       osb:paint="solid">
      <stop
         style="stop-color:#d70000;stop-opacity:1;"
         offset="0"
         id="stop5871" />
    </linearGradient>
    <filter
       style="color-interpolation-filters:sRGB"
       inkscape:label="Drop Shadow"
       id="filter4662">
      <feFlood
         flood-opacity="0.498039"
         flood-color="rgb(0,0,0)"
         result="flood"
         id="feFlood4652" />
      <feComposite
         in="flood"
         in2="SourceGraphic"
         operator="in"
         result="composite1"
         id="feComposite4654" />
      <feGaussianBlur
         in="composite1"
         stdDeviation="10"
         result="blur"
         id="feGaussianBlur4656" />
      <feOffset
         dx="0"
         dy="0"
         result="offset"
         id="feOffset4658" />
      <feComposite
         in="SourceGraphic"
         in2="offset"
         operator="over"
         result="fbSourceGraphic"
         id="feComposite4660" />
      <feColorMatrix
         result="fbSourceGraphicAlpha"
         in="fbSourceGraphic"
         values="0 0 0 -1 0 0 0 0 -1 0 0 0 0 -1 0 0 0 0 1 0"
         id="feColorMatrix4664" />
      <feFlood
         id="feFlood4666"
         flood-opacity="0.498039"
         flood-color="rgb(0,0,0)"
         result="flood"
         in="fbSourceGraphic" />
      <feComposite
         in2="fbSourceGraphic"
         id="feComposite4668"
         in="flood"
         operator="in"
         result="composite1" />
      <feGaussianBlur
         id="feGaussianBlur4670"
         in="composite1"
         stdDeviation="8"
         result="blur" />
      <feOffset
         id="feOffset4672"
         dx="0"
         dy="0"
         result="offset" />
      <feComposite
         in2="offset"
         id="feComposite4674"
         in="fbSourceGraphic"
         operator="over"
         result="composite2" />
    </filter>
    <filter
       style="color-interpolation-filters:sRGB"
       inkscape:label="Drop Shadow"
       id="filter4957">
      <feFlood
         flood-opacity="1"
         flood-color="rgb(0,0,0)"
         result="flood"
         id="feFlood4947" />
      <feComposite
         in="flood"
         in2="SourceGraphic"
         operator="in"
         result="composite1"
         id="feComposite4949" />
      <feGaussianBlur
         in="composite1"
         stdDeviation="3"
         result="blur"
         id="feGaussianBlur4951" />
      <feOffset
         dx="0"
         dy="0"
         result="offset"
         id="feOffset4953" />
      <feComposite
         in="SourceGraphic"
         in2="offset"
         operator="over"
         result="fbSourceGraphic"
         id="feComposite4955" />
      <feColorMatrix
         result="fbSourceGraphicAlpha"
         in="fbSourceGraphic"
         values="0 0 0 -1 0 0 0 0 -1 0 0 0 0 -1 0 0 0 0 1 0"
         id="feColorMatrix4607" />
      <feFlood
         id="feFlood4609"
         flood-opacity="0.498039"
         flood-color="rgb(0,0,0)"
         result="flood"
         in="fbSourceGraphic" />
      <feComposite
         in2="fbSourceGraphic"
         id="feComposite4611"
         in="flood"
         operator="in"
         result="composite1" />
      <feGaussianBlur
         id="feGaussianBlur4613"
         in="composite1"
         stdDeviation="3"
         result="blur" />
      <feOffset
         id="feOffset4615"
         dx="0"
         dy="0"
         result="offset" />
      <feComposite
         in2="offset"
         id="feComposite4617"
         in="fbSourceGraphic"
         operator="over"
         result="composite2" />
    </filter>
    <filter
       style="color-interpolation-filters:sRGB"
       inkscape:label="Drop Shadow"
       id="filter4969">
      <feFlood
         flood-opacity="1"
         flood-color="rgb(0,0,0)"
         result="flood"
         id="feFlood4959" />
      <feComposite
         in="flood"
         in2="SourceGraphic"
         operator="in"
         result="composite1"
         id="feComposite4961" />
      <feGaussianBlur
         in="composite1"
         stdDeviation="3"
         result="blur"
         id="feGaussianBlur4963" />
      <feOffset
         dx="0"
         dy="0"
         result="offset"
         id="feOffset4965" />
      <feComposite
         in="SourceGraphic"
         in2="offset"
         operator="over"
         result="fbSourceGraphic"
         id="feComposite4967" />
      <feColorMatrix
         result="fbSourceGraphicAlpha"
         in="fbSourceGraphic"
         values="0 0 0 -1 0 0 0 0 -1 0 0 0 0 -1 0 0 0 0 1 0"
         id="feColorMatrix4595" />
      <feFlood
         id="feFlood4597"
         flood-opacity="0.498039"
         flood-color="rgb(0,0,0)"
         result="flood"
         in="fbSourceGraphic" />
      <feComposite
         in2="fbSourceGraphic"
         id="feComposite4599"
         in="flood"
         operator="in"
         result="composite1" />
      <feGaussianBlur
         id="feGaussianBlur4601"
         in="composite1"
         stdDeviation="3"
         result="blur" />
      <feOffset
         id="feOffset4603"
         dx="0"
         dy="0"
         result="offset" />
      <feComposite
         in2="offset"
         id="feComposite4605"
         in="fbSourceGraphic"
         operator="over"
         result="composite2" />
    </filter>
    <filter
       style="color-interpolation-filters:sRGB"
       inkscape:label="Drop Shadow"
       id="filter4981">
      <feFlood
         flood-opacity="1"
         flood-color="rgb(0,0,0)"
         result="flood"
         id="feFlood4971" />
      <feComposite
         in="flood"
         in2="SourceGraphic"
         operator="in"
         result="composite1"
         id="feComposite4973" />
      <feGaussianBlur
         in="composite1"
         stdDeviation="3"
         result="blur"
         id="feGaussianBlur4975" />
      <feOffset
         dx="0"
         dy="0"
         result="offset"
         id="feOffset4977" />
      <feComposite
         in="SourceGraphic"
         in2="offset"
         operator="over"
         result="composite2"
         id="feComposite4979" />
    </filter>
    <filter
       style="color-interpolation-filters:sRGB"
       inkscape:label="Drop Shadow"
       id="filter5005">
      <feFlood
         flood-opacity="1"
         flood-color="rgb(0,0,0)"
         result="flood"
         id="feFlood4995" />
      <feComposite
         in="flood"
         in2="SourceGraphic"
         operator="in"
         result="composite1"
         id="feComposite4997" />
      <feGaussianBlur
         in="composite1"
         stdDeviation="2"
         result="blur"
         id="feGaussianBlur4999" />
      <feOffset
         dx="0"
         dy="0"
         result="offset"
         id="feOffset5001" />
      <feComposite
         in="SourceGraphic"
         in2="offset"
         operator="over"
         result="composite2"
         id="feComposite5003" />
    </filter>
    <filter
       style="color-interpolation-filters:sRGB"
       inkscape:label="Drop Shadow"
       id="filter4633">
      <feFlood
         flood-opacity="0.498039"
         flood-color="rgb(0,0,0)"
         result="flood"
         id="feFlood4623" />
      <feComposite
         in="flood"
         in2="SourceGraphic"
         operator="in"
         result="composite1"
         id="feComposite4625" />
      <feGaussianBlur
         in="composite1"
         stdDeviation="3"
         result="blur"
         id="feGaussianBlur4627" />
      <feOffset
         dx="0"
         dy="0"
         result="offset"
         id="feOffset4629" />
      <feComposite
         in="SourceGraphic"
         in2="offset"
         operator="over"
         result="composite2"
         id="feComposite4631" />
    </filter>
  </defs>
  <sodipodi:namedview
     inkscape:window-maximized="1"
     inkscape:window-y="0"
     inkscape:window-x="0"
     inkscape:window-height="1172"
     inkscape:window-width="1920"
     units="px"
     showgrid="false"
     inkscape:current-layer="layer1"
     inkscape:document-units="px"
     inkscape:cy="455.64385"
     inkscape:cx="104.68158"
     inkscape:zoom="0.5"
     inkscape:pageshadow="2"
     inkscape:pageopacity="0.0"
     borderopacity="1.0"
     bordercolor="#666666"
     pagecolor="#ffffff"
     id="base"
     showguides="false">
    <inkscape:grid
       type="xygrid"
       id="grid4872" />
  </sodipodi:namedview>
  <metadata
     id="metadata5">
    <rdf:RDF>
      <cc:Work
         rdf:about="">
        <dc:format>image/svg+xml</dc:format>
        <dc:type
           rdf:resource="http://purl.org/dc/dcmitype/StillImage" />
        <dc:title></dc:title>
      </cc:Work>
    </rdf:RDF>
  </metadata>
  <g
     inkscape:label="Layer 1"
     inkscape:groupmode="layer"
     id="layer1"
     transform="translate(0,-93.799984)">
    <g
       id="g4745"
       transform="matrix(0.71111133,0,0,0.71111139,-44.244561,85.799809)">
      <rect
         inkscape:transform-center-y="-119.09018"
         inkscape:transform-center-x="36.576003"
         y="11.249998"
         x="5.6843419e-14"
         height="285.75"
         width="508"
         id="rect4487-7"
         style="opacity:1;fill:#2c2c2c;fill-opacity:1;stroke:none;stroke-width:0.25001311;stroke-linecap:round;stroke-linejoin:round;stroke-miterlimit:4;stroke-dasharray:none;stroke-opacity:1;paint-order:normal" />
      <path
         id="rect4649-6-2-1"
         transform="matrix(0.26458334,0,0,0.26458334,0,11.249983)"
         d="m 1876.9902,0 -476.5898,476.58984 c -4.7009,4.70085 -2.8071,14.16163 4.2441,21.21289 L 1920,1013.1582 V 0 Z"
         style="opacity:1;fill:#ffcb08;fill-opacity:1;stroke:none;stroke-width:4.37047052;stroke-linecap:round;stroke-linejoin:bevel;stroke-miterlimit:15;stroke-dasharray:none;stroke-opacity:1;paint-order:normal;filter:url(#filter4969)"
         inkscape:connector-curvature="0" />
      <path
         id="rect4649-6"
         transform="matrix(0.26458334,0,0,0.26458334,0,11.249983)"
         d="M 905.93164,0 344.20312,562.70312 c -7.05755,7.0698 -8.95113,16.55436 -4.24609,21.26758 L 692.23242,936.85547 1629.0879,0 Z m 824.98046,0 -987.81249,987.8125 89.44336,89.5977 c 4.70506,4.7131 14.17292,2.8158 21.23047,-4.254 L 1925.0742,0 Z"
         style="opacity:1;fill:#4c4c4c;fill-opacity:1;stroke:none;stroke-width:4.37815666;stroke-linecap:round;stroke-linejoin:bevel;stroke-miterlimit:15;stroke-dasharray:none;stroke-opacity:1;paint-order:normal;filter:url(#filter4957)"
         inkscape:connector-curvature="0" />
      <g
         style="filter:url(#filter4981)"
         id="g4945">
        <path
           style="opacity:1;fill:#3c3c3c;fill-opacity:1;stroke:none;stroke-width:4.37047052;stroke-linecap:round;stroke-linejoin:bevel;stroke-miterlimit:15;stroke-dasharray:none;stroke-opacity:1;paint-order:normal"
           d="m 0,0 v 245.90234 l 827.27148,827.27146 c 7.05127,7.0513 16.51204,8.945 21.2129,4.2442 L 1340.6309,585.27148 c 4.7008,-4.70084 2.809,-14.16162 -4.2422,-21.21289 L 772.33008,0 Z"
           transform="matrix(0.26458334,0,0,0.26458334,0,11.249983)"
           id="rect4649-6-2"
           inkscape:connector-curvature="0" />
        <path
           style="opacity:1;fill:#ffcb08;fill-opacity:1;stroke:none;stroke-width:5.35271168;stroke-linecap:round;stroke-linejoin:bevel;stroke-miterlimit:15;stroke-dasharray:none;stroke-opacity:1;paint-order:normal"
           d="m 0,146.29883 v 101.82422 l 826.3125,826.31245 c 7.0512,7.0512 18.40576,7.0512 25.45703,0 l 50.91016,-50.9121 c -7.05128,7.0512 -18.40377,7.0512 -25.45508,0 z"
           transform="matrix(0.26458334,0,0,0.26458334,0,11.249983)"
           id="rect4649-6-3"
           inkscape:connector-curvature="0" />
      </g>
      <g
         style="filter:url(#filter5005)"
         transform="matrix(0.57692308,0,0,0.57692308,61.159456,-64.947926)"
         id="g4582">
        <path
           class="st1"
           d="m 274.53752,340.83527 c -0.67027,-1.93626 -2.68101,-5.43644 -4.54282,-7.81955 -1.86181,-2.30864 -4.84068,-5.13859 -6.70249,-6.18118 -1.86181,-1.04262 -10.2027,1.26602 -14.44762,3.2023 l -3.12783,1.41495 c -4.24491,1.93628 -7.74512,3.57466 -7.81957,3.57466 -0.0746,0.0746 -0.59579,0 -0.96814,-0.1489 -0.37235,-0.1489 -5.13859,-1.3405 -9.6814,-2.38312 l -8.11744,-1.93628 c -4.54281,-1.04259 -9.75588,-2.08521 -11.61767,-2.23416 -1.86181,-0.1489 -9.83033,1.1171 -14.37313,2.15971 l -8.71326,2.01073 c -4.54281,1.04262 -8.56431,2.01076 -8.93667,2.08521 -0.37235,0.1489 -1.48942,0.52131 -1.5639,0.44683 -0.0746,-0.0743 -3.72362,-1.71285 -7.96852,-3.6491 l -3.12783,-1.41498 c -4.24493,-1.93628 -9.45797,-3.64913 -11.61766,-3.79808 -2.15972,-0.1489 -7.67064,4.46832 -9.53245,6.77696 -1.86181,2.30863 -3.94702,5.80882 -4.54281,7.81958 -0.67024,1.93625 2.90443,9.68135 5.51095,13.5539 l 5.362,7.89405 c 2.60652,3.87254 4.0215,8.34085 3.20231,9.90478 -0.81922,1.5639 -2.01077,4.46833 -2.60655,6.33011 -0.59576,1.86181 0.0746,10.12821 0.89366,14.74545 l 1.63841,9.83032 c 0.74472,4.61727 2.23417,9.90478 3.27676,11.76659 1.04262,1.86181 9.01114,5.21303 13.55395,6.33012 l 2.01076,0.52132 c 0.37236,0.0746 0.67024,0.22348 1.04259,0.29788 -6.7025,3.64913 -12.95816,7.96851 -18.54356,12.88366 -0.81919,0.74474 0.22349,1.86179 1.04259,1.26602 7.00041,-4.61726 13.7029,-9.01109 20.77776,-12.73472 1.3405,0.67024 2.681,1.5639 3.94702,2.45757 -5.73435,4.61728 -10.724,10.50057 -14.14971,15.86257 -0.44683,0.67023 0.44683,1.48944 1.04259,0.96814 5.1386,-4.91515 9.75589,-10.57506 15.19233,-15.1923 1.1171,0.96814 2.08524,2.01072 2.82995,3.05334 l 0.44684,0.59579 c -6.18119,5.95775 -11.09635,14.07521 -14.00079,21.00112 -0.29787,0.74471 0.74475,1.26602 1.26606,0.67023 4.84068,-6.40461 8.71323,-13.8518 14.1497,-19.66062 l 1.78734,2.53204 c 2.75547,3.79809 6.25566,7.96854 7.89404,9.23456 1.63841,1.26602 8.41535,2.38308 11.17083,2.38308 2.681,0 6.55357,-0.44683 8.5643,-1.04258 2.01077,-0.52132 7.8196,-6.77697 10.50059,-10.57506 l 1.78734,-2.53204 c 5.43644,5.88331 9.38349,13.3305 14.22418,19.7351 0.5213,0.67023 1.48943,-0.0746 1.19155,-0.74471 -2.82995,-6.85144 -7.74512,-14.96889 -13.92631,-20.92666 l 0.37236,-0.52129 c 0.74474,-1.04261 1.78733,-2.08524 2.90443,-3.12783 5.362,4.54277 9.97927,10.20268 15.04337,15.04335 0.67027,0.67024 1.56394,-0.14885 1.11709,-0.89366 -3.42574,-5.28753 -8.41535,-11.17082 -14.14973,-15.78809 1.26605,-0.96815 2.60655,-1.78732 4.0215,-2.45757 7.07488,3.79806 13.85182,8.11746 20.77775,12.80919 0.89367,0.59579 1.71287,-0.67023 0.96815,-1.3405 -5.51095,-4.91515 -11.76661,-9.23453 -18.39463,-12.80919 0.29788,-0.0746 0.59577,-0.22348 0.89365,-0.29789 l 2.08522,-0.52129 c 4.54282,-1.1171 9.68141,-2.9789 11.46873,-4.17044 1.78734,-1.11709 4.46834,-9.38348 5.28752,-14.00076 l 1.63839,-9.8303 c 0.74471,-4.61726 1.3405,-9.97923 1.3405,-11.91552 -0.0746,-1.93628 -2.23417,-7.52168 -3.05336,-9.0856 -0.81918,-1.5639 0.59579,-6.03222 3.2023,-9.90479 l 5.362,-7.89402 c 2.60653,-3.94701 6.18119,-11.69212 5.43649,-13.62841 z"
           id="path5731"
           inkscape:connector-curvature="0"
           style="fill:#2c2c2c;fill-opacity:1;stroke-width:0.74472123" />
        <g
           id="g5733"
           transform="matrix(0.74472192,0,0,0.7447205,-530.65583,377.25211)"
           style="fill:#ffcb08;fill-opacity:1">
          <path
             class="st0"
             d="m 911,-36.8 c -3.1,-4.6 -5.8,-8.7 -6,-9.2 0,0 0,0 0,-0.5 0,-0.6 0,-0.6 0,-0.6 0.2,-0.5 2.5,-3.6 5,-6.7 2.5,-3.1 4.9,-5.9 5.4,-6.1 0.5,-0.2 6.5,2.1 12.2,4.7 l 0.9,0.4 c 5.7,2.6 10.3,4.9 10.2,5 -0.1,0.2 -2.8,5.1 -5.7,10.6 l -5,9.4 c -3,5.6 -13.9,-2.4 -17,-7 z"
             id="path5735"
             inkscape:connector-curvature="0"
             style="fill:#ffcb08;fill-opacity:1" />
          <path
             class="st0"
             d="m 998.9,83.6 c -0.9,0.7 -6.3,1.3 -9.9,1.3 -3.6,0 -7.5,-0.3 -8.6,-0.7 -0.5,-0.2 -1.6,-1.2 -3,-2.8 l 7.6,-6.9 c 2.2,-2 4,-3.7 4,-3.7 0,0 1.8,1.7 4,3.7 l 7.7,7 c -0.8,1.2 -1.5,1.9 -1.8,2.1 z"
             id="path5737"
             inkscape:connector-curvature="0"
             style="fill:#ffcb08;fill-opacity:1" />
          <path
             class="st0"
             d="m 1055.8,19.9 -2.2,13.2 c -1,6.2 -2.3,11.9 -2.7,12.6 -0.5,0.8 -5.7,2.6 -10.3,3.8 -4.5,1.1 -8.1,1.3 -7.9,0.4 0.2,-0.9 -2.5,-7.3 -5.8,-12.2 -3.4,-4.9 -6.2,-8.8 -6.2,-8.6 0,0.2 0.8,4.2 1.6,8.6 0.9,4.4 1.5,9.1 1.4,10.4 -0.1,1.3 -1.6,4.4 -2.1,5.1 0,0 0,0 0,0.1 -5.8,-2.3 -11.6,-4.2 -17.5,-5.7 -1.6,-0.4 -2.5,2 -0.9,2.4 5.7,1.7 11.1,3.8 16.4,6.1 -0.7,1 -1.5,2.1 -2.3,3.2 -4.5,-2.4 -9.2,-4.1 -14,-4.5 -1.4,-0.1 -1.5,1.9 -0.2,2.1 4.6,0.9 8.7,2.6 12.4,4.8 -1,1.4 -2.2,3.1 -3.5,4.9 -3.2,-2.1 -6.5,-3.7 -9.9,-4.6 -1.3,-0.3 -2,1.5 -0.7,2 3.4,1.3 6.3,2.9 9,4.9 -1.3,1.8 -2.6,3.6 -3.7,5.2 -0.7,1 -1.4,1.9 -2.1,2.9 -0.1,-0.1 -0.3,-0.2 -0.4,-0.3 L 995.9,71 c -2.5,-1.7 -4.5,-3.1 -4.5,-3.2 0,-0.1 0,-2.7 0,-5.7 v -8.4 c 0.1,-0.1 0.1,-0.2 0.2,-0.3 l 13.5,-15.3 c 1.3,-2.7 0,-4.9 -3,-4.9 h -25.8 c -3,0 -4.4,2.2 -3,4.9 l 13.5,15.3 c 0.1,0.1 0.1,0.2 0.2,0.3 v 8.4 c 0,3 0,5.5 0,5.6 0,0.1 -2,1.6 -4.5,3.3 l -8.3,5.7 c -0.1,0.1 -0.2,0.2 -0.4,0.3 -0.8,-1 -1.5,-2 -2.2,-2.9 -1.1,-1.6 -2.4,-3.3 -3.7,-5.1 2.7,-2 5.7,-3.7 9.1,-5 1.1,-0.4 0.5,-2.3 -0.6,-2 -3.5,0.9 -6.9,2.6 -10.1,4.7 -1.3,-1.8 -2.5,-3.5 -3.5,-4.9 3.8,-2.2 7.9,-3.9 12.5,-4.8 1.4,-0.3 1,-2.2 -0.4,-2.1 -4.8,0.4 -9.5,2.1 -13.9,4.5 -0.8,-1.1 -1.6,-2.3 -2.3,-3.2 5.2,-2.3 10.5,-4.3 16.2,-6 1.6,-0.5 1.2,-3 -0.5,-2.6 -6,1.5 -11.9,3.4 -17.7,5.8 l -0.1,-0.1 c -0.5,-0.7 -1.3,-2.2 -1.7,-3.5 -0.5,-1.3 0.2,-7.6 1.1,-12 0.9,-4.4 1.6,-8.1 1.6,-8.3 0,-0.2 -2.7,3.4 -6.1,8.3 -3.4,4.9 -6.1,9.7 -6,10.6 0.1,0.9 -3.2,2.3 -7.7,1.2 -4.5,-1.1 -8.8,-2.5 -9.6,-3 -0.7,-0.5 -2.4,-7.2 -3.4,-13.4 L 922.6,20 c -1,-6.2 -1.8,-12.5 -1.8,-14 0.1,-1.5 1.7,-5.8 2.6,-7.4 0.8,-1.5 3.9,-7.3 6.9,-12.9 l 11,-20.5 c 3,-5.5 6.1,-10.8 7,-11.7 0.9,-0.9 3.4,-2.1 3.5,-2.1 0.1,0 5.2,-1.2 11.3,-2.6 l 11.3,-2.6 c 6.1,-1.4 12.5,-2.7 14.3,-2.8 1.8,-0.1 10.4,1.4 16.5,2.9 l 10.5,2.5 c 6.1,1.4 11.2,2.6 11.3,2.6 0.1,0 1.1,0.6 2.3,1.2 1.1,0.6 5.3,7.2 8.3,12.7 l 11,20.5 c 3,5.5 6.1,11.3 6.9,12.9 0.8,1.5 2.5,5.8 2.6,7.4 -0.4,1.4 -1.2,7.7 -2.3,13.8 z"
             id="path5739"
             inkscape:connector-curvature="0"
             style="fill:#ffcb08;fill-opacity:1" />
          <path
             class="st0"
             d="m 1073.1,-46.5 c 0,0.5 0,0.5 0,0.5 -0.2,0.4 -2.8,4.5 -6,9.2 -3.1,4.6 -14,12.6 -16.9,7.1 l -5,-9.4 c -3,-5.5 -5.5,-10.2 -5.5,-10.3 -0.1,-0.2 4.3,-2.7 10,-5.3 l 0.9,-0.4 c 5.7,-2.6 10.9,-4.7 11.5,-4.8 0.6,0 3.6,3 6.1,6.1 2.5,3.1 4.7,6.1 5,6.7 -0.1,0 -0.1,0 -0.1,0.6 z"
             id="path5741"
             inkscape:connector-curvature="0"
             style="fill:#ffcb08;fill-opacity:1" />
        </g>
        <g
           id="g5743"
           transform="matrix(0.74472192,0,0,0.7447205,-530.65583,377.25211)"
           style="fill:#2c2c2c;fill-opacity:1">
          <path
             class="st1"
             d="m 976.4,-3.4 c -1.1,0 -4.7,0.1 -7.9,0.2 l -27.4,0.8 c -3.2,0.1 -3.3,0.5 -0.1,1 L 957.8,1 c 0,0.2 -0.1,0.4 -0.1,0.7 0,2.1 1.7,3.7 3.7,3.7 1.9,0 3.5,-1.5 3.7,-3.3 l 2.7,0.4 c 3.2,0.5 5.6,3.5 5.3,6.7 l -3.4,12 c -0.3,3.2 0.7,5.9 2.2,6.1 1.5,0.1 2.8,0.1 2.8,0 0,-0.1 0.1,-2.9 0.3,-6.1 l 2.8,-11.3 c 0.1,-3.2 0.3,-7.5 0.4,-9.5 0.2,-2.2 -0.7,-3.9 -1.8,-3.8 z"
             id="path5745"
             inkscape:connector-curvature="0"
             style="fill:#2c2c2c;fill-opacity:1" />
          <path
             class="st1"
             d="m 1037,-2.4 -27.4,-0.8 c -3.2,-0.1 -6.8,-0.2 -7.9,-0.2 -1.1,0 -2,1.6 -1.9,3.6 0.1,2 0.3,6.3 0.4,9.5 L 1003,21 c 0.1,3.2 0.3,6 0.3,6.1 0,0.1 1.3,0.1 2.8,0 1.5,-0.1 2.5,-2.8 2.2,-6.1 l -3.4,-12 c -0.3,-3.2 2.1,-6.2 5.3,-6.7 l 2.7,-0.4 c 0.2,1.9 1.8,3.3 3.7,3.3 2.1,0 3.7,-1.7 3.7,-3.7 0,-0.2 0,-0.4 -0.1,-0.7 l 16.8,-2.4 c 3.2,-0.3 3.2,-0.8 0,-0.8 z"
             id="path5747"
             inkscape:connector-curvature="0"
             style="fill:#2c2c2c;fill-opacity:1" />
          <path
             class="st1"
             d="m 953.7,-31.3 c 3.3,0 6,-3.4 6,-7.5 0,-4.2 -2.7,-7.5 -6,-7.5 -3.3,0 -6,3.4 -6,7.5 0,4.1 2.7,7.5 6,7.5 z"
             id="path5749"
             inkscape:connector-curvature="0"
             style="fill:#2c2c2c;fill-opacity:1" />
          <path
             class="st1"
             d="m 946.6,-19.3 c 2.8,0 5,-2.2 5,-5 0,-2.8 -2.2,-5 -5,-5 -2.8,0 -5,2.2 -5,5 0,2.7 2.2,5 5,5 z"
             id="path5751"
             inkscape:connector-curvature="0"
             style="fill:#2c2c2c;fill-opacity:1" />
          <path
             class="st1"
             d="m 969.8,-35.9 c 1.6,0.5 3.7,-1.7 4.7,-4.8 1,-3.2 0.5,-6.1 -1,-6.7 -1.6,-0.5 -3.7,1.7 -4.7,4.8 -1,3.2 -0.6,6.2 1,6.7 z"
             id="path5753"
             inkscape:connector-curvature="0"
             style="fill:#2c2c2c;fill-opacity:1" />
          <path
             class="st1"
             d="m 963.4,-19.8 c 1.9,0 3.5,-1.3 3.5,-3 0,-1.7 -1.6,-3 -3.5,-3 -1.9,0 -3.5,1.3 -3.5,3 0,1.7 1.6,3 3.5,3 z"
             id="path5755"
             inkscape:connector-curvature="0"
             style="fill:#2c2c2c;fill-opacity:1" />
          <path
             class="st1"
             d="m 1047.7,32.4 c -2.5,-1.2 -5.5,-0.2 -6.7,2.3 -1.2,2.5 -0.2,5.5 2.3,6.7 2.5,1.2 5.5,0.2 6.7,-2.2 1.2,-2.5 0.2,-5.5 -2.3,-6.8 z"
             id="path5757"
             inkscape:connector-curvature="0"
             style="fill:#2c2c2c;fill-opacity:1" />
          <path
             class="st1"
             d="m 1044.2,28.3 c 1.6,0.3 3.4,-2.2 3.9,-5.5 0.5,-3.3 -0.4,-6.2 -2.1,-6.4 -1.6,-0.3 -3.4,2.2 -3.9,5.5 -0.4,3.2 0.5,6.1 2.1,6.4 z"
             id="path5759"
             inkscape:connector-curvature="0"
             style="fill:#2c2c2c;fill-opacity:1" />
          <path
             class="st1"
             d="m 1037.4,28.4 c -1.7,-0.9 -3.8,-0.4 -4.5,1.1 -0.7,1.5 0.1,3.4 1.8,4.3 1.7,0.9 3.8,0.4 4.5,-1.1 0.8,-1.6 0,-3.5 -1.8,-4.3 z"
             id="path5761"
             inkscape:connector-curvature="0"
             style="fill:#2c2c2c;fill-opacity:1" />
        </g>
      </g>
      <g
         transform="matrix(0.54745237,0,0,0.54745177,82.142699,77.396843)"
         id="text4666"
         style="font-style:normal;font-variant:normal;font-weight:normal;font-stretch:normal;font-size:17.63888931px;line-height:6.61458349px;font-family:Pardus;-inkscape-font-specification:Pardus;letter-spacing:0px;word-spacing:0px;fill:#ffcb08;fill-opacity:1;stroke:none;stroke-width:0.5291667;stroke-linecap:butt;stroke-linejoin:miter;stroke-miterlimit:4;stroke-dasharray:none;stroke-opacity:0.94117647;paint-order:markers stroke fill"
         aria-label="pardus 17">
        <path
           inkscape:connector-curvature="0"
           id="path4668"
           style="fill:#ffcb08;fill-opacity:1;stroke:none;stroke-width:0.5291667;stroke-miterlimit:4;stroke-dasharray:none;stroke-opacity:0.94117647;paint-order:markers stroke fill"
           d="m 251.61875,184.94895 c 0,0.61736 -0.21166,1.12889 -0.635,1.55222 -0.44097,0.44097 -0.9525,0.65264 -1.56986,0.65264 0,0 -0.44097,0 -0.44097,0 -0.29986,0 -0.44097,0.14111 -0.44097,0.44097 0,0 0,1.76389 0,1.76389 0,0.24695 -0.0882,0.45861 -0.24695,0.61736 -0.17638,0.17639 -0.38805,0.26459 -0.635,0.26459 0,0 -0.44097,0 -0.44097,0 -0.24694,0 -0.45861,-0.0882 -0.61736,-0.26459 -0.17639,-0.15875 -0.26458,-0.37041 -0.26458,-0.61736 0,0 0,-10.14236 0,-10.14236 0,-0.61736 0.21166,-1.12889 0.65264,-1.56986 0.42333,-0.42333 0.93486,-0.635 1.55222,-0.635 0,0 0.88194,0 0.88194,0 0.61736,0 1.12889,0.21167 1.56986,0.635 0.42334,0.44097 0.635,0.9525 0.635,1.56986 0,0 0,5.73264 0,5.73264 z m -2.20486,-0.44097 c 0,0 0,-4.8507 0,-4.8507 0,-0.29986 -0.14111,-0.44097 -0.44097,-0.44097 -0.29986,0 -0.44097,0.14111 -0.44097,0.44097 0,0 0,4.8507 0,4.8507 0,0.29986 0.14111,0.44097 0.44097,0.44097 0.29986,0 0.44097,-0.14111 0.44097,-0.44097 z" />
        <path
           inkscape:connector-curvature="0"
           id="path4670"
           style="fill:#ffcb08;fill-opacity:1;stroke:none;stroke-width:0.5291667;stroke-miterlimit:4;stroke-dasharray:none;stroke-opacity:0.94117647;paint-order:markers stroke fill"
           d="m 257.78548,188.03575 c 0,0.61737 -0.21167,1.12889 -0.635,1.55223 -0.44098,0.44097 -0.9525,0.65264 -1.56987,0.65264 0,0 -0.88194,0 -0.88194,0 -0.61736,0 -1.12889,-0.21167 -1.55222,-0.65264 -0.44098,-0.42334 -0.65264,-0.93486 -0.65264,-1.55223 0,0 0,-0.88194 0,-0.88194 0,-0.61736 0.21166,-1.12889 0.65264,-1.56986 0.42333,-0.42333 0.93486,-0.635 1.55222,-0.635 0,0 0.44097,0 0.44097,0 0.29986,0 0.44097,-0.14111 0.44097,-0.44097 0,0 0,-4.8507 0,-4.8507 0,-0.29986 -0.14111,-0.44097 -0.44097,-0.44097 -0.29986,0 -0.44097,0.14111 -0.44097,0.44097 0,0 0,3.52778 0,3.52778 0,0.24694 -0.0882,0.45861 -0.24695,0.61736 -0.17638,0.17639 -0.38805,0.26458 -0.635,0.26458 0,0 -0.44097,0 -0.44097,0 -0.24694,0 -0.45861,-0.0882 -0.61736,-0.26458 -0.17639,-0.15875 -0.26458,-0.37042 -0.26458,-0.61736 0,0 0,-3.96875 0,-3.96875 0,-0.61736 0.21166,-1.12889 0.65264,-1.56986 0.42333,-0.42333 0.93486,-0.635 1.55222,-0.635 0,0 0.88194,0 0.88194,0 0.61737,0 1.12889,0.21167 1.56987,0.635 0.42333,0.44097 0.635,0.9525 0.635,1.56986 0,0 0,8.81944 0,8.81944 z m -2.20487,-0.44097 c 0,-0.29986 -0.14111,-0.44097 -0.44097,-0.44097 -0.29986,0 -0.44097,0.14111 -0.44097,0.44097 0,0.29986 0.14111,0.44097 0.44097,0.44097 0.29986,0 0.44097,-0.14111 0.44097,-0.44097 z" />
        <path
           inkscape:connector-curvature="0"
           id="path4672"
           style="fill:#ffcb08;fill-opacity:1;stroke:none;stroke-width:0.5291667;stroke-miterlimit:4;stroke-dasharray:none;stroke-opacity:0.94117647;paint-order:markers stroke fill"
           d="m 263.9522,183.18506 c 0,0.24694 -0.0882,0.45861 -0.24695,0.61736 -0.17639,0.17639 -0.38805,0.26458 -0.635,0.26458 0,0 -0.44097,0 -0.44097,0 -0.24695,0 -0.45861,-0.0882 -0.61736,-0.26458 -0.17639,-0.15875 -0.26459,-0.37042 -0.26459,-0.61736 0,0 0,-3.52778 0,-3.52778 0,-0.29986 -0.14111,-0.44097 -0.44097,-0.44097 -0.29986,0 -0.44097,0.14111 -0.44097,0.44097 0,0 0,9.70139 0,9.70139 0,0.24695 -0.0882,0.45861 -0.24694,0.61736 -0.17639,0.17639 -0.38806,0.26459 -0.635,0.26459 0,0 -0.44098,0 -0.44098,0 -0.24694,0 -0.45861,-0.0882 -0.61736,-0.26459 -0.17639,-0.15875 -0.26458,-0.37041 -0.26458,-0.61736 0,0 0,-10.14236 0,-10.14236 0,-0.61736 0.21167,-1.12889 0.65264,-1.56986 0.42333,-0.42333 0.93486,-0.635 1.55222,-0.635 0,0 0.88194,0 0.88194,0 0.61737,0 1.12889,0.21167 1.56987,0.635 0.42333,0.44097 0.635,0.9525 0.635,1.56986 0,0 0,3.96875 0,3.96875 z" />
        <path
           inkscape:connector-curvature="0"
           id="path4674"
           style="fill:#ffcb08;fill-opacity:1;stroke:none;stroke-width:0.5291667;stroke-miterlimit:4;stroke-dasharray:none;stroke-opacity:0.94117647;paint-order:markers stroke fill"
           d="m 270.11892,188.03575 c 0,0.61737 -0.21167,1.12889 -0.635,1.55223 -0.44098,0.44097 -0.9525,0.65264 -1.56986,0.65264 0,0 -2.20487,0 -2.20487,0 -0.24694,0 -0.45861,-0.0882 -0.61736,-0.26459 -0.17639,-0.15875 -0.26458,-0.37041 -0.26458,-0.61736 0,0 0,-11.46528 0,-11.46528 0,-0.24694 0.0882,-0.45861 0.26458,-0.635 0.15875,-0.15875 0.37042,-0.24694 0.61736,-0.24694 0,0 2.20487,0 2.20487,0 0.61736,0 1.12888,0.21167 1.56986,0.635 0.42333,0.44097 0.635,0.9525 0.635,1.56986 0,0 0,8.81944 0,8.81944 z m -2.20486,-0.44097 c 0,0 0,-7.9375 0,-7.9375 0,-0.29986 -0.14112,-0.44097 -0.44098,-0.44097 -0.29986,0 -0.44097,0.14111 -0.44097,0.44097 0,0 0,7.9375 0,7.9375 0,0.29986 0.14111,0.44097 0.44097,0.44097 0.29986,0 0.44098,-0.14111 0.44098,-0.44097 z" />
        <path
           inkscape:connector-curvature="0"
           id="path4676"
           style="fill:#ffcb08;fill-opacity:1;stroke:none;stroke-width:0.5291667;stroke-miterlimit:4;stroke-dasharray:none;stroke-opacity:0.94117647;paint-order:markers stroke fill"
           d="m 276.28564,188.03575 c 0,0.61737 -0.21167,1.12889 -0.635,1.55223 -0.44097,0.44097 -0.9525,0.65264 -1.56986,0.65264 0,0 -0.88195,0 -0.88195,0 -0.61736,0 -1.12889,-0.21167 -1.55222,-0.65264 -0.44097,-0.42334 -0.65264,-0.93486 -0.65264,-1.55223 0,0 0,-10.14236 0,-10.14236 0,-0.24694 0.0882,-0.45861 0.26458,-0.635 0.15875,-0.15875 0.37042,-0.24694 0.61737,-0.24694 0,0 0.44097,0 0.44097,0 0.24694,0 0.45861,0.0882 0.635,0.24694 0.15875,0.17639 0.24694,0.38806 0.24694,0.635 0,0 0,9.70139 0,9.70139 0,0.29986 0.14111,0.44097 0.44097,0.44097 0.29987,0 0.44098,-0.14111 0.44098,-0.44097 0,0 0,-9.70139 0,-9.70139 0,-0.24694 0.0882,-0.45861 0.26458,-0.635 0.15875,-0.15875 0.37042,-0.24694 0.61736,-0.24694 0,0 0.44097,0 0.44097,0 0.24695,0 0.45861,0.0882 0.635,0.24694 0.15875,0.17639 0.24695,0.38806 0.24695,0.635 0,0 0,10.14236 0,10.14236 z" />
        <path
           inkscape:connector-curvature="0"
           id="path4678"
           style="fill:#ffcb08;fill-opacity:1;stroke:none;stroke-width:0.5291667;stroke-miterlimit:4;stroke-dasharray:none;stroke-opacity:0.94117647;paint-order:markers stroke fill"
           d="m 282.45236,188.03575 c 0,0.61737 -0.21167,1.12889 -0.635,1.55223 -0.44097,0.44097 -0.9525,0.65264 -1.56986,0.65264 0,0 -2.20486,0 -2.20486,0 -0.24695,0 -0.45861,-0.0882 -0.61736,-0.26459 -0.17639,-0.15875 -0.26459,-0.37041 -0.26459,-0.61736 0,0 0,-0.44097 0,-0.44097 0,-0.24695 0.0882,-0.45861 0.26459,-0.635 0.15875,-0.15875 0.37041,-0.24695 0.61736,-0.24695 0,0 1.76389,0 1.76389,0 0.29986,0 0.44097,-0.14111 0.44097,-0.44097 0,-0.29986 -0.14111,-0.44097 -0.44097,-0.44097 0,0 -0.44098,0 -0.44098,0 -0.61736,0 -1.12889,-0.21167 -1.55222,-0.65264 -0.44097,-0.42333 -0.65264,-0.93486 -0.65264,-1.55222 0,0 0,-5.73264 0,-5.73264 0,-0.61736 0.21167,-1.12889 0.65264,-1.56986 0.42333,-0.42333 0.93486,-0.635 1.55222,-0.635 0,0 0.88195,0 0.88195,0 0.61736,0 1.12889,0.21167 1.56986,0.635 0.42333,0.44097 0.635,0.9525 0.635,1.56986 0,0 0,3.96875 0,3.96875 0,0.24694 -0.0882,0.45861 -0.24695,0.61736 -0.17638,0.17639 -0.38805,0.26458 -0.635,0.26458 0,0 -0.44097,0 -0.44097,0 -0.24694,0 -0.45861,-0.0882 -0.61736,-0.26458 -0.17639,-0.15875 -0.26458,-0.37042 -0.26458,-0.61736 0,0 0,-3.52778 0,-3.52778 0,-0.29986 -0.14111,-0.44097 -0.44097,-0.44097 -0.29987,0 -0.44098,0.14111 -0.44098,0.44097 0,0 0,4.8507 0,4.8507 0,0.29986 0.14111,0.44097 0.44098,0.44097 0,0 0.44097,0 0.44097,0 0.61736,0 1.12889,0.21167 1.56986,0.635 0.42333,0.44097 0.635,0.9525 0.635,1.56986 0,0 0,0.88194 0,0.88194 z m -10.44222,-7.63763 c 0,0 0,0 0,0 z" />
        <path
           inkscape:connector-curvature="0"
           id="path4680"
           style="fill:#ffcb08;fill-opacity:1;stroke:none;stroke-width:0.5291667;stroke-miterlimit:4;stroke-dasharray:none;stroke-opacity:0.94117647;paint-order:markers stroke fill"
           d="m 291.69899,189.35867 c 0,0.24695 -0.0882,0.45861 -0.24694,0.61736 -0.17639,0.17639 -0.38806,0.26459 -0.635,0.26459 0,0 -0.44097,0 -0.44097,0 -0.24695,0 -0.45861,-0.0882 -0.61736,-0.26459 -0.17639,-0.15875 -0.26459,-0.37041 -0.26459,-0.61736 0,0 0,-11.46528 0,-11.46528 0,-0.24694 0.0882,-0.45861 0.26459,-0.635 0.15875,-0.15875 0.37041,-0.24694 0.61736,-0.24694 0,0 0.44097,0 0.44097,0 0.24694,0 0.45861,0.0882 0.635,0.24694 0.15875,0.17639 0.24694,0.38806 0.24694,0.635 0,0 0,11.46528 0,11.46528 z" />
        <path
           inkscape:connector-curvature="0"
           id="path4682"
           style="fill:#ffcb08;fill-opacity:1;stroke:none;stroke-width:0.5291667;stroke-miterlimit:4;stroke-dasharray:none;stroke-opacity:0.94117647;paint-order:markers stroke fill"
           d="m 297.88639,189.35867 c 0,0.24695 -0.0882,0.45861 -0.24695,0.61736 -0.17639,0.17639 -0.38805,0.26459 -0.635,0.26459 0,0 -0.44097,0 -0.44097,0 -0.24695,0 -0.45861,-0.0882 -0.61736,-0.26459 -0.17639,-0.15875 -0.26459,-0.37041 -0.26459,-0.61736 0,0 0,-1.76389 0,-1.76389 0,-0.29986 -0.14111,-0.44097 -0.44097,-0.44097 0,0 -1.76389,0 -1.76389,0 -0.24694,0 -0.45861,-0.0882 -0.61736,-0.26458 -0.17639,-0.15875 -0.26458,-0.37042 -0.26458,-0.61736 0,0 0,-0.44098 0,-0.44098 0,-0.24694 0.0882,-0.45861 0.26458,-0.635 0.15875,-0.15875 0.37042,-0.24694 0.61736,-0.24694 0,0 1.76389,0 1.76389,0 0.29986,0 0.44097,-0.14111 0.44097,-0.44097 0,0 0,-4.8507 0,-4.8507 0,-0.29986 -0.14111,-0.44097 -0.44097,-0.44097 -0.29986,0 -0.44097,0.14111 -0.44097,0.44097 0,0 0,3.52778 0,3.52778 0,0.24694 -0.0882,0.45861 -0.24694,0.61736 -0.17639,0.17639 -0.38806,0.26458 -0.635,0.26458 0,0 -0.44098,0 -0.44098,0 -0.24694,0 -0.45861,-0.0882 -0.61736,-0.26458 -0.17639,-0.15875 -0.26458,-0.37042 -0.26458,-0.61736 0,0 0,-3.96875 0,-3.96875 0,-0.61736 0.21167,-1.12889 0.65264,-1.56986 0.42333,-0.42333 0.93486,-0.635 1.55222,-0.635 0,0 0.88194,0 0.88194,0 0.61737,0 1.12889,0.21167 1.56987,0.635 0.42333,0.44097 0.635,0.9525 0.635,1.56986 0,0 0,10.14236 0,10.14236 z" />
      </g>
    </g>
  </g>
</svg>
