<?xml version="1.0" encoding="utf-8"?>
<!-- Generator: Adobe Illustrator 19.1.0, SVG Export Plug-In . SVG Version: 6.00 Build 0)  -->
<svg version="1.1"
	 id="svg12341" xmlns:inkscape="http://www.inkscape.org/namespaces/inkscape" xmlns:cc="http://creativecommons.org/ns#" xmlns:sodipodi="http://sodipodi.sourceforge.net/DTD/sodipodi-0.dtd" xmlns:dc="http://purl.org/dc/elements/1.1/" xmlns:rdf="http://www.w3.org/1999/02/22-rdf-syntax-ns#" xmlns:svg="http://www.w3.org/2000/svg" inkscape:version="0.91 r13725" sodipodi:docname="lines-wallpaper_2560x1080.svg"
	 xmlns="http://www.w3.org/2000/svg" xmlns:xlink="http://www.w3.org/1999/xlink" x="0px" y="0px" viewBox="4100 1380 1280 1024"
	 style="enable-background:new 4100 1380 1280 1024;" xml:space="preserve">
<style type="text/css">
	.st0{fill:#1A1A1A;}
	.st1{fill:#D3A809;}
</style>
<rect id="rect4587_2_" x="4100" y="1380" inkscape:export-ydpi="90" inkscape:export-filename="/home/karbo/Pardus/ArtWork/1200yns1.png" inkscape:export-xdpi="90" class="st0" width="1280" height="1024">
</rect>
<g>
	<path id="path4669_3_" inkscape:connector-curvature="0" class="st1" d="M4875.4,2309.6c0,2-0.7,3.7-2.2,5.2
		c-1.5,1.4-3.2,2.2-5.2,2.2h-1.5c-1,0-1.5,0.5-1.5,1.5v5.9c0,0.8-0.2,1.5-0.8,2.1s-1.3,0.8-2.1,0.8h-1.5c-0.8,0-1.5-0.2-2.1-0.8
		s-0.8-1.3-0.8-2.1v-33.9c0-2,0.7-3.7,2.2-5.2s3.2-2.2,5.2-2.2h3c2,0,3.7,0.7,5.2,2.2c1.4,1.5,2.2,3.2,2.2,5.2L4875.4,2309.6
		L4875.4,2309.6L4875.4,2309.6z M4868,2308v-16.2c0-0.9-0.5-1.5-1.5-1.5c-1,0-1.5,0.5-1.5,1.5v16.2c0,1,0.5,1.5,1.5,1.5
		C4867.5,2309.5,4868,2309,4868,2308z"/>
	<path id="path4671_3_" inkscape:connector-curvature="0" class="st1" d="M4897.1,2319.8c0,2-0.7,3.7-2.2,5.2
		c-1.5,1.5-3.2,2.2-5.2,2.2h-3c-2,0-3.7-0.7-5.2-2.2c-1.5-1.4-2.2-3.2-2.2-5.2v-2.9c0-2,0.7-3.7,2.2-5.2c1.4-1.4,3.2-2.2,5.2-2.2
		h1.5c1,0,1.5-0.5,1.5-1.5v-16.3c0-1-0.5-1.5-1.5-1.5c-1,0-1.5,0.5-1.5,1.5v11.8c0,0.8-0.3,1.5-0.8,2.1c-0.6,0.6-1.3,0.9-2.1,0.9
		h-1.5c-0.8,0-1.5-0.2-2.1-0.8s-0.8-1.3-0.8-2.1v-13.2c0-2,0.7-3.8,2.2-5.2c1.4-1.5,3.2-2.2,5.2-2.2h3c2,0,3.7,0.7,5.2,2.2
		c1.4,1.5,2.2,3.2,2.2,5.2L4897.1,2319.8L4897.1,2319.8z M4889.7,2318.3c0-0.9-0.5-1.5-1.5-1.5c-1,0-1.5,0.5-1.5,1.5
		c0,1,0.5,1.5,1.5,1.5C4889.2,2319.7,4889.7,2319.2,4889.7,2318.3z"/>
	<path id="path4673_3_" inkscape:connector-curvature="0" class="st1" d="M4918.9,2303.6c0,0.8-0.2,1.5-0.8,2.1
		c-0.6,0.6-1.3,0.8-2.1,0.8h-1.5c-0.8,0-1.5-0.3-2.1-0.9c-0.6-0.6-0.8-1.3-0.8-2.1v-11.8c0-1-0.5-1.5-1.5-1.5c-1,0-1.5,0.5-1.5,1.5
		v32.4c0,0.8-0.2,1.5-0.8,2.1s-1.3,0.8-2.1,0.8h-1.5c-0.8,0-1.5-0.2-2.1-0.8s-0.8-1.3-0.8-2.1v-33.8c0-2,0.7-3.8,2.2-5.2
		c1.5-1.5,3.2-2.2,5.2-2.2h2.9c2,0,3.8,0.7,5.2,2.2c1.4,1.5,2.2,3.2,2.2,5.2L4918.9,2303.6L4918.9,2303.6z"/>
	<path id="path4675_3_" inkscape:connector-curvature="0" class="st1" d="M4940.6,2319.8c0,2-0.7,3.7-2.2,5.2
		c-1.5,1.5-3.2,2.2-5.2,2.2h-7.4c-0.8,0-1.5-0.2-2.1-0.8s-0.9-1.3-0.9-2.1V2286c0-0.8,0.3-1.5,0.9-2.1s1.3-0.8,2.1-0.8h7.4
		c2,0,3.7,0.7,5.2,2.2c1.4,1.5,2.2,3.2,2.2,5.2V2319.8z M4933.3,2318.3v-26.5c0-0.9-0.5-1.5-1.5-1.5s-1.5,0.5-1.5,1.5v26.5
		c0,1,0.5,1.5,1.5,1.5C4932.8,2319.7,4933.3,2319.2,4933.3,2318.3z"/>
	<path id="path4677_3_" inkscape:connector-curvature="0" class="st1" d="M4962.4,2319.8c0,2-0.7,3.7-2.2,5.2
		c-1.4,1.5-3.2,2.2-5.2,2.2h-3c-2,0-3.7-0.7-5.2-2.2c-1.4-1.4-2.2-3.2-2.2-5.2V2286c0-0.8,0.3-1.5,0.8-2.1c0.6-0.6,1.3-0.8,2.1-0.8
		h1.5c0.8,0,1.5,0.2,2.1,0.8c0.6,0.6,0.8,1.3,0.8,2.1v32.3c0,1,0.5,1.5,1.5,1.5c1,0,1.5-0.5,1.5-1.5V2286c0-0.8,0.2-1.5,0.8-2.1
		c0.6-0.6,1.3-0.8,2.1-0.8h1.5c0.8,0,1.5,0.2,2.1,0.8c0.6,0.6,0.8,1.3,0.8,2.1L4962.4,2319.8L4962.4,2319.8z"/>
	<path id="path4679_3_" inkscape:connector-curvature="0" class="st1" d="M4984.2,2319.8c0,2-0.7,3.7-2.2,5.2
		c-1.5,1.5-3.2,2.2-5.2,2.2h-7.4c-0.8,0-1.5-0.2-2.1-0.8s-0.9-1.3-0.9-2.1v-1.5c0-0.8,0.2-1.5,0.8-2.1s1.3-0.8,2.1-0.8h5.9
		c0.9,0,1.5-0.5,1.5-1.5c0-1-0.5-1.5-1.5-1.5h-1.5c-2,0-3.7-0.7-5.2-2.2c-1.5-1.4-2.2-3.2-2.2-5.2v-19.3c0-2,0.7-3.7,2.2-5.2
		c1.4-1.5,3.2-2.2,5.2-2.2h3c2,0,3.7,0.7,5.2,2.2c1.4,1.5,2.2,3.2,2.2,5.2v13.3c0,0.8-0.3,1.5-0.8,2.1c-0.6,0.6-1.3,0.9-2.1,0.9
		h-1.5c-0.8,0-1.5-0.2-2.1-0.8s-0.8-1.3-0.8-2.1v-11.8c0-0.9-0.5-1.5-1.5-1.5c-1,0-1.5,0.5-1.5,1.5v16.2c0,1,0.5,1.5,1.5,1.5h1.5
		c2,0,3.7,0.7,5.2,2.2c1.5,1.5,2.2,3.2,2.2,5.2L4984.2,2319.8L4984.2,2319.8z"/>
</g>
<path id="path4591_3_" inkscape:connector-curvature="0" class="st1" d="M5060.6,2140c0,0,29.8,13.7,44.3,18.7
	c14.5,4.9,80.6,18.7,99.4,35.8c17.9,16.2,29.5,46.5,39.3,59.7c9.7,13.2,17.3,21.6,17.3,21.6s-12.5-10.7-21.2-22.5
	s-22.9-42.8-40.5-56.4c-17.7-13.6-71.7-27.8-94.6-34.9c-22.9-7.1-45.9-17.1-45.9-17.1L5060.6,2140"/>
<path id="path4593_3_" inkscape:connector-curvature="0" class="st1" d="M5215.7,2210.2c0,0,14.2,13.6,26.1,21.6
	c12,8,42.5,23.5,59.4,34.5c17,11,36.8,31.8,36.8,31.8s-21.5-18.4-38.7-28.8s-50.6-29.5-60.5-35.9c-9.9-6.5-17-12.8-17-12.8
	L5215.7,2210.2"/>
<path id="path4595_3_" inkscape:connector-curvature="0" class="st1" d="M5085.3,2233.3c0,0-15.4,8.4-25,20.5
	c-9.5,12.1-15.7,30.8-14.9,44.1c0.8,12.9,18.4,47.8,18.4,47.8s-13.2-36-14.1-48c-0.8-12,5.8-29.3,13.7-39.8
	C5071.5,2247.2,5085.3,2233.3,5085.3,2233.3"/>
<path id="path4597_3_" inkscape:connector-curvature="0" class="st1" d="M4979.5,2233.1c0,0,31.1,16.8,43.4,27.6
	c12.2,10.7,17.2,24.8,17.2,24.8s-11.2-13.7-22.5-23.6C5006.3,2252,4979.5,2233.1,4979.5,2233.1"/>
<path class="st1" d="M4885.7,2222.9c-5.6,1.6-7.8,3.7-7.8,3.7l-2.3-2.9c0,0-2.5-2.5-4.7-6.5c-2.2-3.9-4.1-10.1-5.8-10
	c-1.8,0-4.2,5.6-3.5,13.2c0.7,7.7,3.8,12.9,3.8,12.9s-1.3,1.3-1.3,2.9c0.1,1.6,1.1,2.5,1.1,2.5s-0.6,0.9-0.8,2.7l2.9,2.6
	c-0.1-0.1-0.1-0.3-0.1-0.5c-0.5-2.6,4.5-8,7.6-10.6C4878.1,2230.2,4887.9,2222.3,4885.7,2222.9z M4868,2232.3
	c-2-0.9-3.9-5.8-4.7-11.1c-0.8-5.4,0.6-11.5,1.5-11.8c0.9-0.3,2.9,5.6,5.5,10.1c3,5.2,6.1,8.6,6.1,8.6
	C4875.1,2231.1,4869.9,2233.3,4868,2232.3z"/>
<path class="st1" d="M5016.5,2335.9L5016.5,2335.9c-4.2-11.6-4.2-34.5-6.3-40.2c-2-5.7-20.6-29.1-38.8-46.4
	c-18.2-17.3-33.5-28.2-37.3-29.1c-5.8-1.3-22.2,0.7-25.2,4c-2.4,2.6-6.6,18-10.1,20.1c-4.7,2.9-15.2,2.9-18.9,1.6
	c-2.9-0.9-3.5-2.4-3.5-2.4s-2.5-2.7-4.7-1.9c-4.9,1.6-5.6,1.2-5.6,1.2c2.5,1.7,8.3,2.5,8.3,2.5s1.5,2.3,5,3.3
	c3.8,1.1,16.7,1.6,21.8-1.8c4.5-3,6.6-17.9,9.5-20.3c2.9-2.4,14.6-4,20.8-2.1c6.2,1.9,22.7,12.8,38.6,27.7
	c16.1,15.1,33.9,38.4,36.7,46.2c2.9,7.9,0.3,26.2,5.6,39.6c5.3,13.4,30,36.1,30,36.1S5020.7,2347.6,5016.5,2335.9z"/>
<path class="st1" d="M4870.4,2149.7c2.3-0.1,4.4-5.8,4.4-5.8s3.8-7.5,3.2-10.2c-0.2-1.1-3.6-0.3-5.1-0.4c-6.8-0.3-14.4-3.5-19.7-5.9
	c-5.3-2.5-18.2-10.2-19.8-14.8c-1.4-3.8,1.1-10.5,3.9-13.3c2.8-2.9,8.3-5.1,13.1-6.1c4.9-1.1,8.2-1.6,9-2.4c0.7-0.8,0.5-3.1-0.6-3.3
	c-1.1-0.1-4.1,2.6-7.4,3.9c-3.3,1.3-7.2,2.3-8.4,2c-1.5-0.4-1.8-3.5-4.2-3.9c-1.5-0.2-0.8,3-1.3,5.7c-0.6,2.7-2,4.4-2,4.4
	s0.3-3.9-0.4-6.1c-0.8-2.3-2.5-4.1-2-5.4c0.5-1.3,6.2-3.4,8.9-2c2.5,1.3,2.7,5.2,2.7,5.2s1.3-3.6-0.4-5.9c-1.6-2.3-6.2-1.7-6.2-1.7
	s2.4-1.9,5.9-2.2c5.2-0.5,12.2,2.5,12.2,2.5s10.5-2.9,16.5-0.2c6.1,2.7,10.3,9.9,10.3,9.9s-3.6-9.4-10.3-12
	c-6.9-2.7-17.4-0.3-17.4-0.3s-7-1.9-12.3-1.2c-5.2,0.8-11.1,5.2-12.1,7.3c-1.1,2,3.1,8.9,3,12.8c-0.1,2.2-3.5,6.3-3,10.8
	c0.2,1.6,1.6,3.4,1.6,3.4s-1.1,1.3-1.2,2.9s0.6,2.9,0.6,2.9s-1.2,2.9-1.2,6.1c0,3,1.3,6.6,2.7,6.9s4.7-4.1,4.7-4.1s-1.9,6.5-2,13.8
	c-0.1,7,1.6,15.1,4.2,15.1c2.5,0,3.4-7.1,6.1-12.8c2.7-5.8,7.1-11.6,7.1-11.6s1.9,6.8,4.9,6.6c2.2-0.1,4.8-3.5,4.8-3.5
	S4866.4,2149.8,4870.4,2149.7z M4864.7,2135.1c0.5-1.1,3.7-0.1,5.7-0.1c2.1,0.1,4.8,0.1,4.6,2.9c-0.1,1.7-3,10.1-4.9,10.1
	C4868.4,2148.1,4864,2136.8,4864.7,2135.1z M4833.6,2131.2L4833.6,2131.2c-0.8-0.1-1.6-2.9-1.6-5c0.1-2.5,1.3-5.8,2.3-6
	c1.6-0.4,4.4,1.8,4.6,3.5C4839.2,2125.4,4834.4,2131.3,4833.6,2131.2z M4845.2,2143.2c-3,6.1-4.1,13-5.1,12.7s-2.8-6.9-2.5-14.3
	c0.2-7,3.1-15.8,4.5-16.4c2.6-1.1,9.6,3.4,9.6,6C4851.7,2133.1,4848.3,2136.9,4845.2,2143.2z M4858.1,2138.4c-1.6-0.3-4-6.5-3-7.4
	c1-1.1,7,1.4,7.2,2.7C4862.4,2135,4859.8,2138.7,4858.1,2138.4z"/>
<path class="st1" d="M4889.1,2212.1c0,0-2.7-3.5-4.3-3c-2.7,0.9-2.2,10.6-2.2,10.6s-2.6-1.8-4.1-1.4c-2,0.6-1.8,5.7-1.8,5.7
	s0,0-0.1,0v5.7c0.5-0.5,1-1,1.4-1.4c3.1-2.9,7.5-6.7,12.2-8.4c1-0.4,3.5-0.6,3.4-1.4C4893.4,2216.4,4889.1,2212.1,4889.1,2212.1z
	 M4878.4,2225.4c-0.9-0.5-0.6-5.2,0.5-5.7c1.1-0.6,3.8,1.4,3.9,2.3C4882.9,2222.8,4879.4,2225.8,4878.4,2225.4z M4888.1,2219.1
	c-1.4,0.5-3.3,1.8-3.9,1.2c-0.9-1-0.4-9.7,0.9-10c1.3-0.4,5.2,4.7,5.6,5.8C4891.3,2218,4889.5,2218.6,4888.1,2219.1z"/>
<path id="path4601_3_" inkscape:connector-curvature="0" class="st1" d="M5011.7,2196.3c0,0,5.9,12.8,5.6,17.9
	c-0.3,5.1-6.5,11.3-8.4,15.3c-2,4-2.2,9.6-0.8,10.4c1.9,1.1,8.6-3.2,8.6-3.2s-5.5,1.4-6.6,0.5c-1.1-1-0.2-5.5,1.5-7.8
	c1.7-2.3,8-9.9,8.2-14.8C5019.8,2209.7,5011.7,2196.3,5011.7,2196.3"/>
<path id="path4603_3_" inkscape:connector-curvature="0" class="st1" d="M4908,2209.6c0,0-7.4,12.3-11.3,15.8s-17,9.6-17,9.6
	s13.4-2.7,18.5-7.5C4902.8,2223.4,4908,2209.6,4908,2209.6"/>
<path id="path4605_3_" inkscape:connector-curvature="0" class="st1" d="M4912.9,2199.5c0,0-2.2-12.7-5-22.4
	c-2.8-9.6-8.6-22.1-11.8-27c-3.1-4.9-5.7-8.5-4.3-9.1s5.4,4.2,7.7,8.2c2.5,4.4,8.2,18.1,10.4,27.1
	C4912,2184.9,4912.9,2199.5,4912.9,2199.5"/>
<path id="path4609_3_" inkscape:connector-curvature="0" class="st1" d="M4899.9,2100c-5.6,0.2-9.2,4.4-9.5,5.8
	c-0.3,1.1,0.7,10.2,4.2,16.3c3.7,6.4,11.4,13.5,14.2,20.2c2.9,6.7,4.3,16.8,5,24c0.7,7.2,0.6,12.5,0.6,12.5s-1.1,1.9-0.7,4.1
	c0.6,2.6,5.6,9.7,9.8,13.6c4.2,3.9,11.1,6.9,11.1,6.9s-6.3-4.4-10-8.7c-3.7-4.4-8.2-13-8.6-15.5c-0.5-2.3-1-11.9-1.8-18.9
	c-0.7-6.5-2.2-17.8-3.2-20.4c-1.1-2.6-12.7-15-15.6-20c-3.2-5.4-4-12.5-4-12.5s1.3-0.1,2.1-0.9c0.8-0.9,1.7-2.8,2.9-4.1
	C4897.9,2101,4899.9,2100,4899.9,2100"/>
<path id="path4611_3_" inkscape:connector-curvature="0" class="st1" d="M4936.6,2096.3c0,0,3.5,6.3,2.2,10.1
	c-1.1,3.2-7.8,4.6-8.7,4.3c-0.9-0.3-2.3-2.3-1.8-3c0.8-1,6.8-0.2,8.2-2.8C4937.9,2102.3,4936.6,2096.3,4936.6,2096.3"/>
<path id="path4613_3_" inkscape:connector-curvature="0" class="st1" d="M4881.6,2108.3c0,0-1.6-6.8-4.4-10.7
	c-2.8-3.9-11.1-5.9-11.3-6.7c-0.2-0.8,2-1.9,3.4-1.8c1.4,0.1,7.1,3.1,9.5,7C4881.3,2100.5,4881.6,2108.3,4881.6,2108.3"/>
<path id="path4659_3_" inkscape:connector-curvature="0" class="st1" d="M4873.3,2082.7c0,0,5.4,0.8,9.1,0.3
	c3.7-0.5,12.4-3.9,18.2-4.4c5.8-0.5,10.1-0.1,10.1-0.1s4.1-2.5,10.9-2.3c6.8,0.1,15.3,2.5,18.6,2.9c3.3,0.4,10.2,0.7,18.1,3.2
	c8.7,2.9,21,10.2,28.4,14.8c7.3,4.5,8.3,4.9,15.1,7.8c6.9,2.9,15.8,7,21.5,10.6c4.1,2.5,8.6,7.1,8.6,7.1l-9.3-2.5
	c0,0-4.5-5-12.5-8.8c-8-3.8-14.1-6.1-18.4-8.6c-4.4-2.5-12.7-8.2-20.1-12.1c-7.4-3.9-14.1-5.9-18.4-6.8c-4.2-0.9-7.9-1.1-7.9-1.1
	s2.4,2,1.8,2.7c-0.6,0.8-15-7.9-25.8-7.1c-9.3,0.7-13.2,7.9-14.9,7.7c-1.7-0.2-0.3-5-0.3-5s-3.5-0.8-8.1-0.2
	c-4.5,0.5-12.3,3.4-15.6,3.9c-3.3,0.4-5.7,0.6-5.7,0.6L4873.3,2082.7"/>
<path class="st1" d="M5014.9,2120.4c-6.6,0.2-11.6,0.9-12.5,0.4c-1.5-0.9-1.6-4.2-3.2-7.2c-1.6-2.9-3.6-4.8-5.1-5.2
	c-1.6-0.5-4.3,0.8-4.2,1.3c0,0.6,4,1.6,6.5,4.5c2.6,3,3.8,6.8,5.5,7.7c1.1,0.6,6.8,0.4,13.2,0.4L5014.9,2120.4L5014.9,2120.4z"/>
<path class="st1" d="M4979.6,2150.8c0,0,1,1.1,2.5,2.4v-2.4c-3.5-2.7-6.2-5.6-6.2-5.6s3.2,7.9,3.8,13.4c0.7,5.6-0.9,16-4.4,20.9
	c-3.5,5-25.5,9.9-25.5,9.9s1.3,6.7,3.9,10.4c2.6,3.7,7.8,6.6,7.8,6.6s-3.7-3.9-6.1-7.7c-2.4-3.6-3.7-8.2-3.7-8.2s20.9-3.2,25.7-8.4
	c3.5-3.9,4.6-16.5,4.5-21.2C4981.8,2156.3,4979.6,2150.8,4979.6,2150.8z"/>
<path class="st1" d="M4887.8,2146.1c-0.6-12.4-9.7-12.4-9.7-12.4s-2.2,6.5-1.3,11.6c1,6.5,9.5,15,8.8,10.9
	S4887.8,2146.1,4887.8,2146.1z M4883.8,2154c0,0.4-0.2,0.2-0.4,0.1c-2-2.1-4.6-5.8-5.2-9.1c-0.5-2.7,0.6-6.7,0.8-8.6
	c0.9-0.6,3.7-1.6,6.8,9.8C4885.2,2147.8,4884,2151,4883.8,2154z"/>
<path class="st1" d="M4893.8,2204c-1.2-2.6-3.1,2.8-3.4,6.9c-0.3,3.2,1.4,7.2,1.4,7.2s5.7-0.4,5.5-8.2
	C4897.2,2210,4894.9,2206.4,4893.8,2204z M4895.9,2210.8c-1.3,6.6-2.9,5.6-3.4,5.3c-0.2-1-0.9-3.2-0.8-4.8c0.2-1.9,0.4-4.1,1.2-5.5
	c0.1-0.1,0.3,0.2,0.4,0.5C4894.3,2208.5,4895.5,2209.9,4895.9,2210.8z"/>
<path class="st1" d="M4898.5,2091.8c0,0,6.7,0,9.9-3.8s8.7-10.1,15.7-7.8c7,2.3,10.8,8.3,10.8,8.3s-2.7,0.6-3.2,0.5
	s-8.3-12.5-19.1-4.1C4909.7,2087.1,4908.3,2091.2,4898.5,2091.8z"/>
<path class="st1" d="M4921,2085.2c0,0,2.6-0.4,4.8,0.8c2.2,1.2,3.8,2.8,4.8,2.9c-0.9-0.1-1.1,0.2-2.4-0.7
	C4925.1,2085.9,4922.2,2085.1,4921,2085.2z"/>
<path class="st1" d="M4915.4,2098.7c-3.7,0-7.9-2-12.4-5.9l0.4-0.5c4.5,3.5,8.4,5.3,11.6,5.3c0.6,0,1.2-0.1,1.8-0.2
	c4.2-1,7.6-4.8,8.8-9.8l0.1-0.4l0.4,0.2c0.5,0.2,0.8,0.6,0.8,0.6l0.1,0.1l0,0.2C4926.9,2088.5,4923.8,2098.7,4915.4,2098.7z"/>
<path class="st1" d="M4904.8,2175.9c-3-6.9-10.1-17.3-17-35.9c-0.4-1.1,0.3-2.9,3.4-2.1c-1.8-2.5-4.4-5-8.2-5.7
	c-7.7-1.3-11.8,2.4-19.6-1c-1.8-0.8-2.9-2.1-5.1-3.7c2.4,2.8,5.2,6.9,13.7,6.9c14.1,0.1,13.3,4.9,15.2,12c1.9,8.3,17,35,20.9,46
	c-2.3,9.6-8.7,15-18.3,25c-2.2,2.2-3,4-10.6,9.5c-8.4,11.4-13.9,9.7-15.2,12.2c-1.2,2.2,3.6,5,5.9,5c-3.3-4,35.8-30.9,40.1-40.7
	C4912,2198.5,4911.5,2191.7,4904.8,2175.9z"/>
<path class="st1" d="M4903.3,2178.9c0,0-12.6,1.6-21.2,19.9c-4.1,8.8-7.1,21.8-6.6,26.1c0.4,3.2,1.8,1,1.8,1s-2.3-5.5,6.3-25.9
	c6.6-15.7,18.3-18,21.1-18.2C4903.9,2179.2,4903.3,2178.9,4903.3,2178.9z"/>
<path class="st1" d="M4891.5,2086.1c0,0,5.7,6.5,15.4,1.4"/>
<path class="st1" d="M5043.2,2140.6c-6.7,0.9-13.5,3.4-19.6,7.3c-0.4,0.2-3,2.4-5,3.1c-5,2-7,1.8-7,1.8s3.6,0.5,7.4-0.7
	c1.8-0.6,4.8-3,5.2-3.3c0.8-0.5,4.6-0.7,3.7-1.3c-0.4-1.4,6.9-4,11-4.5c11.6-1.5,14.6-7.7,14.6-7.7
	C5051,2137.5,5046.9,2140.1,5043.2,2140.6z"/>
<path class="st1" d="M4995.4,2138.2c0,0-0.8,0.1-1,0.7c-0.1,0.3-0.4,0.3-0.5,0.7c-0.2,0.4-0.4,0.9-0.4,1.3c0,0.4,0.4,0.6,0.7,0.7
	c0.1,0,0.1,0.1,0.2,0.1l0,0l0,0c0,0,0,0,0,0l0,0h0l0.1,0c0.1,0,0.1,0,0.2,0c0.2,0,3.2,0.6,5.1,3.6c2,2.6,1.3,8.7,1.3,8.7
	s-0.1-0.3-0.3-0.9c-0.1-0.3-0.2-0.6-0.3-1c-0.1-0.4-0.2-0.8-0.3-1.3c-0.1-0.5-0.2-0.9-0.4-1.4c-0.2-0.5-0.3-1-0.5-1.5
	c-0.2-0.5-0.5-0.9-0.7-1.3c-0.3-0.4-0.6-0.7-0.9-1c-0.4-0.3-0.8-0.5-1.3-0.8c-0.5-0.2-1.1-0.5-1.7-0.7c-0.3-0.2-0.6-0.3-1-0.5
	c-0.1-0.1-0.2-0.1-0.2-0.2l-0.1-0.1l0,0l0,0c0,0-0.1,0,0,0l0,0l0,0c-0.2-0.1-0.3-0.3-0.4-0.5c-0.2-0.3-0.4-0.7-0.5-1.1
	c0-0.4,0-1.1,0.9-2.4c0.2-0.3,0.6-0.6,0.8-0.8C4994.5,2138,4995.4,2138.2,4995.4,2138.2z"/>
<path class="st1" d="M5062.7,2125c-0.8-0.7-1.9-1.1-3.2-1.2c-2.8-0.3-6.2,0.7-8.6,1.5c-0.3,0.1-1,0.2-2.9,0
	c-3.3-0.3-8.3-1.3-12.6-2.5c-5.1-1.4-10.1-2.4-14.8-2.8c-11.4-1.1-17.7,0.9-17.9,1l0.1,1.2c0,0,0.2,0,0.5,0c1.1,0.1,4.1,0.3,8.2,0.2
	c2.8-0.1,5.8,0,8.9,0.3c4.5,0.5,9.3,1.4,14.2,2.7c2.7,0.7,6.6,1.6,10,2.2c-5.8,1.9-18,5.9-23.1,6.6c-1.5,0.2-3.5,0.6-5.7,0.9
	c-4.4,0.8-10.3,2.9-15.4,2.3c-8-1-8,3.5-8,3.5c0.7,0.9,0.4-0.5,1.6-1.6c1-0.9,3.8-0.9,6-0.5c4.5,0.9,11.2-0.1,16.2-1h0.1
	c2.2-0.4,4-0.7,5.5-0.9c7.3-1.1,26.8-7.8,27-7.9c0.5-0.2,1.4-0.6,2.7-1.1h0.1l0.7-0.2l0,0c1.9-0.6,4.8-1.4,6.8-1.1
	c0.8,0.1,1.4,0.3,1.7,0.6c0.8,0.7,0.6,2.3,0.3,3.5c-0.5,1.8-0.8,3.4-1.1,5c-0.5,2.4-1.1,6.8-4.5,10.5c-2.5,2.7-6.3,5.5-8.4,6.1
	c-4.5,1.3-8.6,1.9-13.8,2.1c-0.5,1-3.3,3.9-7,5.9c-3.7,2-8.3,3.2-11.5,3.4c-2.2,0.1-8.1,1-15-1.1c-6.8-2.1-14.5-7.3-21.4-14.8
	c-0.6-0.7-2.6-1.8-1.1,0.7c1.1,1.3,2.9,3.3,2.9,3.3s12,13.7,27.1,14.6c10.7,0.6,15.2-1.6,18.1-2.7c4.5-1.7,7.3-4.3,8.9-6
	c1.1-1.2,0.5-0.9,1.8-1c0.2,0.1,6.3-0.4,11.6-1.9c5.2-1.6,8.2-4.5,8.4-4.7c2.1-1.8,3.1-3.8,3.9-5.4c1.1-2.2,1.9-4.5,2.4-6.9
	c0.4-2,0.7-4,1.4-6.2C5064.7,2128.4,5064.3,2126.3,5062.7,2125z"/>
<g>
	<path class="st1" d="M4850.2,2110.2c0,0,0.2,0,0.5,0c0.3,0,0.8-0.1,1.4-0.1s1.3,0,2.1,0c0.8,0,1.7,0.2,2.7,0.4c1,0.2,2,0.5,3.1,1
		c1.1,0.5,2.1,1.1,3.2,1.6c1.1,0.5,2.3,1.1,3.5,1.3c1.2,0.2,2.5,0.2,3.8-0.1c1.3-0.3,2.5-0.8,3.6-1.4c1.2-0.5,2.3-1.2,3.5-1.6
		c1.2-0.4,2.5-0.5,3.6-0.5c1.2,0.1,2.3,0.4,3.2,0.8c0.9,0.4,1.7,0.9,2.4,1.4c0.7,0.5,1.2,1,1.6,1.4c0.4,0.4,0.7,0.8,0.9,1
		s0.3,0.4,0.3,0.4s-0.4-0.5-1.3-1.3c-0.4-0.4-1-0.9-1.6-1.3s-1.5-0.9-2.4-1.3c-0.9-0.4-2-0.6-3.1-0.7c-1.1-0.1-2.3,0.1-3.4,0.5
		c-1.1,0.4-2.3,1.1-3.4,1.6c-1.2,0.5-2.4,1.1-3.8,1.4c-1.3,0.3-2.7,0.4-4.1,0.1c-1.3-0.3-2.5-0.9-3.6-1.4c-1.1-0.6-2.1-1.2-3.2-1.7
		c-1-0.5-2-0.8-3-1c-1.9-0.5-3.6-0.6-4.8-0.7C4850.8,2110.2,4850.2,2110.2,4850.2,2110.2z"/>
</g>
<g>
	<path class="st1" d="M4849.7,2112.3c0,0,0.2,0,0.5,0.1c0.3,0,0.8,0.1,1.5,0.2c0.6,0.1,1.4,0.3,2.3,0.5c0.9,0.2,1.8,0.5,2.9,0.9
		c1,0.4,2.1,0.9,3.1,1.8c0.9,0.8,2,1.6,3.2,2.2c1.2,0.6,2.5,1.1,3.9,1.2c1.4,0.1,2.8-0.1,4.2-0.5c0.7-0.2,1.4-0.5,2-0.8
		s1.4-0.5,2-0.8c1.4-0.5,2.7-0.8,4.1-1c1.4-0.2,2.7-0.2,4,0c0.3,0,0.6,0.1,0.9,0.2c0.3,0.1,0.6,0.2,0.9,0.2c0.6,0.1,1.1,0.4,1.6,0.5
		c0.2,0.1,0.5,0.2,0.7,0.3c0.2,0.1,0.5,0.2,0.7,0.3c0.5,0.2,0.9,0.5,1.3,0.7c0.4,0.2,0.7,0.5,1.1,0.7c0.3,0.2,0.6,0.4,0.9,0.6
		c0.5,0.4,0.9,0.7,1.2,0.9c0.3,0.2,0.4,0.3,0.4,0.3s-0.6-0.4-1.6-1.1c-0.3-0.2-0.6-0.3-0.9-0.5c-0.3-0.2-0.7-0.4-1.1-0.6
		c-0.4-0.2-0.8-0.4-1.3-0.6c-0.5-0.2-0.9-0.4-1.4-0.6c-0.5-0.2-1-0.4-1.6-0.5c-0.3-0.1-0.6-0.1-0.9-0.2c-0.3,0-0.6-0.1-0.9-0.1
		c-1.2-0.1-2.5-0.1-3.9,0.1s-2.7,0.6-4,1c-0.7,0.2-1.4,0.5-2,0.8s-1.4,0.6-2,0.8c-1.4,0.5-3,0.6-4.4,0.5c-1.5-0.1-2.9-0.7-4.1-1.3
		s-2.3-1.5-3.2-2.3c-0.9-0.8-2-1.4-3-1.8c-1-0.5-1.9-0.8-2.8-1c-0.9-0.2-1.6-0.5-2.2-0.6C4850.5,2112.4,4849.7,2112.3,4849.7,2112.3
		z"/>
</g>
<g>
	<path class="st1" d="M4851.6,2115.2c0,0,0.5,0.2,1.4,0.6c0.5,0.2,1,0.5,1.6,0.9s1.2,0.8,1.9,1.3c0.7,0.5,1.4,1.1,2.2,1.7
		c0.4,0.3,0.7,0.7,1.1,1c0.4,0.3,0.8,0.7,1.2,0.9c1.7,1.1,3.9,1.9,6.1,1.9c1.1,0,2.2-0.1,3.2-0.4c0.2-0.1,0.5-0.2,0.8-0.2
		c0.2-0.1,0.5-0.2,0.7-0.3c0.5-0.2,1-0.5,1.5-0.7c1.9-0.9,3.8-1.6,5.5-2c0.8-0.2,1.6-0.4,2.3-0.4c0.3,0,0.7,0,1-0.1
		c0.3,0,0.6,0,0.8,0c0.5,0,0.9,0,1.1,0.1c0.2,0,0.4,0,0.4,0s-0.1,0-0.4,0c-0.2,0-0.7,0-1.1,0c-0.2,0-0.5,0-0.8,0.1
		c-0.3,0-0.6,0.1-0.9,0.1c-0.7,0.1-1.4,0.3-2.2,0.5c-1.6,0.5-3.4,1.2-5.3,2.1c-0.5,0.2-0.9,0.5-1.5,0.7c-0.2,0.1-0.5,0.2-0.8,0.3
		c-0.3,0.1-0.5,0.2-0.8,0.3c-1.1,0.3-2.3,0.5-3.4,0.5c-2.3,0-4.6-0.9-6.4-2.1c-0.5-0.3-0.9-0.7-1.2-1s-0.7-0.7-1.1-1
		c-0.7-0.7-1.4-1.2-2.1-1.8c-1.3-1.1-2.5-1.9-3.3-2.4C4852.2,2115.4,4851.6,2115.2,4851.6,2115.2z"/>
</g>
<g>
	<path class="st1" d="M4858.1,2123.8c0,0,0.4,0.3,1.1,0.9s1.8,1.3,3.2,2.1c0.7,0.4,1.4,0.8,2.3,1.1c0.9,0.3,1.8,0.6,2.7,0.6
		c0.5,0,1,0.1,1.5,0.1c0.5,0,1,0,1.5,0c1,0,2.1-0.1,3.1-0.2c1-0.1,2.1-0.3,3.1-0.6c0.5-0.1,1-0.2,1.5-0.3c0.2,0,0.5-0.1,0.8-0.1
		c0.2,0,0.5,0,0.8-0.1l0.4,0c0.1,0,0.2,0,0.4,0c0.2,0,0.5,0,0.7,0c0.2,0,0.5,0,0.7,0.1c0.2,0,0.5,0,0.7,0.1c0.2,0,0.5,0.1,0.7,0.2
		c0.1,0,0.2,0,0.3,0.1c0.1,0,0.2,0.1,0.3,0.1c0.4,0.2,0.8,0.3,1.1,0.5c0.4,0.2,0.7,0.4,1,0.6c0.3,0.2,0.6,0.4,0.9,0.6
		c0.2,0.2,0.5,0.4,0.7,0.5c0.2,0.2,0.4,0.3,0.6,0.5c0.7,0.6,1.1,0.9,1.1,0.9s-0.4-0.3-1.2-0.9c-0.2-0.1-0.4-0.3-0.6-0.5
		c-0.2-0.2-0.5-0.3-0.8-0.5c-0.3-0.2-0.5-0.4-0.9-0.5c-0.3-0.2-0.7-0.3-1-0.5c-0.4-0.2-0.7-0.3-1.1-0.5c-0.1,0-0.2-0.1-0.3-0.1
		c-0.1,0-0.2,0-0.3-0.1c-0.2,0-0.4-0.1-0.7-0.2c-0.2-0.1-0.5,0-0.7-0.1c-0.2,0-0.5,0-0.7,0c-0.5,0-0.9,0-1.4,0.1
		c-0.2,0-0.5,0.1-0.7,0.1c-0.2,0-0.5,0.1-0.7,0.2c-0.5,0.1-1,0.2-1.5,0.3c-1,0.2-2.1,0.5-3.2,0.6c-1.1,0.2-2.1,0.2-3.2,0.2
		c-0.5,0-1.1,0-1.6,0c-0.5,0-1-0.1-1.5-0.1c-1-0.1-2-0.4-2.8-0.7c-0.9-0.4-1.6-0.8-2.3-1.2c-1.4-0.9-2.4-1.7-3.1-2.3
		C4858.5,2124.2,4858.1,2123.8,4858.1,2123.8z"/>
</g>
<g>
	<path class="st1" d="M4894,2130.2c0,0-0.1-0.4-0.4-1.1c-0.2-0.3-0.4-0.7-0.6-1.2c-0.3-0.5-0.6-0.9-1-1.4c-0.4-0.5-0.9-1-1.4-1.5
		c-0.1-0.1-0.3-0.2-0.4-0.4c-0.2-0.1-0.3-0.2-0.5-0.4l-0.2-0.2c0,0-0.2-0.1-0.2-0.2c-0.2-0.1-0.3-0.2-0.5-0.3
		c-0.7-0.3-1.5-0.5-2.3-0.6c-0.8-0.1-1.7-0.1-2.5,0c-0.8,0.1-1.7,0.2-2.5,0.5c-0.8,0.2-1.5,0.7-2.2,1c-1.4,0.8-2.9,1.3-4.2,1.6
		c-0.7,0.2-1.2,0.2-1.8,0.3c-0.5,0.1-1,0.1-1.4,0.1c-0.4,0-0.7,0-0.9,0s-0.3,0-0.3,0s0.4-0.1,1.2-0.2c0.7-0.1,1.8-0.3,3-0.7
		c0.6-0.2,1.3-0.4,1.9-0.7c0.7-0.3,1.4-0.7,2-1c0.7-0.4,1.4-0.9,2.3-1.1c0.8-0.3,1.7-0.5,2.6-0.5c0.9-0.1,1.8,0,2.6,0.1
		c0.9,0.1,1.7,0.3,2.5,0.7c0.2,0.1,0.4,0.2,0.6,0.3c0.1,0.1,0.2,0.1,0.2,0.2l0.2,0.2c0.2,0.1,0.3,0.2,0.5,0.4
		c0.1,0.1,0.3,0.3,0.4,0.4c0.5,0.5,1,1.1,1.4,1.6c0.4,0.5,0.7,1.1,0.9,1.5c0.2,0.5,0.4,0.9,0.5,1.3c0.1,0.4,0.2,0.7,0.2,0.9
		C4894,2130.1,4894,2130.2,4894,2130.2z"/>
</g>
</svg>
