<?xml version="1.0" encoding="utf-8"?>
<!-- Generator: Adobe Illustrator 19.1.0, SVG Export Plug-In . SVG Version: 6.00 Build 0)  -->
<svg version="1.1"
	 id="svg12341" xmlns:inkscape="http://www.inkscape.org/namespaces/inkscape" xmlns:cc="http://creativecommons.org/ns#" xmlns:sodipodi="http://sodipodi.sourceforge.net/DTD/sodipodi-0.dtd" xmlns:dc="http://purl.org/dc/elements/1.1/" xmlns:rdf="http://www.w3.org/1999/02/22-rdf-syntax-ns#" xmlns:svg="http://www.w3.org/2000/svg" inkscape:version="0.91 r13725" sodipodi:docname="lines-wallpaper_2560x1080.svg"
	 xmlns="http://www.w3.org/2000/svg" xmlns:xlink="http://www.w3.org/1999/xlink" x="0px" y="0px" viewBox="5873.6 -200 1920 1200"
	 style="enable-background:new 5873.6 -200 1920 1200;" xml:space="preserve">
<style type="text/css">
	.st0{fill:#1A1A1A;}
	.st1{fill:#D3A809;}
</style>
<rect id="rect4587_4_" x="5873.6" y="-200.9" inkscape:export-ydpi="90" inkscape:export-filename="/home/karbo/Pardus/ArtWork/1200yns1.png" inkscape:export-xdpi="90" class="st0" width="1920" height="1201.8">
</rect>
<g>
	<path id="path4669_5_" inkscape:connector-curvature="0" class="st1" d="M7106.7,860c0,2.8-1,5.2-3,7.3c-2.1,1.9-4.4,3-7.3,3h-2.1
		c-1.4,0-2.1,0.7-2.1,2.1v8.2c0,1.1-0.3,2.1-1.1,2.9c-0.8,0.8-1.8,1.1-2.9,1.1h-2.1c-1.1,0-2.1-0.3-2.9-1.1
		c-0.8-0.8-1.1-1.8-1.1-2.9v-47.2c0-2.8,1-5.2,3-7.3c2.1-2.1,4.4-3,7.3-3h4.2c2.8,0,5.2,1,7.3,3c1.9,2.1,3,4.4,3,7.3v26.7h-0.1V860z
		 M7096.4,857.8v-22.6c0-1.3-0.7-2.1-2.1-2.1c-1.4,0-2.1,0.7-2.1,2.1v22.6c0,1.4,0.7,2.1,2.1,2.1S7096.4,859.2,7096.4,857.8z"/>
	<path id="path4671_5_" inkscape:connector-curvature="0" class="st1" d="M7136.9,874.3c0,2.8-1,5.2-3,7.3s-4.4,3-7.3,3h-4.2
		c-2.8,0-5.2-1-7.3-3c-2.1-1.9-3-4.4-3-7.3v-4.1c0-2.8,1-5.2,3-7.3c1.9-1.9,4.4-3,7.3-3h2.1c1.4,0,2.1-0.7,2.1-2.1v-22.7
		c0-1.4-0.7-2.1-2.1-2.1c-1.4,0-2.1,0.7-2.1,2.1v16.4c0,1.1-0.5,2.1-1.1,2.9c-0.8,0.8-1.8,1.3-2.9,1.3h-2.1c-1.1,0-2.1-0.3-2.9-1.1
		c-0.8-0.8-1.1-1.8-1.1-2.9v-18.5c0-2.8,1-5.3,3-7.3c1.9-2.1,4.4-3,7.3-3h4.2c2.8,0,5.2,1,7.3,3c1.9,2.1,3,4.4,3,7.3L7136.9,874.3
		L7136.9,874.3z M7126.7,872.2c0-1.3-0.7-2.1-2.1-2.1c-1.4,0-2.1,0.7-2.1,2.1c0,1.4,0.7,2.1,2.1,2.1
		C7126,874.2,7126.7,873.5,7126.7,872.2z"/>
	<path id="path4673_5_" inkscape:connector-curvature="0" class="st1" d="M7167.3,851.7c0,1.1-0.3,2.1-1.1,2.9
		c-0.8,0.8-1.8,1.1-2.9,1.1h-2.1c-1.1,0-2.1-0.5-2.9-1.3c-0.8-0.8-1.1-1.8-1.1-2.9v-16.4c0-1.4-0.7-2.1-2.1-2.1s-2.1,0.7-2.1,2.1
		v45.2c0,1.1-0.3,2.1-1.1,2.9c-0.8,0.8-1.8,1.1-2.9,1.1h-2.1c-1.1,0-2.1-0.3-2.9-1.1c-0.8-0.8-1.1-1.8-1.1-2.9v-47.1
		c0-2.8,1-5.3,3-7.3c2.1-2.1,4.4-3,7.3-3h4.1c2.8,0,5.3,1,7.3,3c1.9,2.1,3,4.4,3,7.3L7167.3,851.7L7167.3,851.7z"/>
	<path id="path4675_5_" inkscape:connector-curvature="0" class="st1" d="M7197.7,874.3c0,2.8-1,5.2-3,7.3c-2.1,2.1-4.4,3-7.3,3
		h-10.3c-1.1,0-2.1-0.3-2.9-1.1c-0.8-0.8-1.3-1.8-1.3-2.9v-53.3c0-1.1,0.5-2.1,1.3-2.9c0.8-0.8,1.8-1.1,2.9-1.1h10.3
		c2.8,0,5.2,1,7.3,3c1.9,2.1,3,4.4,3,7.3V874.3z M7187.4,872.2v-36.9c0-1.3-0.7-2.1-2.1-2.1s-2.1,0.7-2.1,2.1v36.9
		c0,1.4,0.7,2.1,2.1,2.1C7186.7,874.2,7187.4,873.5,7187.4,872.2z"/>
	<path id="path4677_5_" inkscape:connector-curvature="0" class="st1" d="M7228,874.3c0,2.8-1,5.2-3,7.3c-1.9,2.1-4.4,3-7.3,3h-4.2
		c-2.8,0-5.2-1-7.3-3c-1.9-1.9-3-4.4-3-7.3v-47.2c0-1.1,0.5-2.1,1.1-2.9c0.8-0.8,1.8-1.1,2.9-1.1h2.1c1.1,0,2.1,0.3,2.9,1.1
		c0.8,0.8,1.1,1.8,1.1,2.9v45.1c0,1.4,0.7,2.1,2.1,2.1s2.1-0.7,2.1-2.1v-45.1c0-1.1,0.3-2.1,1.1-2.9s1.8-1.1,2.9-1.1h2.1
		c1.1,0,2.1,0.3,2.9,1.1c0.8,0.8,1.1,1.8,1.1,2.9L7228,874.3L7228,874.3z"/>
	<path id="path4679_5_" inkscape:connector-curvature="0" class="st1" d="M7258.4,874.3c0,2.8-1,5.2-3,7.3s-4.4,3-7.3,3h-10.3
		c-1.1,0-2.1-0.3-2.9-1.1c-0.8-0.8-1.3-1.8-1.3-2.9v-2.1c0-1.1,0.3-2.1,1.1-2.9s1.8-1.1,2.9-1.1h8.2c1.3,0,2.1-0.7,2.1-2.1
		s-0.7-2.1-2.1-2.1h-2.1c-2.8,0-5.2-1-7.3-3c-2.1-1.9-3-4.4-3-7.3v-26.8c0-2.8,1-5.2,3-7.3c1.9-2.1,4.4-3,7.3-3h4.2
		c2.8,0,5.2,1,7.3,3c1.9,2.1,3,4.4,3,7.3v18.5c0,1.1-0.5,2.1-1.1,2.9c-0.8,0.8-1.8,1.3-2.9,1.3h-2.1c-1.1,0-2.1-0.3-2.9-1.1
		c-0.8-0.8-1.1-1.8-1.1-2.9v-16.4c0-1.3-0.7-2.1-2.1-2.1c-1.4,0-2.1,0.7-2.1,2.1v22.6c0,1.4,0.7,2.1,2.1,2.1h2.1c2.8,0,5.2,1,7.3,3
		c2.1,2.1,3,4.4,3,7.3L7258.4,874.3L7258.4,874.3z"/>
</g>
<path id="path4591_5_" inkscape:connector-curvature="0" class="st1" d="M7364.9,623.6c0,0,41.5,19.1,61.7,26
	c20.2,6.9,112.3,26,138.5,49.9c24.9,22.6,41.2,64.8,54.7,83.2c13.5,18.5,24.2,30.1,24.2,30.1s-17.4-14.9-29.5-31.4
	c-12.2-16.5-31.9-59.6-56.5-78.5c-24.6-19-100-38.7-131.8-48.6s-64-23.8-64-23.8L7364.9,623.6"/>
<path id="path4593_5_" inkscape:connector-curvature="0" class="st1" d="M7581,721.5c0,0,19.8,18.9,36.4,30.1s59.3,32.7,82.8,48.1
	c23.7,15.4,51.4,44.4,51.4,44.4s-30-25.6-54-40.1c-24-14.5-70.5-41.1-84.3-50c-13.8-9-23.7-17.8-23.7-17.8L7581,721.5"/>
<path id="path4595_5_" inkscape:connector-curvature="0" class="st1" d="M7399.3,753.7c0,0-21.4,11.7-34.8,28.6
	c-13.3,16.9-21.9,43-20.7,61.4c1.1,18,25.6,66.6,25.6,66.6s-18.5-50.2-19.6-67c-1.1-16.7,8.1-40.8,19.1-55.5
	C7380,773.1,7399.3,753.7,7399.3,753.7"/>
<path id="path4597_5_" inkscape:connector-curvature="0" class="st1" d="M7251.8,753.5c0,0,43.4,23.5,60.4,38.4
	c17,14.9,24,34.6,24,34.6s-15.6-19.1-31.3-32.9C7289.1,779.8,7251.8,753.5,7251.8,753.5"/>
<path class="st1" d="M7121.1,739.2c-7.8,2.2-10.9,5.1-10.9,5.1l-3.2-4c0,0-3.4-3.4-6.5-9.1c-3-5.4-5.7-14.1-8.1-13.9
	c-2.5,0-5.8,7.8-4.9,18.5c1,10.7,5.3,17.9,5.3,17.9s-1.8,1.8-1.8,4.1c0.1,2.2,1.6,3.4,1.6,3.4s-0.9,1.3-1.1,3.8l4,3.6
	c-0.1-0.2-0.2-0.5-0.2-0.6c-0.7-3.6,6.3-11.1,10.6-14.7C7110.4,749.4,7124.2,738.4,7121.1,739.2z M7096.4,752.3
	c-2.7-1.3-5.5-8.1-6.5-15.5c-1.1-7.5,0.9-16.1,2.1-16.5c1.3-0.5,4,7.8,7.6,14.1c4.2,7.3,8.6,12,8.6,12
	C7106.3,750.6,7099.1,753.7,7096.4,752.3z"/>
<path class="st1" d="M7303.4,896.7L7303.4,896.7c-5.9-16.2-5.8-48.1-8.7-56c-2.8-7.9-28.7-40.6-54.1-64.6
	c-25.4-24-46.7-39.4-52-40.6c-8.1-1.8-31,1-35.2,5.5c-3.4,3.6-9.3,25.1-14.1,28c-6.5,4-21.3,4-26.4,2.3c-4-1.3-4.9-3.4-4.9-3.4
	s-3.4-3.7-6.5-2.6c-6.8,2.3-7.8,1.7-7.8,1.7c3.5,2.4,11.5,3.5,11.5,3.5s2.1,3.3,7,4.6c5.3,1.5,23.3,2.3,30.4-2.5
	c6.3-4.2,9.3-25,13.3-28.3c4.1-3.4,20.4-5.5,29-2.9c8.6,2.6,31.6,17.8,53.8,38.7c22.5,21,47.2,53.5,51.2,64.4
	c4,11,0.5,36.5,7.8,55.2s41.8,50.3,41.8,50.3S7309.3,913,7303.4,896.7z"/>
<path class="st1" d="M7099.7,637.2c3.3-0.1,6.2-8.1,6.2-8.1s5.3-10.5,4.5-14.2c-0.3-1.5-5-0.5-7.1-0.5c-9.5-0.5-20.1-4.9-27.4-8.3
	c-7.4-3.4-25.4-14.3-27.6-20.6c-1.9-5.3,1.5-14.6,5.4-18.5c3.9-4,11.5-7.1,18.3-8.6c6.8-1.6,11.5-2.2,12.5-3.4
	c1-1.1,0.7-4.3-0.8-4.6c-1.6-0.2-5.7,3.6-10.3,5.4c-4.6,1.8-10,3.2-11.7,2.7c-2.1-0.5-2.5-4.9-5.9-5.4c-2.1-0.3-1.1,4.2-1.8,7.9
	c-0.8,3.8-2.8,6.2-2.8,6.2s0.5-5.4-0.5-8.6c-1.1-3.3-3.5-5.7-2.8-7.5c0.7-1.8,8.6-4.7,12.5-2.7c3.5,1.8,3.8,7.3,3.8,7.3
	s1.8-5-0.5-8.2c-2.3-3.2-8.6-2.4-8.6-2.4s3.4-2.6,8.2-3.1c7.3-0.7,17,3.4,17,3.4s14.6-4.1,23-0.3c8.5,3.8,14.4,13.8,14.4,13.8
	s-5-13.1-14.4-16.7c-9.6-3.8-24.3-0.5-24.3-0.5s-9.8-2.6-17.1-1.7c-7.3,1.1-15.4,7.3-16.9,10.2c-1.5,2.8,4.3,12.3,4.2,17.8
	c-0.1,3-4.9,8.8-4.2,15.1c0.3,2.2,2.2,4.7,2.2,4.7s-1.5,1.8-1.7,4s0.8,4.1,0.8,4.1s-1.7,4-1.7,8.5c0,4.2,1.8,9.2,3.8,9.6
	s6.5-5.7,6.5-5.7s-2.6,9.1-2.8,19.3c-0.2,9.7,2.3,21,5.9,21c3.5,0,4.7-9.9,8.5-17.8c3.8-8.1,9.9-16.2,9.9-16.2s2.6,9.4,6.8,9.3
	c3-0.1,6.7-4.9,6.7-4.9S7094.2,637.3,7099.7,637.2z M7091.9,616.9c0.7-1.5,5.1-0.2,7.9-0.1c2.9,0.1,6.6,0.1,6.5,4
	c-0.1,2.4-4.2,14.1-6.8,14.1C7097,634.9,7090.9,619.2,7091.9,616.9z M7048.5,611.3L7048.5,611.3c-1.1-0.2-2.3-4-2.2-7
	c0.1-3.4,1.8-8.1,3.3-8.4c2.3-0.5,6.2,2.5,6.5,4.9C7056.2,603.3,7049.6,611.4,7048.5,611.3z M7064.6,628.1
	c-4.2,8.5-5.7,18.1-7.1,17.7c-1.5-0.5-3.9-9.6-3.4-19.9c0.3-9.7,4.3-22.1,6.3-22.9c3.6-1.5,13.4,4.7,13.4,8.4
	C7073.8,614.1,7069,619.3,7064.6,628.1z M7082.6,621.4c-2.3-0.5-5.5-9-4.2-10.3c1.4-1.5,9.8,1.9,10.1,3.7
	C7088.7,616.6,7085,621.8,7082.6,621.4z"/>
<path class="st1" d="M7125.8,724.1c0,0-3.8-4.9-6.1-4.2c-3.8,1.2-3,14.7-3,14.7s-3.6-2.5-5.7-1.9c-2.9,0.8-2.6,7.9-2.6,7.9
	s-0.1-0.1-0.1-0.1v8c0.7-0.7,1.4-1.4,1.9-1.9c4.3-4,10.5-9.4,17-11.8c1.4-0.5,4.9-0.9,4.8-1.9
	C7131.8,730.1,7125.8,724.1,7125.8,724.1z M7111,742.6c-1.2-0.6-0.9-7.2,0.6-8c1.5-0.9,5.3,1.9,5.5,3.3
	C7117.2,739.1,7112.3,743.3,7111,742.6z M7124.4,733.9c-1.9,0.7-4.6,2.6-5.5,1.7c-1.2-1.4-0.5-13.5,1.2-13.9
	c1.8-0.6,7.2,6.5,7.8,8.1C7128.9,732.3,7126.4,733.2,7124.4,733.9z"/>
<path id="path4601_5_" inkscape:connector-curvature="0" class="st1" d="M7296.7,702c0,0,8.2,17.8,7.8,24.9s-9,15.8-11.7,21.4
	c-2.8,5.5-3.1,13.4-1.1,14.5c2.6,1.5,11.9-4.5,11.9-4.5s-7.7,1.9-9.3,0.6c-1.6-1.4-0.3-7.6,2.1-10.9c2.4-3.3,11.1-13.8,11.5-20.6
	C7308,720.7,7296.7,702,7296.7,702"/>
<path id="path4603_5_" inkscape:connector-curvature="0" class="st1" d="M7152.2,720.7c0,0-10.3,17.1-15.8,22.1
	c-5.4,5-23.8,13.4-23.8,13.4s18.6-3.8,25.8-10.5C7144.9,739.9,7152.2,720.7,7152.2,720.7"/>
<path id="path4605_5_" inkscape:connector-curvature="0" class="st1" d="M7159,706.5c0,0-3.1-17.8-7-31.2
	c-3.9-13.4-12.1-30.8-16.4-37.6c-4.3-6.8-7.9-11.8-6-12.6c1.9-0.8,7.5,5.8,10.7,11.5c3.5,6.2,11.4,25.2,14.5,37.8
	C7157.7,686.3,7159,706.5,7159,706.5"/>
<path id="path4609_5_" inkscape:connector-curvature="0" class="st1" d="M7140.8,567.9c-7.8,0.3-12.8,6.2-13.3,8.1
	c-0.5,1.5,1,14.3,5.9,22.7c5.2,8.9,15.9,18.8,19.8,28.2c4,9.4,6,23.5,7,33.4c1,10,0.8,17.4,0.8,17.4s-1.6,2.6-1,5.7
	c0.8,3.6,7.8,13.5,13.7,18.9c5.9,5.4,15.5,9.6,15.5,9.6s-8.7-6.1-13.9-12.2c-5.2-6.2-11.4-18.2-11.9-21.5
	c-0.6-3.3-1.4-16.6-2.5-26.3c-1-9-3-24.8-4.5-28.4s-17.7-20.9-21.7-27.8c-4.4-7.5-5.5-17.5-5.5-17.5s1.8-0.1,2.9-1.3
	c1.1-1.3,2.4-3.9,4.1-5.7C7138,569.3,7140.8,567.9,7140.8,567.9"/>
<path id="path4611_5_" inkscape:connector-curvature="0" class="st1" d="M7192.1,562.7c0,0,4.9,8.8,3.1,14.1
	c-1.6,4.5-10.9,6.5-12.1,6c-1.3-0.5-3.2-3.3-2.5-4.2c1.1-1.4,9.5-0.3,11.4-3.9C7193.8,571.1,7192.1,562.7,7192.1,562.7"/>
<path id="path4613_5_" inkscape:connector-curvature="0" class="st1" d="M7115.4,579.5c0,0-2.3-9.4-6.2-14.9
	c-3.9-5.5-15.4-8.3-15.8-9.4s2.8-2.6,4.7-2.5s9.9,4.3,13.3,9.8C7115,568.5,7115.4,579.5,7115.4,579.5"/>
<path id="path4659_5_" inkscape:connector-curvature="0" class="st1" d="M7103.9,543.7c0,0,7.5,1.1,12.6,0.5
	c5.1-0.7,17.3-5.5,25.3-6.2c8.1-0.6,14.1-0.1,14.1-0.1s5.7-3.5,15.2-3.3c9.4,0.2,21.4,3.4,25.9,4c4.6,0.5,14.3,1,25.2,4.5
	c12.2,4,29.3,14.3,39.5,20.6c10.2,6.3,11.5,6.8,21.1,10.9c9.6,4.1,22.1,9.8,29.9,14.8c5.7,3.5,11.9,9.9,11.9,9.9l-13-3.4
	c0,0-6.3-7-17.5-12.3c-11.2-5.3-19.6-8.5-25.6-11.9c-6.1-3.4-17.7-11.5-28-16.9s-19.7-8.2-25.6-9.4c-5.8-1.3-11-1.5-11-1.5
	s3.4,2.8,2.5,3.8c-0.9,1.1-20.9-11-36-9.9c-13,1-18.3,11-20.7,10.7c-2.4-0.3-0.5-7-0.5-7s-4.9-1.1-11.3-0.3
	c-6.3,0.7-17.1,4.7-21.7,5.4c-4.6,0.5-7.9,0.8-7.9,0.8L7103.9,543.7"/>
<path class="st1" d="M7301.2,596.4c-9.2,0.3-16.2,1.3-17.5,0.6c-2.1-1.3-2.2-5.8-4.5-10c-2.2-4-5-6.7-7.1-7.3
	c-2.2-0.7-6,1.1-5.9,1.8c0,0.8,5.5,2.3,9,6.3c3.6,4.2,5.3,9.5,7.6,10.7c1.6,0.9,9.4,0.5,18.3,0.6V596.4L7301.2,596.4z"/>
<path class="st1" d="M7252,638.7c0,0,1.4,1.5,3.5,3.4v-3.3c-4.9-3.8-8.6-7.8-8.6-7.8s4.4,11,5.3,18.7c1,7.8-1.3,22.3-6.2,29.2
	c-4.9,7-35.5,13.8-35.5,13.8s1.8,9.4,5.5,14.5c3.6,5.1,10.9,9.2,10.9,9.2s-5.1-5.4-8.6-10.7c-3.4-5-5.1-11.5-5.1-11.5
	s29.2-4.4,35.8-11.7c4.9-5.5,6.5-23,6.3-29.5C7255,646.3,7252,638.7,7252,638.7z"/>
<path class="st1" d="M7124,632.2c-0.8-17.3-13.5-17.3-13.5-17.3s-3,9.1-1.8,16.2c1.4,9.1,13.3,20.9,12.3,15.2
	C7119.9,640.5,7124,632.2,7124,632.2z M7118.4,643.2c0,0.5-0.3,0.3-0.5,0.2c-2.7-2.9-6.5-8.1-7.3-12.7c-0.6-3.8,0.8-9.4,1.1-11.9
	c1.3-0.8,5.2-2.3,9.4,13.6C7120.4,634.5,7118.7,639,7118.4,643.2z"/>
<path class="st1" d="M7132.3,712.9c-1.7-3.7-4.3,3.9-4.7,9.7c-0.4,4.5,1.9,10.1,1.9,10.1s7.9-0.6,7.7-11.4
	C7137.2,721.2,7133.9,716.2,7132.3,712.9z M7135.3,722.3c-1.8,9.1-4,7.8-4.8,7.4c-0.3-1.4-1.3-4.5-1.1-6.7c0.3-2.6,0.5-5.7,1.7-7.7
	c0.1-0.1,0.4,0.3,0.6,0.7C7133.1,719.1,7134.8,721.1,7135.3,722.3z"/>
<path class="st1" d="M7138.9,556.4c0,0,9.4,0,13.8-5.3c4.4-5.3,12.2-14.1,21.9-10.9c9.7,3.1,15,11.5,15,11.5s-3.8,0.9-4.4,0.7
	s-11.5-17.4-26.7-5.7C7154.5,549.9,7152.7,555.6,7138.9,556.4z"/>
<path class="st1" d="M7170.3,547.3c0,0,3.7-0.6,6.7,1.1c3,1.7,5.3,3.9,6.7,4c-1.3-0.1-1.5,0.3-3.3-1
	C7176,548.2,7172,547.1,7170.3,547.3z"/>
<path class="st1" d="M7162.5,566c-5.1,0-11-2.7-17.3-8.2l0.6-0.7c6.2,4.9,11.7,7.4,16.2,7.4c0.9,0,1.7-0.1,2.5-0.3
	c5.8-1.4,10.6-6.6,12.3-13.6l0.1-0.5l0.5,0.2c0.7,0.3,1.1,0.8,1.1,0.9l0.2,0.2l-0.1,0.2C7178.5,551.8,7174.2,566,7162.5,566z"/>
<path class="st1" d="M7147.7,673.7c-4.1-9.6-14.1-24-23.7-50.1c-0.6-1.5,0.4-4,4.7-2.9c-2.5-3.5-6.2-7-11.5-7.9
	c-10.8-1.8-16.5,3.3-27.4-1.4c-2.5-1.1-4-2.9-7.1-5.2c3.4,3.9,7.3,9.6,19.1,9.6c19.6,0.1,18.5,6.8,21.3,16.7
	c2.6,11.5,23.7,48.7,29.2,64.2c-3.2,13.4-12.2,20.9-25.5,34.8c-3,3.1-4.2,5.5-14.8,13.3c-11.7,15.9-19.3,13.5-21.3,17
	c-1.7,3,5,7,8.2,7c-4.6-5.6,49.9-43.1,55.9-56.7C7157.7,705.2,7157.1,695.8,7147.7,673.7z"/>
<path class="st1" d="M7145.7,677.9c0,0-17.6,2.2-29.5,27.7c-5.8,12.2-9.9,30.4-9.2,36.4c0.6,4.5,2.6,1.4,2.6,1.4s-3.1-7.7,8.8-36.1
	c9.2-21.8,25.5-25.1,29.4-25.4C7146.4,678.3,7145.7,677.9,7145.7,677.9z"/>
<path class="st1" d="M7129.2,548.5c0,0,8,9.1,21.4,1.9"/>
<path class="st1" d="M7340.6,624.5c-9.4,1.3-18.9,4.8-27.3,10.2c-0.5,0.3-4.2,3.3-6.9,4.3c-6.9,2.7-9.8,2.6-9.8,2.6s5.1,0.7,10.3-1
	c2.5-0.8,6.7-4.2,7.3-4.6c1.1-0.7,6.4-1,5.1-1.8c-0.6-1.9,9.6-5.6,15.3-6.3c16.1-2.1,20.3-10.7,20.3-10.7
	C7351.5,620.2,7345.7,623.7,7340.6,624.5z"/>
<path class="st1" d="M7273.9,621.1c0,0-1.1,0.2-1.4,0.9c-0.1,0.4-0.5,0.4-0.6,0.9c-0.3,0.6-0.6,1.3-0.5,1.8c0.1,0.6,0.6,0.8,0.9,1
	c0.1,0.1,0.2,0.1,0.3,0.2l0,0l0,0c0.1,0.1-0.1-0.1-0.1-0.1l0,0h0.1l0.2,0.1c0.1,0.1,0.2,0,0.2,0.1c0.2,0,4.5,0.8,7.1,5
	c2.8,3.7,1.8,12.1,1.8,12.1s-0.2-0.5-0.4-1.3c-0.1-0.4-0.3-0.9-0.4-1.4c-0.1-0.5-0.3-1.1-0.5-1.8c-0.2-0.6-0.3-1.3-0.6-2
	c-0.2-0.7-0.5-1.4-0.7-2.1c-0.3-0.6-0.6-1.3-1-1.8c-0.4-0.5-0.8-1-1.3-1.4s-1.1-0.7-1.8-1.1c-0.7-0.3-1.5-0.6-2.3-1
	c-0.5-0.2-0.9-0.4-1.4-0.7c-0.1-0.1-0.3-0.2-0.3-0.2l-0.1-0.1l-0.1-0.1l0,0c0,0-0.1-0.1-0.1-0.1l0,0l-0.1-0.1
	c-0.2-0.2-0.4-0.4-0.6-0.6c-0.3-0.5-0.6-1-0.6-1.6c-0.1-0.5,0-1.6,1.2-3.3c0.3-0.5,0.8-0.8,1.1-1.1
	C7272.7,620.8,7273.9,621.1,7273.9,621.1z"/>
<path class="st1" d="M7367.9,602.8c-1.1-1-2.6-1.5-4.5-1.7c-3.9-0.4-8.7,0.9-12,2.1c-0.4,0.1-1.4,0.2-4.1-0.1
	c-4.6-0.5-11.5-1.8-17.5-3.5c-7.1-1.9-14.1-3.3-20.7-3.9c-15.8-1.5-24.6,1.3-25,1.4l0.2,1.7c0,0,0.2,0.1,0.7,0.1
	c1.5,0.2,5.7,0.5,11.5,0.2c3.9-0.2,8.1-0.1,12.5,0.4c6.3,0.6,13,1.9,19.8,3.8c3.8,1,9.1,2.3,13.9,3c-8.1,2.7-25.1,8.2-32.2,9.3
	c-2.1,0.3-4.9,0.8-7.9,1.3c-6.1,1.1-14.3,4.1-21.4,3.1c-11.1-1.4-11.1,4.9-11.1,4.9c1,1.2,0.5-0.6,2.2-2.2c1.4-1.3,5.3-1.3,8.4-0.7
	c6.3,1.2,15.7-0.2,22.6-1.4h0.1c3-0.5,5.6-1,7.6-1.3c10.2-1.5,37.3-10.9,37.6-11c0.6-0.3,1.9-0.9,3.8-1.5h0.1l0.9-0.3l0,0
	c2.6-0.9,6.6-1.9,9.5-1.6c1.1,0.1,1.9,0.4,2.4,0.8c1.1,1,0.9,3.2,0.4,4.9c-0.7,2.5-1.1,4.8-1.5,7c-0.6,3.4-1.5,9.5-6.2,14.6
	c-3.4,3.7-8.7,7.7-11.7,8.5c-6.3,1.8-11.9,2.7-19.2,3c-0.6,1.4-4.6,5.4-9.8,8.2c-5.2,2.9-11.5,4.5-16.1,4.7
	c-3.1,0.2-11.3,1.4-20.9-1.6c-9.4-3-20.2-10.2-29.8-20.7c-0.9-0.9-3.7-2.5-1.6,1c1.5,1.8,4,4.6,4,4.6s16.8,19.1,37.8,20.3
	c14.9,0.9,21.2-2.2,25.2-3.8c6.3-2.3,10.2-6,12.3-8.3c1.6-1.7,0.6-1.3,2.6-1.4c0.3,0.1,8.8-0.5,16.1-2.7c7.3-2.2,11.4-6.2,11.7-6.6
	c2.9-2.6,4.3-5.3,5.5-7.5c1.6-3,2.7-6.2,3.4-9.6c0.6-2.7,1-5.5,1.9-8.7C7370.5,607.5,7370,604.6,7367.9,602.8z"/>
<g>
	<path class="st1" d="M7071.5,582.1c0,0,0.2-0.1,0.7-0.1c0.5-0.1,1.1-0.1,1.9-0.1s1.8,0,2.9,0.1c1.1,0.1,2.4,0.2,3.8,0.5
		s2.9,0.7,4.3,1.4c1.5,0.6,3,1.5,4.5,2.2s3.1,1.5,4.9,1.8c1.7,0.3,3.5,0.3,5.3-0.2c1.8-0.5,3.5-1.1,5.1-1.9c1.7-0.7,3.2-1.7,4.9-2.2
		c1.7-0.6,3.4-0.7,5.1-0.6c1.7,0.1,3.1,0.6,4.4,1.1c1.3,0.6,2.4,1.3,3.3,1.9c0.9,0.7,1.7,1.4,2.2,1.9c0.6,0.6,1,1.1,1.3,1.4
		s0.4,0.5,0.4,0.5s-0.6-0.7-1.8-1.8c-0.6-0.6-1.4-1.2-2.3-1.8c-0.9-0.6-2.1-1.3-3.3-1.8c-1.3-0.5-2.7-0.9-4.3-0.9
		c-1.5-0.1-3.2,0.2-4.8,0.7c-1.6,0.5-3.1,1.5-4.8,2.2c-1.7,0.7-3.4,1.5-5.3,2c-1.8,0.5-3.8,0.6-5.7,0.1c-1.8-0.4-3.5-1.2-5.1-2
		c-1.5-0.8-3-1.7-4.4-2.3c-1.4-0.7-2.9-1.1-4.2-1.4c-2.7-0.7-5-0.9-6.6-0.9C7072.5,582.1,7071.5,582.1,7071.5,582.1z"/>
</g>
<g>
	<path class="st1" d="M7071,585c0,0,0.2,0.1,0.7,0.1c0.5,0.1,1.1,0.2,2.1,0.3c0.9,0.2,1.9,0.4,3.1,0.7c1.2,0.3,2.6,0.7,4,1.3
		c1.4,0.6,3,1.3,4.3,2.5c1.3,1.1,2.8,2.2,4.5,3.1c1.7,0.9,3.5,1.5,5.4,1.7c1.9,0.2,3.9-0.1,5.8-0.7c0.9-0.3,1.9-0.7,2.8-1.1
		c0.9-0.4,1.9-0.7,2.9-1.1c1.9-0.6,3.8-1.1,5.8-1.4c1.9-0.3,3.8-0.2,5.5,0c0.5,0.1,0.9,0.1,1.3,0.2c0.4,0.1,0.8,0.2,1.3,0.3
		c0.8,0.2,1.5,0.5,2.3,0.7c0.3,0.1,0.7,0.3,1,0.5s0.7,0.3,1,0.5c0.6,0.3,1.2,0.6,1.8,0.9c0.6,0.3,1,0.6,1.5,0.9s0.9,0.6,1.3,0.8
		c0.7,0.5,1.3,1,1.7,1.3c0.4,0.3,0.6,0.5,0.6,0.5s-0.9-0.6-2.3-1.5c-0.4-0.2-0.8-0.5-1.3-0.7c-0.5-0.3-1-0.6-1.5-0.9
		c-0.6-0.3-1.1-0.6-1.8-0.9c-0.6-0.2-1.3-0.6-2-0.8c-0.7-0.2-1.4-0.5-2.2-0.6c-0.4-0.1-0.8-0.2-1.2-0.3c-0.4-0.1-0.9-0.1-1.3-0.2
		c-1.7-0.2-3.5-0.2-5.4,0.1c-1.8,0.3-3.7,0.8-5.6,1.4c-0.9,0.3-1.9,0.7-2.8,1.1c-0.9,0.4-1.9,0.8-2.9,1.1c-2,0.6-4.1,0.9-6.2,0.7
		c-2.1-0.2-4-0.9-5.7-1.8c-1.7-0.9-3.2-2.1-4.5-3.3c-1.3-1.1-2.7-1.9-4.1-2.5c-1.4-0.6-2.7-1.1-3.9-1.4c-1.2-0.3-2.2-0.6-3.1-0.9
		C7072,585.2,7071,585,7071,585z"/>
</g>
<g>
	<path class="st1" d="M7073.6,589c0,0,0.7,0.2,2,0.9c0.6,0.3,1.4,0.7,2.2,1.3c0.8,0.5,1.7,1.1,2.7,1.8c1,0.7,1.9,1.5,3,2.4
		c0.5,0.5,1,0.9,1.6,1.4c0.6,0.5,1.1,0.9,1.7,1.3c2.4,1.6,5.4,2.6,8.5,2.7c1.5,0.1,3.1-0.2,4.5-0.6c0.3-0.1,0.7-0.2,1.1-0.3
		c0.3-0.2,0.7-0.3,1-0.4c0.7-0.3,1.4-0.6,2.1-0.9c2.7-1.2,5.3-2.2,7.6-2.8c1.1-0.3,2.2-0.5,3.2-0.6c0.5-0.1,0.9-0.1,1.4-0.1
		c0.4,0,0.8,0,1.1,0c0.7,0,1.3,0.1,1.6,0.1s0.6,0.1,0.6,0.1s-0.2,0-0.6,0c-0.3-0.1-0.9,0-1.6,0c-0.3,0-0.7,0.1-1.1,0.1
		s-0.9,0.1-1.3,0.2c-0.9,0.2-2,0.4-3.1,0.7c-2.2,0.7-4.8,1.7-7.4,3c-0.7,0.3-1.3,0.6-2.1,1c-0.3,0.2-0.7,0.3-1.1,0.5
		c-0.4,0.1-0.7,0.2-1.1,0.4c-1.5,0.5-3.1,0.7-4.7,0.6c-3.3-0.1-6.4-1.2-8.9-2.9c-0.6-0.4-1.2-0.9-1.7-1.4c-0.5-0.5-1-1-1.5-1.4
		c-1-0.9-1.9-1.7-2.9-2.5c-1.8-1.5-3.4-2.6-4.6-3.3C7074.3,589.3,7073.6,589,7073.6,589z"/>
</g>
<g>
	<path class="st1" d="M7082.7,601.1c0,0,0.6,0.5,1.6,1.3c1,0.8,2.6,1.8,4.5,2.9c1,0.5,2,1.1,3.2,1.5c1.2,0.5,2.5,0.8,3.8,0.9
		c0.7,0.1,1.4,0.1,2.1,0.2c0.7,0,1.4,0,2.1,0c1.4,0,2.9-0.1,4.3-0.3c1.4-0.2,2.9-0.5,4.3-0.8c0.7-0.2,1.4-0.3,2.1-0.4
		c0.3-0.1,0.7-0.1,1.1-0.2c0.3-0.1,0.7-0.1,1.1-0.1l0.5-0.1c0.2,0,0.3,0,0.5,0c0.3,0,0.7,0,1,0s0.7,0.1,1,0.1s0.7,0.1,1,0.2
		c0.3,0.1,0.6,0.2,0.9,0.2c0.2,0.1,0.3,0.1,0.5,0.1s0.3,0.1,0.5,0.2c0.6,0.2,1.1,0.5,1.6,0.7c0.5,0.3,1,0.6,1.4,0.8s0.8,0.6,1.2,0.8
		c0.3,0.3,0.7,0.5,1,0.7c0.3,0.2,0.6,0.5,0.9,0.7c1,0.9,1.5,1.3,1.5,1.3s-0.6-0.5-1.7-1.2c-0.3-0.2-0.5-0.4-0.9-0.6
		c-0.3-0.2-0.7-0.5-1.1-0.7s-0.7-0.5-1.2-0.7c-0.5-0.2-0.9-0.5-1.4-0.7c-0.5-0.2-1-0.4-1.6-0.6c-0.1-0.1-0.3-0.1-0.4-0.2
		c-0.2-0.1-0.3-0.1-0.5-0.1c-0.3-0.1-0.6-0.1-0.9-0.2c-0.3-0.1-0.6-0.1-0.9-0.1c-0.3,0-0.6-0.1-1-0.1c-0.6,0.1-1.3,0-2,0.1
		c-0.3,0.1-0.7,0.1-1,0.1c-0.3,0.1-0.7,0.1-1,0.2c-0.7,0.1-1.4,0.3-2.1,0.5c-1.4,0.3-2.9,0.6-4.4,0.8c-1.5,0.2-3,0.3-4.5,0.3
		c-0.7,0-1.5,0-2.2-0.1c-0.7-0.1-1.4-0.1-2.1-0.2c-1.4-0.1-2.8-0.5-3.9-1c-1.2-0.5-2.2-1.1-3.2-1.7c-1.9-1.2-3.3-2.4-4.3-3.2
		C7083.2,601.6,7082.7,601.1,7082.7,601.1z"/>
</g>
<g>
	<path class="st1" d="M7132.7,610c0,0-0.1-0.6-0.6-1.5c-0.2-0.5-0.5-1-0.9-1.7c-0.4-0.6-0.9-1.3-1.4-2s-1.2-1.4-2-2.1
		c-0.2-0.2-0.4-0.3-0.6-0.5c-0.2-0.2-0.4-0.3-0.6-0.5l-0.3-0.2c-0.1-0.1-0.2-0.2-0.3-0.2c-0.2-0.2-0.5-0.2-0.7-0.4
		c-1-0.5-2.1-0.7-3.3-0.9s-2.3-0.2-3.5-0.1s-2.3,0.3-3.4,0.7c-1.1,0.3-2.1,0.9-3.1,1.4c-2,1.1-4.1,1.8-5.8,2.2
		c-0.9,0.2-1.7,0.3-2.5,0.5s-1.4,0.2-1.9,0.2c-0.5,0.1-0.9,0.1-1.2,0.1s-0.5,0-0.5,0s0.6-0.1,1.7-0.2c1-0.2,2.5-0.5,4.2-0.9
		c0.9-0.2,1.8-0.6,2.7-1c0.9-0.4,1.9-0.9,2.9-1.4c1-0.5,2-1.2,3.1-1.6c1.1-0.4,2.4-0.6,3.6-0.7c1.3-0.1,2.5-0.1,3.7,0.1
		c1.2,0.2,2.3,0.5,3.4,1c0.3,0.2,0.6,0.3,0.8,0.5c0.1,0.1,0.2,0.1,0.3,0.2l0.3,0.3c0.2,0.2,0.4,0.3,0.6,0.5c0.2,0.2,0.4,0.4,0.6,0.6
		c0.7,0.7,1.4,1.5,1.9,2.2s1,1.5,1.3,2.1c0.3,0.6,0.6,1.3,0.7,1.8c0.2,0.5,0.3,0.9,0.3,1.2C7132.7,609.8,7132.7,610,7132.7,610z"/>
</g>
</svg>
