<?xml version="1.0" encoding="utf-8"?>
<!-- Generator: Adobe Illustrator 19.1.0, SVG Export Plug-In . SVG Version: 6.00 Build 0)  -->
<svg version="1.1"
	 id="svg12341" xmlns:inkscape="http://www.inkscape.org/namespaces/inkscape" xmlns:cc="http://creativecommons.org/ns#" xmlns:sodipodi="http://sodipodi.sourceforge.net/DTD/sodipodi-0.dtd" xmlns:dc="http://purl.org/dc/elements/1.1/" xmlns:rdf="http://www.w3.org/1999/02/22-rdf-syntax-ns#" xmlns:svg="http://www.w3.org/2000/svg" inkscape:version="0.91 r13725" sodipodi:docname="lines-wallpaper_2560x1080.svg"
	 xmlns="http://www.w3.org/2000/svg" xmlns:xlink="http://www.w3.org/1999/xlink" x="0px" y="0px" viewBox="880 -140 2560 1080"
	 style="enable-background:new 880 -140 2560 1080;" xml:space="preserve">
<style type="text/css">
	.st0{fill:#1A1A1A;}
	.st1{fill:#D3A809;}
</style>
<rect id="rect4587" x="880" y="-140" inkscape:export-ydpi="90" inkscape:export-filename="/home/karbo/Pardus/ArtWork/1200yns1.png" inkscape:export-xdpi="90" class="st0" width="2560" height="1080">
</rect>
<g>
	<path id="path4669_1_" inkscape:connector-curvature="0" class="st1" d="M2662,779.4c0,3.2-1.1,5.9-3.5,8.3c-2.3,2.2-5,3.5-8.3,3.5
		h-2.4c-1.6,0-2.4,0.8-2.4,2.3v9.4c0,1.3-0.4,2.4-1.3,3.3c-0.9,0.9-2,1.3-3.3,1.3h-2.3c-1.3,0-2.4-0.4-3.3-1.3
		c-0.9-0.9-1.3-2-1.3-3.3V749c0-3.2,1.1-5.9,3.5-8.3s5-3.5,8.3-3.5h4.8c3.2,0,5.9,1.1,8.3,3.5c2.2,2.3,3.5,5,3.5,8.3v30.5h-0.1
		V779.4z M2650.2,776.9v-25.8c0-1.5-0.8-2.3-2.3-2.3c-1.6,0-2.4,0.8-2.4,2.3v25.8c0,1.6,0.8,2.3,2.4,2.3S2650.2,778.5,2650.2,776.9z
		"/>
	<path id="path4671_1_" inkscape:connector-curvature="0" class="st1" d="M2696.5,795.7c0,3.2-1.1,5.9-3.5,8.3
		c-2.3,2.3-5,3.5-8.3,3.5h-4.8c-3.2,0-5.9-1.1-8.3-3.5c-2.3-2.2-3.5-5-3.5-8.3v-4.6c0-3.2,1.1-5.9,3.5-8.3c2.2-2.2,5-3.5,8.3-3.5
		h2.3c1.6,0,2.4-0.8,2.4-2.3v-25.9c0-1.6-0.8-2.3-2.3-2.3c-1.6,0-2.3,0.8-2.3,2.3v18.7c0,1.3-0.5,2.4-1.3,3.3
		c-0.9,0.9-2,1.4-3.3,1.4h-2.3c-1.3,0-2.4-0.4-3.3-1.3c-0.9-0.9-1.3-2-1.3-3.3v-21.1c0-3.2,1.1-6.1,3.5-8.3c2.2-2.3,5-3.5,8.3-3.5
		h4.8c3.2,0,5.9,1.1,8.3,3.5c2.2,2.3,3.5,5,3.5,8.3L2696.5,795.7L2696.5,795.7z M2684.8,793.3c0-1.5-0.8-2.3-2.3-2.3
		c-1.6,0-2.3,0.8-2.3,2.3c0,1.6,0.8,2.3,2.3,2.3C2684.1,795.6,2684.8,794.8,2684.8,793.3z"/>
	<path id="path4673_1_" inkscape:connector-curvature="0" class="st1" d="M2731.2,769.9c0,1.3-0.4,2.4-1.3,3.3
		c-0.9,0.9-2,1.3-3.3,1.3h-2.3c-1.3,0-2.4-0.5-3.3-1.4s-1.3-2-1.3-3.3v-18.7c0-1.6-0.8-2.3-2.4-2.3s-2.4,0.8-2.4,2.3v51.6
		c0,1.3-0.4,2.4-1.3,3.3c-0.9,0.9-2,1.3-3.3,1.3h-2.3c-1.3,0-2.4-0.4-3.3-1.3c-0.9-0.9-1.3-2-1.3-3.3v-53.8c0-3.2,1.1-6.1,3.5-8.3
		c2.3-2.3,5-3.5,8.3-3.5h4.6c3.2,0,6.1,1.1,8.3,3.5s3.5,5,3.5,8.3L2731.2,769.9L2731.2,769.9z"/>
	<path id="path4675_1_" inkscape:connector-curvature="0" class="st1" d="M2765.8,795.7c0,3.2-1.1,5.9-3.5,8.3
		c-2.3,2.3-5,3.5-8.3,3.5h-11.8c-1.3,0-2.4-0.4-3.3-1.3c-0.9-0.9-1.4-2-1.4-3.3V742c0-1.3,0.5-2.4,1.4-3.3c0.9-0.9,2-1.3,3.3-1.3
		h11.8c3.2,0,5.9,1.1,8.3,3.5c2.2,2.3,3.5,5,3.5,8.3V795.7z M2754.2,793.3v-42.1c0-1.5-0.8-2.3-2.4-2.3s-2.3,0.8-2.3,2.3v42.1
		c0,1.6,0.8,2.3,2.3,2.3C2753.3,795.6,2754.2,794.8,2754.2,793.3z"/>
	<path id="path4677_1_" inkscape:connector-curvature="0" class="st1" d="M2800.4,795.7c0,3.2-1.1,5.9-3.5,8.3
		c-2.2,2.3-5,3.5-8.3,3.5h-4.8c-3.2,0-5.9-1.1-8.3-3.5c-2.2-2.2-3.5-5-3.5-8.3v-53.9c0-1.3,0.5-2.4,1.3-3.3c0.9-0.9,2-1.3,3.3-1.3
		h2.3c1.3,0,2.4,0.4,3.3,1.3c0.9,0.9,1.3,2,1.3,3.3v51.4c0,1.6,0.8,2.3,2.3,2.3c1.6,0,2.3-0.8,2.3-2.3v-51.4c0-1.3,0.4-2.4,1.3-3.3
		c0.9-0.9,2-1.3,3.3-1.3h2.3c1.3,0,2.4,0.4,3.3,1.3c0.9,0.9,1.3,2,1.3,3.3L2800.4,795.7L2800.4,795.7z"/>
	<path id="path4679_1_" inkscape:connector-curvature="0" class="st1" d="M2835.1,795.7c0,3.2-1.1,5.9-3.5,8.3
		c-2.3,2.3-5,3.5-8.3,3.5h-11.7c-1.3,0-2.4-0.4-3.3-1.3c-0.9-0.9-1.4-2-1.4-3.3v-2.3c0-1.3,0.4-2.4,1.3-3.3s2-1.3,3.3-1.3h9.4
		c1.5,0,2.3-0.8,2.3-2.3s-0.8-2.3-2.3-2.3h-2.4c-3.2,0-5.9-1.1-8.3-3.5c-2.3-2.2-3.5-5-3.5-8.3v-30.6c0-3.2,1.1-5.9,3.5-8.3
		c2.2-2.3,5-3.5,8.3-3.5h4.8c3.2,0,5.9,1.1,8.3,3.5c2.2,2.3,3.5,5,3.5,8.3v21.1c0,1.3-0.5,2.4-1.3,3.3c-0.9,0.9-2,1.4-3.3,1.4h-2.3
		c-1.3,0-2.4-0.4-3.3-1.3s-1.3-2-1.3-3.3v-18.7c0-1.5-0.8-2.3-2.3-2.3c-1.6,0-2.3,0.8-2.3,2.3v25.8c0,1.6,0.8,2.3,2.4,2.3h2.4
		c3.2,0,5.9,1.1,8.3,3.5c2.3,2.3,3.5,5,3.5,8.3L2835.1,795.7L2835.1,795.7z"/>
</g>
<path id="path4591_1_" inkscape:connector-curvature="0" class="st1" d="M2956.7,509.6c0,0,47.4,21.8,70.4,29.7
	c23.1,7.8,128.2,29.7,158.1,56.9c28.4,25.8,47,73.9,62.5,95c15.5,21.1,27.6,34.4,27.6,34.4s-19.8-17-33.7-35.9
	c-13.9-18.8-36.4-68.1-64.5-89.6c-28.1-21.6-114.1-44.2-150.5-55.5c-36.4-11.3-73.1-27.2-73.1-27.2L2956.7,509.6"/>
<path id="path4593_1_" inkscape:connector-curvature="0" class="st1" d="M3203.4,621.3c0,0,22.6,21.6,41.6,34.4
	c19,12.8,67.7,37.4,94.5,54.9c27,17.5,58.6,50.7,58.6,50.7s-34.2-29.3-61.6-45.8c-27.4-16.5-80.5-46.9-96.2-57.1
	c-15.7-10.3-27.1-20.3-27.1-20.3L3203.4,621.3"/>
<path id="path4595_1_" inkscape:connector-curvature="0" class="st1" d="M2995.9,658.1c0,0-24.4,13.3-39.7,32.6
	c-15.2,19.2-25,49-23.7,70.1c1.3,20.5,29.3,76,29.3,76s-21.1-57.3-22.4-76.4c-1.2-19.1,9.2-46.6,21.8-63.4
	C2973.9,680.2,2995.9,658.1,2995.9,658.1"/>
<path id="path4597_1_" inkscape:connector-curvature="0" class="st1" d="M2827.6,657.8c0,0,49.5,26.8,69,43.9
	c19.4,17,27.4,39.4,27.4,39.4s-17.8-21.8-35.7-37.6C2870.2,687.9,2827.6,657.8,2827.6,657.8"/>
<path class="st1" d="M2678.5,641.5c-8.9,2.5-12.4,5.9-12.4,5.9l-3.7-4.6c0,0-3.9-3.9-7.4-10.4c-3.5-6.1-6.5-16-9.3-15.9
	c-2.8,0-6.7,8.9-5.5,21.1c1.1,12.2,6.1,20.5,6.1,20.5s-2.1,2.1-2,4.6c0.1,2.5,1.8,3.9,1.8,3.9s-1,1.5-1.2,4.3l4.6,4.1
	c-0.1-0.2-0.2-0.5-0.2-0.7c-0.8-4.1,7.2-12.7,12.1-16.8C2666.3,653.2,2681.9,640.6,2678.5,641.5z M2650.3,656.5
	c-3.1-1.4-6.3-9.2-7.4-17.7c-1.2-8.5,1-18.3,2.4-18.8c1.4-0.5,4.6,8.9,8.7,16.1c4.8,8.3,9.8,13.7,9.8,13.7
	C2661.6,654.6,2653.4,658.1,2650.3,656.5z"/>
<path class="st1" d="M2886.4,821.3L2886.4,821.3c-6.7-18.5-6.6-54.9-10-64c-3.2-9.1-32.7-46.3-61.7-73.7
	c-29-27.4-53.3-44.9-59.4-46.3c-9.2-2.1-35.3,1.1-40.2,6.3c-3.8,4.1-10.6,28.6-16.1,32c-7.4,4.6-24.3,4.6-30.1,2.6
	c-4.6-1.5-5.6-3.8-5.6-3.8s-3.9-4.2-7.4-3c-7.8,2.6-8.9,1.9-8.9,1.9c4,2.7,13.2,4,13.2,4s2.4,3.7,8,5.2c6.1,1.7,26.6,2.6,34.7-2.8
	c7.2-4.8,10.6-28.5,15.1-32.3c4.6-3.8,23.3-6.3,33.1-3.3c9.8,3,36.1,20.3,61.4,44.1c25.7,24,53.9,61,58.4,73.5
	c4.6,12.5,0.5,41.7,8.9,63c8.4,21.4,47.7,57.4,47.7,57.4S2893.2,839.9,2886.4,821.3z"/>
<path class="st1" d="M2654,525.1c3.7-0.1,7-9.3,7-9.3s6.1-12,5.2-16.2c-0.3-1.7-5.7-0.5-8.1-0.6c-10.9-0.5-22.9-5.5-31.3-9.5
	c-8.5-3.9-29-16.3-31.5-23.5c-2.2-6.1,1.7-16.6,6.1-21.1c4.4-4.6,13.2-8.1,20.9-9.8c7.8-1.8,13.1-2.5,14.3-3.8
	c1.1-1.3,0.8-5-0.9-5.2c-1.8-0.2-6.5,4.1-11.8,6.1c-5.2,2-11.4,3.7-13.4,3.1c-2.3-0.6-2.8-5.6-6.7-6.1c-2.4-0.3-1.2,4.8-2.1,9.1
	c-0.9,4.3-3.2,7-3.2,7s0.5-6.1-0.6-9.8c-1.2-3.7-4-6.5-3.2-8.5c0.8-2,9.8-5.3,14.2-3.1c4,2,4.3,8.3,4.3,8.3s2-5.7-0.6-9.4
	c-2.6-3.7-9.8-2.7-9.8-2.7s3.8-3,9.4-3.5c8.3-0.8,19.4,3.9,19.4,3.9s16.6-4.6,26.3-0.3s16.4,15.8,16.4,15.8s-5.7-14.9-16.4-19.1
	c-11-4.3-27.7-0.5-27.7-0.5s-11.1-3-19.6-1.9c-8.3,1.2-17.6,8.3-19.2,11.6c-1.7,3.2,5,14.1,4.8,20.3c-0.1,3.5-5.6,10-4.8,17.2
	c0.3,2.5,2.5,5.4,2.5,5.4s-1.7,2-1.9,4.6s0.9,4.6,0.9,4.6s-1.9,4.6-1.9,9.6c0,4.8,2.1,10.5,4.3,11c2.2,0.5,7.4-6.5,7.4-6.5
	s-3,10.4-3.2,22c-0.2,11.1,2.6,24,6.7,24c4,0,5.3-11.3,9.6-20.3c4.3-9.2,11.3-18.5,11.3-18.5s3,10.8,7.8,10.6
	c3.5-0.1,7.6-5.6,7.6-5.6S2647.7,525.2,2654,525.1z M2645.1,501.9c0.8-1.7,5.9-0.2,9.1-0.1c3.3,0.1,7.6,0.1,7.4,4.6
	c-0.1,2.7-4.8,16-7.8,16C2650.9,522.5,2644,504.6,2645.1,501.9z M2595.5,495.6L2595.5,495.6c-1.3-0.2-2.6-4.6-2.5-8
	c0.1-3.9,2.1-9.3,3.7-9.6c2.6-0.6,7,2.8,7.4,5.5C2604.4,486.5,2596.8,495.7,2595.5,495.6z M2614,514.8c-4.8,9.6-6.5,20.7-8.1,20.1
	c-1.7-0.5-4.4-11-3.9-22.7c0.4-11.1,5-25.2,7.2-26.1c4.1-1.7,15.3,5.3,15.3,9.6C2624.4,498.7,2619,504.7,2614,514.8z M2634.5,507.1
	c-2.6-0.5-6.3-10.3-4.8-11.8c1.6-1.7,11.1,2.2,11.5,4.2C2641.4,501.7,2637.2,507.6,2634.5,507.1z"/>
<path class="st1" d="M2683.8,624.3c0,0-4.3-5.5-6.9-4.8c-4.4,1.4-3.5,16.8-3.5,16.8s-4.1-2.9-6.5-2.2c-3.3,0.9-2.9,9-2.9,9
	s-0.1-0.1-0.1-0.1v9.1c0.8-0.8,1.6-1.6,2.2-2.2c5-4.6,12-10.7,19.4-13.4c1.6-0.6,5.6-1,5.5-2.2
	C2690.7,631.2,2683.8,624.3,2683.8,624.3z M2666.9,645.4c-1.4-0.7-1-8.2,0.7-9.1c1.8-1,6,2.2,6.3,3.7
	C2674,641.4,2668.4,646.2,2666.9,645.4z M2682.2,635.5c-2.2,0.8-5.3,2.9-6.3,2c-1.4-1.6-0.6-15.4,1.4-15.9c2-0.7,8.2,7.4,8.9,9.3
	C2687.3,633.7,2684.5,634.7,2682.2,635.5z"/>
<path id="path4601_1_" inkscape:connector-curvature="0" class="st1" d="M2878.8,599.1c0,0,9.4,20.3,8.9,28.4
	c-0.5,8.1-10.3,18-13.4,24.4c-3.2,6.3-3.5,15.3-1.2,16.5c3,1.7,13.6-5.2,13.6-5.2s-8.7,2.2-10.6,0.7c-1.8-1.6-0.3-8.7,2.4-12.4
	c2.7-3.7,12.7-15.8,13.1-23.5C2891.8,620.5,2878.8,599.1,2878.8,599.1"/>
<path id="path4603_1_" inkscape:connector-curvature="0" class="st1" d="M2713.9,620.4c0,0-11.8,19.5-18,25.2
	c-6.2,5.7-27.1,15.3-27.1,15.3s21.3-4.4,29.5-11.9C2705.6,642.3,2713.9,620.4,2713.9,620.4"/>
<path id="path4605_1_" inkscape:connector-curvature="0" class="st1" d="M2721.7,604.2c0,0-3.5-20.3-8-35.6s-13.8-35.1-18.7-42.9
	c-5-7.8-9-13.5-6.8-14.4c2.2-0.9,8.5,6.7,12.2,13.1c4,7,13,28.8,16.6,43.1C2720.3,581.2,2721.7,604.2,2721.7,604.2"/>
<path id="path4609_1_" inkscape:connector-curvature="0" class="st1" d="M2701,446.1c-8.9,0.4-14.6,7-15.1,9.2
	c-0.5,1.7,1.1,16.3,6.7,25.9c5.9,10.2,18.1,21.4,22.6,32.2c4.6,10.7,6.8,26.8,8,38.1c1.1,11.4,0.9,19.8,0.9,19.8s-1.8,3-1.1,6.5
	c0.9,4.1,8.9,15.4,15.6,21.6c6.7,6.1,17.7,11,17.7,11s-10-7-15.9-13.9c-5.9-7-13-20.7-13.6-24.6c-0.7-3.7-1.6-18.9-2.8-30
	c-1.1-10.3-3.5-28.3-5.2-32.4c-1.7-4.1-20.1-23.9-24.8-31.8c-5-8.5-6.3-20-6.3-20s2-0.1,3.3-1.5c1.3-1.4,2.7-4.4,4.6-6.5
	C2697.8,447.6,2701,446.1,2701,446.1"/>
<path id="path4611_1_" inkscape:connector-curvature="0" class="st1" d="M2759.4,440.1c0,0,5.6,10,3.5,16
	c-1.8,5.2-12.4,7.4-13.8,6.8c-1.4-0.5-3.7-3.7-2.8-4.8c1.3-1.6,10.9-0.4,13-4.4C2761.5,449.7,2759.4,440.1,2759.4,440.1"/>
<path id="path4613_1_" inkscape:connector-curvature="0" class="st1" d="M2671.9,459.2c0,0-2.6-10.8-7-17s-17.6-9.5-18-10.7
	s3.2-3,5.3-2.8c2.2,0.2,11.3,5,15.1,11.1C2671.5,446.8,2671.9,459.2,2671.9,459.2"/>
<path id="path4659_1_" inkscape:connector-curvature="0" class="st1" d="M2658.8,418.5c0,0,8.5,1.3,14.4,0.5s19.8-6.3,28.9-7
	c9.2-0.7,16.1-0.1,16.1-0.1s6.5-4,17.3-3.7c10.8,0.2,24.4,3.9,29.5,4.6c5.2,0.6,16.3,1.1,28.8,5.2c13.9,4.6,33.4,16.3,45.1,23.5
	c11.7,7.2,13.2,7.8,24.1,12.4c11,4.6,25.2,11.1,34.2,16.9c6.5,4,13.6,11.3,13.6,11.3l-14.8-3.9c0,0-7.2-8-20-14
	c-12.8-6.1-22.4-9.6-29.3-13.6c-7-3.9-20.2-13.1-32-19.2c-11.8-6.1-22.4-9.4-29.2-10.8c-6.7-1.4-12.5-1.7-12.5-1.7s3.8,3.2,2.8,4.3
	c-1,1.2-23.8-12.5-41.1-11.3c-14.8,1.1-20.9,12.6-23.7,12.2c-2.7-0.4-0.5-8-0.5-8s-5.5-1.2-12.9-0.4c-7.2,0.8-19.6,5.4-24.8,6.1
	c-5.2,0.6-9.1,0.9-9.1,0.9L2658.8,418.5"/>
<path class="st1" d="M2884,478.5c-10.5,0.4-18.5,1.5-20,0.7c-2.4-1.4-2.5-6.7-5.2-11.4c-2.5-4.6-5.7-7.6-8.1-8.3
	c-2.5-0.8-6.8,1.2-6.7,2.1c0,0.9,6.3,2.6,10.3,7.2c4.1,4.8,6.1,10.9,8.7,12.3c1.8,1,10.8,0.6,20.9,0.7V478.5L2884,478.5z"/>
<path class="st1" d="M2827.8,526.9c0,0,1.6,1.7,4,3.8V527c-5.6-4.4-9.8-8.9-9.8-8.9s5,12.5,6.1,21.3c1.1,8.9-1.4,25.5-7,33.3
	c-5.5,8-40.6,15.8-40.6,15.8s2.1,10.7,6.3,16.5c4.1,5.9,12.4,10.5,12.4,10.5s-5.9-6.1-9.8-12.3c-3.8-5.7-5.9-13.1-5.9-13.1
	s33.3-5,40.8-13.3c5.5-6.3,7.4-26.3,7.2-33.7C2831.3,535.6,2827.8,526.9,2827.8,526.9z"/>
<path class="st1" d="M2681.7,519.4c-0.9-19.8-15.4-19.8-15.4-19.8s-3.5,10.4-2.1,18.5c1.6,10.4,15.2,23.9,14,17.3
	C2677.1,528.9,2681.7,519.4,2681.7,519.4z M2675.4,532c0,0.6-0.4,0.4-0.6,0.2c-3.1-3.3-7.4-9.3-8.3-14.5c-0.7-4.3,0.9-10.7,1.3-13.6
	c1.5-0.9,5.9-2.6,10.8,15.5C2677.7,522.1,2675.7,527.2,2675.4,532z"/>
<path class="st1" d="M2691.2,611.5c-2-4.2-4.9,4.5-5.4,11c-0.5,5.1,2.2,11.5,2.2,11.5s9.1-0.7,8.7-13
	C2696.8,621,2693.1,615.3,2691.2,611.5z M2694.7,622.2c-2,10.4-4.6,8.9-5.5,8.4c-0.3-1.6-1.5-5.2-1.3-7.6c0.3-3,0.6-6.5,1.9-8.7
	c0.1-0.1,0.5,0.4,0.7,0.8C2692.2,618.6,2694,620.9,2694.7,622.2z"/>
<path class="st1" d="M2698.7,433c0,0,10.7,0,15.7-6.1s13.9-16,25-12.5c11.1,3.6,17.1,13.2,17.1,13.2s-4.3,1-5,0.8
	c-0.7-0.1-13.2-19.9-30.4-6.5C2716.5,425.5,2714.4,432,2698.7,433z"/>
<path class="st1" d="M2734.6,422.5c0,0,4.2-0.7,7.6,1.2c3.5,1.9,6,4.4,7.6,4.6c-1.4-0.1-1.7,0.4-3.8-1.2
	C2741,423.6,2736.5,422.3,2734.6,422.5z"/>
<path class="st1" d="M2725.7,443.9c-5.9,0-12.5-3.1-19.8-9.4l0.7-0.8c7.1,5.6,13.4,8.5,18.5,8.5c1,0,2-0.1,2.9-0.3
	c6.6-1.6,12.1-7.6,14-15.5l0.1-0.6l0.6,0.3c0.8,0.4,1.2,0.9,1.3,1l0.2,0.2l-0.1,0.3C2744,427.7,2739,443.9,2725.7,443.9z"/>
<path class="st1" d="M2708.8,566.7c-4.7-11-16-27.4-27.1-57.2c-0.7-1.8,0.5-4.6,5.3-3.3c-2.9-4-7-8-13.1-9.1
	c-12.3-2.1-18.8,3.8-31.2-1.6c-2.8-1.2-4.6-3.3-8.1-5.9c3.8,4.4,8.3,11,21.8,11c22.4,0.1,21.1,7.8,24.3,19
	c3,13.2,27.1,55.6,33.3,73.2c-3.7,15.3-13.9,23.8-29.1,39.7c-3.5,3.5-4.8,6.3-16.9,15.2c-13.4,18.1-22,15.4-24.3,19.4
	c-1.9,3.5,5.7,8,9.4,8c-5.3-6.4,57-49.2,63.8-64.7C2720.2,602.7,2719.5,592,2708.8,566.7z"/>
<path class="st1" d="M2706.5,571.6c0,0-20.1,2.5-33.7,31.6c-6.6,14-11.3,34.7-10.5,41.5c0.7,5.2,2.9,1.6,2.9,1.6s-3.6-8.7,10-41.2
	c10.5-24.9,29.1-28.6,33.5-28.9C2707.3,572.1,2706.5,571.6,2706.5,571.6z"/>
<path class="st1" d="M2687.7,423.9c0,0,9.1,10.4,24.4,2.2"/>
<path class="st1" d="M2928.9,510.6c-10.7,1.5-21.5,5.5-31.2,11.6c-0.6,0.4-4.8,3.8-7.9,5c-7.9,3.1-11.1,2.9-11.1,2.9
	s5.8,0.8,11.7-1.1c2.8-0.9,7.6-4.8,8.3-5.2c1.3-0.8,7.3-1.1,5.9-2.1c-0.7-2.2,11-6.4,17.5-7.2c18.4-2.3,23.2-12.2,23.2-12.2
	C2941.3,505.7,2934.8,509.8,2928.9,510.6z"/>
<path class="st1" d="M2852.9,506.8c0,0-1.3,0.2-1.6,1c-0.1,0.5-0.6,0.5-0.7,1c-0.4,0.7-0.7,1.4-0.6,2c0.1,0.7,0.7,0.9,1,1.1
	c0.1,0.1,0.2,0.1,0.3,0.2l0,0l0,0c0.1,0.1-0.1-0.1-0.1-0.1l0,0h0.1l0.2,0.1c0.1,0.1,0.2,0,0.3,0.1c0.3,0,5.1,0.9,8.1,5.7
	c3.2,4.2,2.1,13.8,2.1,13.8s-0.2-0.5-0.5-1.4c-0.1-0.5-0.3-1-0.5-1.6c-0.1-0.6-0.3-1.3-0.5-2c-0.2-0.7-0.4-1.5-0.7-2.3
	c-0.3-0.8-0.5-1.6-0.8-2.3c-0.3-0.7-0.7-1.4-1.1-2c-0.5-0.6-0.9-1.1-1.5-1.6c-0.6-0.5-1.2-0.8-2.1-1.2c-0.8-0.4-1.7-0.7-2.7-1.2
	c-0.5-0.3-1-0.5-1.6-0.8c-0.1-0.1-0.3-0.2-0.4-0.3l-0.1-0.1l-0.1-0.1l0,0c0,0-0.1-0.1-0.1-0.1l0,0l-0.1-0.1
	c-0.3-0.2-0.5-0.5-0.7-0.7c-0.4-0.5-0.7-1.2-0.7-1.8c-0.1-0.6,0-1.8,1.4-3.8c0.4-0.5,0.9-0.9,1.2-1.2
	C2851.4,506.4,2852.9,506.8,2852.9,506.8z"/>
<path class="st1" d="M2960,485.8c-1.2-1.1-3-1.8-5.2-2c-4.4-0.5-9.9,1-13.7,2.3c-0.5,0.1-1.6,0.3-4.6-0.1c-5.3-0.5-13.2-2.1-20-4
	c-8.1-2.2-16-3.8-23.6-4.5c-18.1-1.8-28.1,1.4-28.5,1.6l0.2,2c0,0,0.3,0.1,0.8,0.1c1.8,0.2,6.5,0.5,13.1,0.3
	c4.5-0.2,9.3-0.1,14.2,0.5c7.2,0.7,14.9,2.2,22.6,4.3c4.4,1.2,10.4,2.6,15.8,3.5c-9.2,3.1-28.6,9.4-36.8,10.6
	c-2.4,0.3-5.6,0.9-9,1.5c-7,1.2-16.4,4.6-24.4,3.6c-12.7-1.6-12.7,5.5-12.7,5.5c1.1,1.4,0.6-0.7,2.5-2.5c1.6-1.5,6-1.4,9.6-0.8
	c7.2,1.4,17.9-0.2,25.8-1.6h0.1c3.5-0.6,6.4-1.2,8.7-1.5c11.6-1.7,42.6-12.5,43-12.6c0.7-0.3,2.2-1,4.3-1.7h0.1l1-0.3l0,0
	c3-1,7.6-2.2,10.9-1.8c1.2,0.1,2.2,0.5,2.7,0.9c1.3,1.1,1,3.7,0.5,5.5c-0.8,2.9-1.3,5.5-1.8,8c-0.7,3.8-1.8,10.9-7.1,16.6
	c-3.9,4.2-10,8.7-13.4,9.6c-7.2,2-13.6,3.1-21.9,3.4c-0.7,1.6-5.3,6.2-11.2,9.4c-5.9,3.3-13.2,5.1-18.3,5.3
	c-3.5,0.2-12.9,1.6-23.9-1.8c-10.8-3.4-23.1-11.7-34-23.6c-1-1-4.2-2.9-1.8,1.1c1.8,2.1,4.6,5.3,4.6,5.3s19.2,21.8,43.1,23.2
	c17,1,24.2-2.5,28.8-4.3c7.2-2.7,11.6-6.8,14.1-9.5c1.8-2,0.7-1.5,2.9-1.6c0.4,0.1,10-0.6,18.4-3.1c8.3-2.5,13-7.1,13.4-7.5
	c3.3-2.9,4.9-6,6.3-8.6c1.8-3.5,3.1-7.1,3.8-11c0.7-3.1,1.2-6.3,2.2-9.9C2963.1,491.2,2962.5,487.9,2960,485.8z"/>
<g>
	<path class="st1" d="M2621.9,462.3c0,0,0.3-0.1,0.8-0.1c0.5-0.1,1.2-0.1,2.2-0.1c0.9,0,2.1,0,3.3,0.1c1.3,0.1,2.7,0.3,4.3,0.6
		c1.6,0.3,3.3,0.8,5,1.6c1.7,0.7,3.4,1.7,5.2,2.5c1.8,0.8,3.6,1.7,5.6,2.1c2,0.4,4,0.3,6.1-0.2c2-0.5,4-1.3,5.8-2.2
		c1.9-0.8,3.7-1.9,5.6-2.5c2-0.7,3.9-0.8,5.8-0.7c1.9,0.1,3.6,0.7,5,1.3c1.5,0.7,2.7,1.4,3.8,2.2c1,0.8,1.9,1.6,2.5,2.2
		c0.7,0.7,1.1,1.2,1.4,1.6c0.3,0.4,0.5,0.6,0.5,0.6s-0.7-0.8-2-2.1c-0.7-0.7-1.6-1.4-2.6-2.1c-1-0.7-2.3-1.4-3.8-2
		c-1.4-0.6-3.1-1-4.9-1c-1.8-0.1-3.7,0.2-5.5,0.8c-1.8,0.6-3.6,1.7-5.5,2.5c-1.9,0.8-3.8,1.8-6,2.3c-2.1,0.5-4.4,0.7-6.5,0.1
		c-2.1-0.5-4-1.4-5.8-2.3c-1.8-0.9-3.4-1.9-5-2.7c-1.6-0.8-3.3-1.2-4.8-1.6c-3.1-0.8-5.7-1-7.6-1
		C2622.9,462.2,2621.9,462.3,2621.9,462.3z"/>
</g>
<g>
	<path class="st1" d="M2621.2,465.6c0,0,0.3,0.1,0.8,0.1c0.5,0.1,1.3,0.2,2.3,0.4c1,0.2,2.2,0.5,3.6,0.8c1.4,0.4,2.9,0.8,4.6,1.5
		c1.6,0.7,3.4,1.5,5,2.9c1.5,1.3,3.2,2.5,5.1,3.5c1.9,1,4,1.8,6.2,1.9c2.2,0.2,4.5-0.1,6.7-0.8c1-0.3,2.2-0.8,3.2-1.2
		c1-0.5,2.2-0.8,3.3-1.2c2.2-0.7,4.4-1.3,6.6-1.6c2.2-0.3,4.4-0.3,6.3,0c0.5,0.1,1,0.1,1.5,0.3c0.5,0.1,0.9,0.3,1.4,0.3
		c0.9,0.2,1.8,0.6,2.6,0.8c0.4,0.1,0.8,0.3,1.2,0.5c0.4,0.2,0.8,0.3,1.1,0.5c0.7,0.3,1.4,0.7,2,1c0.7,0.3,1.2,0.7,1.7,1
		c0.5,0.3,1,0.7,1.4,0.9c0.8,0.6,1.4,1.1,1.9,1.4c0.5,0.3,0.7,0.5,0.7,0.5s-1-0.7-2.6-1.8c-0.5-0.3-0.9-0.5-1.4-0.8
		c-0.5-0.3-1.1-0.7-1.7-1c-0.7-0.3-1.3-0.7-2-1c-0.7-0.3-1.5-0.7-2.3-0.9c-0.8-0.3-1.6-0.6-2.5-0.7c-0.5-0.1-0.9-0.2-1.4-0.3
		c-0.5-0.1-1-0.1-1.4-0.2c-2-0.2-4-0.2-6.1,0.1c-2.1,0.3-4.2,0.9-6.4,1.6c-1,0.4-2.2,0.8-3.2,1.2c-1,0.5-2.2,0.9-3.3,1.2
		c-2.3,0.7-4.7,1-7,0.8s-4.6-1-6.5-2.1c-2-1-3.7-2.4-5.2-3.7c-1.4-1.3-3.1-2.2-4.7-2.9s-3.1-1.2-4.4-1.6s-2.5-0.7-3.5-1
		C2622.4,465.8,2621.2,465.6,2621.2,465.6z"/>
</g>
<g>
	<path class="st1" d="M2624.2,470.2c0,0,0.8,0.3,2.3,1c0.7,0.4,1.6,0.8,2.5,1.4s2,1.2,3.1,2.1c1.1,0.8,2.2,1.7,3.5,2.7
		c0.6,0.5,1.2,1,1.8,1.6c0.7,0.5,1.2,1,2,1.4c2.7,1.8,6.2,3,9.6,3.1c1.8,0.1,3.5-0.2,5.2-0.7c0.4-0.1,0.8-0.3,1.2-0.4
		c0.4-0.2,0.8-0.3,1.2-0.5c0.8-0.3,1.6-0.7,2.3-1c3.1-1.4,6.1-2.5,8.7-3.2c1.3-0.3,2.5-0.6,3.7-0.7c0.5-0.1,1-0.1,1.6-0.1
		c0.5,0,0.9,0,1.3,0c0.8,0,1.4,0.1,1.8,0.1c0.4,0.1,0.7,0.1,0.7,0.1s-0.2,0-0.7,0c-0.4-0.1-1,0-1.8,0c-0.4,0-0.8,0.1-1.3,0.1
		c-0.5,0.1-1,0.1-1.5,0.2c-1,0.2-2.3,0.5-3.5,0.8c-2.5,0.8-5.5,2-8.5,3.4c-0.8,0.3-1.5,0.7-2.3,1.1c-0.4,0.2-0.8,0.3-1.2,0.5
		c-0.5,0.1-0.8,0.3-1.3,0.5c-1.8,0.5-3.6,0.8-5.4,0.7c-3.7-0.1-7.3-1.4-10.1-3.3c-0.7-0.5-1.4-1-2-1.6c-0.6-0.5-1.2-1.1-1.8-1.6
		c-1.2-1-2.2-2-3.3-2.8c-2.1-1.7-3.9-3-5.3-3.8C2625.1,470.5,2624.2,470.2,2624.2,470.2z"/>
</g>
<g>
	<path class="st1" d="M2634.6,483.9c0,0,0.7,0.5,1.8,1.4c1.2,0.9,2.9,2.1,5.1,3.3c1.1,0.6,2.3,1.2,3.7,1.8c1.4,0.5,2.8,0.9,4.3,1
		c0.8,0.1,1.6,0.1,2.4,0.2c0.8,0,1.6,0,2.4,0c1.6,0,3.3-0.1,5-0.4c1.6-0.2,3.3-0.5,5-0.9c0.8-0.2,1.6-0.3,2.4-0.5
		c0.4-0.1,0.8-0.1,1.2-0.2c0.4-0.1,0.8-0.1,1.2-0.1l0.6-0.1c0.2,0,0.4,0,0.6,0c0.4,0,0.8,0,1.2,0c0.4,0,0.8,0.1,1.2,0.1
		c0.4,0.1,0.8,0.1,1.1,0.2c0.4,0.1,0.7,0.2,1,0.3c0.2,0.1,0.3,0.1,0.5,0.1c0.2,0.1,0.3,0.1,0.5,0.2c0.7,0.3,1.3,0.5,1.8,0.8
		c0.6,0.3,1.1,0.7,1.6,0.9c0.5,0.3,0.9,0.7,1.4,0.9c0.4,0.3,0.8,0.6,1.2,0.8c0.4,0.3,0.7,0.5,1,0.8c1.1,1,1.8,1.5,1.8,1.5
		s-0.7-0.5-1.9-1.4c-0.3-0.2-0.6-0.5-1-0.7c-0.4-0.3-0.8-0.5-1.2-0.8c-0.5-0.3-0.8-0.6-1.4-0.8c-0.5-0.3-1-0.5-1.6-0.8
		c-0.6-0.3-1.2-0.5-1.8-0.7c-0.1-0.1-0.3-0.1-0.5-0.2c-0.2-0.1-0.3-0.1-0.5-0.1c-0.3-0.1-0.7-0.1-1-0.3c-0.3-0.1-0.7-0.1-1-0.1
		c-0.4,0-0.7-0.1-1.1-0.1c-0.7,0.1-1.5,0-2.3,0.1c-0.4,0.1-0.8,0.1-1.2,0.1c-0.4,0.1-0.8,0.1-1.2,0.3c-0.8,0.1-1.6,0.3-2.4,0.5
		c-1.6,0.3-3.3,0.7-5,0.9c-1.7,0.3-3.4,0.3-5.1,0.4c-0.8,0-1.7,0-2.5-0.1c-0.8-0.1-1.6-0.1-2.4-0.2c-1.6-0.1-3.2-0.6-4.5-1.2
		c-1.4-0.6-2.5-1.3-3.7-2c-2.2-1.4-3.8-2.7-5-3.7C2635.2,484.5,2634.6,483.9,2634.6,483.9z"/>
</g>
<g>
	<path class="st1" d="M2691.6,494c0,0-0.1-0.7-0.7-1.8c-0.3-0.5-0.6-1.2-1-1.9c-0.5-0.7-1-1.5-1.6-2.3c-0.7-0.8-1.4-1.6-2.3-2.3
		c-0.2-0.2-0.5-0.4-0.7-0.6c-0.3-0.2-0.5-0.4-0.7-0.6l-0.4-0.3c-0.1-0.1-0.3-0.2-0.4-0.3c-0.3-0.2-0.5-0.3-0.8-0.5
		c-1.1-0.5-2.4-0.8-3.7-1c-1.3-0.2-2.7-0.2-4-0.1c-1.3,0.1-2.7,0.3-3.9,0.8c-1.2,0.4-2.3,1-3.5,1.6c-2.3,1.2-4.6,2-6.6,2.5
		c-1,0.3-2,0.4-2.8,0.5c-0.8,0.1-1.6,0.2-2.2,0.2c-0.6,0.1-1,0.1-1.4,0.1s-0.5,0-0.5,0s0.7-0.1,1.9-0.3c1.2-0.2,2.9-0.5,4.8-1
		c1-0.3,2-0.7,3.1-1.1s2.2-1,3.3-1.6s2.3-1.4,3.6-1.8c1.3-0.5,2.7-0.7,4.1-0.8c1.4-0.1,2.8-0.1,4.2,0.1c1.4,0.2,2.7,0.5,3.9,1.1
		c0.3,0.2,0.7,0.3,0.9,0.5c0.1,0.1,0.3,0.1,0.4,0.3l0.4,0.3c0.3,0.2,0.5,0.4,0.7,0.6c0.2,0.2,0.5,0.5,0.7,0.7
		c0.8,0.8,1.6,1.7,2.2,2.5c0.7,0.8,1.1,1.7,1.5,2.4c0.4,0.7,0.7,1.4,0.8,2c0.2,0.6,0.3,1,0.4,1.4
		C2691.6,493.9,2691.6,494,2691.6,494z"/>
</g>
</svg>
