<?xml version="1.0" encoding="utf-8"?>
<!-- Generator: Adobe Illustrator 21.1.0, SVG Export Plug-In . SVG Version: 6.00 Build 0)  -->
<svg version="1.1"
	 id="svg4339" inkscape:export-filename="C:\Users\xine\Documents\2018-debian-buster\futurePrototype-source\boot-screen\plymouth\debian.png" inkscape:export-xdpi="96" inkscape:export-ydpi="96" inkscape:version="0.92.2 (5c3e80d, 2017-08-06)" sodipodi:docname="debian.svg" xmlns:cc="http://creativecommons.org/ns#" xmlns:dc="http://purl.org/dc/elements/1.1/" xmlns:inkscape="http://www.inkscape.org/namespaces/inkscape" xmlns:ns2="http://ns.adobe.com/AdobeIllustrator/10.0/" xmlns:rdf="http://www.w3.org/1999/02/22-rdf-syntax-ns#" xmlns:sodipodi="http://sodipodi.sourceforge.net/DTD/sodipodi-0.dtd" xmlns:svg="http://www.w3.org/2000/svg"
	 xmlns="http://www.w3.org/2000/svg" xmlns:xlink="http://www.w3.org/1999/xlink" x="0px" y="0px" viewBox="0 0 201 86"
	 style="enable-background:new 0 0 201 86;" xml:space="preserve">
<style type="text/css">
	.st0{opacity:0.2;fill:#070707;}
	.st1{fill:#FFFFFF;}
</style>
<sodipodi:namedview  bordercolor="#666666" borderlayer="true" borderopacity="1" gridtolerance="10" guidetolerance="10" id="namedview18" inkscape:bbox-nodes="true" inkscape:bbox-paths="true" inkscape:current-layer="svg4339" inkscape:cx="114.94037" inkscape:cy="45.218252" inkscape:object-paths="true" inkscape:pageopacity="0" inkscape:pageshadow="2" inkscape:showpageshadow="false" inkscape:snap-bbox="true" inkscape:snap-bbox-edge-midpoints="true" inkscape:snap-bbox-midpoints="true" inkscape:snap-global="false" inkscape:snap-intersection-paths="true" inkscape:snap-midpoints="true" inkscape:snap-page="true" inkscape:snap-smooth-nodes="true" inkscape:window-height="1017" inkscape:window-maximized="1" inkscape:window-width="1920" inkscape:window-x="-8" inkscape:window-y="-8" inkscape:zoom="5.8930256" objecttolerance="10" pagecolor="#ffffff" showgrid="false" units="px">
	</sodipodi:namedview>
<path class="st0" d="M39.3,17.2h-3.5c-2.4,0-4.4,0.9-6.1,2.6c-1.7,1.7-2.6,3.6-2.6,6.1v39.8c0,0.9,0.3,1.8,1.1,2.4
	c0.6,0.6,1.5,1.1,2.4,1.1h1.7c0.9,0,1.8-0.3,2.4-1.1c0.6-0.6,1.1-1.5,1.1-2.4v-6.8c0-1.2,0.6-1.7,1.8-1.7h1.8c2.4,0,4.4-0.9,6.1-2.6
	c1.7-1.7,2.6-3.6,2.6-6.1V25.8c0-2.4-0.9-4.4-2.6-6.1C43.7,17.9,41.7,17.2,39.3,17.2z M39.3,46.7c0,1.2-0.6,1.7-1.8,1.7
	c-1.2,0-1.8-0.6-1.8-1.7V27.5c0-1.2,0.6-1.7,1.8-1.7c1.2,0,1.8,0.6,1.8,1.7V46.7z"/>
<path class="st0" d="M64.9,17.2h-3.6c-2.4,0-4.4,0.9-6.1,2.6s-2.6,3.8-2.6,6.1v15.6c0,0.9,0.3,1.8,1.1,2.4c0.6,0.6,1.5,1.1,2.4,1.1
	h1.7c0.9,0,1.8-0.3,2.4-1.1c0.6-0.6,1.1-1.5,1.1-2.4V27.7c0-1.2,0.6-1.7,1.7-1.7c1.2,0,1.7,0.6,1.7,1.7v19.1c0,1.2-0.6,1.7-1.8,1.7
	h-1.5c-2.4,0-4.4,0.9-6.1,2.6c-1.7,1.7-2.6,3.6-2.6,6.1v3.5c0,2.4,0.9,4.4,2.6,6.1c1.7,1.7,3.6,2.6,6.1,2.6h3.5
	c2.4,0,4.4-0.9,6.1-2.6c1.7-1.7,2.6-3.6,2.6-6.1V25.8c0-2.4-0.9-4.4-2.6-6.1C69.3,18.1,67.2,17.2,64.9,17.2z M63.1,60.5
	c-1.2,0-1.7-0.6-1.7-1.7c0-1.2,0.6-1.7,1.7-1.7c1.2,0,1.7,0.6,1.7,1.7C64.8,59.9,64.2,60.5,63.1,60.5z"/>
<path class="st0" d="M90.5,17.2H87c-2.4,0-4.4,0.9-6.1,2.6c-1.7,1.7-2.6,3.8-2.6,6.1v39.8c0,0.9,0.3,1.8,1.1,2.4
	c0.6,0.6,1.5,1.1,2.4,1.1h1.7c0.9,0,1.8-0.3,2.4-1.1c0.6-0.6,1.1-1.5,1.1-2.4V27.5c0-1.2,0.6-1.7,1.8-1.7c1.2,0,1.8,0.6,1.8,1.7
	v13.8c0,0.9,0.3,1.8,1.1,2.4c0.6,0.6,1.5,1.1,2.4,1.1h1.7c0.9,0,1.8-0.3,2.4-1.1c0.6-0.6,1.1-1.5,1.1-2.4V25.8
	c0-2.4-0.9-4.4-2.6-6.1C94.9,17.9,92.9,17.2,90.5,17.2z"/>
<path class="st0" d="M116.1,17.2h-8.7c-0.9,0-1.8,0.3-2.4,1.1c-0.6,0.6-1.1,1.5-1.1,2.4v45c0,0.9,0.3,1.8,1.1,2.4
	c0.6,0.6,1.5,1.1,2.4,1.1h8.7c2.4,0,4.4-0.9,6.1-2.6c1.7-1.7,2.6-3.6,2.6-6.1V25.8c0-2.4-0.9-4.4-2.6-6.1
	C120.5,17.9,118.4,17.2,116.1,17.2z M116,58.7c0,1.2-0.6,1.7-1.8,1.7c-1.2,0-1.8-0.6-1.8-1.7V27.5c0-1.2,0.6-1.7,1.8-1.7
	c1.2,0,1.8,0.6,1.8,1.7V58.7z"/>
<path class="st0" d="M146.8,17.2h-1.7c-0.9,0-1.8,0.3-2.4,1.1c-0.6,0.6-1.1,1.5-1.1,2.4v38.1c0,1.2-0.6,1.7-1.7,1.7
	c-1.2,0-1.7-0.6-1.7-1.7V20.7c0-0.9-0.3-1.8-1.1-2.4c-0.6-0.6-1.5-1.1-2.4-1.1h-1.7c-0.9,0-1.8,0.3-2.4,1.1
	c-0.6,0.6-1.1,1.5-1.1,2.4v39.8c0,2.4,0.9,4.4,2.6,6.1s3.6,2.6,6.1,2.6h3.5c2.4,0,4.4-0.9,6.1-2.6c1.7-1.7,2.6-3.6,2.6-6.1V20.7
	c0-0.9-0.3-1.8-1.1-2.4C148.7,17.5,147.9,17.2,146.8,17.2z"/>
<path class="st0" d="M168.3,43.9c0.6,0.6,1.5,1.1,2.4,1.1h1.7c0.9,0,1.8-0.3,2.4-1.1c0.6-0.6,1.1-1.5,1.1-2.4V25.8
	c0-2.4-0.9-4.4-2.6-6.1c-1.7-1.7-3.6-2.6-6.1-2.6h-3.5c-2.4,0-4.4,0.9-6.1,2.6s-2.6,3.6-2.6,6.1v22.6c0,2.4,0.9,4.4,2.6,6.1
	c1.7,1.7,3.6,2.6,6.1,2.6h1.8c1.2,0,1.8,0.6,1.8,1.7c0,1.2-0.6,1.7-1.7,1.7h-7c-0.9,0-1.8,0.3-2.4,1.1c-0.6,0.6-1.1,1.5-1.1,2.4v1.7
	c0,0.9,0.3,1.8,1.1,2.4c0.6,0.6,1.5,1.1,2.4,1.1h8.7c2.4,0,4.4-0.9,6.1-2.6c1.7-1.7,2.6-3.6,2.6-6.1V57c0-2.4-0.9-4.4-2.6-6.1
	c-1.7-1.7-3.6-2.6-6.1-2.6h-1.8c-1.2,0-1.8-0.6-1.8-1.7V27.5c0-1.2,0.6-1.7,1.7-1.7c1.2,0,1.7,0.6,1.7,1.7v13.8
	C167.3,42.4,167.6,43.2,168.3,43.9z"/>
<path class="st1" d="M37.5,15.6H34c-2.4,0-4.4,0.9-6.1,2.6c-1.7,1.7-2.6,3.6-2.6,6.1V64c0,0.9,0.3,1.8,1.1,2.4
	c0.6,0.6,1.5,1.1,2.4,1.1h1.7c0.9,0,1.8-0.3,2.4-1.1C33.5,65.9,34,65,34,64v-6.8c0-1.2,0.6-1.7,1.8-1.7h1.8c2.4,0,4.4-0.9,6.1-2.6
	c1.7-1.7,2.6-3.6,2.6-6.1V24.2c0-2.4-0.9-4.4-2.6-6.1C41.9,16.3,39.9,15.6,37.5,15.6z M37.5,45c0,1.2-0.6,1.7-1.8,1.7
	c-1.2,0-1.8-0.6-1.8-1.7V25.9c0-1.2,0.6-1.7,1.8-1.7c1.2,0,1.8,0.6,1.8,1.7V45z"/>
<path class="st1" d="M63.2,15.6h-3.6c-2.4,0-4.4,0.9-6.1,2.6c-1.7,1.7-2.6,3.8-2.6,6.1v15.6c0,0.9,0.3,1.8,1.1,2.4
	c0.6,0.6,1.5,1.1,2.4,1.1H56c0.9,0,1.8-0.3,2.4-1.1c0.6-0.6,1.1-1.5,1.1-2.4V26.1c0-1.2,0.6-1.7,1.7-1.7c1.2,0,1.7,0.6,1.7,1.7v19.1
	c0,1.2-0.6,1.7-1.8,1.7h-1.5c-2.4,0-4.4,0.9-6.1,2.6c-1.7,1.7-2.6,3.6-2.6,6.1V59c0,2.4,0.9,4.4,2.6,6.1c1.7,1.7,3.6,2.6,6.1,2.6H63
	c2.4,0,4.4-0.9,6.1-2.6c1.7-1.7,2.6-3.6,2.6-6.1V24.2c0-2.4-0.9-4.4-2.6-6.1C67.6,16.5,65.4,15.6,63.2,15.6z M61.3,58.9
	c-1.2,0-1.7-0.6-1.7-1.7c0-1.2,0.6-1.7,1.7-1.7c1.2,0,1.7,0.6,1.7,1.7C63,58.3,62.4,58.9,61.3,58.9z"/>
<path class="st1" d="M88.7,15.6h-3.5c-2.4,0-4.4,0.9-6.1,2.6s-2.6,3.8-2.6,6.1V64c0,0.9,0.3,1.8,1.1,2.4c0.6,0.6,1.5,1.1,2.4,1.1
	h1.7c0.9,0,1.8-0.3,2.4-1.1c0.6-0.6,1.1-1.5,1.1-2.4V25.9c0-1.2,0.6-1.7,1.8-1.7c1.2,0,1.8,0.6,1.8,1.7v13.8c0,0.9,0.3,1.8,1.1,2.4
	c0.6,0.6,1.5,1.1,2.4,1.1H94c0.9,0,1.8-0.3,2.4-1.1c0.6-0.6,1.1-1.5,1.1-2.4V24.2c0-2.4-0.9-4.4-2.6-6.1
	C93.1,16.3,91.1,15.6,88.7,15.6z"/>
<path class="st1" d="M114.4,15.6h-8.7c-0.9,0-1.8,0.3-2.4,1.1c-0.6,0.6-1.1,1.5-1.1,2.4v45c0,0.9,0.3,1.8,1.1,2.4
	c0.6,0.6,1.5,1.1,2.4,1.1h8.7c2.4,0,4.4-0.9,6.1-2.6c1.7-1.7,2.6-3.6,2.6-6.1V24.2c0-2.4-0.9-4.4-2.6-6.1
	C118.8,16.3,116.6,15.6,114.4,15.6z M114.2,57.1c0,1.2-0.6,1.7-1.8,1.7c-1.2,0-1.8-0.6-1.8-1.7V25.9c0-1.2,0.6-1.7,1.8-1.7
	c1.2,0,1.8,0.6,1.8,1.7V57.1z"/>
<path class="st1" d="M145.1,15.6h-1.7c-0.9,0-1.8,0.3-2.4,1.1c-0.6,0.6-1.1,1.5-1.1,2.4v38.1c0,1.2-0.6,1.7-1.7,1.7
	c-1.2,0-1.7-0.6-1.7-1.7V19.1c0-0.9-0.3-1.8-1.1-2.4c-0.6-0.6-1.5-1.1-2.4-1.1h-1.7c-0.9,0-1.8,0.3-2.4,1.1
	c-0.6,0.6-1.1,1.5-1.1,2.4v39.8c0,2.4,0.9,4.4,2.6,6.1s3.6,2.6,6.1,2.6h3.5c2.4,0,4.4-0.9,6.1-2.6c1.7-1.7,2.6-3.6,2.6-6.1V19.1
	c0-0.9-0.3-1.8-1.1-2.4C146.9,15.9,146.1,15.6,145.1,15.6z"/>
<path class="st1" d="M166.5,42.3c0.6,0.6,1.5,1.1,2.4,1.1h1.7c0.9,0,1.8-0.3,2.4-1.1c0.6-0.6,1.1-1.5,1.1-2.4V24.2
	c0-2.4-0.9-4.4-2.6-6.1s-3.6-2.6-6.1-2.6h-3.5c-2.4,0-4.4,0.9-6.1,2.6s-2.6,3.6-2.6,6.1v22.6c0,2.4,0.9,4.4,2.6,6.1
	c1.7,1.7,3.6,2.6,6.1,2.6h1.8c1.2,0,1.8,0.6,1.8,1.7c0,1.2-0.6,1.7-1.7,1.7h-7c-0.9,0-1.8,0.3-2.4,1.1c-0.6,0.6-1.1,1.5-1.1,2.4V64
	c0,0.9,0.3,1.8,1.1,2.4c0.6,0.6,1.5,1.1,2.4,1.1h8.7c2.4,0,4.4-0.9,6.1-2.6c1.7-1.7,2.6-3.6,2.6-6.1v-3.5c0-2.4-0.9-4.4-2.6-6.1
	c-1.7-1.7-3.6-2.6-6.1-2.6h-1.8c-1.2,0-1.8-0.6-1.8-1.7V25.9c0-1.2,0.6-1.7,1.7-1.7c1.2,0,1.7,0.6,1.7,1.7v13.8
	C165.6,40.8,165.9,41.6,166.5,42.3z"/>
</svg>
