<?xml version="1.0" encoding="utf-8"?>
<!-- Generator: Adobe Illustrator 21.1.0, SVG Export Plug-In . SVG Version: 6.00 Build 0)  -->
<svg version="1.1"
	 id="root" inkscape:export-filename="C:\Users\xine\Documents\2018-debian-buster\futurePrototype-source\boot-screen\plymouth\logo.png" inkscape:export-xdpi="96" inkscape:export-ydpi="96" inkscape:version="0.92.2 (5c3e80d, 2017-08-06)" sodipodi:docname="logo.svg" xmlns:cc="http://creativecommons.org/ns#" xmlns:dc="http://purl.org/dc/elements/1.1/" xmlns:inkscape="http://www.inkscape.org/namespaces/inkscape" xmlns:ns2="http://ns.adobe.com/AdobeIllustrator/10.0/" xmlns:rdf="http://www.w3.org/1999/02/22-rdf-syntax-ns#" xmlns:sodipodi="http://sodipodi.sourceforge.net/DTD/sodipodi-0.dtd" xmlns:svg="http://www.w3.org/2000/svg"
	 xmlns="http://www.w3.org/2000/svg" xmlns:xlink="http://www.w3.org/1999/xlink" x="0px" y="0px" viewBox="0 0 380 380"
	 style="enable-background:new 0 0 380 380;" xml:space="preserve">
<style type="text/css">
	.st0{opacity:0.2;}
	.st1{fill:#FFF4DB;}
	.st2{fill:#FFF1D0;}
</style>
<path class="st0" d="M344.5,88.1c-1.4-4.3-5.9-11.9-10-17c-4-5.1-10.6-11.1-14.6-13.4c-4-2.3-22.3,2.7-31.5,6.9l-6.7,3.1
	c-9.2,4.2-16.9,7.8-17.1,7.8c-0.2,0.1-1.2,0-2.1-0.3c-0.8-0.4-11.1-2.9-21-5.2l-17.7-4.1c-9.9-2.3-21.3-4.5-25.4-4.9
	c-4.1-0.4-21.4,2.5-31.3,4.8l-19,4.4c-9.9,2.3-18.7,4.3-19.5,4.6c-0.8,0.2-3.2,1.1-3.3,1c-0.2-0.1-8.1-3.7-17.4-8l-6.7-3.1
	c-9.3-4.2-20.7-8-25.4-8.3C71,56,59,66,55,71.1c-4,5.1-8.5,12.7-10,17c-1.4,4.3,6.4,21,12,29.5l11.6,17.3c5.7,8.4,8.8,18.2,6.9,21.6
	c-1.9,3.5-4.4,9.7-5.7,13.8c-1.3,4.1,0.2,22,1.9,32.1l3.6,21.4c1.7,10,4.9,21.6,7.1,25.7c2.2,4.1,19.6,11.3,29.5,13.8l4.4,1.1
	c0.7,0.2,1.4,0.4,2.2,0.7c-14.6,7.9-28.3,17.4-40.3,28.1c-1.8,1.6,0.4,4,2.3,2.8c14.3-9.6,28-19.7,43.2-27.9
	c0.3-0.2,0.6-0.3,0.9-0.5c3.6,1.8,7.2,4,10.5,6.5c-0.4,0.3-0.7,0.6-1.1,0.9c-11.3,9.6-22.2,20.8-30.5,33.1c-0.9,1.4,1,3.3,2.3,2.1
	c10.8-10.5,21-23.2,32.8-33.2c2.5,2.2,4.7,4.5,6.4,6.8l1.3,1.8c-2,2.1-4,4.3-5.9,6.5c-9.9,11.6-18.7,24.8-24.9,38.7
	c-0.7,1.6,1.7,2.8,2.7,1.4c9.9-13.9,18.7-30.3,30.7-43l4.1,5.6c5.9,8.2,13.7,17.3,17.2,20.1c3.5,2.8,18.4,5.1,24.3,5.1
	c5.9,0,14.2-1,18.6-2.2c4.3-1.2,17-14.8,22.9-23l4.1-5.7c12,12.8,20.9,29.2,30.8,43.1c1,1.5,3.3-0.1,2.6-1.7
	c-6.1-13.6-14.7-26.5-24.3-37.9c-2.1-2.5-4.2-4.9-6.5-7.2l1.2-1.6c1.7-2.3,4-4.7,6.6-7c11.8,10,21.9,22.5,32.6,33
	c1.4,1.4,3.5-0.4,2.4-2c-8.3-12.4-19.2-23.5-30.6-33.2c-0.3-0.2-0.6-0.5-0.9-0.7c3.3-2.5,6.9-4.8,10.5-6.5c0.5,0.3,1.1,0.5,1.6,0.8
	c14.9,8.1,28.5,18.1,42.6,27.6c2,1.3,3.8-1.4,2.1-3c-11.9-10.6-25.5-20.1-40-28c0.6-0.2,1.3-0.4,1.9-0.6l4.6-1.2
	c9.9-2.5,21.1-6.6,25-9.1c3.9-2.5,9.8-20.4,11.5-30.5l3.6-21.4c1.7-10,3-21.7,2.9-26c-0.1-4.3-4.8-16.3-6.7-19.8
	c-1.9-3.5,1.3-13.2,7-21.6l11.6-17.3C338.1,109.1,345.9,92.3,344.5,88.1z"/>
<path class="st0" d="M301.3,163.7l-3.7-7.1c2.1,4,3.8,7.1,4.5,8.4c0.2,0.5,0.5,1.1,0.9,1.8L301.3,163.7z"/>
<path class="st0" d="M141.2,226.7l-0.6,3.2c0.1-0.4,0.2-0.8,0.2-1.2C140.9,228,141.1,227.3,141.2,226.7z"/>
<path class="st0" d="M248.9,228.7c0.7,3.6,1.3,7.3,1.7,10.3l-3.5-18.1c-0.1-0.5-0.1-1.1-0.1-1.6l0.1,0.2
	C247.6,222.1,248.2,225.3,248.9,228.7z"/>
<path class="st0" d="M237.7,84c9.9,2.3,18.2,4.2,18.3,4.3c0.1,0,0.9,0.4,1.8,0.9c-0.2-0.1-0.4-0.1-0.6-0.2l-0.7-0.2l-46.4-11.1
	c3.6,0.7,7.3,1.5,10.5,2.3L237.7,84z"/>
<path class="st0" d="M152.3,84.1l18.3-4.2c3-0.7,6-1.4,8.8-2L133,88.8l-0.2,0.1c0.6-0.3,1.1-0.5,1.1-0.6
	C134.1,88.3,142.3,86.4,152.3,84.1z"/>
<sodipodi:namedview  bordercolor="#666666" borderopacity="1" gridtolerance="10" guidetolerance="10" id="namedview6" inkscape:bbox-nodes="true" inkscape:bbox-paths="true" inkscape:current-layer="root" inkscape:cx="36.470994" inkscape:cy="157.20546" inkscape:object-paths="true" inkscape:pageopacity="0" inkscape:pageshadow="2" inkscape:snap-bbox="true" inkscape:snap-bbox-edge-midpoints="true" inkscape:snap-bbox-midpoints="true" inkscape:snap-intersection-paths="true" inkscape:snap-midpoints="true" inkscape:snap-page="true" inkscape:snap-smooth-nodes="true" inkscape:window-height="1017" inkscape:window-maximized="1" inkscape:window-width="1920" inkscape:window-x="-8" inkscape:window-y="-8" inkscape:zoom="1.3894997" objecttolerance="10" pagecolor="#ffffff" showgrid="false">
	</sodipodi:namedview>
<g>
	<polygon class="st1" points="114.8,76.9 68.6,58.4 45,89.2 79.9,143.6 	"/>
</g>
<g>
	<polygon class="st1" points="264.7,76.9 310.9,58.4 334.5,89.2 299.6,143.6 	"/>
</g>
<g>
	<path class="st2" d="M296.3,159.8l-35.9-68.3c-1.3-2.5-5.5-5.8-8.2-6.4l-0.7-0.2l-54-12.9c-3.7-0.9-10.5-0.9-14.3,0L128,84.9
		l-0.7,0.2c-2.7,0.6-6.9,3.9-8.2,6.4l-35.9,68.3l-5,9.4c-1.6,3-2.5,9-2,12.4l10,60c0.3,2,2.8,4.7,4.7,5.2l27.2,6.9
		c-0.7-2.7,5.5-5.5,5.5-8.1l13.8-30.2c0,0.5,0,1.1-0.1,1.6l-5.2,26.8c-0.6,2.9,0.6,8.2,2.3,10.6l2.9,4l13.5,19l19.8,28
		c1.5,2.1,5.7,4.3,8.3,4.3h21.7c2.6,0,6.8-2.2,8.3-4.3l19.6-27.7l13.5-19.1l3-4.2c1.7-2.4,2.8-7.7,2.3-10.6l-5.2-26.8
		c-0.1-0.5-0.1-1.1-0.1-1.6l13.8,30.2c0,2.7,6.1,5.5,5.5,8.2l27.2-7c2-0.5,4.4-3.2,4.8-5.2l10-60c0.6-3.4-0.4-9.4-2-12.4
		L296.3,159.8z"/>
</g>
<path d="M339.5,84.2c-1.4-4.3-5.9-11.9-10-17c-4-5.1-10.6-11.1-14.6-13.4c-4-2.3-22.3,2.7-31.5,6.9l-6.7,3.1
	c-9.2,4.2-16.9,7.8-17.1,7.8c-0.2,0.1-1.2,0-2.1-0.3c-0.8-0.4-11.1-2.9-21-5.2L218.8,62c-9.9-2.3-21.3-4.5-25.4-4.9
	c-4.1-0.4-21.4,2.5-31.3,4.8l-19,4.4c-9.9,2.3-18.7,4.3-19.5,4.6c-0.8,0.2-3.2,1.1-3.3,1c-0.2-0.1-8.1-3.7-17.4-8l-6.7-3.1
	c-9.3-4.2-20.7-8-25.4-8.3C66,52.1,54,62.1,50,67.2s-8.5,12.7-10,17c-1.4,4.3,6.4,21,12,29.5L63.6,131c5.7,8.4,8.8,18.2,6.9,21.6
	c-1.9,3.5-4.4,9.7-5.7,13.8c-1.3,4.1,0.2,22,1.9,32.1l3.6,21.4c1.7,10,4.9,21.6,7.1,25.7c2.2,4.1,19.6,11.3,29.5,13.8l4.4,1.1
	c0.7,0.2,1.4,0.4,2.2,0.7c-14.6,7.9-28.3,17.4-40.3,28.1c-1.8,1.6,0.4,4,2.3,2.8c14.3-9.6,28-19.7,43.2-27.9
	c0.3-0.2,0.6-0.3,0.9-0.5c3.6,1.8,7.2,4,10.5,6.5c-0.4,0.3-0.7,0.6-1.1,0.9c-11.3,9.6-22.2,20.8-30.5,33.1c-0.9,1.4,1,3.3,2.3,2.1
	c10.8-10.5,21-23.2,32.8-33.2c2.5,2.2,4.7,4.5,6.4,6.8l1.3,1.8c-2,2.1-4,4.3-5.9,6.5c-9.9,11.6-18.7,24.8-24.9,38.7
	c-0.7,1.6,1.7,2.8,2.7,1.4c9.9-13.9,18.7-30.3,30.7-43l4.1,5.6c5.9,8.2,13.7,17.3,17.2,20.1c3.5,2.8,18.4,5.1,24.3,5.1
	c5.9,0,14.2-1,18.6-2.2c4.3-1.2,17-14.8,22.9-23l4.1-5.7c12,12.8,20.9,29.2,30.8,43.1c1,1.5,3.3-0.1,2.6-1.7
	c-6.1-13.6-14.7-26.5-24.3-37.9c-2.1-2.5-4.2-4.9-6.5-7.2l1.2-1.6c1.7-2.3,4-4.7,6.6-7c11.8,10,21.9,22.5,32.6,33
	c1.4,1.4,3.5-0.4,2.4-2c-8.3-12.4-19.2-23.5-30.6-33.2c-0.3-0.2-0.6-0.5-0.9-0.7c3.3-2.5,6.9-4.8,10.5-6.5c0.5,0.3,1.1,0.5,1.6,0.8
	c14.9,8.1,28.5,18.1,42.6,27.6c2,1.3,3.8-1.4,2.1-3c-11.9-10.6-25.5-20.1-40-28c0.6-0.2,1.3-0.4,1.9-0.6l4.6-1.2
	c9.9-2.5,21.1-6.6,25-9.1s9.8-20.4,11.5-30.5l3.6-21.4c1.7-10,3-21.7,2.9-26s-4.8-16.3-6.7-19.8c-1.9-3.5,1.3-13.2,7-21.6l11.6-17.3
	C333.1,105.2,340.9,88.4,339.5,84.2z M63,103.7c-5.1-7.5-9.4-14.2-9.7-14.9c0,0,0,0,0-0.8c0-1,0-1,0-1c0.4-0.9,4-5.8,8.1-10.9
	c4-5.1,8-9.6,8.8-9.9C71,65.9,80.8,69.8,90,74l1.4,0.7c9.2,4.2,16.7,7.9,16.5,8.2c-0.2,0.3-4.5,8.3-9.3,17.3l-8.1,15.2
	C85.8,124.3,68.1,111.2,63,103.7z M205.8,299.3c-1.5,1.1-10.2,2.1-16,2.1c-5.9,0-12.2-0.5-14-1.1c-0.8-0.2-2.6-2-4.8-4.5l12.3-11.2
	c3.6-3.3,6.6-6,6.6-6s3,2.7,6.6,6L209,296C207.4,297.7,206.3,298.9,205.8,299.3z M298.2,195.9l-3.6,21.4c-1.7,10-3.7,19.3-4.5,20.5
	c-0.7,1.3-9.3,4.3-16.6,6.1c-7.4,1.8-13.1,2.1-12.8,0.7c0.3-1.5-4-11.8-9.5-19.8s-10-14.3-10-14s1.3,6.8,2.7,14
	c1.4,7.1,2.4,14.7,2.3,16.9c-0.2,2.2-2.6,7.2-3.4,8.3l0,0c-9.4-3.8-18.9-6.9-28.5-9.2c-2.6-0.6-4.1,3.2-1.5,4
	c9.2,2.7,18.1,5.8,26.9,9.4c-1.3,1.7-2.8,3.8-4.3,6c-6.9-4-14.4-7-22.5-7.6c-2.3-0.2-2.5,3.1-0.3,3.4c7.4,1.3,14.1,4,20.3,7.6
	c-1.7,2.3-3.8,5.2-6,8.3c-4.9-3.4-10.2-6.2-16-7.7c-2.1-0.5-3.3,2.5-1.2,3.2c5.4,1.9,10.3,4.6,14.7,7.9c-2.1,2.9-4.2,5.9-6.1,8.5
	c-1.2,1.6-2.3,3.2-3.5,4.7c-0.2-0.2-0.4-0.3-0.6-0.5l-13.5-9.2c-4-2.8-7.3-5.1-7.3-5.2s0-4.4,0-9.3v-13.7c0.1-0.2,0.2-0.3,0.3-0.5
	l21.9-24.9c2.2-4.4,0-8-4.9-8h-41.8c-4.9,0-7.1,3.6-4.9,8l21.9,24.9c0.1,0.2,0.2,0.3,0.3,0.5v13.7c0,4.9,0,9,0,9.1s-3.3,2.7-7.3,5.4
	l-13.5,9.2c-0.2,0.1-0.4,0.3-0.6,0.4c-1.2-1.6-2.5-3.2-3.6-4.8c-1.8-2.6-3.9-5.4-6-8.3c4.5-3.3,9.4-6,14.9-7.9
	c1.8-0.7,0.8-3.8-1-3.3c-6,1.5-11.4,4.3-16.3,7.8c-2.2-3-4.3-5.9-6-8.3c6.2-3.6,13-6.4,20.5-7.7c2.2-0.4,1.6-3.6-0.6-3.4
	c-8.1,0.6-15.5,3.5-22.4,7.6c-1.5-2.1-3-4.2-4.3-5.9c8.7-3.5,17.5-6.6,26.5-9.3c2.5-0.8,2-4.8-0.7-4.2c-9.7,2.3-19.3,5.5-28.8,9.3
	l-0.1-0.1c-0.8-1.1-2-3.6-2.8-5.7c-0.8-2,0.3-12.4,1.7-19.5s2.6-13.2,2.6-13.5s-4.4,5.5-9.9,13.5s-9.9,15.7-9.8,17.2
	c0.1,1.4-5.2,3.7-12.5,1.9s-14.3-4-15.5-4.8s-3.9-11.7-5.6-21.7l-3.6-21.4c-1.7-10-3-20.3-2.9-22.7c0.1-2.5,2.8-9.5,4.2-12
	c1.3-2.5,6.4-11.9,11.2-20.9l17.8-33.3c4.8-9,9.9-17.5,11.4-19.1c1.5-1.5,5.5-3.4,5.7-3.5c0.2,0,8.4-1.9,18.4-4.2l18.3-4.2
	c9.9-2.3,20.3-4.3,23.2-4.6c2.8-0.2,16.9,2.3,26.8,4.7l17.1,4c9.9,2.3,18.2,4.2,18.3,4.3c0.2,0,1.9,0.9,3.7,1.9
	c1.9,1,8.6,11.6,13.4,20.6l17.8,33.3c4.8,9,9.8,18.4,11.2,20.9c1.3,2.5,4.1,9.5,4.2,12C301.2,175.6,299.9,185.9,298.2,195.9z
	 M326.1,88.1c0,0.8,0,0.8,0,0.8c-0.3,0.7-4.6,7.4-9.7,14.9s-22.7,20.5-27.5,11.6l-8.1-15.2c-4.8-9-8.8-16.5-9-16.8
	c-0.2-0.3,7-4.4,16.2-8.6l1.4-0.7c9.2-4.2,17.7-7.7,18.7-7.7c1.1,0,5.8,4.9,9.9,10c4,5.1,7.7,10,8.1,10.9
	C326.1,87.1,326.1,87.1,326.1,88.1z"/>
<path d="M169.2,158c-1.8,0.1-7.6,0.2-12.9,0.4l-44.4,1.2c-5.3,0.2-5.3,0.9-0.1,1.6l27.3,3.9c-0.1,0.3-0.1,0.7-0.1,1.1
	c0,3.3,2.7,6.1,6,6.1c3.1,0,5.7-2.4,6-5.4l4.4,0.6c5.2,0.7,9.1,5.6,8.6,10.9l-5.6,19.5c-0.5,5.2,1.2,9.6,3.6,9.8
	c2.5,0.2,4.5,0.2,4.6-0.1c0-0.2,0.2-4.7,0.4-9.9l4.6-18.3c0.2-5.2,0.5-12.2,0.7-15.5C172.5,160.5,171.1,157.9,169.2,158z"/>
<path d="M267.6,159.6l-44.4-1.2c-5.3-0.1-11.1-0.3-12.9-0.4c-1.8-0.1-3.2,2.6-3.1,5.9c0.1,3.3,0.4,10.3,0.7,15.5l4.6,18.3
	c0.2,5.2,0.4,9.7,0.4,9.9s2.1,0.2,4.5,0.1c2.5-0.2,4.1-4.6,3.6-9.8l-5.6-19.5c-0.5-5.2,3.4-10.1,8.6-10.9l4.4-0.6
	c0.3,3,2.9,5.4,6,5.4c3.3,0,6.1-2.7,6.1-6.1c0-0.4,0-0.7-0.1-1.1l27.3-3.9C272.9,160.4,272.8,159.7,267.6,159.6z"/>
<ellipse cx="132.5" cy="100.5" rx="9.8" ry="12.2"/>
<path d="M120.9,132.1c4.5,0,8.1-3.6,8.1-8.1c0-4.5-3.6-8.1-8.1-8.1s-8.2,3.6-8.2,8.1C112.8,128.5,116.4,132.1,120.9,132.1z"/>
<path d="M158.6,105.3c2.6,0.8,6-2.7,7.6-7.8c1.6-5.1,0.9-10-1.7-10.8c-2.6-0.8-6,2.7-7.6,7.8C155.2,99.6,156,104.5,158.6,105.3z"/>
<ellipse cx="148.2" cy="126.5" rx="5.7" ry="4.9"/>
<path d="M285.1,216.2c-4-2-8.9-0.4-10.9,3.7c-2,4-0.4,8.9,3.7,10.9c4,2,8.9,0.4,10.9-3.7C290.7,223.1,289.1,218.2,285.1,216.2z"/>
<path d="M279.3,209.4c2.7,0.4,5.5-3.6,6.4-8.9c0.8-5.3-0.7-10-3.3-10.4c-2.7-0.4-5.5,3.6-6.3,8.9C275.2,204.4,276.7,209,279.3,209.4
	z"/>
<path d="M268.3,209.6c-2.8-1.4-6.1-0.6-7.3,1.8c-1.2,2.4,0.1,5.5,2.9,6.9s6.1,0.6,7.3-1.8C272.5,214.1,271.1,211,268.3,209.6z"/>
</svg>
