<?xml version="1.0" encoding="UTF-8" standalone="no"?>
<svg
   xmlns:ns2="http://ns.adobe.com/AdobeIllustrator/10.0/"
   xmlns:dc="http://purl.org/dc/elements/1.1/"
   xmlns:cc="http://creativecommons.org/ns#"
   xmlns:rdf="http://www.w3.org/1999/02/22-rdf-syntax-ns#"
   xmlns:svg="http://www.w3.org/2000/svg"
   xmlns="http://www.w3.org/2000/svg"
   xmlns:sodipodi="http://sodipodi.sourceforge.net/DTD/sodipodi-0.dtd"
   xmlns:inkscape="http://www.inkscape.org/namespaces/inkscape"
   version="1.1"
   id="svg3061"
   height="128"
   width="128"
   sodipodi:docname="pardus-head.svg"
   inkscape:version="0.92.1 r15371">
  <sodipodi:namedview
     pagecolor="#ffffff"
     bordercolor="#666666"
     borderopacity="1"
     objecttolerance="10"
     gridtolerance="10"
     guidetolerance="10"
     inkscape:pageopacity="0"
     inkscape:pageshadow="2"
     inkscape:window-width="1920"
     inkscape:window-height="1171"
     id="namedview55"
     showgrid="false"
     inkscape:zoom="1.84375"
     inkscape:cx="64"
     inkscape:cy="64"
     inkscape:window-x="0"
     inkscape:window-y="0"
     inkscape:window-maximized="1"
     inkscape:current-layer="svg3061" />
  <defs
     id="defs3063" />
  <metadata
     id="metadata3066">
    <rdf:RDF>
      <cc:Work
         rdf:about="">
        <dc:format>image/svg+xml</dc:format>
        <dc:type
           rdf:resource="http://purl.org/dc/dcmitype/StillImage" />
        <dc:title />
      </cc:Work>
    </rdf:RDF>
  </metadata>
  <g
     id="g4723">
    <rect
       y="-2.6645353e-15"
       x="0"
       height="128"
       width="128"
       id="rect3861"
       style="opacity:0;fill:#ffffff;fill-opacity:1;stroke:none;stroke-width:2" />
    <path
       style="fill:#ffffff;stroke-width:2"
       ns2:knockout="Off"
       d="m 126.92758,20.978782 c -0.59533,-1.775205 -2.46765,-4.961309 -4.14829,-7.081782 -1.68444,-2.123014 -4.42627,-4.6357196 -6.09167,-5.583935 -1.66667,-0.9520232 -9.28604,1.1303692 -13.13983,2.892881 l -2.81292,1.283963 c -3.853788,1.763781 -7.060828,3.232435 -7.125558,3.2629 -0.06288,0.033 -0.516,0 -0.867616,-0.145346 -0.352884,-0.151692 -4.640808,-1.207165 -8.769404,-2.172517 L 76.580774,11.707977 C 72.450908,10.742625 67.691428,9.8229708 66.00062,9.663665 c -1.692058,-0.1605768 -8.90775,1.04786 -13.036366,1.99544 l -7.912572,1.818366 c -4.131148,0.946944 -7.798342,1.808844 -8.144878,1.9142 -0.350344,0.102827 -1.325216,0.45824 -1.391224,0.422698 -0.06536,-0.03744 -3.396184,-1.561317 -7.248702,-3.325098 l -2.80974,-1.283964 C 21.600176,9.4427958 16.843868,7.8840168 14.88397,7.7399438 12.924069,7.5958668 7.9075422,11.773348 6.2249998,13.896361 4.5380152,16.0162 2.6707786,19.205477 2.0722748,20.980048 1.4737691,22.755254 4.720169,29.748816 7.0926094,33.26178 l 4.8489736,7.192218 c 2.368632,3.512966 3.67481,7.574298 2.896688,9.022008 -0.776215,1.453422 -1.837404,4.034676 -2.360383,5.738796 -0.523613,1.707294 0.08123,9.191468 0.787641,13.370848 l 1.514987,8.920458 c 0.707671,4.178748 2.037329,8.995984 2.953809,10.705184 0.919021,1.710468 8.188035,4.729654 12.303951,5.748952 l 1.84121,0.456338 c 4.111472,1.019934 9.506904,4.668088 11.98534,8.105528 l 3.32383,4.5989 c 2.477156,3.43871 5.710868,7.21253 7.184598,8.38796 1.46802,1.1748 7.680288,2.13634 10.12825,2.13634 2.452424,0 5.936828,-0.41381 7.751384,-0.91902 1.812654,-0.50457 7.08304,-6.16593 9.560212,-9.60528 l 3.26925,-4.52718 c 2.479692,-3.434268 7.869424,-7.09194 11.982154,-8.12457 l 1.91675,-0.481722 c 4.110196,-1.03263 8.810656,-2.732946 10.442426,-3.778266 1.63304,-1.04659 4.09179,-8.52505 4.80136,-12.703798 l 1.51183,-8.918554 c 0.70575,-4.181286 1.2465,-9.057548 1.20081,-10.84418 -0.045,-1.782186 -1.99608,-6.813948 -2.77356,-8.267368 -0.77558,-1.448344 0.52933,-5.509042 2.89733,-9.022008 l 4.84896,-7.192218 c 2.3699,-3.511696 5.61631,-10.505258 5.01717,-12.282368 z M 11.676284,29.144602 C 9.5672364,26.020698 7.7545844,23.23 7.6441498,22.948836 c 0,0 0,0 0,-0.323688 0,-0.405562 0,-0.405562 0,-0.405562 0.161846,-0.370018 1.674925,-2.40608 3.3581022,-4.527823 1.686984,-2.119838 3.334621,-3.9839 3.664021,-4.144475 0.328131,-0.158674 4.397712,1.449616 8.252137,3.208319 l 0.602314,0.276722 c 3.854424,1.761877 6.951672,3.292731 6.883762,3.402531 -0.06918,0.1098 -1.871044,3.455844 -3.870292,7.194756 l -3.389838,6.333492 C 21.145108,37.701386 13.784698,32.27168 11.676284,29.144602 Z m 99.245236,28.94341 c 0.0463,1.033262 -0.49694,5.299596 -1.20334,9.480248 l -1.515,8.921092 c -0.70641,4.176842 -1.541,8.026826 -1.85835,8.550436 -0.30973,0.52298 -3.87981,1.782824 -6.941518,2.552694 -3.06552,0.769868 -5.469692,0.89617 -5.35227,0.285606 0.1175,-0.615006 -1.658422,-4.91815 -3.948364,-8.253406 -2.293732,-3.332716 -4.167308,-5.964744 -4.164136,-5.848596 0.0038,0.11552 0.5255,2.85353 1.111962,5.820034 0.584538,2.970314 1.010404,6.14055 0.947578,7.046242 -0.0648,0.906326 -1.098636,3.004584 -1.435654,3.47552 -0.340192,0.4703 -1.864692,2.583792 -3.392386,4.696014 -1.528306,2.113494 -4.581768,6.351894 -6.794904,9.416144 -2.20996,3.06298 -4.54496,5.96538 -5.189788,6.44266 -0.644212,0.47665 -4.233326,0.87015 -6.68575,0.87015 -2.447326,0 -5.078076,-0.19866 -5.8435,-0.44174 -0.761634,-0.24181 -3.839826,-3.83094 -6.072018,-6.92502 -2.233444,-3.09471 -5.304674,-7.35025 -6.822826,-9.45676 -1.521334,-2.10651 -3.02553,-4.193984 -3.352392,-4.642068 -0.31988,-0.447452 -0.847934,-1.50991 -1.169084,-2.358478 -0.319246,-0.850476 0.12884,-5.15235 0.711478,-8.122664 0.585176,-2.966504 1.075786,-5.49 1.092288,-5.609954 0.0172,-0.1187 -1.84756,2.305166 -4.140666,5.63915 -2.293742,3.33589 -4.133686,6.553094 -4.09243,7.151598 0.03934,0.59914 -2.158554,1.544818 -5.217722,0.785102 -3.058534,-0.758444 -5.969186,-1.668578 -6.465508,-2.018288 -0.495688,-0.34971 -1.621612,-4.876898 -2.331188,-9.053742 l -1.511178,-8.921092 c -0.708304,-4.180652 -1.249688,-8.446986 -1.203992,-9.480248 0.04633,-1.037706 1.184952,-3.948992 1.746011,-4.991774 0.557251,-1.044688 2.653605,-4.958772 4.653491,-8.695782 l 7.4353,-13.892558 c 1.998616,-3.735102 4.137494,-7.310266 4.7525,-7.946854 0.615642,-0.63468 2.303262,-1.424858 2.380692,-1.44263 0.07996,-0.0176 3.520582,-0.809222 7.652364,-1.755531 l 7.631418,-1.753627 c 4.127962,-0.94885 8.479982,-1.801863 9.666846,-1.897065 1.187482,-0.09456 7.062098,0.975505 11.191348,1.939588 l 7.117326,1.662233 c 4.127962,0.965352 7.567308,1.770128 7.641558,1.78917 0.07558,0.016 0.772422,0.382712 1.547366,0.812392 0.77621,0.430314 3.591038,4.855954 5.590922,8.59169 l 7.435926,13.892558 c 1.99798,3.736376 4.09561,7.65046 4.6535,8.69578 0.55979,1.042784 1.70094,3.95407 1.74409,4.991776 z M 121.3595,22.948836 c -0.11038,0.281164 -1.92751,3.071862 -4.0334,6.195766 -2.10586,3.127078 -9.46629,8.556784 -11.46425,4.818506 l -3.39238,-6.333492 c -2.00243,-3.738912 -3.688138,-6.8863 -3.749716,-6.9961 -0.06538,-0.10918 2.910016,-1.83931 6.764446,-3.601187 l 0.59979,-0.276722 c 3.85251,-1.758703 7.36548,-3.208319 7.80403,-3.221646 0.43858,-0.0094 2.42704,2.037964 4.11212,4.157802 1.68063,2.121743 3.19625,4.157805 3.35936,4.527823 0,0 0,0 0,0.405562 0,0.323688 0,0.323688 0,0.323688 z"
       id="path5090"
       inkscape:connector-curvature="0" />
    <path
       style="fill:#ffffff;stroke-width:2"
       ns2:knockout="Off"
       d="m 53.730332,79.828414 c -0.9095,-1.821536 0.0096,-3.316214 2.050652,-3.316214 h 17.43979 c 2.037326,0 2.959518,1.494678 2.051288,3.316214 L 66.158024,90.1896 c -0.91204,1.82281 -2.399096,1.82281 -3.313674,0 z"
       id="path5092"
       inkscape:connector-curvature="0" />
    <path
       style="fill:#ffffff;stroke-width:2"
       ns2:knockout="Off"
       d="m 64.50087,102.04864 c 0.0019,0 1.231288,1.12656 2.737384,2.50255 l 5.922232,5.41257 c 1.508634,1.37282 3.154364,1.51054 3.658306,0.3002 0.504558,-1.2097 -0.457614,-3.13659 -2.142692,-4.286 l -5.609326,-3.82587 c -1.684442,-1.14941 -3.05852,-2.12682 -3.052174,-2.172514 0.0058,-0.04316 0.0134,-1.83804 0.0134,-3.877276 V 85.654796 c 0,-2.039234 -0.307192,-4.395172 -0.683558,-5.234222 0,0 0,0 -0.842866,0 -0.841576,0 -0.841576,0 -0.841576,0 -0.376366,0.83905 -0.683558,3.194354 -0.683558,5.234222 V 96.1023 c 0,2.039236 0.0038,3.74653 0.0058,3.794766 0.0038,0.04442 -1.359482,1.105614 -3.045212,2.255024 l -5.609308,3.82587 c -1.683808,1.14941 -2.650442,3.0763 -2.143326,4.286 0.50775,1.21098 2.149672,1.07262 3.657672,-0.3002 l 5.923482,-5.41257 c 1.506114,-1.37599 2.736114,-2.50255 2.736114,-2.50255 z"
       id="path5094"
       inkscape:connector-curvature="0" />
    <g
       style="fill:#ffffff"
       id="g5096"
       transform="matrix(0.63468216,0,0,0.63468216,-124.63377,-102.92069)">
      <path
         style="fill:#ffffff"
         ns2:knockout="Off"
         d="m 246.885,244.751 c -3.453,0.1 -3.48,0.578 -0.063,1.067 l 28.657,4.092 c 3.413,0.489 5.948,3.696 5.627,7.127 l -3.658,12.79 c -0.309,3.431 0.762,6.337 2.396,6.457 1.634,0.12 2.98,0.104 2.99,-0.036 0.005,-0.137 0.14,-3.068 0.284,-6.513 l 2.993,-12.004 c 0.15,-3.446 0.345,-8.027 0.438,-10.181 0.099,-2.154 -0.813,-3.892 -2.019,-3.856 -1.206,0.035 -5.015,0.139 -8.463,0.237 z"
         id="path5098"
         inkscape:connector-curvature="0" />
      <path
         style="fill:#ffffff"
         ns2:knockout="Off"
         d="m 319.935,243.932 c -3.449,-0.098 -7.259,-0.202 -8.458,-0.237 -1.212,-0.036 -2.124,1.702 -2.032,3.856 0.093,2.154 0.294,6.735 0.442,10.181 l 2.99,12.004 c 0.15,3.444 0.279,6.375 0.295,6.513 0.006,0.14 1.35,0.155 2.983,0.036 1.635,-0.119 2.71,-3.025 2.39,-6.457 l -3.652,-12.79 c -0.317,-3.431 2.216,-6.638 5.627,-7.127 l 28.657,-4.092 c 3.411,-0.489 3.391,-0.967 -0.062,-1.067 z"
         id="path5100"
         inkscape:connector-curvature="0" />
    </g>
    <g
       style="fill:#ffffff"
       id="g5102"
       transform="matrix(0.63468216,0,0,0.63468216,-124.63377,-102.92069)">
      <circle
         style="fill:#ffffff"
         ns2:knockout="Off"
         cx="268.66599"
         cy="249.082"
         r="3.974"
         id="circle5104" />
      <path
         style="fill:#ffffff"
         ns2:knockout="Off"
         d="m 331.314,249.082 c 0,2.199 -1.786,3.978 -3.979,3.978 -2.202,0 -3.98,-1.779 -3.98,-3.978 0,-2.195 1.778,-3.974 3.98,-3.974 2.193,-0.001 3.979,1.779 3.979,3.974 z"
         id="path5106"
         inkscape:connector-curvature="0" />
    </g>
    <g
       style="fill:#ffffff"
       id="g5108"
       transform="matrix(0.63468216,0,0,0.63468216,-124.63377,-102.92069)">
      <g
         style="fill:#ffffff"
         id="g5111">
        <g
           style="fill:#ffffff"
           ns2:knockout="Off"
           id="g5113">
          <g
             style="fill:#ffffff"
             id="g5115">
            <path
               style="fill:#ffffff"
               ns2:knockout="Off"
               d="m 282.442,299.431 c -22.72,6.003 -41.634,16.871 -60.114,31.306"
               id="path5117"
               inkscape:connector-curvature="0" />
            <path
               style="fill:#ffffff"
               ns2:knockout="Off"
               d="m 282.2,298.054 c -21.88,5.292 -43.854,16.737 -60.637,31.78 -1.164,1.042 0.289,2.639 1.532,1.807 9.16,-6.125 17.966,-12.6 27.651,-17.915 10.139,-5.564 20.881,-9.605 31.939,-12.917 1.686,-0.505 1.297,-3.186 -0.485,-2.755 z"
               id="path5119"
               inkscape:connector-curvature="0" />
          </g>
        </g>
        <g
           style="fill:#ffffff"
           ns2:knockout="Off"
           id="g5121">
          <g
             style="fill:#ffffff"
             id="g5123">
            <path
               style="fill:#ffffff"
               ns2:knockout="Off"
               d="m 282.968,306.988 c -16.705,1.636 -33.563,20.751 -43.912,33.257"
               id="path5125"
               inkscape:connector-curvature="0" />
            <path
               style="fill:#ffffff"
               ns2:knockout="Off"
               d="m 282.77,305.868 c -9.444,0.723 -17.431,6.122 -24.537,12.016 -7.479,6.204 -14.603,13.695 -20.01,21.778 -0.624,0.933 0.641,2.192 1.491,1.359 12.808,-12.552 24.483,-29.631 43.451,-32.913 1.472,-0.254 1.04,-2.351 -0.395,-2.24 z"
               id="path5127"
               inkscape:connector-curvature="0" />
          </g>
        </g>
        <g
           style="fill:#ffffff"
           ns2:knockout="Off"
           id="g5129">
          <g
             style="fill:#ffffff"
             id="g5131">
            <path
               style="fill:#ffffff"
               ns2:knockout="Off"
               d="m 284.562,314.588 c -16.175,4.496 -29.483,26.229 -37.521,40.328"
               id="path5133"
               inkscape:connector-curvature="0" />
            <path
               style="fill:#ffffff"
               ns2:knockout="Off"
               d="m 284.364,313.467 c -8.867,2.251 -15.541,8.416 -21.442,15.134 -6.738,7.671 -12.65,16.651 -16.835,25.961 -0.484,1.078 1.134,1.858 1.787,0.937 10.368,-14.624 19.083,-33.416 37.176,-39.883 1.208,-0.432 0.551,-2.463 -0.686,-2.149 z"
               id="path5135"
               inkscape:connector-curvature="0" />
          </g>
        </g>
      </g>
      <g
         style="fill:#ffffff"
         id="g5137">
        <g
           style="fill:#ffffff"
           ns2:knockout="Off"
           id="g5139">
          <g
             style="fill:#ffffff"
             id="g5141">
            <path
               style="fill:#ffffff"
               ns2:knockout="Off"
               d="m 313.56,299.431 c 22.718,6.003 41.628,16.871 60.104,31.306"
               id="path5143"
               inkscape:connector-curvature="0" />
            <path
               style="fill:#ffffff"
               ns2:knockout="Off"
               d="m 313.074,300.743 c 11.08,3.32 21.741,7.38 31.951,12.85 9.841,5.271 18.705,11.93 27.959,18.114 1.305,0.872 2.469,-0.947 1.359,-1.94 -16.666,-14.924 -38.57,-26.389 -60.299,-31.647 -1.712,-0.415 -2.727,2.097 -0.97,2.623 z"
               id="path5145"
               inkscape:connector-curvature="0" />
          </g>
        </g>
        <g
           style="fill:#ffffff"
           ns2:knockout="Off"
           id="g5147">
          <g
             style="fill:#ffffff"
             id="g5149">
            <path
               style="fill:#ffffff"
               ns2:knockout="Off"
               d="m 313.03,306.988 c 16.707,1.636 33.564,20.751 43.913,33.257"
               id="path5151"
               inkscape:connector-curvature="0" />
            <path
               style="fill:#ffffff"
               ns2:knockout="Off"
               d="m 312.923,308.121 c 18.863,3.261 30.51,20.297 43.245,32.782 0.946,0.928 2.279,-0.229 1.551,-1.316 -5.477,-8.176 -12.608,-15.396 -20.064,-21.789 -6.961,-5.969 -15.178,-11.229 -24.517,-11.942 -1.482,-0.114 -1.644,2.018 -0.215,2.265 z"
               id="path5153"
               inkscape:connector-curvature="0" />
          </g>
        </g>
        <g
           style="fill:#ffffff"
           ns2:knockout="Off"
           id="g5155">
          <g
             style="fill:#ffffff"
             id="g5157">
            <path
               style="fill:#ffffff"
               ns2:knockout="Off"
               d="m 311.435,314.588 c 16.172,4.496 29.49,26.229 37.524,40.328"
               id="path5159"
               inkscape:connector-curvature="0" />
            <path
               style="fill:#ffffff"
               ns2:knockout="Off"
               d="m 311.04,315.655 c 18.046,6.457 26.813,25.33 37.144,39.919 0.686,0.968 2.152,-0.075 1.694,-1.095 -4.017,-8.945 -9.716,-17.315 -15.94,-24.875 -5.824,-7.073 -13.024,-13.776 -22.108,-16.083 -1.392,-0.354 -2.199,1.63 -0.79,2.134 z"
               id="path5161"
               inkscape:connector-curvature="0" />
          </g>
        </g>
      </g>
    </g>
    <g
       style="fill:#ffffff"
       id="g5163"
       transform="matrix(0.63468216,0,0,0.63468216,-124.63377,-102.92069)">
      <g
         style="fill:#ffffff"
         id="g5165">
        <ellipse
           style="fill:#ffffff"
           ns2:knockout="Off"
           cx="260.37"
           cy="205.96201"
           rx="6.4250002"
           ry="8.0299997"
           id="ellipse5167" />
        <path
           style="fill:#ffffff"
           ns2:knockout="Off"
           d="m 258.13,221.388 c 0,2.959 -2.396,5.353 -5.349,5.353 -2.959,0 -5.355,-2.394 -5.355,-5.353 0,-2.956 2.396,-5.353 5.355,-5.353 2.953,0.001 5.349,2.397 5.349,5.353 z"
           id="path5169"
           inkscape:connector-curvature="0" />
        <path
           style="fill:#ffffff"
           ns2:knockout="Off"
           d="m 282.519,203.942 c -1.077,3.381 -3.318,5.69 -5.011,5.152 -1.688,-0.539 -2.19,-3.713 -1.111,-7.096 1.072,-3.382 3.314,-5.688 5.003,-5.148 1.691,0.537 2.191,3.716 1.119,7.092 z"
           id="path5171"
           inkscape:connector-curvature="0" />
        <path
           style="fill:#ffffff"
           ns2:knockout="Off"
           d="m 274.432,223.038 c 0,1.778 -1.674,3.214 -3.748,3.214 -2.069,0 -3.746,-1.436 -3.746,-3.214 0,-1.774 1.676,-3.211 3.746,-3.211 2.074,0 3.748,1.437 3.748,3.211 z"
           id="path5173"
           inkscape:connector-curvature="0" />
      </g>
      <g
         style="fill:#ffffff"
         id="g5175">
        <path
           style="fill:#ffffff"
           ns2:knockout="Off"
           d="m 353.42,284.343 c -1.319,2.646 -0.248,5.858 2.4,7.178 2.646,1.321 5.86,0.247 7.179,-2.398 1.32,-2.649 0.242,-5.866 -2.401,-7.179 -2.643,-1.325 -5.859,-0.248 -7.178,2.399 z"
           id="path5177"
           inkscape:connector-curvature="0" />
        <path
           style="fill:#ffffff"
           ns2:knockout="Off"
           d="m 354.672,270.667 c -0.546,3.506 0.429,6.572 2.179,6.845 1.759,0.272 3.618,-2.346 4.172,-5.85 0.546,-3.506 -0.429,-6.571 -2.188,-6.842 -1.748,-0.276 -3.616,2.342 -4.163,5.847 z"
           id="path5179"
           inkscape:connector-curvature="0" />
        <path
           style="fill:#ffffff"
           ns2:knockout="Off"
           d="m 344.822,278.809 c -0.794,1.588 0.067,3.625 1.917,4.547 1.854,0.925 4,0.387 4.787,-1.2 0.796,-1.588 -0.066,-3.624 -1.916,-4.546 -1.851,-0.926 -3.999,-0.387 -4.788,1.199 z"
           id="path5181"
           inkscape:connector-curvature="0" />
      </g>
    </g>
  </g>
</svg>
